G04 EAGLE Gerber X2 export*
%TF.Part,Single*%
%TF.FileFunction,Soldermask,Top,1*%
%TF.FilePolarity,Negative*%
%TF.GenerationSoftware,Autodesk,EAGLE,9.4.0*%
%TF.CreationDate,2019-05-09T18:23:13Z*%
G75*
%MOMM*%
%FSLAX34Y34*%
%LPD*%
%INSoldermask Top*%
%AMOC8*
5,1,8,0,0,1.08239X$1,22.5*%
G01*
%ADD10R,1.201600X1.101600*%
%ADD11R,1.101600X1.301600*%
%ADD12R,2.101600X1.101600*%
%ADD13R,3.301600X0.451600*%
%ADD14R,1.101600X1.201600*%
%ADD15C,1.101600*%


D10*
X103260Y15240D03*
X120260Y15240D03*
X120260Y29210D03*
X103260Y29210D03*
X120260Y46990D03*
X103260Y46990D03*
X171060Y93980D03*
X154060Y93980D03*
X120260Y91440D03*
X103260Y91440D03*
X171060Y57150D03*
X154060Y57150D03*
X120260Y106680D03*
X103260Y106680D03*
X120260Y60960D03*
X103260Y60960D03*
D11*
X174060Y40640D03*
X151060Y40640D03*
D12*
X280660Y73660D03*
X280660Y22860D03*
X247660Y99060D03*
X247660Y48260D03*
X247660Y22860D03*
X280660Y48260D03*
X247660Y73660D03*
X280660Y99060D03*
D13*
X43160Y7960D03*
X43160Y14160D03*
X43160Y20360D03*
X43160Y26560D03*
X43160Y32760D03*
X43160Y38960D03*
X43160Y45160D03*
X43160Y51360D03*
X43160Y57560D03*
X43160Y63760D03*
X43160Y69960D03*
X43160Y76160D03*
X43160Y82360D03*
X43160Y88560D03*
D14*
X120260Y76200D03*
X103260Y76200D03*
X209160Y73660D03*
X192160Y73660D03*
X209160Y99060D03*
X192160Y99060D03*
X154060Y24130D03*
X171060Y24130D03*
D15*
X16510Y101600D03*
X214630Y12700D03*
M02*
