G04 EAGLE Gerber X2 export*
%TF.Part,Single*%
%TF.FileFunction,Legend,Bot,1*%
%TF.FilePolarity,Positive*%
%TF.GenerationSoftware,Autodesk,EAGLE,9.4.0*%
%TF.CreationDate,2019-05-09T18:23:13Z*%
G75*
%MOMM*%
%FSLAX34Y34*%
%LPD*%
%INSilkscreen Bottom*%
%AMOC8*
5,1,8,0,0,1.08239X$1,22.5*%
G01*
%ADD10C,0.127000*%
%ADD11C,0.203200*%


D10*
X301625Y24892D02*
X301625Y27940D01*
X301623Y28025D01*
X301617Y28111D01*
X301608Y28196D01*
X301594Y28280D01*
X301577Y28364D01*
X301556Y28447D01*
X301532Y28529D01*
X301504Y28609D01*
X301472Y28689D01*
X301436Y28767D01*
X301398Y28843D01*
X301355Y28917D01*
X301310Y28989D01*
X301261Y29060D01*
X301209Y29128D01*
X301155Y29193D01*
X301097Y29256D01*
X301036Y29317D01*
X300973Y29375D01*
X300908Y29429D01*
X300840Y29481D01*
X300769Y29530D01*
X300697Y29575D01*
X300623Y29618D01*
X300547Y29656D01*
X300469Y29692D01*
X300389Y29724D01*
X300309Y29752D01*
X300227Y29776D01*
X300144Y29797D01*
X300060Y29814D01*
X299976Y29828D01*
X299891Y29837D01*
X299805Y29843D01*
X299720Y29845D01*
X299635Y29843D01*
X299549Y29837D01*
X299464Y29828D01*
X299380Y29814D01*
X299296Y29797D01*
X299213Y29776D01*
X299131Y29752D01*
X299051Y29724D01*
X298971Y29692D01*
X298893Y29656D01*
X298817Y29618D01*
X298743Y29575D01*
X298671Y29530D01*
X298600Y29481D01*
X298532Y29429D01*
X298467Y29375D01*
X298404Y29317D01*
X298343Y29256D01*
X298285Y29193D01*
X298231Y29128D01*
X298179Y29060D01*
X298130Y28989D01*
X298085Y28917D01*
X298042Y28843D01*
X298004Y28767D01*
X297968Y28689D01*
X297936Y28609D01*
X297908Y28529D01*
X297884Y28447D01*
X297863Y28364D01*
X297846Y28280D01*
X297832Y28196D01*
X297823Y28111D01*
X297817Y28025D01*
X297815Y27940D01*
X297815Y24892D01*
X297817Y24807D01*
X297823Y24721D01*
X297832Y24636D01*
X297846Y24552D01*
X297863Y24468D01*
X297884Y24385D01*
X297908Y24303D01*
X297936Y24223D01*
X297968Y24143D01*
X298004Y24065D01*
X298042Y23989D01*
X298085Y23915D01*
X298130Y23843D01*
X298179Y23772D01*
X298231Y23704D01*
X298285Y23639D01*
X298343Y23576D01*
X298404Y23515D01*
X298467Y23457D01*
X298532Y23403D01*
X298600Y23351D01*
X298671Y23302D01*
X298743Y23257D01*
X298817Y23214D01*
X298893Y23176D01*
X298971Y23140D01*
X299051Y23108D01*
X299131Y23080D01*
X299213Y23056D01*
X299296Y23035D01*
X299380Y23018D01*
X299464Y23004D01*
X299549Y22995D01*
X299635Y22989D01*
X299720Y22987D01*
X299805Y22989D01*
X299891Y22995D01*
X299976Y23004D01*
X300060Y23018D01*
X300144Y23035D01*
X300227Y23056D01*
X300309Y23080D01*
X300389Y23108D01*
X300469Y23140D01*
X300547Y23176D01*
X300623Y23214D01*
X300697Y23257D01*
X300769Y23302D01*
X300840Y23351D01*
X300908Y23403D01*
X300973Y23457D01*
X301036Y23515D01*
X301097Y23576D01*
X301155Y23639D01*
X301209Y23704D01*
X301261Y23772D01*
X301310Y23843D01*
X301355Y23915D01*
X301398Y23989D01*
X301436Y24065D01*
X301472Y24143D01*
X301504Y24223D01*
X301532Y24303D01*
X301556Y24385D01*
X301577Y24468D01*
X301594Y24552D01*
X301608Y24636D01*
X301617Y24721D01*
X301623Y24807D01*
X301625Y24892D01*
X294391Y24130D02*
X294391Y29845D01*
X294391Y24130D02*
X294389Y24064D01*
X294383Y23997D01*
X294374Y23932D01*
X294360Y23866D01*
X294343Y23802D01*
X294322Y23739D01*
X294298Y23677D01*
X294269Y23617D01*
X294238Y23559D01*
X294203Y23502D01*
X294165Y23447D01*
X294124Y23395D01*
X294079Y23346D01*
X294032Y23299D01*
X293983Y23254D01*
X293931Y23213D01*
X293876Y23175D01*
X293820Y23140D01*
X293761Y23109D01*
X293701Y23080D01*
X293639Y23056D01*
X293576Y23035D01*
X293512Y23018D01*
X293446Y23004D01*
X293381Y22995D01*
X293314Y22989D01*
X293248Y22987D01*
X289372Y22987D02*
X287467Y22987D01*
X289372Y22987D02*
X289438Y22989D01*
X289505Y22995D01*
X289570Y23004D01*
X289636Y23018D01*
X289700Y23035D01*
X289763Y23056D01*
X289825Y23080D01*
X289885Y23109D01*
X289944Y23140D01*
X290000Y23175D01*
X290055Y23213D01*
X290107Y23254D01*
X290156Y23299D01*
X290203Y23346D01*
X290248Y23395D01*
X290289Y23447D01*
X290327Y23502D01*
X290362Y23559D01*
X290393Y23617D01*
X290422Y23677D01*
X290446Y23739D01*
X290467Y23802D01*
X290484Y23866D01*
X290498Y23932D01*
X290507Y23997D01*
X290513Y24064D01*
X290515Y24130D01*
X290515Y26035D01*
X290513Y26112D01*
X290507Y26189D01*
X290497Y26266D01*
X290484Y26342D01*
X290466Y26417D01*
X290445Y26491D01*
X290420Y26564D01*
X290391Y26636D01*
X290359Y26706D01*
X290324Y26775D01*
X290284Y26841D01*
X290242Y26906D01*
X290196Y26968D01*
X290147Y27028D01*
X290096Y27085D01*
X290041Y27140D01*
X289984Y27191D01*
X289924Y27240D01*
X289862Y27286D01*
X289797Y27328D01*
X289731Y27368D01*
X289662Y27403D01*
X289592Y27435D01*
X289520Y27464D01*
X289447Y27489D01*
X289373Y27510D01*
X289298Y27528D01*
X289222Y27541D01*
X289145Y27551D01*
X289068Y27557D01*
X288991Y27559D01*
X288914Y27557D01*
X288837Y27551D01*
X288760Y27541D01*
X288684Y27528D01*
X288609Y27510D01*
X288535Y27489D01*
X288462Y27464D01*
X288390Y27435D01*
X288320Y27403D01*
X288251Y27368D01*
X288185Y27328D01*
X288120Y27286D01*
X288058Y27240D01*
X287998Y27191D01*
X287941Y27140D01*
X287886Y27085D01*
X287835Y27028D01*
X287786Y26968D01*
X287740Y26906D01*
X287698Y26841D01*
X287658Y26775D01*
X287623Y26706D01*
X287591Y26636D01*
X287562Y26564D01*
X287537Y26491D01*
X287516Y26417D01*
X287498Y26342D01*
X287485Y26266D01*
X287475Y26189D01*
X287469Y26112D01*
X287467Y26035D01*
X287467Y25273D01*
X290515Y25273D01*
X281183Y22987D02*
X281183Y29845D01*
X281183Y22987D02*
X283088Y22987D01*
X283154Y22989D01*
X283221Y22995D01*
X283286Y23004D01*
X283352Y23018D01*
X283416Y23035D01*
X283479Y23056D01*
X283541Y23080D01*
X283601Y23109D01*
X283660Y23140D01*
X283716Y23175D01*
X283771Y23213D01*
X283823Y23254D01*
X283872Y23299D01*
X283919Y23346D01*
X283964Y23395D01*
X284005Y23447D01*
X284043Y23502D01*
X284078Y23559D01*
X284109Y23617D01*
X284138Y23677D01*
X284162Y23739D01*
X284183Y23802D01*
X284200Y23866D01*
X284214Y23932D01*
X284223Y23997D01*
X284229Y24064D01*
X284231Y24130D01*
X284231Y26416D01*
X284229Y26482D01*
X284223Y26549D01*
X284214Y26614D01*
X284200Y26680D01*
X284183Y26744D01*
X284162Y26807D01*
X284138Y26869D01*
X284109Y26929D01*
X284078Y26988D01*
X284043Y27044D01*
X284005Y27099D01*
X283964Y27151D01*
X283919Y27200D01*
X283872Y27247D01*
X283823Y27292D01*
X283771Y27333D01*
X283716Y27371D01*
X283660Y27406D01*
X283601Y27437D01*
X283541Y27466D01*
X283479Y27490D01*
X283416Y27511D01*
X283352Y27528D01*
X283286Y27542D01*
X283221Y27551D01*
X283154Y27557D01*
X283088Y27559D01*
X281183Y27559D01*
X277485Y28321D02*
X275580Y29845D01*
X275580Y22987D01*
X277485Y22987D02*
X273675Y22987D01*
X268074Y29846D02*
X267992Y29844D01*
X267911Y29838D01*
X267830Y29829D01*
X267749Y29815D01*
X267670Y29798D01*
X267591Y29777D01*
X267513Y29752D01*
X267437Y29723D01*
X267362Y29691D01*
X267288Y29655D01*
X267217Y29616D01*
X267147Y29574D01*
X267079Y29528D01*
X267014Y29479D01*
X266951Y29427D01*
X266891Y29372D01*
X266833Y29314D01*
X266778Y29254D01*
X266726Y29191D01*
X266677Y29126D01*
X266631Y29058D01*
X266589Y28989D01*
X266550Y28917D01*
X266514Y28843D01*
X266482Y28768D01*
X266453Y28692D01*
X266428Y28614D01*
X266407Y28535D01*
X266390Y28456D01*
X266376Y28375D01*
X266367Y28294D01*
X266361Y28213D01*
X266359Y28131D01*
X268074Y29845D02*
X268166Y29843D01*
X268258Y29837D01*
X268350Y29828D01*
X268442Y29814D01*
X268532Y29797D01*
X268622Y29776D01*
X268711Y29751D01*
X268799Y29722D01*
X268886Y29690D01*
X268971Y29654D01*
X269054Y29615D01*
X269136Y29572D01*
X269216Y29526D01*
X269294Y29476D01*
X269370Y29424D01*
X269443Y29368D01*
X269514Y29309D01*
X269583Y29247D01*
X269649Y29182D01*
X269712Y29115D01*
X269772Y29045D01*
X269830Y28973D01*
X269884Y28898D01*
X269935Y28821D01*
X269983Y28742D01*
X270027Y28661D01*
X270068Y28578D01*
X270106Y28494D01*
X270140Y28408D01*
X270170Y28321D01*
X266931Y26797D02*
X266872Y26856D01*
X266816Y26917D01*
X266763Y26980D01*
X266712Y27046D01*
X266665Y27114D01*
X266621Y27184D01*
X266580Y27256D01*
X266542Y27330D01*
X266508Y27405D01*
X266477Y27482D01*
X266450Y27560D01*
X266426Y27640D01*
X266405Y27720D01*
X266389Y27801D01*
X266376Y27883D01*
X266366Y27965D01*
X266361Y28048D01*
X266359Y28131D01*
X266931Y26797D02*
X270170Y22987D01*
X266360Y22987D01*
X262855Y24892D02*
X262853Y24977D01*
X262847Y25063D01*
X262838Y25148D01*
X262824Y25232D01*
X262807Y25316D01*
X262786Y25399D01*
X262762Y25481D01*
X262734Y25561D01*
X262702Y25641D01*
X262666Y25719D01*
X262628Y25795D01*
X262585Y25869D01*
X262540Y25941D01*
X262491Y26012D01*
X262439Y26080D01*
X262385Y26145D01*
X262327Y26208D01*
X262266Y26269D01*
X262203Y26327D01*
X262138Y26381D01*
X262070Y26433D01*
X261999Y26482D01*
X261927Y26527D01*
X261853Y26570D01*
X261777Y26608D01*
X261699Y26644D01*
X261619Y26676D01*
X261539Y26704D01*
X261457Y26728D01*
X261374Y26749D01*
X261290Y26766D01*
X261206Y26780D01*
X261121Y26789D01*
X261035Y26795D01*
X260950Y26797D01*
X260865Y26795D01*
X260779Y26789D01*
X260694Y26780D01*
X260610Y26766D01*
X260526Y26749D01*
X260443Y26728D01*
X260361Y26704D01*
X260281Y26676D01*
X260201Y26644D01*
X260123Y26608D01*
X260047Y26570D01*
X259973Y26527D01*
X259901Y26482D01*
X259830Y26433D01*
X259762Y26381D01*
X259697Y26327D01*
X259634Y26269D01*
X259573Y26208D01*
X259515Y26145D01*
X259461Y26080D01*
X259409Y26012D01*
X259360Y25941D01*
X259315Y25869D01*
X259272Y25795D01*
X259234Y25719D01*
X259198Y25641D01*
X259166Y25561D01*
X259138Y25481D01*
X259114Y25399D01*
X259093Y25316D01*
X259076Y25232D01*
X259062Y25148D01*
X259053Y25063D01*
X259047Y24977D01*
X259045Y24892D01*
X259047Y24807D01*
X259053Y24721D01*
X259062Y24636D01*
X259076Y24552D01*
X259093Y24468D01*
X259114Y24385D01*
X259138Y24303D01*
X259166Y24223D01*
X259198Y24143D01*
X259234Y24065D01*
X259272Y23989D01*
X259315Y23915D01*
X259360Y23843D01*
X259409Y23772D01*
X259461Y23704D01*
X259515Y23639D01*
X259573Y23576D01*
X259634Y23515D01*
X259697Y23457D01*
X259762Y23403D01*
X259830Y23351D01*
X259901Y23302D01*
X259973Y23257D01*
X260047Y23214D01*
X260123Y23176D01*
X260201Y23140D01*
X260281Y23108D01*
X260361Y23080D01*
X260443Y23056D01*
X260526Y23035D01*
X260610Y23018D01*
X260694Y23004D01*
X260779Y22995D01*
X260865Y22989D01*
X260950Y22987D01*
X261035Y22989D01*
X261121Y22995D01*
X261206Y23004D01*
X261290Y23018D01*
X261374Y23035D01*
X261457Y23056D01*
X261539Y23080D01*
X261619Y23108D01*
X261699Y23140D01*
X261777Y23176D01*
X261853Y23214D01*
X261927Y23257D01*
X261999Y23302D01*
X262070Y23351D01*
X262138Y23403D01*
X262203Y23457D01*
X262266Y23515D01*
X262327Y23576D01*
X262385Y23639D01*
X262439Y23704D01*
X262491Y23772D01*
X262540Y23843D01*
X262585Y23915D01*
X262628Y23989D01*
X262666Y24065D01*
X262702Y24143D01*
X262734Y24223D01*
X262762Y24303D01*
X262786Y24385D01*
X262807Y24468D01*
X262824Y24552D01*
X262838Y24636D01*
X262847Y24721D01*
X262853Y24807D01*
X262855Y24892D01*
X262474Y28321D02*
X262472Y28398D01*
X262466Y28475D01*
X262456Y28552D01*
X262443Y28628D01*
X262425Y28703D01*
X262404Y28777D01*
X262379Y28850D01*
X262350Y28922D01*
X262318Y28992D01*
X262283Y29061D01*
X262243Y29127D01*
X262201Y29192D01*
X262155Y29254D01*
X262106Y29314D01*
X262055Y29371D01*
X262000Y29426D01*
X261943Y29477D01*
X261883Y29526D01*
X261821Y29572D01*
X261756Y29614D01*
X261690Y29654D01*
X261621Y29689D01*
X261551Y29721D01*
X261479Y29750D01*
X261406Y29775D01*
X261332Y29796D01*
X261257Y29814D01*
X261181Y29827D01*
X261104Y29837D01*
X261027Y29843D01*
X260950Y29845D01*
X260873Y29843D01*
X260796Y29837D01*
X260719Y29827D01*
X260643Y29814D01*
X260568Y29796D01*
X260494Y29775D01*
X260421Y29750D01*
X260349Y29721D01*
X260279Y29689D01*
X260210Y29654D01*
X260144Y29614D01*
X260079Y29572D01*
X260017Y29526D01*
X259957Y29477D01*
X259900Y29426D01*
X259845Y29371D01*
X259794Y29314D01*
X259745Y29254D01*
X259699Y29192D01*
X259657Y29127D01*
X259617Y29061D01*
X259582Y28992D01*
X259550Y28922D01*
X259521Y28850D01*
X259496Y28777D01*
X259475Y28703D01*
X259457Y28628D01*
X259444Y28552D01*
X259434Y28475D01*
X259428Y28398D01*
X259426Y28321D01*
X259428Y28244D01*
X259434Y28167D01*
X259444Y28090D01*
X259457Y28014D01*
X259475Y27939D01*
X259496Y27865D01*
X259521Y27792D01*
X259550Y27720D01*
X259582Y27650D01*
X259617Y27581D01*
X259657Y27515D01*
X259699Y27450D01*
X259745Y27388D01*
X259794Y27328D01*
X259845Y27271D01*
X259900Y27216D01*
X259957Y27165D01*
X260017Y27116D01*
X260079Y27070D01*
X260144Y27028D01*
X260210Y26988D01*
X260279Y26953D01*
X260349Y26921D01*
X260421Y26892D01*
X260494Y26867D01*
X260568Y26846D01*
X260643Y26828D01*
X260719Y26815D01*
X260796Y26805D01*
X260873Y26799D01*
X260950Y26797D01*
X261027Y26799D01*
X261104Y26805D01*
X261181Y26815D01*
X261257Y26828D01*
X261332Y26846D01*
X261406Y26867D01*
X261479Y26892D01*
X261551Y26921D01*
X261621Y26953D01*
X261690Y26988D01*
X261756Y27028D01*
X261821Y27070D01*
X261883Y27116D01*
X261943Y27165D01*
X262000Y27216D01*
X262055Y27271D01*
X262106Y27328D01*
X262155Y27388D01*
X262201Y27450D01*
X262243Y27515D01*
X262283Y27581D01*
X262318Y27650D01*
X262350Y27720D01*
X262379Y27792D01*
X262404Y27865D01*
X262425Y27939D01*
X262443Y28014D01*
X262456Y28090D01*
X262466Y28167D01*
X262472Y28244D01*
X262474Y28321D01*
X255890Y22987D02*
X252842Y27559D01*
X255890Y27559D02*
X252842Y22987D01*
X249687Y22987D02*
X247782Y22987D01*
X247697Y22989D01*
X247611Y22995D01*
X247526Y23004D01*
X247442Y23018D01*
X247358Y23035D01*
X247275Y23056D01*
X247193Y23080D01*
X247113Y23108D01*
X247033Y23140D01*
X246955Y23176D01*
X246879Y23214D01*
X246805Y23257D01*
X246733Y23302D01*
X246662Y23351D01*
X246594Y23403D01*
X246529Y23457D01*
X246466Y23515D01*
X246405Y23576D01*
X246347Y23639D01*
X246293Y23704D01*
X246241Y23772D01*
X246192Y23843D01*
X246147Y23915D01*
X246104Y23989D01*
X246066Y24065D01*
X246030Y24143D01*
X245998Y24223D01*
X245970Y24303D01*
X245946Y24385D01*
X245925Y24468D01*
X245908Y24552D01*
X245894Y24636D01*
X245885Y24721D01*
X245879Y24807D01*
X245877Y24892D01*
X245879Y24977D01*
X245885Y25063D01*
X245894Y25148D01*
X245908Y25232D01*
X245925Y25316D01*
X245946Y25399D01*
X245970Y25481D01*
X245998Y25561D01*
X246030Y25641D01*
X246066Y25719D01*
X246104Y25795D01*
X246147Y25869D01*
X246192Y25941D01*
X246241Y26012D01*
X246293Y26080D01*
X246347Y26145D01*
X246405Y26208D01*
X246466Y26269D01*
X246529Y26327D01*
X246594Y26381D01*
X246662Y26433D01*
X246733Y26482D01*
X246805Y26527D01*
X246879Y26570D01*
X246955Y26608D01*
X247033Y26644D01*
X247113Y26676D01*
X247193Y26704D01*
X247275Y26728D01*
X247358Y26749D01*
X247442Y26766D01*
X247526Y26780D01*
X247611Y26789D01*
X247697Y26795D01*
X247782Y26797D01*
X247401Y29845D02*
X249687Y29845D01*
X247401Y29845D02*
X247324Y29843D01*
X247247Y29837D01*
X247170Y29827D01*
X247094Y29814D01*
X247019Y29796D01*
X246945Y29775D01*
X246872Y29750D01*
X246800Y29721D01*
X246730Y29689D01*
X246661Y29654D01*
X246595Y29614D01*
X246530Y29572D01*
X246468Y29526D01*
X246408Y29477D01*
X246351Y29426D01*
X246296Y29371D01*
X246245Y29314D01*
X246196Y29254D01*
X246150Y29192D01*
X246108Y29127D01*
X246068Y29061D01*
X246033Y28992D01*
X246001Y28922D01*
X245972Y28850D01*
X245947Y28777D01*
X245926Y28703D01*
X245908Y28628D01*
X245895Y28552D01*
X245885Y28475D01*
X245879Y28398D01*
X245877Y28321D01*
X245879Y28244D01*
X245885Y28167D01*
X245895Y28090D01*
X245908Y28014D01*
X245926Y27939D01*
X245947Y27865D01*
X245972Y27792D01*
X246001Y27720D01*
X246033Y27650D01*
X246068Y27581D01*
X246108Y27515D01*
X246150Y27450D01*
X246196Y27388D01*
X246245Y27328D01*
X246296Y27271D01*
X246351Y27216D01*
X246408Y27165D01*
X246468Y27116D01*
X246530Y27070D01*
X246595Y27028D01*
X246661Y26988D01*
X246730Y26953D01*
X246800Y26921D01*
X246872Y26892D01*
X246945Y26867D01*
X247019Y26846D01*
X247094Y26828D01*
X247170Y26815D01*
X247247Y26805D01*
X247324Y26799D01*
X247401Y26797D01*
X248925Y26797D01*
X240277Y29846D02*
X240195Y29844D01*
X240114Y29838D01*
X240033Y29829D01*
X239952Y29815D01*
X239873Y29798D01*
X239794Y29777D01*
X239716Y29752D01*
X239640Y29723D01*
X239565Y29691D01*
X239491Y29655D01*
X239420Y29616D01*
X239350Y29574D01*
X239282Y29528D01*
X239217Y29479D01*
X239154Y29427D01*
X239094Y29372D01*
X239036Y29314D01*
X238981Y29254D01*
X238929Y29191D01*
X238880Y29126D01*
X238834Y29058D01*
X238792Y28989D01*
X238753Y28917D01*
X238717Y28843D01*
X238685Y28768D01*
X238656Y28692D01*
X238631Y28614D01*
X238610Y28535D01*
X238593Y28456D01*
X238579Y28375D01*
X238570Y28294D01*
X238564Y28213D01*
X238562Y28131D01*
X240277Y29845D02*
X240369Y29843D01*
X240461Y29837D01*
X240553Y29828D01*
X240645Y29814D01*
X240735Y29797D01*
X240825Y29776D01*
X240914Y29751D01*
X241002Y29722D01*
X241089Y29690D01*
X241174Y29654D01*
X241257Y29615D01*
X241339Y29572D01*
X241419Y29526D01*
X241497Y29476D01*
X241573Y29424D01*
X241646Y29368D01*
X241717Y29309D01*
X241786Y29247D01*
X241852Y29182D01*
X241915Y29115D01*
X241975Y29045D01*
X242033Y28973D01*
X242087Y28898D01*
X242138Y28821D01*
X242186Y28742D01*
X242230Y28661D01*
X242271Y28578D01*
X242309Y28494D01*
X242343Y28408D01*
X242373Y28321D01*
X239134Y26797D02*
X239075Y26856D01*
X239019Y26917D01*
X238966Y26980D01*
X238915Y27046D01*
X238868Y27114D01*
X238824Y27184D01*
X238783Y27256D01*
X238745Y27330D01*
X238711Y27405D01*
X238680Y27482D01*
X238653Y27560D01*
X238629Y27640D01*
X238608Y27720D01*
X238592Y27801D01*
X238579Y27883D01*
X238569Y27965D01*
X238564Y28048D01*
X238562Y28131D01*
X239134Y26797D02*
X242372Y22987D01*
X238562Y22987D01*
X230956Y22987D02*
X230956Y27559D01*
X228670Y27559D01*
X228670Y26797D01*
X224999Y22987D02*
X223094Y22987D01*
X224999Y22987D02*
X225065Y22989D01*
X225132Y22995D01*
X225197Y23004D01*
X225263Y23018D01*
X225327Y23035D01*
X225390Y23056D01*
X225452Y23080D01*
X225512Y23109D01*
X225571Y23140D01*
X225627Y23175D01*
X225682Y23213D01*
X225734Y23254D01*
X225783Y23299D01*
X225830Y23346D01*
X225875Y23395D01*
X225916Y23447D01*
X225954Y23502D01*
X225989Y23559D01*
X226020Y23617D01*
X226049Y23677D01*
X226073Y23739D01*
X226094Y23802D01*
X226111Y23866D01*
X226125Y23932D01*
X226134Y23997D01*
X226140Y24064D01*
X226142Y24130D01*
X226142Y26035D01*
X226140Y26112D01*
X226134Y26189D01*
X226124Y26266D01*
X226111Y26342D01*
X226093Y26417D01*
X226072Y26491D01*
X226047Y26564D01*
X226018Y26636D01*
X225986Y26706D01*
X225951Y26775D01*
X225911Y26841D01*
X225869Y26906D01*
X225823Y26968D01*
X225774Y27028D01*
X225723Y27085D01*
X225668Y27140D01*
X225611Y27191D01*
X225551Y27240D01*
X225489Y27286D01*
X225424Y27328D01*
X225358Y27368D01*
X225289Y27403D01*
X225219Y27435D01*
X225147Y27464D01*
X225074Y27489D01*
X225000Y27510D01*
X224925Y27528D01*
X224849Y27541D01*
X224772Y27551D01*
X224695Y27557D01*
X224618Y27559D01*
X224541Y27557D01*
X224464Y27551D01*
X224387Y27541D01*
X224311Y27528D01*
X224236Y27510D01*
X224162Y27489D01*
X224089Y27464D01*
X224017Y27435D01*
X223947Y27403D01*
X223878Y27368D01*
X223812Y27328D01*
X223747Y27286D01*
X223685Y27240D01*
X223625Y27191D01*
X223568Y27140D01*
X223513Y27085D01*
X223462Y27028D01*
X223413Y26968D01*
X223367Y26906D01*
X223325Y26841D01*
X223285Y26775D01*
X223250Y26706D01*
X223218Y26636D01*
X223189Y26564D01*
X223164Y26491D01*
X223143Y26417D01*
X223125Y26342D01*
X223112Y26266D01*
X223102Y26189D01*
X223096Y26112D01*
X223094Y26035D01*
X223094Y25273D01*
X226142Y25273D01*
X220046Y27559D02*
X218522Y22987D01*
X216998Y27559D01*
X214323Y23368D02*
X214323Y22987D01*
X214323Y23368D02*
X213942Y23368D01*
X213942Y22987D01*
X214323Y22987D01*
X207015Y28321D02*
X205110Y29845D01*
X205110Y22987D01*
X207015Y22987D02*
X203205Y22987D01*
X200180Y22987D02*
X200180Y23368D01*
X199799Y23368D01*
X199799Y22987D01*
X200180Y22987D01*
X196774Y28321D02*
X194869Y29845D01*
X194869Y22987D01*
X196774Y22987D02*
X192964Y22987D01*
X301625Y15367D02*
X301625Y8509D01*
X301625Y15367D02*
X299720Y15367D01*
X299654Y15365D01*
X299587Y15359D01*
X299522Y15350D01*
X299456Y15336D01*
X299392Y15319D01*
X299329Y15298D01*
X299267Y15274D01*
X299207Y15245D01*
X299149Y15214D01*
X299092Y15179D01*
X299037Y15141D01*
X298985Y15100D01*
X298936Y15055D01*
X298889Y15008D01*
X298844Y14959D01*
X298803Y14907D01*
X298765Y14852D01*
X298730Y14796D01*
X298699Y14737D01*
X298670Y14677D01*
X298646Y14615D01*
X298625Y14552D01*
X298608Y14488D01*
X298594Y14422D01*
X298585Y14357D01*
X298579Y14290D01*
X298577Y14224D01*
X298577Y11938D01*
X298579Y11872D01*
X298585Y11805D01*
X298594Y11740D01*
X298608Y11674D01*
X298625Y11610D01*
X298646Y11547D01*
X298670Y11485D01*
X298699Y11425D01*
X298730Y11367D01*
X298765Y11310D01*
X298803Y11255D01*
X298844Y11203D01*
X298889Y11154D01*
X298936Y11107D01*
X298985Y11062D01*
X299037Y11021D01*
X299092Y10983D01*
X299149Y10948D01*
X299207Y10917D01*
X299267Y10888D01*
X299329Y10864D01*
X299392Y10843D01*
X299456Y10826D01*
X299522Y10812D01*
X299587Y10803D01*
X299654Y10797D01*
X299720Y10795D01*
X301625Y10795D01*
X294769Y13462D02*
X292864Y12700D01*
X294769Y13462D02*
X294826Y13487D01*
X294881Y13515D01*
X294935Y13547D01*
X294986Y13582D01*
X295035Y13621D01*
X295082Y13662D01*
X295126Y13706D01*
X295167Y13753D01*
X295205Y13803D01*
X295239Y13855D01*
X295271Y13908D01*
X295299Y13964D01*
X295323Y14021D01*
X295344Y14080D01*
X295361Y14140D01*
X295374Y14201D01*
X295383Y14263D01*
X295389Y14325D01*
X295390Y14387D01*
X295387Y14449D01*
X295381Y14511D01*
X295371Y14573D01*
X295357Y14633D01*
X295339Y14693D01*
X295317Y14752D01*
X295292Y14808D01*
X295263Y14864D01*
X295231Y14917D01*
X295195Y14968D01*
X295156Y15017D01*
X295115Y15063D01*
X295070Y15107D01*
X295023Y15148D01*
X294973Y15185D01*
X294921Y15220D01*
X294867Y15251D01*
X294811Y15278D01*
X294754Y15302D01*
X294695Y15323D01*
X294635Y15339D01*
X294574Y15352D01*
X294512Y15361D01*
X294450Y15366D01*
X294388Y15367D01*
X294262Y15363D01*
X294136Y15356D01*
X294010Y15345D01*
X293884Y15330D01*
X293759Y15312D01*
X293635Y15290D01*
X293511Y15264D01*
X293388Y15235D01*
X293266Y15202D01*
X293145Y15166D01*
X293026Y15126D01*
X292907Y15082D01*
X292790Y15036D01*
X292674Y14986D01*
X292864Y12700D02*
X292807Y12675D01*
X292752Y12647D01*
X292698Y12615D01*
X292647Y12580D01*
X292598Y12541D01*
X292551Y12500D01*
X292507Y12456D01*
X292466Y12409D01*
X292428Y12359D01*
X292394Y12307D01*
X292362Y12254D01*
X292334Y12198D01*
X292310Y12141D01*
X292289Y12082D01*
X292272Y12022D01*
X292259Y11961D01*
X292250Y11899D01*
X292244Y11837D01*
X292243Y11775D01*
X292246Y11713D01*
X292252Y11651D01*
X292262Y11589D01*
X292276Y11529D01*
X292294Y11469D01*
X292316Y11410D01*
X292341Y11354D01*
X292370Y11298D01*
X292402Y11245D01*
X292438Y11194D01*
X292477Y11145D01*
X292518Y11099D01*
X292563Y11055D01*
X292610Y11014D01*
X292660Y10977D01*
X292712Y10942D01*
X292766Y10911D01*
X292822Y10884D01*
X292879Y10860D01*
X292938Y10839D01*
X292998Y10823D01*
X293059Y10810D01*
X293121Y10801D01*
X293183Y10796D01*
X293245Y10795D01*
X293398Y10799D01*
X293551Y10806D01*
X293703Y10817D01*
X293855Y10832D01*
X294007Y10851D01*
X294158Y10873D01*
X294309Y10898D01*
X294459Y10927D01*
X294608Y10960D01*
X294757Y10996D01*
X294904Y11036D01*
X295051Y11079D01*
X295197Y11126D01*
X295341Y11176D01*
X289245Y8509D02*
X288483Y8509D01*
X286197Y15367D01*
X289245Y15367D02*
X287721Y10795D01*
X283831Y15367D02*
X281545Y15367D01*
X283069Y17653D02*
X283069Y11938D01*
X283067Y11872D01*
X283061Y11805D01*
X283052Y11740D01*
X283038Y11674D01*
X283021Y11610D01*
X283000Y11547D01*
X282976Y11485D01*
X282947Y11425D01*
X282916Y11367D01*
X282881Y11310D01*
X282843Y11255D01*
X282802Y11203D01*
X282757Y11154D01*
X282710Y11107D01*
X282661Y11062D01*
X282609Y11021D01*
X282554Y10983D01*
X282498Y10948D01*
X282439Y10917D01*
X282379Y10888D01*
X282317Y10864D01*
X282254Y10843D01*
X282190Y10826D01*
X282124Y10812D01*
X282059Y10803D01*
X281992Y10797D01*
X281926Y10795D01*
X281545Y10795D01*
X277373Y10795D02*
X275468Y10795D01*
X277373Y10795D02*
X277439Y10797D01*
X277506Y10803D01*
X277571Y10812D01*
X277637Y10826D01*
X277701Y10843D01*
X277764Y10864D01*
X277826Y10888D01*
X277886Y10917D01*
X277945Y10948D01*
X278001Y10983D01*
X278056Y11021D01*
X278108Y11062D01*
X278157Y11107D01*
X278204Y11154D01*
X278249Y11203D01*
X278290Y11255D01*
X278328Y11310D01*
X278363Y11367D01*
X278394Y11425D01*
X278423Y11485D01*
X278447Y11547D01*
X278468Y11610D01*
X278485Y11674D01*
X278499Y11740D01*
X278508Y11805D01*
X278514Y11872D01*
X278516Y11938D01*
X278516Y13843D01*
X278514Y13920D01*
X278508Y13997D01*
X278498Y14074D01*
X278485Y14150D01*
X278467Y14225D01*
X278446Y14299D01*
X278421Y14372D01*
X278392Y14444D01*
X278360Y14514D01*
X278325Y14583D01*
X278285Y14649D01*
X278243Y14714D01*
X278197Y14776D01*
X278148Y14836D01*
X278097Y14893D01*
X278042Y14948D01*
X277985Y14999D01*
X277925Y15048D01*
X277863Y15094D01*
X277798Y15136D01*
X277732Y15176D01*
X277663Y15211D01*
X277593Y15243D01*
X277521Y15272D01*
X277448Y15297D01*
X277374Y15318D01*
X277299Y15336D01*
X277223Y15349D01*
X277146Y15359D01*
X277069Y15365D01*
X276992Y15367D01*
X276915Y15365D01*
X276838Y15359D01*
X276761Y15349D01*
X276685Y15336D01*
X276610Y15318D01*
X276536Y15297D01*
X276463Y15272D01*
X276391Y15243D01*
X276321Y15211D01*
X276252Y15176D01*
X276186Y15136D01*
X276121Y15094D01*
X276059Y15048D01*
X275999Y14999D01*
X275942Y14948D01*
X275887Y14893D01*
X275836Y14836D01*
X275787Y14776D01*
X275741Y14714D01*
X275699Y14649D01*
X275659Y14583D01*
X275624Y14514D01*
X275592Y14444D01*
X275563Y14372D01*
X275538Y14299D01*
X275517Y14225D01*
X275499Y14150D01*
X275486Y14074D01*
X275476Y13997D01*
X275470Y13920D01*
X275468Y13843D01*
X275468Y13081D01*
X278516Y13081D01*
X268519Y10033D02*
X265471Y18415D01*
X258011Y17653D02*
X258011Y10795D01*
X258011Y17653D02*
X256106Y17653D01*
X256021Y17651D01*
X255935Y17645D01*
X255850Y17636D01*
X255766Y17622D01*
X255682Y17605D01*
X255599Y17584D01*
X255517Y17560D01*
X255437Y17532D01*
X255357Y17500D01*
X255279Y17464D01*
X255203Y17426D01*
X255129Y17383D01*
X255057Y17338D01*
X254986Y17289D01*
X254918Y17237D01*
X254853Y17183D01*
X254790Y17125D01*
X254729Y17064D01*
X254671Y17001D01*
X254617Y16936D01*
X254565Y16868D01*
X254516Y16797D01*
X254471Y16725D01*
X254428Y16651D01*
X254390Y16575D01*
X254354Y16497D01*
X254322Y16417D01*
X254294Y16337D01*
X254270Y16255D01*
X254249Y16172D01*
X254232Y16088D01*
X254218Y16004D01*
X254209Y15919D01*
X254203Y15833D01*
X254201Y15748D01*
X254203Y15663D01*
X254209Y15577D01*
X254218Y15492D01*
X254232Y15408D01*
X254249Y15324D01*
X254270Y15241D01*
X254294Y15159D01*
X254322Y15079D01*
X254354Y14999D01*
X254390Y14921D01*
X254428Y14845D01*
X254471Y14771D01*
X254516Y14699D01*
X254565Y14628D01*
X254617Y14560D01*
X254671Y14495D01*
X254729Y14432D01*
X254790Y14371D01*
X254853Y14313D01*
X254918Y14259D01*
X254986Y14207D01*
X255057Y14158D01*
X255129Y14113D01*
X255203Y14070D01*
X255279Y14032D01*
X255357Y13996D01*
X255437Y13964D01*
X255517Y13936D01*
X255599Y13912D01*
X255682Y13891D01*
X255766Y13874D01*
X255850Y13860D01*
X255935Y13851D01*
X256021Y13845D01*
X256106Y13843D01*
X258011Y13843D01*
X249928Y13462D02*
X248214Y13462D01*
X249928Y13463D02*
X250000Y13461D01*
X250072Y13455D01*
X250144Y13445D01*
X250215Y13432D01*
X250285Y13414D01*
X250354Y13393D01*
X250422Y13368D01*
X250488Y13340D01*
X250553Y13308D01*
X250616Y13272D01*
X250677Y13233D01*
X250735Y13191D01*
X250792Y13146D01*
X250845Y13097D01*
X250896Y13046D01*
X250945Y12993D01*
X250990Y12936D01*
X251032Y12878D01*
X251071Y12817D01*
X251107Y12754D01*
X251139Y12689D01*
X251167Y12623D01*
X251192Y12555D01*
X251213Y12486D01*
X251231Y12416D01*
X251244Y12345D01*
X251254Y12273D01*
X251260Y12201D01*
X251262Y12129D01*
X251260Y12057D01*
X251254Y11985D01*
X251244Y11913D01*
X251231Y11842D01*
X251213Y11772D01*
X251192Y11703D01*
X251167Y11635D01*
X251139Y11569D01*
X251107Y11504D01*
X251071Y11441D01*
X251032Y11380D01*
X250990Y11322D01*
X250945Y11265D01*
X250896Y11212D01*
X250845Y11161D01*
X250792Y11112D01*
X250735Y11067D01*
X250677Y11025D01*
X250616Y10986D01*
X250553Y10950D01*
X250488Y10918D01*
X250422Y10890D01*
X250354Y10865D01*
X250285Y10844D01*
X250215Y10826D01*
X250144Y10813D01*
X250072Y10803D01*
X250000Y10797D01*
X249928Y10795D01*
X248214Y10795D01*
X248214Y14224D01*
X248216Y14290D01*
X248222Y14357D01*
X248231Y14422D01*
X248245Y14488D01*
X248262Y14552D01*
X248283Y14615D01*
X248307Y14677D01*
X248336Y14737D01*
X248367Y14796D01*
X248402Y14852D01*
X248440Y14907D01*
X248481Y14959D01*
X248526Y15008D01*
X248573Y15055D01*
X248622Y15100D01*
X248674Y15141D01*
X248729Y15179D01*
X248786Y15214D01*
X248844Y15245D01*
X248904Y15274D01*
X248966Y15298D01*
X249029Y15319D01*
X249093Y15336D01*
X249159Y15350D01*
X249224Y15359D01*
X249291Y15365D01*
X249357Y15367D01*
X250881Y15367D01*
X245304Y15367D02*
X243018Y15367D01*
X244542Y17653D02*
X244542Y11938D01*
X244540Y11872D01*
X244534Y11805D01*
X244525Y11740D01*
X244511Y11674D01*
X244494Y11610D01*
X244473Y11547D01*
X244449Y11485D01*
X244420Y11425D01*
X244389Y11367D01*
X244354Y11310D01*
X244316Y11255D01*
X244275Y11203D01*
X244230Y11154D01*
X244183Y11107D01*
X244134Y11062D01*
X244082Y11021D01*
X244027Y10983D01*
X243971Y10948D01*
X243912Y10917D01*
X243852Y10888D01*
X243790Y10864D01*
X243727Y10843D01*
X243663Y10826D01*
X243597Y10812D01*
X243532Y10803D01*
X243465Y10797D01*
X243399Y10795D01*
X243018Y10795D01*
X239683Y10795D02*
X239683Y15367D01*
X237397Y15367D01*
X237397Y14605D01*
X235052Y15367D02*
X235052Y10795D01*
X235242Y17272D02*
X235242Y17653D01*
X234861Y17653D01*
X234861Y17272D01*
X235242Y17272D01*
X231571Y17653D02*
X231571Y10795D01*
X231571Y13081D02*
X228523Y15367D01*
X230237Y14034D02*
X228523Y10795D01*
X221244Y10795D02*
X221244Y17653D01*
X218958Y13843D01*
X216672Y17653D01*
X216672Y10795D01*
X211646Y13462D02*
X209931Y13462D01*
X211646Y13463D02*
X211718Y13461D01*
X211790Y13455D01*
X211862Y13445D01*
X211933Y13432D01*
X212003Y13414D01*
X212072Y13393D01*
X212140Y13368D01*
X212206Y13340D01*
X212271Y13308D01*
X212334Y13272D01*
X212395Y13233D01*
X212453Y13191D01*
X212510Y13146D01*
X212563Y13097D01*
X212614Y13046D01*
X212663Y12993D01*
X212708Y12936D01*
X212750Y12878D01*
X212789Y12817D01*
X212825Y12754D01*
X212857Y12689D01*
X212885Y12623D01*
X212910Y12555D01*
X212931Y12486D01*
X212949Y12416D01*
X212962Y12345D01*
X212972Y12273D01*
X212978Y12201D01*
X212980Y12129D01*
X212978Y12057D01*
X212972Y11985D01*
X212962Y11913D01*
X212949Y11842D01*
X212931Y11772D01*
X212910Y11703D01*
X212885Y11635D01*
X212857Y11569D01*
X212825Y11504D01*
X212789Y11441D01*
X212750Y11380D01*
X212708Y11322D01*
X212663Y11265D01*
X212614Y11212D01*
X212563Y11161D01*
X212510Y11112D01*
X212453Y11067D01*
X212395Y11025D01*
X212334Y10986D01*
X212271Y10950D01*
X212206Y10918D01*
X212140Y10890D01*
X212072Y10865D01*
X212003Y10844D01*
X211933Y10826D01*
X211862Y10813D01*
X211790Y10803D01*
X211718Y10797D01*
X211646Y10795D01*
X209931Y10795D01*
X209931Y14224D01*
X209933Y14290D01*
X209939Y14357D01*
X209948Y14422D01*
X209962Y14488D01*
X209979Y14552D01*
X210000Y14615D01*
X210024Y14677D01*
X210053Y14737D01*
X210084Y14796D01*
X210119Y14852D01*
X210157Y14907D01*
X210198Y14959D01*
X210243Y15008D01*
X210290Y15055D01*
X210339Y15100D01*
X210391Y15141D01*
X210446Y15179D01*
X210503Y15214D01*
X210561Y15245D01*
X210621Y15274D01*
X210683Y15298D01*
X210746Y15319D01*
X210810Y15336D01*
X210876Y15350D01*
X210941Y15359D01*
X211008Y15365D01*
X211074Y15367D01*
X212598Y15367D01*
X206033Y15367D02*
X206033Y10795D01*
X206033Y15367D02*
X203747Y15367D01*
X203747Y14605D01*
X200064Y10795D02*
X198540Y10795D01*
X200064Y10795D02*
X200130Y10797D01*
X200197Y10803D01*
X200262Y10812D01*
X200328Y10826D01*
X200392Y10843D01*
X200455Y10864D01*
X200517Y10888D01*
X200577Y10917D01*
X200636Y10948D01*
X200692Y10983D01*
X200747Y11021D01*
X200799Y11062D01*
X200848Y11107D01*
X200895Y11154D01*
X200940Y11203D01*
X200981Y11255D01*
X201019Y11310D01*
X201054Y11367D01*
X201085Y11425D01*
X201114Y11485D01*
X201138Y11547D01*
X201159Y11610D01*
X201176Y11674D01*
X201190Y11740D01*
X201199Y11805D01*
X201205Y11872D01*
X201207Y11938D01*
X201207Y14224D01*
X201205Y14290D01*
X201199Y14357D01*
X201190Y14422D01*
X201176Y14488D01*
X201159Y14552D01*
X201138Y14615D01*
X201114Y14677D01*
X201085Y14737D01*
X201054Y14796D01*
X201019Y14852D01*
X200981Y14907D01*
X200940Y14959D01*
X200895Y15008D01*
X200848Y15055D01*
X200799Y15100D01*
X200747Y15141D01*
X200692Y15179D01*
X200636Y15214D01*
X200577Y15245D01*
X200517Y15274D01*
X200455Y15298D01*
X200392Y15319D01*
X200328Y15336D01*
X200262Y15350D01*
X200197Y15359D01*
X200130Y15365D01*
X200064Y15367D01*
X198540Y15367D01*
X194333Y13462D02*
X192618Y13462D01*
X194333Y13463D02*
X194405Y13461D01*
X194477Y13455D01*
X194549Y13445D01*
X194620Y13432D01*
X194690Y13414D01*
X194759Y13393D01*
X194827Y13368D01*
X194893Y13340D01*
X194958Y13308D01*
X195021Y13272D01*
X195082Y13233D01*
X195140Y13191D01*
X195197Y13146D01*
X195250Y13097D01*
X195301Y13046D01*
X195350Y12993D01*
X195395Y12936D01*
X195437Y12878D01*
X195476Y12817D01*
X195512Y12754D01*
X195544Y12689D01*
X195572Y12623D01*
X195597Y12555D01*
X195618Y12486D01*
X195636Y12416D01*
X195649Y12345D01*
X195659Y12273D01*
X195665Y12201D01*
X195667Y12129D01*
X195665Y12057D01*
X195659Y11985D01*
X195649Y11913D01*
X195636Y11842D01*
X195618Y11772D01*
X195597Y11703D01*
X195572Y11635D01*
X195544Y11569D01*
X195512Y11504D01*
X195476Y11441D01*
X195437Y11380D01*
X195395Y11322D01*
X195350Y11265D01*
X195301Y11212D01*
X195250Y11161D01*
X195197Y11112D01*
X195140Y11067D01*
X195082Y11025D01*
X195021Y10986D01*
X194958Y10950D01*
X194893Y10918D01*
X194827Y10890D01*
X194759Y10865D01*
X194690Y10844D01*
X194620Y10826D01*
X194549Y10813D01*
X194477Y10803D01*
X194405Y10797D01*
X194333Y10795D01*
X192618Y10795D01*
X192618Y14224D01*
X192620Y14290D01*
X192626Y14357D01*
X192635Y14422D01*
X192649Y14488D01*
X192666Y14552D01*
X192687Y14615D01*
X192711Y14677D01*
X192740Y14737D01*
X192771Y14796D01*
X192806Y14852D01*
X192844Y14907D01*
X192885Y14959D01*
X192930Y15008D01*
X192977Y15055D01*
X193026Y15100D01*
X193078Y15141D01*
X193133Y15179D01*
X193190Y15214D01*
X193248Y15245D01*
X193308Y15274D01*
X193370Y15298D01*
X193433Y15319D01*
X193497Y15336D01*
X193563Y15350D01*
X193628Y15359D01*
X193695Y15365D01*
X193761Y15367D01*
X195285Y15367D01*
X187872Y10795D02*
X186348Y10795D01*
X187872Y10795D02*
X187938Y10797D01*
X188005Y10803D01*
X188070Y10812D01*
X188136Y10826D01*
X188200Y10843D01*
X188263Y10864D01*
X188325Y10888D01*
X188385Y10917D01*
X188444Y10948D01*
X188500Y10983D01*
X188555Y11021D01*
X188607Y11062D01*
X188656Y11107D01*
X188703Y11154D01*
X188748Y11203D01*
X188789Y11255D01*
X188827Y11310D01*
X188862Y11367D01*
X188893Y11425D01*
X188922Y11485D01*
X188946Y11547D01*
X188967Y11610D01*
X188984Y11674D01*
X188998Y11740D01*
X189007Y11805D01*
X189013Y11872D01*
X189015Y11938D01*
X189015Y14224D01*
X189013Y14290D01*
X189007Y14357D01*
X188998Y14422D01*
X188984Y14488D01*
X188967Y14552D01*
X188946Y14615D01*
X188922Y14677D01*
X188893Y14737D01*
X188862Y14796D01*
X188827Y14852D01*
X188789Y14907D01*
X188748Y14959D01*
X188703Y15008D01*
X188656Y15055D01*
X188607Y15100D01*
X188555Y15141D01*
X188500Y15179D01*
X188444Y15214D01*
X188385Y15245D01*
X188325Y15274D01*
X188263Y15298D01*
X188200Y15319D01*
X188136Y15336D01*
X188070Y15350D01*
X188005Y15359D01*
X187938Y15365D01*
X187872Y15367D01*
X186348Y15367D01*
X182263Y10795D02*
X180739Y10795D01*
X182263Y10795D02*
X182329Y10797D01*
X182396Y10803D01*
X182461Y10812D01*
X182527Y10826D01*
X182591Y10843D01*
X182654Y10864D01*
X182716Y10888D01*
X182776Y10917D01*
X182835Y10948D01*
X182891Y10983D01*
X182946Y11021D01*
X182998Y11062D01*
X183047Y11107D01*
X183094Y11154D01*
X183139Y11203D01*
X183180Y11255D01*
X183218Y11310D01*
X183253Y11367D01*
X183284Y11425D01*
X183313Y11485D01*
X183337Y11547D01*
X183358Y11610D01*
X183375Y11674D01*
X183389Y11740D01*
X183398Y11805D01*
X183404Y11872D01*
X183406Y11938D01*
X183406Y14224D01*
X183404Y14290D01*
X183398Y14357D01*
X183389Y14422D01*
X183375Y14488D01*
X183358Y14552D01*
X183337Y14615D01*
X183313Y14677D01*
X183284Y14737D01*
X183253Y14796D01*
X183218Y14852D01*
X183180Y14907D01*
X183139Y14959D01*
X183094Y15008D01*
X183047Y15055D01*
X182998Y15100D01*
X182946Y15141D01*
X182891Y15179D01*
X182835Y15214D01*
X182776Y15245D01*
X182716Y15274D01*
X182654Y15298D01*
X182591Y15319D01*
X182527Y15336D01*
X182461Y15350D01*
X182396Y15359D01*
X182329Y15365D01*
X182263Y15367D01*
X180739Y15367D01*
X177993Y15367D02*
X177993Y10795D01*
X178184Y17272D02*
X178184Y17653D01*
X177803Y17653D01*
X177803Y17272D01*
X178184Y17272D01*
X170770Y13462D02*
X166198Y13462D01*
X156589Y17654D02*
X156507Y17652D01*
X156426Y17646D01*
X156345Y17637D01*
X156264Y17623D01*
X156185Y17606D01*
X156106Y17585D01*
X156028Y17560D01*
X155952Y17531D01*
X155877Y17499D01*
X155803Y17463D01*
X155732Y17424D01*
X155662Y17382D01*
X155594Y17336D01*
X155529Y17287D01*
X155466Y17235D01*
X155406Y17180D01*
X155348Y17122D01*
X155293Y17062D01*
X155241Y16999D01*
X155192Y16934D01*
X155146Y16866D01*
X155104Y16797D01*
X155065Y16725D01*
X155029Y16651D01*
X154997Y16576D01*
X154968Y16500D01*
X154943Y16422D01*
X154922Y16343D01*
X154905Y16264D01*
X154891Y16183D01*
X154882Y16102D01*
X154876Y16021D01*
X154874Y15939D01*
X156589Y17653D02*
X156681Y17651D01*
X156773Y17645D01*
X156865Y17636D01*
X156957Y17622D01*
X157047Y17605D01*
X157137Y17584D01*
X157226Y17559D01*
X157314Y17530D01*
X157401Y17498D01*
X157486Y17462D01*
X157569Y17423D01*
X157651Y17380D01*
X157731Y17334D01*
X157809Y17284D01*
X157885Y17232D01*
X157958Y17176D01*
X158029Y17117D01*
X158098Y17055D01*
X158164Y16990D01*
X158227Y16923D01*
X158287Y16853D01*
X158345Y16781D01*
X158399Y16706D01*
X158450Y16629D01*
X158498Y16550D01*
X158542Y16469D01*
X158583Y16386D01*
X158621Y16302D01*
X158655Y16216D01*
X158685Y16129D01*
X155446Y14605D02*
X155387Y14664D01*
X155331Y14725D01*
X155278Y14788D01*
X155227Y14854D01*
X155180Y14922D01*
X155136Y14992D01*
X155095Y15064D01*
X155057Y15138D01*
X155023Y15213D01*
X154992Y15290D01*
X154965Y15368D01*
X154941Y15448D01*
X154920Y15528D01*
X154904Y15609D01*
X154891Y15691D01*
X154881Y15773D01*
X154876Y15856D01*
X154874Y15939D01*
X155446Y14605D02*
X158684Y10795D01*
X154874Y10795D01*
X151370Y14224D02*
X151368Y14366D01*
X151363Y14509D01*
X151354Y14651D01*
X151341Y14793D01*
X151325Y14934D01*
X151306Y15075D01*
X151282Y15216D01*
X151256Y15356D01*
X151225Y15495D01*
X151191Y15633D01*
X151154Y15771D01*
X151114Y15907D01*
X151069Y16043D01*
X151022Y16177D01*
X150971Y16310D01*
X150917Y16442D01*
X150859Y16572D01*
X150798Y16701D01*
X150798Y16700D02*
X150772Y16769D01*
X150743Y16835D01*
X150711Y16901D01*
X150676Y16964D01*
X150637Y17026D01*
X150595Y17086D01*
X150550Y17143D01*
X150502Y17198D01*
X150451Y17250D01*
X150398Y17300D01*
X150342Y17346D01*
X150284Y17390D01*
X150223Y17431D01*
X150161Y17469D01*
X150097Y17503D01*
X150031Y17534D01*
X149963Y17562D01*
X149894Y17586D01*
X149824Y17606D01*
X149753Y17623D01*
X149682Y17636D01*
X149610Y17645D01*
X149537Y17651D01*
X149464Y17653D01*
X149391Y17651D01*
X149318Y17645D01*
X149246Y17636D01*
X149175Y17623D01*
X149104Y17606D01*
X149034Y17586D01*
X148965Y17562D01*
X148897Y17534D01*
X148831Y17503D01*
X148767Y17469D01*
X148705Y17431D01*
X148644Y17390D01*
X148586Y17346D01*
X148530Y17300D01*
X148477Y17250D01*
X148426Y17198D01*
X148378Y17143D01*
X148333Y17086D01*
X148291Y17026D01*
X148252Y16964D01*
X148217Y16901D01*
X148185Y16835D01*
X148156Y16769D01*
X148130Y16700D01*
X148131Y16701D02*
X148070Y16572D01*
X148012Y16442D01*
X147958Y16310D01*
X147907Y16177D01*
X147860Y16043D01*
X147815Y15907D01*
X147775Y15771D01*
X147738Y15633D01*
X147704Y15495D01*
X147673Y15356D01*
X147647Y15216D01*
X147623Y15075D01*
X147604Y14934D01*
X147588Y14793D01*
X147575Y14651D01*
X147566Y14509D01*
X147561Y14366D01*
X147559Y14224D01*
X151370Y14224D02*
X151368Y14082D01*
X151363Y13939D01*
X151354Y13797D01*
X151341Y13655D01*
X151325Y13514D01*
X151306Y13373D01*
X151282Y13232D01*
X151256Y13092D01*
X151225Y12953D01*
X151191Y12815D01*
X151154Y12677D01*
X151114Y12541D01*
X151069Y12405D01*
X151022Y12271D01*
X150971Y12138D01*
X150917Y12006D01*
X150859Y11876D01*
X150798Y11747D01*
X150798Y11748D02*
X150772Y11679D01*
X150743Y11613D01*
X150711Y11547D01*
X150676Y11484D01*
X150637Y11422D01*
X150595Y11362D01*
X150550Y11305D01*
X150502Y11250D01*
X150451Y11198D01*
X150398Y11148D01*
X150342Y11102D01*
X150284Y11058D01*
X150223Y11017D01*
X150161Y10979D01*
X150097Y10945D01*
X150031Y10914D01*
X149963Y10886D01*
X149894Y10862D01*
X149824Y10842D01*
X149753Y10825D01*
X149682Y10812D01*
X149610Y10803D01*
X149537Y10797D01*
X149464Y10795D01*
X148131Y11747D02*
X148070Y11876D01*
X148012Y12006D01*
X147958Y12138D01*
X147907Y12271D01*
X147860Y12405D01*
X147815Y12541D01*
X147775Y12677D01*
X147738Y12815D01*
X147704Y12953D01*
X147673Y13092D01*
X147647Y13232D01*
X147623Y13373D01*
X147604Y13514D01*
X147588Y13655D01*
X147575Y13797D01*
X147566Y13939D01*
X147561Y14082D01*
X147559Y14224D01*
X148130Y11748D02*
X148156Y11679D01*
X148185Y11613D01*
X148217Y11547D01*
X148252Y11484D01*
X148291Y11422D01*
X148333Y11362D01*
X148378Y11305D01*
X148426Y11250D01*
X148477Y11198D01*
X148530Y11148D01*
X148586Y11102D01*
X148644Y11058D01*
X148705Y11017D01*
X148767Y10979D01*
X148831Y10945D01*
X148897Y10914D01*
X148965Y10886D01*
X149034Y10862D01*
X149104Y10842D01*
X149175Y10825D01*
X149246Y10812D01*
X149318Y10803D01*
X149391Y10797D01*
X149464Y10795D01*
X150988Y12319D02*
X147940Y16129D01*
X144054Y16129D02*
X142149Y17653D01*
X142149Y10795D01*
X144054Y10795D02*
X140244Y10795D01*
X135215Y13843D02*
X132929Y13843D01*
X135215Y13843D02*
X135292Y13845D01*
X135369Y13851D01*
X135446Y13861D01*
X135522Y13874D01*
X135597Y13892D01*
X135671Y13913D01*
X135744Y13938D01*
X135816Y13967D01*
X135886Y13999D01*
X135955Y14034D01*
X136021Y14074D01*
X136086Y14116D01*
X136148Y14162D01*
X136208Y14211D01*
X136265Y14262D01*
X136320Y14317D01*
X136371Y14374D01*
X136420Y14434D01*
X136466Y14496D01*
X136508Y14561D01*
X136548Y14627D01*
X136583Y14696D01*
X136615Y14766D01*
X136644Y14838D01*
X136669Y14911D01*
X136690Y14985D01*
X136708Y15060D01*
X136721Y15136D01*
X136731Y15213D01*
X136737Y15290D01*
X136739Y15367D01*
X136739Y15748D01*
X136737Y15833D01*
X136731Y15919D01*
X136722Y16004D01*
X136708Y16088D01*
X136691Y16172D01*
X136670Y16255D01*
X136646Y16337D01*
X136618Y16417D01*
X136586Y16497D01*
X136550Y16575D01*
X136512Y16651D01*
X136469Y16725D01*
X136424Y16797D01*
X136375Y16868D01*
X136323Y16936D01*
X136269Y17001D01*
X136211Y17064D01*
X136150Y17125D01*
X136087Y17183D01*
X136022Y17237D01*
X135954Y17289D01*
X135883Y17338D01*
X135811Y17383D01*
X135737Y17426D01*
X135661Y17464D01*
X135583Y17500D01*
X135503Y17532D01*
X135423Y17560D01*
X135341Y17584D01*
X135258Y17605D01*
X135174Y17622D01*
X135090Y17636D01*
X135005Y17645D01*
X134919Y17651D01*
X134834Y17653D01*
X134749Y17651D01*
X134663Y17645D01*
X134578Y17636D01*
X134494Y17622D01*
X134410Y17605D01*
X134327Y17584D01*
X134245Y17560D01*
X134165Y17532D01*
X134085Y17500D01*
X134007Y17464D01*
X133931Y17426D01*
X133857Y17383D01*
X133785Y17338D01*
X133714Y17289D01*
X133646Y17237D01*
X133581Y17183D01*
X133518Y17125D01*
X133457Y17064D01*
X133399Y17001D01*
X133345Y16936D01*
X133293Y16868D01*
X133244Y16797D01*
X133199Y16725D01*
X133156Y16651D01*
X133118Y16575D01*
X133082Y16497D01*
X133050Y16417D01*
X133022Y16337D01*
X132998Y16255D01*
X132977Y16172D01*
X132960Y16088D01*
X132946Y16004D01*
X132937Y15919D01*
X132931Y15833D01*
X132929Y15748D01*
X132929Y13843D01*
X132931Y13734D01*
X132937Y13626D01*
X132946Y13517D01*
X132960Y13409D01*
X132977Y13302D01*
X132999Y13195D01*
X133024Y13089D01*
X133052Y12984D01*
X133085Y12880D01*
X133121Y12778D01*
X133161Y12677D01*
X133204Y12577D01*
X133251Y12479D01*
X133302Y12382D01*
X133356Y12288D01*
X133413Y12195D01*
X133473Y12105D01*
X133537Y12016D01*
X133604Y11930D01*
X133673Y11847D01*
X133746Y11766D01*
X133822Y11688D01*
X133900Y11612D01*
X133981Y11539D01*
X134064Y11470D01*
X134150Y11403D01*
X134239Y11339D01*
X134329Y11279D01*
X134422Y11222D01*
X134516Y11168D01*
X134613Y11117D01*
X134711Y11070D01*
X134811Y11027D01*
X134912Y10987D01*
X135014Y10951D01*
X135118Y10918D01*
X135223Y10890D01*
X135329Y10865D01*
X135436Y10843D01*
X135543Y10826D01*
X135651Y10812D01*
X135760Y10803D01*
X135868Y10797D01*
X135977Y10795D01*
D11*
X22860Y116710D02*
X322860Y116710D01*
X22860Y116710D02*
X22860Y3460D01*
X322860Y3460D01*
X322860Y116710D01*
M02*
