G04 EAGLE Gerber X2 export*
%TF.Part,Single*%
%TF.FileFunction,Copper,L1,Top,Mixed*%
%TF.FilePolarity,Positive*%
%TF.GenerationSoftware,Autodesk,EAGLE,9.4.0*%
%TF.CreationDate,2019-05-09T18:23:13Z*%
G75*
%MOMM*%
%FSLAX34Y34*%
%LPD*%
%INTop Copper*%
%AMOC8*
5,1,8,0,0,1.08239X$1,22.5*%
G01*
%ADD10R,1.100000X1.000000*%
%ADD11R,1.000000X1.200000*%
%ADD12C,0.406400*%
%ADD13R,2.000000X1.000000*%
%ADD14R,3.200000X0.350000*%
%ADD15R,1.000000X1.100000*%
%ADD16C,1.000000*%
%ADD17C,0.254000*%
%ADD18C,0.787400*%
%ADD19C,0.355600*%

G36*
X209377Y5098D02*
X209377Y5098D01*
X209516Y5111D01*
X209535Y5118D01*
X209555Y5121D01*
X209684Y5172D01*
X209815Y5219D01*
X209832Y5230D01*
X209850Y5238D01*
X209963Y5319D01*
X210078Y5397D01*
X210091Y5413D01*
X210108Y5424D01*
X210197Y5532D01*
X210289Y5636D01*
X210298Y5654D01*
X210311Y5669D01*
X210370Y5795D01*
X210433Y5919D01*
X210438Y5939D01*
X210446Y5957D01*
X210472Y6094D01*
X210503Y6229D01*
X210502Y6250D01*
X210506Y6269D01*
X210497Y6408D01*
X210493Y6547D01*
X210487Y6567D01*
X210486Y6587D01*
X210443Y6719D01*
X210405Y6853D01*
X210394Y6870D01*
X210388Y6889D01*
X210314Y7007D01*
X210243Y7127D01*
X210225Y7148D01*
X210218Y7158D01*
X210203Y7172D01*
X210137Y7247D01*
X208668Y8716D01*
X207597Y11301D01*
X207597Y14099D01*
X208668Y16684D01*
X210646Y18662D01*
X213231Y19733D01*
X216029Y19733D01*
X218614Y18662D01*
X220592Y16684D01*
X221663Y14099D01*
X221663Y11301D01*
X220592Y8716D01*
X219123Y7247D01*
X219038Y7138D01*
X218949Y7031D01*
X218941Y7012D01*
X218928Y6996D01*
X218873Y6868D01*
X218814Y6743D01*
X218810Y6723D01*
X218802Y6704D01*
X218780Y6566D01*
X218754Y6430D01*
X218755Y6410D01*
X218752Y6390D01*
X218765Y6251D01*
X218774Y6113D01*
X218780Y6094D01*
X218782Y6074D01*
X218829Y5942D01*
X218872Y5811D01*
X218883Y5793D01*
X218890Y5774D01*
X218968Y5659D01*
X219042Y5542D01*
X219057Y5528D01*
X219068Y5511D01*
X219172Y5419D01*
X219274Y5324D01*
X219291Y5314D01*
X219307Y5301D01*
X219431Y5237D01*
X219552Y5170D01*
X219572Y5165D01*
X219590Y5156D01*
X219726Y5126D01*
X219860Y5091D01*
X219888Y5089D01*
X219900Y5086D01*
X219921Y5087D01*
X220021Y5081D01*
X292100Y5081D01*
X292218Y5096D01*
X292337Y5103D01*
X292375Y5116D01*
X292416Y5121D01*
X292526Y5164D01*
X292639Y5201D01*
X292674Y5223D01*
X292711Y5238D01*
X292807Y5307D01*
X292908Y5371D01*
X292936Y5401D01*
X292969Y5424D01*
X293045Y5516D01*
X293126Y5603D01*
X293146Y5638D01*
X293171Y5669D01*
X293222Y5777D01*
X293280Y5881D01*
X293290Y5921D01*
X293307Y5957D01*
X293329Y6074D01*
X293359Y6189D01*
X293363Y6249D01*
X293367Y6269D01*
X293365Y6290D01*
X293369Y6350D01*
X293369Y14879D01*
X293353Y15010D01*
X293342Y15142D01*
X293333Y15167D01*
X293329Y15194D01*
X293281Y15317D01*
X293237Y15442D01*
X293222Y15465D01*
X293212Y15490D01*
X293135Y15597D01*
X293061Y15707D01*
X293041Y15725D01*
X293026Y15747D01*
X292923Y15832D01*
X292825Y15920D01*
X292801Y15933D01*
X292781Y15950D01*
X292661Y16006D01*
X292544Y16068D01*
X292517Y16074D01*
X292493Y16086D01*
X292363Y16110D01*
X292234Y16141D01*
X292207Y16140D01*
X292181Y16145D01*
X292049Y16137D01*
X291916Y16134D01*
X291890Y16127D01*
X291863Y16126D01*
X291738Y16085D01*
X291610Y16049D01*
X291575Y16032D01*
X291561Y16028D01*
X291542Y16016D01*
X291465Y15978D01*
X291445Y15966D01*
X290928Y15827D01*
X283159Y15827D01*
X283159Y20347D01*
X283142Y20484D01*
X283139Y20514D01*
X283137Y20549D01*
X283135Y20554D01*
X283129Y20623D01*
X283122Y20642D01*
X283119Y20662D01*
X283068Y20791D01*
X283021Y20922D01*
X283010Y20939D01*
X283002Y20958D01*
X282921Y21070D01*
X282843Y21185D01*
X282827Y21199D01*
X282816Y21215D01*
X282708Y21304D01*
X282604Y21396D01*
X282586Y21405D01*
X282571Y21418D01*
X282445Y21477D01*
X282321Y21540D01*
X282301Y21545D01*
X282283Y21554D01*
X282147Y21580D01*
X282011Y21610D01*
X281990Y21610D01*
X281971Y21613D01*
X281832Y21605D01*
X281693Y21600D01*
X281673Y21595D01*
X281653Y21594D01*
X281521Y21551D01*
X281387Y21512D01*
X281370Y21502D01*
X281351Y21496D01*
X281233Y21421D01*
X281113Y21351D01*
X281092Y21332D01*
X281082Y21325D01*
X281068Y21310D01*
X280993Y21244D01*
X278532Y18784D01*
X278472Y18706D01*
X278404Y18634D01*
X278375Y18581D01*
X278338Y18533D01*
X278298Y18442D01*
X278250Y18355D01*
X278235Y18297D01*
X278211Y18241D01*
X278196Y18143D01*
X278171Y18047D01*
X278165Y17947D01*
X278161Y17927D01*
X278162Y17915D01*
X278161Y17887D01*
X278161Y15827D01*
X270392Y15827D01*
X269875Y15966D01*
X269412Y16233D01*
X269033Y16612D01*
X268766Y17075D01*
X268612Y17649D01*
X268605Y17763D01*
X268592Y17801D01*
X268587Y17842D01*
X268544Y17952D01*
X268507Y18065D01*
X268485Y18100D01*
X268470Y18137D01*
X268401Y18233D01*
X268337Y18334D01*
X268307Y18362D01*
X268284Y18395D01*
X268192Y18471D01*
X268105Y18552D01*
X268070Y18572D01*
X268039Y18597D01*
X267931Y18648D01*
X267827Y18706D01*
X267787Y18716D01*
X267751Y18733D01*
X267634Y18755D01*
X267519Y18785D01*
X267459Y18789D01*
X267439Y18793D01*
X267418Y18791D01*
X267358Y18795D01*
X260962Y18795D01*
X260844Y18780D01*
X260725Y18773D01*
X260687Y18760D01*
X260646Y18755D01*
X260536Y18712D01*
X260423Y18675D01*
X260388Y18653D01*
X260351Y18638D01*
X260255Y18569D01*
X260154Y18505D01*
X260126Y18475D01*
X260093Y18452D01*
X260017Y18360D01*
X259936Y18273D01*
X259916Y18238D01*
X259891Y18207D01*
X259840Y18099D01*
X259782Y17995D01*
X259772Y17955D01*
X259755Y17919D01*
X259733Y17802D01*
X259703Y17687D01*
X259699Y17627D01*
X259695Y17607D01*
X259696Y17603D01*
X259554Y17075D01*
X259287Y16612D01*
X258908Y16233D01*
X258445Y15966D01*
X257928Y15827D01*
X250159Y15827D01*
X250159Y17887D01*
X250147Y17985D01*
X250144Y18084D01*
X250127Y18142D01*
X250119Y18202D01*
X250083Y18294D01*
X250055Y18389D01*
X250025Y18441D01*
X250002Y18498D01*
X249944Y18578D01*
X249894Y18663D01*
X249828Y18739D01*
X249816Y18755D01*
X249806Y18763D01*
X249788Y18784D01*
X247333Y21238D01*
X247355Y21354D01*
X247385Y21469D01*
X247389Y21529D01*
X247393Y21549D01*
X247391Y21570D01*
X247395Y21630D01*
X247395Y24090D01*
X247380Y24208D01*
X247373Y24327D01*
X247360Y24365D01*
X247355Y24406D01*
X247328Y24476D01*
X249788Y26936D01*
X249848Y27014D01*
X249916Y27086D01*
X249945Y27139D01*
X249982Y27187D01*
X250022Y27278D01*
X250070Y27365D01*
X250085Y27423D01*
X250109Y27479D01*
X250124Y27577D01*
X250149Y27673D01*
X250155Y27773D01*
X250159Y27793D01*
X250157Y27805D01*
X250159Y27833D01*
X250159Y29893D01*
X257928Y29893D01*
X258445Y29754D01*
X258908Y29487D01*
X259287Y29108D01*
X259554Y28645D01*
X259708Y28071D01*
X259715Y27957D01*
X259728Y27919D01*
X259733Y27878D01*
X259776Y27768D01*
X259813Y27655D01*
X259835Y27620D01*
X259850Y27583D01*
X259919Y27487D01*
X259983Y27386D01*
X260013Y27358D01*
X260036Y27325D01*
X260128Y27249D01*
X260215Y27168D01*
X260250Y27148D01*
X260281Y27123D01*
X260389Y27072D01*
X260493Y27014D01*
X260533Y27004D01*
X260569Y26987D01*
X260686Y26965D01*
X260801Y26935D01*
X260861Y26931D01*
X260881Y26927D01*
X260902Y26929D01*
X260962Y26925D01*
X267358Y26925D01*
X267476Y26940D01*
X267595Y26947D01*
X267633Y26960D01*
X267674Y26965D01*
X267784Y27008D01*
X267897Y27045D01*
X267932Y27067D01*
X267969Y27082D01*
X268065Y27151D01*
X268166Y27215D01*
X268194Y27245D01*
X268227Y27268D01*
X268303Y27360D01*
X268384Y27447D01*
X268404Y27482D01*
X268429Y27513D01*
X268480Y27621D01*
X268538Y27725D01*
X268548Y27765D01*
X268565Y27801D01*
X268587Y27918D01*
X268617Y28033D01*
X268621Y28093D01*
X268625Y28113D01*
X268624Y28117D01*
X268766Y28645D01*
X269033Y29108D01*
X269412Y29487D01*
X269875Y29754D01*
X270392Y29893D01*
X278161Y29893D01*
X278161Y27833D01*
X278173Y27735D01*
X278176Y27636D01*
X278193Y27578D01*
X278201Y27518D01*
X278237Y27426D01*
X278265Y27331D01*
X278295Y27279D01*
X278318Y27222D01*
X278376Y27142D01*
X278426Y27057D01*
X278492Y26981D01*
X278504Y26965D01*
X278514Y26957D01*
X278532Y26936D01*
X280993Y24476D01*
X281076Y24411D01*
X281128Y24363D01*
X281153Y24348D01*
X281209Y24302D01*
X281228Y24293D01*
X281244Y24281D01*
X281372Y24225D01*
X281403Y24211D01*
X281406Y24209D01*
X281407Y24209D01*
X281497Y24166D01*
X281517Y24163D01*
X281536Y24155D01*
X281674Y24133D01*
X281810Y24107D01*
X281830Y24108D01*
X281850Y24105D01*
X281989Y24118D01*
X282127Y24126D01*
X282146Y24133D01*
X282166Y24135D01*
X282298Y24182D01*
X282429Y24224D01*
X282447Y24235D01*
X282466Y24242D01*
X282581Y24320D01*
X282698Y24395D01*
X282712Y24409D01*
X282729Y24421D01*
X282821Y24525D01*
X282916Y24626D01*
X282926Y24644D01*
X282939Y24659D01*
X283003Y24783D01*
X283070Y24905D01*
X283075Y24924D01*
X283084Y24942D01*
X283095Y24992D01*
X283097Y24996D01*
X283103Y25028D01*
X283114Y25078D01*
X283149Y25213D01*
X283151Y25241D01*
X283154Y25253D01*
X283153Y25273D01*
X283154Y25296D01*
X283157Y25308D01*
X283156Y25321D01*
X283159Y25373D01*
X283159Y29893D01*
X290928Y29893D01*
X291445Y29754D01*
X291465Y29742D01*
X291587Y29691D01*
X291707Y29634D01*
X291734Y29629D01*
X291758Y29619D01*
X291890Y29600D01*
X292020Y29575D01*
X292046Y29576D01*
X292073Y29572D01*
X292205Y29586D01*
X292337Y29594D01*
X292363Y29603D01*
X292389Y29606D01*
X292514Y29652D01*
X292639Y29692D01*
X292662Y29707D01*
X292688Y29716D01*
X292796Y29792D01*
X292908Y29863D01*
X292927Y29882D01*
X292949Y29898D01*
X293035Y29998D01*
X293126Y30094D01*
X293139Y30118D01*
X293157Y30138D01*
X293216Y30257D01*
X293280Y30373D01*
X293286Y30399D01*
X293298Y30423D01*
X293326Y30552D01*
X293359Y30681D01*
X293361Y30719D01*
X293365Y30734D01*
X293364Y30756D01*
X293369Y30841D01*
X293369Y40030D01*
X293352Y40168D01*
X293339Y40307D01*
X293332Y40326D01*
X293329Y40346D01*
X293278Y40475D01*
X293231Y40606D01*
X293220Y40623D01*
X293212Y40642D01*
X293131Y40754D01*
X293052Y40869D01*
X293037Y40883D01*
X293026Y40899D01*
X292918Y40988D01*
X292814Y41080D01*
X292796Y41089D01*
X292781Y41102D01*
X292655Y41161D01*
X292531Y41224D01*
X292511Y41229D01*
X292493Y41237D01*
X292357Y41263D01*
X292220Y41294D01*
X292200Y41293D01*
X292181Y41297D01*
X292042Y41288D01*
X291903Y41284D01*
X291883Y41279D01*
X291863Y41277D01*
X291731Y41234D01*
X291706Y41227D01*
X269818Y41227D01*
X268627Y42418D01*
X268627Y42926D01*
X268612Y43044D01*
X268605Y43163D01*
X268592Y43201D01*
X268587Y43242D01*
X268544Y43352D01*
X268507Y43465D01*
X268485Y43500D01*
X268470Y43537D01*
X268401Y43633D01*
X268337Y43734D01*
X268307Y43762D01*
X268284Y43795D01*
X268192Y43871D01*
X268105Y43952D01*
X268070Y43972D01*
X268039Y43997D01*
X267931Y44048D01*
X267827Y44106D01*
X267787Y44116D01*
X267751Y44133D01*
X267634Y44155D01*
X267519Y44185D01*
X267459Y44189D01*
X267439Y44193D01*
X267418Y44191D01*
X267358Y44195D01*
X260962Y44195D01*
X260844Y44180D01*
X260725Y44173D01*
X260687Y44160D01*
X260646Y44155D01*
X260536Y44112D01*
X260423Y44075D01*
X260388Y44053D01*
X260351Y44038D01*
X260255Y43969D01*
X260154Y43905D01*
X260126Y43875D01*
X260093Y43852D01*
X260017Y43760D01*
X259936Y43673D01*
X259916Y43638D01*
X259891Y43607D01*
X259840Y43499D01*
X259782Y43395D01*
X259772Y43355D01*
X259755Y43319D01*
X259733Y43202D01*
X259703Y43087D01*
X259699Y43027D01*
X259695Y43007D01*
X259697Y42986D01*
X259693Y42926D01*
X259693Y42418D01*
X258502Y41227D01*
X236818Y41227D01*
X235627Y42418D01*
X235627Y42926D01*
X235612Y43044D01*
X235605Y43163D01*
X235592Y43201D01*
X235587Y43242D01*
X235544Y43352D01*
X235507Y43465D01*
X235485Y43500D01*
X235470Y43537D01*
X235401Y43633D01*
X235337Y43734D01*
X235307Y43762D01*
X235284Y43795D01*
X235192Y43871D01*
X235105Y43952D01*
X235070Y43972D01*
X235039Y43997D01*
X234931Y44048D01*
X234827Y44106D01*
X234787Y44116D01*
X234751Y44133D01*
X234634Y44155D01*
X234519Y44185D01*
X234459Y44189D01*
X234439Y44193D01*
X234418Y44191D01*
X234358Y44195D01*
X195166Y44195D01*
X191358Y48004D01*
X191280Y48064D01*
X191208Y48132D01*
X191155Y48161D01*
X191107Y48198D01*
X191016Y48238D01*
X190929Y48286D01*
X190871Y48301D01*
X190815Y48325D01*
X190717Y48340D01*
X190621Y48365D01*
X190521Y48371D01*
X190501Y48375D01*
X190489Y48373D01*
X190461Y48375D01*
X189992Y48375D01*
X189894Y48363D01*
X189795Y48360D01*
X189736Y48343D01*
X189676Y48335D01*
X189584Y48299D01*
X189489Y48271D01*
X189437Y48241D01*
X189381Y48218D01*
X189301Y48160D01*
X189215Y48110D01*
X189140Y48044D01*
X189123Y48032D01*
X189115Y48022D01*
X189094Y48004D01*
X181464Y40374D01*
X181404Y40295D01*
X181336Y40223D01*
X181307Y40170D01*
X181270Y40122D01*
X181230Y40031D01*
X181182Y39945D01*
X181167Y39886D01*
X181143Y39831D01*
X181128Y39733D01*
X181103Y39637D01*
X181097Y39537D01*
X181093Y39517D01*
X181095Y39504D01*
X181093Y39476D01*
X181093Y33798D01*
X179902Y32607D01*
X179022Y32607D01*
X178884Y32590D01*
X178745Y32577D01*
X178726Y32570D01*
X178706Y32567D01*
X178577Y32516D01*
X178446Y32469D01*
X178429Y32458D01*
X178410Y32450D01*
X178298Y32369D01*
X178183Y32291D01*
X178170Y32275D01*
X178153Y32264D01*
X178064Y32156D01*
X177972Y32052D01*
X177963Y32034D01*
X177950Y32019D01*
X177891Y31893D01*
X177828Y31769D01*
X177823Y31749D01*
X177815Y31731D01*
X177789Y31595D01*
X177758Y31459D01*
X177759Y31438D01*
X177755Y31419D01*
X177764Y31280D01*
X177768Y31141D01*
X177773Y31121D01*
X177775Y31101D01*
X177818Y30969D01*
X177856Y30835D01*
X177867Y30818D01*
X177873Y30799D01*
X177947Y30681D01*
X178018Y30561D01*
X178036Y30540D01*
X178043Y30530D01*
X178058Y30516D01*
X178093Y30476D01*
X178093Y17788D01*
X176902Y16597D01*
X165218Y16597D01*
X164027Y17788D01*
X164027Y30472D01*
X165218Y31663D01*
X166098Y31663D01*
X166236Y31680D01*
X166375Y31693D01*
X166394Y31700D01*
X166414Y31703D01*
X166543Y31754D01*
X166674Y31801D01*
X166691Y31812D01*
X166710Y31820D01*
X166822Y31901D01*
X166937Y31979D01*
X166950Y31995D01*
X166967Y32006D01*
X167056Y32114D01*
X167148Y32218D01*
X167157Y32236D01*
X167170Y32251D01*
X167229Y32377D01*
X167292Y32501D01*
X167297Y32521D01*
X167305Y32539D01*
X167331Y32675D01*
X167362Y32811D01*
X167361Y32832D01*
X167365Y32851D01*
X167356Y32990D01*
X167352Y33129D01*
X167347Y33149D01*
X167345Y33169D01*
X167302Y33301D01*
X167264Y33435D01*
X167253Y33452D01*
X167247Y33471D01*
X167173Y33589D01*
X167102Y33709D01*
X167084Y33730D01*
X167077Y33740D01*
X167062Y33754D01*
X167027Y33794D01*
X167027Y47482D01*
X167496Y47951D01*
X167581Y48060D01*
X167670Y48167D01*
X167678Y48186D01*
X167691Y48202D01*
X167746Y48330D01*
X167805Y48455D01*
X167809Y48475D01*
X167817Y48494D01*
X167839Y48632D01*
X167865Y48768D01*
X167864Y48788D01*
X167867Y48808D01*
X167854Y48947D01*
X167845Y49085D01*
X167839Y49104D01*
X167837Y49124D01*
X167790Y49255D01*
X167747Y49387D01*
X167736Y49405D01*
X167730Y49424D01*
X167652Y49538D01*
X167577Y49656D01*
X167562Y49670D01*
X167551Y49687D01*
X167447Y49779D01*
X167345Y49874D01*
X167328Y49884D01*
X167313Y49897D01*
X167189Y49960D01*
X167067Y50028D01*
X167047Y50033D01*
X167029Y50042D01*
X166893Y50072D01*
X166759Y50107D01*
X166731Y50109D01*
X166719Y50112D01*
X166699Y50111D01*
X166598Y50117D01*
X165292Y50117D01*
X164775Y50256D01*
X164312Y50523D01*
X163933Y50902D01*
X163755Y51211D01*
X163679Y51311D01*
X163608Y51415D01*
X163583Y51437D01*
X163563Y51464D01*
X163464Y51542D01*
X163370Y51625D01*
X163340Y51641D01*
X163314Y51662D01*
X163199Y51713D01*
X163087Y51770D01*
X163054Y51777D01*
X163023Y51791D01*
X162899Y51812D01*
X162776Y51840D01*
X162743Y51839D01*
X162710Y51844D01*
X162584Y51834D01*
X162459Y51830D01*
X162426Y51821D01*
X162393Y51818D01*
X162274Y51777D01*
X162153Y51742D01*
X162124Y51724D01*
X162092Y51713D01*
X161987Y51644D01*
X161879Y51580D01*
X161842Y51548D01*
X161827Y51538D01*
X161813Y51522D01*
X161758Y51474D01*
X160402Y50117D01*
X158632Y50117D01*
X158514Y50102D01*
X158395Y50095D01*
X158357Y50082D01*
X158316Y50077D01*
X158206Y50034D01*
X158093Y49997D01*
X158058Y49975D01*
X158021Y49960D01*
X157925Y49891D01*
X157824Y49827D01*
X157796Y49797D01*
X157763Y49774D01*
X157687Y49682D01*
X157606Y49595D01*
X157586Y49560D01*
X157561Y49529D01*
X157510Y49421D01*
X157452Y49317D01*
X157442Y49277D01*
X157425Y49241D01*
X157403Y49124D01*
X157373Y49009D01*
X157369Y48949D01*
X157365Y48929D01*
X157367Y48908D01*
X157363Y48848D01*
X157363Y48738D01*
X157375Y48640D01*
X157378Y48540D01*
X157395Y48482D01*
X157403Y48422D01*
X157439Y48330D01*
X157467Y48235D01*
X157497Y48183D01*
X157520Y48126D01*
X157578Y48046D01*
X157628Y47961D01*
X157694Y47886D01*
X157706Y47869D01*
X157716Y47861D01*
X157735Y47840D01*
X158093Y47482D01*
X158093Y33789D01*
X158039Y33720D01*
X157950Y33613D01*
X157942Y33594D01*
X157929Y33578D01*
X157874Y33450D01*
X157815Y33325D01*
X157811Y33305D01*
X157803Y33286D01*
X157781Y33149D01*
X157755Y33012D01*
X157756Y32992D01*
X157753Y32972D01*
X157766Y32834D01*
X157775Y32695D01*
X157781Y32676D01*
X157783Y32656D01*
X157830Y32524D01*
X157873Y32393D01*
X157884Y32375D01*
X157890Y32356D01*
X157969Y32241D01*
X158043Y32124D01*
X158058Y32110D01*
X158069Y32093D01*
X158173Y32001D01*
X158275Y31906D01*
X158292Y31896D01*
X158307Y31883D01*
X158432Y31819D01*
X158553Y31752D01*
X158573Y31747D01*
X158591Y31738D01*
X158727Y31708D01*
X158861Y31673D01*
X158889Y31671D01*
X158901Y31668D01*
X158921Y31669D01*
X159022Y31663D01*
X159902Y31663D01*
X161093Y30472D01*
X161093Y17788D01*
X159902Y16597D01*
X148218Y16597D01*
X147027Y17788D01*
X147027Y30481D01*
X147081Y30550D01*
X147170Y30657D01*
X147178Y30676D01*
X147191Y30692D01*
X147246Y30820D01*
X147305Y30945D01*
X147309Y30965D01*
X147317Y30984D01*
X147339Y31121D01*
X147365Y31258D01*
X147364Y31278D01*
X147367Y31298D01*
X147354Y31436D01*
X147345Y31575D01*
X147339Y31594D01*
X147337Y31614D01*
X147290Y31746D01*
X147247Y31877D01*
X147236Y31895D01*
X147230Y31914D01*
X147151Y32029D01*
X147077Y32146D01*
X147062Y32160D01*
X147051Y32177D01*
X146947Y32269D01*
X146845Y32364D01*
X146828Y32374D01*
X146813Y32387D01*
X146688Y32451D01*
X146567Y32518D01*
X146547Y32523D01*
X146529Y32532D01*
X146393Y32562D01*
X146259Y32597D01*
X146231Y32599D01*
X146219Y32602D01*
X146199Y32601D01*
X146098Y32607D01*
X145218Y32607D01*
X144027Y33798D01*
X144027Y47482D01*
X145218Y48673D01*
X146098Y48673D01*
X146236Y48690D01*
X146375Y48703D01*
X146394Y48710D01*
X146414Y48713D01*
X146543Y48764D01*
X146674Y48811D01*
X146691Y48822D01*
X146710Y48830D01*
X146822Y48911D01*
X146937Y48989D01*
X146950Y49005D01*
X146967Y49016D01*
X147056Y49124D01*
X147148Y49228D01*
X147157Y49246D01*
X147170Y49261D01*
X147229Y49387D01*
X147292Y49511D01*
X147297Y49531D01*
X147305Y49549D01*
X147331Y49686D01*
X147362Y49821D01*
X147361Y49842D01*
X147365Y49861D01*
X147356Y50000D01*
X147352Y50139D01*
X147347Y50159D01*
X147345Y50179D01*
X147303Y50311D01*
X147264Y50445D01*
X147253Y50462D01*
X147247Y50481D01*
X147173Y50599D01*
X147102Y50719D01*
X147084Y50740D01*
X147077Y50750D01*
X147062Y50764D01*
X146996Y50839D01*
X146527Y51308D01*
X146527Y52746D01*
X146515Y52844D01*
X146512Y52943D01*
X146495Y53002D01*
X146487Y53062D01*
X146451Y53154D01*
X146423Y53249D01*
X146393Y53301D01*
X146370Y53357D01*
X146312Y53437D01*
X146262Y53523D01*
X146196Y53598D01*
X146184Y53615D01*
X146174Y53623D01*
X146156Y53644D01*
X140101Y59699D01*
X140022Y59759D01*
X139950Y59827D01*
X139897Y59856D01*
X139849Y59893D01*
X139758Y59933D01*
X139672Y59981D01*
X139613Y59996D01*
X139558Y60020D01*
X139460Y60035D01*
X139364Y60060D01*
X139264Y60066D01*
X139243Y60070D01*
X139231Y60068D01*
X139203Y60070D01*
X137243Y60070D01*
X135048Y60979D01*
X133369Y62658D01*
X132460Y64853D01*
X132460Y67227D01*
X133369Y69422D01*
X135048Y71101D01*
X137243Y72010D01*
X139617Y72010D01*
X141812Y71101D01*
X143491Y69422D01*
X144400Y67227D01*
X144400Y65267D01*
X144412Y65169D01*
X144415Y65070D01*
X144432Y65011D01*
X144440Y64951D01*
X144476Y64859D01*
X144504Y64764D01*
X144534Y64712D01*
X144557Y64656D01*
X144615Y64575D01*
X144665Y64490D01*
X144731Y64415D01*
X144743Y64398D01*
X144753Y64390D01*
X144771Y64369D01*
X145440Y63700D01*
X145535Y63627D01*
X145624Y63548D01*
X145660Y63530D01*
X145692Y63505D01*
X145801Y63458D01*
X145907Y63404D01*
X145946Y63395D01*
X145984Y63379D01*
X146101Y63360D01*
X146217Y63334D01*
X146258Y63335D01*
X146298Y63329D01*
X146416Y63340D01*
X146535Y63344D01*
X146574Y63355D01*
X146614Y63359D01*
X146726Y63399D01*
X146841Y63432D01*
X146876Y63453D01*
X146914Y63467D01*
X147012Y63533D01*
X147115Y63594D01*
X147160Y63634D01*
X147177Y63645D01*
X147190Y63660D01*
X147236Y63700D01*
X147718Y64183D01*
X160402Y64183D01*
X161758Y62826D01*
X161858Y62749D01*
X161953Y62667D01*
X161983Y62652D01*
X162010Y62631D01*
X162125Y62581D01*
X162238Y62525D01*
X162271Y62518D01*
X162301Y62505D01*
X162426Y62485D01*
X162549Y62459D01*
X162582Y62460D01*
X162616Y62455D01*
X162741Y62467D01*
X162866Y62472D01*
X162899Y62482D01*
X162932Y62485D01*
X163050Y62528D01*
X163171Y62564D01*
X163200Y62581D01*
X163231Y62593D01*
X163336Y62663D01*
X163443Y62728D01*
X163467Y62752D01*
X163495Y62771D01*
X163578Y62866D01*
X163666Y62955D01*
X163693Y62996D01*
X163705Y63010D01*
X163715Y63029D01*
X163755Y63089D01*
X163933Y63398D01*
X164312Y63777D01*
X164775Y64044D01*
X165292Y64183D01*
X168561Y64183D01*
X168561Y58380D01*
X168576Y58262D01*
X168583Y58143D01*
X168595Y58105D01*
X168601Y58065D01*
X168644Y57954D01*
X168681Y57841D01*
X168703Y57807D01*
X168718Y57769D01*
X168787Y57673D01*
X168851Y57572D01*
X168881Y57544D01*
X168904Y57512D01*
X168996Y57436D01*
X169083Y57354D01*
X169118Y57335D01*
X169149Y57309D01*
X169257Y57258D01*
X169361Y57201D01*
X169401Y57191D01*
X169437Y57173D01*
X169554Y57151D01*
X169669Y57121D01*
X169729Y57117D01*
X169749Y57114D01*
X169770Y57115D01*
X169830Y57111D01*
X171021Y57111D01*
X171021Y55920D01*
X171036Y55802D01*
X171043Y55683D01*
X171056Y55645D01*
X171061Y55604D01*
X171105Y55494D01*
X171141Y55381D01*
X171163Y55346D01*
X171178Y55309D01*
X171248Y55212D01*
X171311Y55112D01*
X171341Y55084D01*
X171365Y55051D01*
X171456Y54975D01*
X171543Y54894D01*
X171578Y54874D01*
X171610Y54849D01*
X171717Y54798D01*
X171822Y54740D01*
X171861Y54730D01*
X171897Y54713D01*
X172014Y54691D01*
X172130Y54661D01*
X172190Y54657D01*
X172210Y54653D01*
X172230Y54655D01*
X172290Y54651D01*
X178593Y54651D01*
X178593Y51882D01*
X178454Y51365D01*
X178187Y50902D01*
X178124Y50840D01*
X178039Y50730D01*
X177950Y50623D01*
X177942Y50604D01*
X177929Y50588D01*
X177874Y50460D01*
X177815Y50335D01*
X177811Y50315D01*
X177803Y50296D01*
X177781Y50159D01*
X177755Y50022D01*
X177756Y50002D01*
X177753Y49982D01*
X177766Y49844D01*
X177775Y49705D01*
X177781Y49686D01*
X177783Y49666D01*
X177830Y49535D01*
X177873Y49403D01*
X177884Y49385D01*
X177890Y49366D01*
X177968Y49252D01*
X178043Y49134D01*
X178058Y49120D01*
X178069Y49103D01*
X178173Y49011D01*
X178275Y48916D01*
X178292Y48906D01*
X178307Y48893D01*
X178432Y48829D01*
X178553Y48762D01*
X178573Y48757D01*
X178591Y48748D01*
X178727Y48718D01*
X178861Y48683D01*
X178889Y48681D01*
X178901Y48678D01*
X178921Y48679D01*
X179022Y48673D01*
X179896Y48673D01*
X179994Y48685D01*
X180093Y48688D01*
X180152Y48705D01*
X180212Y48713D01*
X180304Y48749D01*
X180399Y48777D01*
X180451Y48807D01*
X180507Y48830D01*
X180587Y48888D01*
X180673Y48938D01*
X180748Y49004D01*
X180765Y49016D01*
X180773Y49026D01*
X180794Y49044D01*
X184424Y52674D01*
X184484Y52753D01*
X184552Y52825D01*
X184581Y52878D01*
X184618Y52926D01*
X184658Y53017D01*
X184706Y53103D01*
X184721Y53162D01*
X184745Y53217D01*
X184760Y53315D01*
X184785Y53411D01*
X184791Y53511D01*
X184795Y53531D01*
X184793Y53544D01*
X184795Y53572D01*
X184795Y55532D01*
X185704Y57727D01*
X187383Y59406D01*
X188074Y59692D01*
X188099Y59706D01*
X188127Y59716D01*
X188237Y59785D01*
X188350Y59849D01*
X188371Y59870D01*
X188396Y59886D01*
X188485Y59980D01*
X188578Y60071D01*
X188594Y60096D01*
X188614Y60117D01*
X188677Y60231D01*
X188745Y60342D01*
X188753Y60370D01*
X188768Y60396D01*
X188800Y60521D01*
X188838Y60646D01*
X188840Y60675D01*
X188847Y60704D01*
X188857Y60864D01*
X188857Y64858D01*
X188842Y64976D01*
X188835Y65095D01*
X188822Y65133D01*
X188817Y65174D01*
X188774Y65284D01*
X188737Y65397D01*
X188715Y65432D01*
X188700Y65469D01*
X188631Y65565D01*
X188567Y65666D01*
X188537Y65694D01*
X188514Y65727D01*
X188422Y65803D01*
X188335Y65884D01*
X188300Y65904D01*
X188269Y65929D01*
X188161Y65980D01*
X188057Y66038D01*
X188017Y66048D01*
X187981Y66065D01*
X187864Y66087D01*
X187749Y66117D01*
X187689Y66121D01*
X187669Y66125D01*
X187648Y66123D01*
X187588Y66127D01*
X186318Y66127D01*
X185127Y67318D01*
X185127Y80002D01*
X186318Y81193D01*
X187588Y81193D01*
X187706Y81208D01*
X187825Y81215D01*
X187863Y81228D01*
X187904Y81233D01*
X188014Y81276D01*
X188127Y81313D01*
X188162Y81335D01*
X188199Y81350D01*
X188295Y81419D01*
X188396Y81483D01*
X188424Y81513D01*
X188457Y81536D01*
X188533Y81628D01*
X188614Y81715D01*
X188634Y81750D01*
X188659Y81781D01*
X188710Y81889D01*
X188768Y81993D01*
X188778Y82033D01*
X188795Y82069D01*
X188817Y82186D01*
X188847Y82301D01*
X188851Y82361D01*
X188855Y82381D01*
X188853Y82402D01*
X188857Y82462D01*
X188857Y90258D01*
X188842Y90376D01*
X188835Y90495D01*
X188822Y90533D01*
X188817Y90574D01*
X188774Y90684D01*
X188737Y90797D01*
X188715Y90832D01*
X188700Y90869D01*
X188631Y90965D01*
X188567Y91066D01*
X188537Y91094D01*
X188514Y91127D01*
X188422Y91203D01*
X188335Y91284D01*
X188300Y91304D01*
X188269Y91329D01*
X188161Y91380D01*
X188057Y91438D01*
X188017Y91448D01*
X187981Y91465D01*
X187864Y91487D01*
X187749Y91517D01*
X187689Y91521D01*
X187669Y91525D01*
X187648Y91523D01*
X187588Y91527D01*
X186318Y91527D01*
X185127Y92718D01*
X185127Y105402D01*
X186318Y106593D01*
X198002Y106593D01*
X199193Y105402D01*
X199193Y92718D01*
X198002Y91527D01*
X196732Y91527D01*
X196614Y91512D01*
X196495Y91505D01*
X196457Y91492D01*
X196416Y91487D01*
X196306Y91444D01*
X196193Y91407D01*
X196158Y91385D01*
X196121Y91370D01*
X196025Y91301D01*
X195924Y91237D01*
X195896Y91207D01*
X195863Y91184D01*
X195787Y91092D01*
X195706Y91005D01*
X195686Y90970D01*
X195661Y90939D01*
X195610Y90831D01*
X195552Y90727D01*
X195542Y90687D01*
X195525Y90651D01*
X195503Y90534D01*
X195473Y90419D01*
X195469Y90359D01*
X195465Y90339D01*
X195467Y90318D01*
X195463Y90258D01*
X195463Y82462D01*
X195478Y82344D01*
X195485Y82225D01*
X195498Y82187D01*
X195503Y82146D01*
X195546Y82036D01*
X195583Y81923D01*
X195605Y81888D01*
X195620Y81851D01*
X195689Y81755D01*
X195753Y81654D01*
X195783Y81626D01*
X195806Y81593D01*
X195898Y81517D01*
X195985Y81436D01*
X196020Y81416D01*
X196051Y81391D01*
X196159Y81340D01*
X196263Y81282D01*
X196303Y81272D01*
X196339Y81255D01*
X196456Y81233D01*
X196571Y81203D01*
X196631Y81199D01*
X196651Y81195D01*
X196672Y81197D01*
X196732Y81193D01*
X198002Y81193D01*
X199193Y80002D01*
X199193Y67318D01*
X198002Y66127D01*
X196732Y66127D01*
X196614Y66112D01*
X196495Y66105D01*
X196457Y66092D01*
X196416Y66087D01*
X196306Y66044D01*
X196193Y66007D01*
X196158Y65985D01*
X196121Y65970D01*
X196025Y65901D01*
X195924Y65837D01*
X195896Y65807D01*
X195863Y65784D01*
X195787Y65692D01*
X195706Y65605D01*
X195686Y65570D01*
X195661Y65539D01*
X195610Y65431D01*
X195552Y65327D01*
X195542Y65287D01*
X195525Y65251D01*
X195503Y65134D01*
X195473Y65019D01*
X195469Y64959D01*
X195465Y64939D01*
X195467Y64918D01*
X195463Y64858D01*
X195463Y58615D01*
X195475Y58517D01*
X195478Y58418D01*
X195495Y58360D01*
X195503Y58300D01*
X195539Y58208D01*
X195567Y58113D01*
X195597Y58061D01*
X195620Y58004D01*
X195678Y57924D01*
X195728Y57839D01*
X195794Y57763D01*
X195806Y57747D01*
X195816Y57739D01*
X195825Y57729D01*
X196735Y55532D01*
X196735Y54649D01*
X196747Y54551D01*
X196750Y54452D01*
X196767Y54394D01*
X196775Y54334D01*
X196811Y54242D01*
X196839Y54147D01*
X196869Y54095D01*
X196892Y54038D01*
X196950Y53958D01*
X197000Y53873D01*
X197066Y53797D01*
X197078Y53781D01*
X197088Y53773D01*
X197106Y53752D01*
X198162Y52696D01*
X198240Y52636D01*
X198312Y52568D01*
X198365Y52539D01*
X198413Y52502D01*
X198504Y52462D01*
X198591Y52414D01*
X198649Y52399D01*
X198705Y52375D01*
X198803Y52360D01*
X198899Y52335D01*
X198999Y52329D01*
X199019Y52325D01*
X199031Y52327D01*
X199059Y52325D01*
X234358Y52325D01*
X234476Y52340D01*
X234595Y52347D01*
X234633Y52360D01*
X234674Y52365D01*
X234784Y52408D01*
X234897Y52445D01*
X234932Y52467D01*
X234969Y52482D01*
X235065Y52551D01*
X235166Y52615D01*
X235194Y52645D01*
X235227Y52668D01*
X235303Y52760D01*
X235384Y52847D01*
X235404Y52882D01*
X235429Y52913D01*
X235480Y53021D01*
X235538Y53125D01*
X235548Y53165D01*
X235565Y53201D01*
X235587Y53318D01*
X235617Y53433D01*
X235621Y53493D01*
X235625Y53513D01*
X235623Y53534D01*
X235627Y53594D01*
X235627Y54102D01*
X236818Y55293D01*
X258502Y55293D01*
X259693Y54102D01*
X259693Y53594D01*
X259708Y53476D01*
X259715Y53357D01*
X259728Y53319D01*
X259733Y53278D01*
X259776Y53168D01*
X259813Y53055D01*
X259835Y53020D01*
X259850Y52983D01*
X259919Y52887D01*
X259983Y52786D01*
X260013Y52758D01*
X260036Y52725D01*
X260128Y52649D01*
X260215Y52568D01*
X260250Y52548D01*
X260281Y52523D01*
X260389Y52472D01*
X260493Y52414D01*
X260533Y52404D01*
X260569Y52387D01*
X260686Y52365D01*
X260801Y52335D01*
X260861Y52331D01*
X260881Y52327D01*
X260902Y52329D01*
X260962Y52325D01*
X267358Y52325D01*
X267476Y52340D01*
X267595Y52347D01*
X267633Y52360D01*
X267674Y52365D01*
X267784Y52408D01*
X267897Y52445D01*
X267932Y52467D01*
X267969Y52482D01*
X268065Y52551D01*
X268166Y52615D01*
X268194Y52645D01*
X268227Y52668D01*
X268303Y52760D01*
X268384Y52847D01*
X268404Y52882D01*
X268429Y52913D01*
X268480Y53021D01*
X268538Y53125D01*
X268548Y53165D01*
X268565Y53201D01*
X268587Y53318D01*
X268617Y53433D01*
X268621Y53493D01*
X268625Y53513D01*
X268623Y53534D01*
X268627Y53594D01*
X268627Y54102D01*
X269818Y55293D01*
X291686Y55293D01*
X291707Y55283D01*
X291727Y55279D01*
X291745Y55271D01*
X291883Y55249D01*
X292020Y55223D01*
X292040Y55224D01*
X292059Y55221D01*
X292198Y55234D01*
X292337Y55243D01*
X292356Y55249D01*
X292376Y55251D01*
X292507Y55298D01*
X292639Y55341D01*
X292656Y55352D01*
X292675Y55358D01*
X292790Y55436D01*
X292908Y55511D01*
X292922Y55526D01*
X292939Y55537D01*
X293031Y55641D01*
X293126Y55743D01*
X293136Y55760D01*
X293149Y55775D01*
X293212Y55899D01*
X293280Y56021D01*
X293285Y56041D01*
X293294Y56058D01*
X293324Y56194D01*
X293359Y56329D01*
X293361Y56357D01*
X293363Y56369D01*
X293363Y56389D01*
X293369Y56490D01*
X293369Y65430D01*
X293352Y65568D01*
X293339Y65707D01*
X293332Y65726D01*
X293329Y65746D01*
X293278Y65875D01*
X293231Y66006D01*
X293220Y66023D01*
X293212Y66042D01*
X293131Y66154D01*
X293052Y66269D01*
X293037Y66283D01*
X293026Y66299D01*
X292918Y66388D01*
X292814Y66480D01*
X292796Y66489D01*
X292781Y66502D01*
X292655Y66561D01*
X292531Y66624D01*
X292511Y66629D01*
X292493Y66637D01*
X292357Y66663D01*
X292220Y66694D01*
X292200Y66693D01*
X292181Y66697D01*
X292042Y66688D01*
X291903Y66684D01*
X291883Y66679D01*
X291863Y66677D01*
X291731Y66634D01*
X291706Y66627D01*
X269818Y66627D01*
X268627Y67818D01*
X268627Y68326D01*
X268612Y68444D01*
X268605Y68563D01*
X268592Y68601D01*
X268587Y68642D01*
X268544Y68752D01*
X268507Y68865D01*
X268485Y68900D01*
X268470Y68937D01*
X268401Y69033D01*
X268337Y69134D01*
X268307Y69162D01*
X268284Y69195D01*
X268192Y69271D01*
X268105Y69352D01*
X268070Y69372D01*
X268039Y69397D01*
X267931Y69448D01*
X267827Y69506D01*
X267787Y69516D01*
X267751Y69533D01*
X267634Y69555D01*
X267519Y69585D01*
X267459Y69589D01*
X267439Y69593D01*
X267418Y69591D01*
X267358Y69595D01*
X260962Y69595D01*
X260844Y69580D01*
X260725Y69573D01*
X260687Y69560D01*
X260646Y69555D01*
X260536Y69512D01*
X260423Y69475D01*
X260388Y69453D01*
X260351Y69438D01*
X260255Y69369D01*
X260154Y69305D01*
X260126Y69275D01*
X260093Y69252D01*
X260017Y69160D01*
X259936Y69073D01*
X259916Y69038D01*
X259891Y69007D01*
X259840Y68899D01*
X259782Y68795D01*
X259772Y68755D01*
X259755Y68719D01*
X259733Y68602D01*
X259703Y68487D01*
X259699Y68427D01*
X259695Y68407D01*
X259697Y68386D01*
X259693Y68326D01*
X259693Y67818D01*
X258502Y66627D01*
X236818Y66627D01*
X235627Y67818D01*
X235627Y69088D01*
X235612Y69206D01*
X235605Y69325D01*
X235592Y69363D01*
X235587Y69404D01*
X235544Y69514D01*
X235507Y69627D01*
X235485Y69662D01*
X235470Y69699D01*
X235401Y69795D01*
X235337Y69896D01*
X235307Y69924D01*
X235284Y69957D01*
X235192Y70033D01*
X235105Y70114D01*
X235070Y70134D01*
X235039Y70159D01*
X234931Y70210D01*
X234827Y70268D01*
X234787Y70278D01*
X234751Y70295D01*
X234634Y70317D01*
X234519Y70347D01*
X234459Y70351D01*
X234439Y70355D01*
X234418Y70353D01*
X234358Y70357D01*
X231725Y70357D01*
X231627Y70345D01*
X231528Y70342D01*
X231470Y70325D01*
X231410Y70317D01*
X231318Y70281D01*
X231223Y70253D01*
X231171Y70223D01*
X231114Y70200D01*
X231034Y70142D01*
X230949Y70092D01*
X230873Y70026D01*
X230857Y70014D01*
X230849Y70004D01*
X230828Y69986D01*
X229442Y68599D01*
X227247Y67690D01*
X224873Y67690D01*
X222678Y68599D01*
X221292Y69986D01*
X221214Y70046D01*
X221142Y70114D01*
X221089Y70143D01*
X221041Y70180D01*
X220950Y70220D01*
X220863Y70268D01*
X220805Y70283D01*
X220749Y70307D01*
X220651Y70322D01*
X220555Y70347D01*
X220455Y70353D01*
X220435Y70357D01*
X220423Y70355D01*
X220395Y70357D01*
X217462Y70357D01*
X217344Y70342D01*
X217225Y70335D01*
X217187Y70322D01*
X217146Y70317D01*
X217036Y70274D01*
X216923Y70237D01*
X216888Y70215D01*
X216851Y70200D01*
X216755Y70131D01*
X216654Y70067D01*
X216626Y70037D01*
X216593Y70014D01*
X216517Y69922D01*
X216436Y69835D01*
X216416Y69800D01*
X216391Y69769D01*
X216340Y69661D01*
X216282Y69557D01*
X216272Y69517D01*
X216255Y69481D01*
X216233Y69364D01*
X216203Y69249D01*
X216199Y69189D01*
X216195Y69169D01*
X216197Y69148D01*
X216193Y69088D01*
X216193Y67318D01*
X215002Y66127D01*
X203318Y66127D01*
X202127Y67318D01*
X202127Y80002D01*
X203318Y81193D01*
X215002Y81193D01*
X216193Y80002D01*
X216193Y78232D01*
X216208Y78114D01*
X216215Y77995D01*
X216228Y77957D01*
X216233Y77916D01*
X216276Y77806D01*
X216313Y77693D01*
X216335Y77658D01*
X216350Y77621D01*
X216419Y77525D01*
X216483Y77424D01*
X216513Y77396D01*
X216536Y77363D01*
X216628Y77287D01*
X216715Y77206D01*
X216750Y77186D01*
X216781Y77161D01*
X216889Y77110D01*
X216993Y77052D01*
X217033Y77042D01*
X217069Y77025D01*
X217186Y77003D01*
X217301Y76973D01*
X217361Y76969D01*
X217381Y76965D01*
X217402Y76967D01*
X217462Y76963D01*
X220395Y76963D01*
X220493Y76975D01*
X220592Y76978D01*
X220650Y76995D01*
X220710Y77003D01*
X220802Y77039D01*
X220897Y77067D01*
X220949Y77097D01*
X221006Y77120D01*
X221086Y77178D01*
X221171Y77228D01*
X221247Y77294D01*
X221263Y77306D01*
X221271Y77316D01*
X221292Y77334D01*
X222678Y78721D01*
X224873Y79630D01*
X227247Y79630D01*
X229442Y78721D01*
X230828Y77334D01*
X230906Y77274D01*
X230978Y77206D01*
X231031Y77177D01*
X231079Y77140D01*
X231170Y77100D01*
X231257Y77052D01*
X231315Y77037D01*
X231371Y77013D01*
X231469Y76998D01*
X231565Y76973D01*
X231665Y76967D01*
X231685Y76963D01*
X231697Y76965D01*
X231725Y76963D01*
X234358Y76963D01*
X234476Y76978D01*
X234595Y76985D01*
X234633Y76998D01*
X234674Y77003D01*
X234784Y77046D01*
X234897Y77083D01*
X234932Y77105D01*
X234969Y77120D01*
X235065Y77189D01*
X235166Y77253D01*
X235194Y77283D01*
X235227Y77306D01*
X235303Y77398D01*
X235384Y77485D01*
X235404Y77520D01*
X235429Y77551D01*
X235480Y77659D01*
X235538Y77763D01*
X235548Y77803D01*
X235565Y77839D01*
X235587Y77956D01*
X235617Y78071D01*
X235621Y78131D01*
X235625Y78151D01*
X235623Y78172D01*
X235627Y78232D01*
X235627Y79502D01*
X236818Y80693D01*
X258502Y80693D01*
X259693Y79502D01*
X259693Y78994D01*
X259708Y78876D01*
X259715Y78757D01*
X259728Y78719D01*
X259733Y78678D01*
X259776Y78568D01*
X259813Y78455D01*
X259835Y78420D01*
X259850Y78383D01*
X259919Y78287D01*
X259983Y78186D01*
X260013Y78158D01*
X260036Y78125D01*
X260128Y78049D01*
X260215Y77968D01*
X260250Y77948D01*
X260281Y77923D01*
X260389Y77872D01*
X260493Y77814D01*
X260533Y77804D01*
X260569Y77787D01*
X260686Y77765D01*
X260801Y77735D01*
X260861Y77731D01*
X260881Y77727D01*
X260902Y77729D01*
X260962Y77725D01*
X267358Y77725D01*
X267476Y77740D01*
X267595Y77747D01*
X267633Y77760D01*
X267674Y77765D01*
X267784Y77808D01*
X267897Y77845D01*
X267932Y77867D01*
X267969Y77882D01*
X268065Y77951D01*
X268166Y78015D01*
X268194Y78045D01*
X268227Y78068D01*
X268303Y78160D01*
X268384Y78247D01*
X268404Y78282D01*
X268429Y78313D01*
X268480Y78421D01*
X268538Y78525D01*
X268548Y78565D01*
X268565Y78601D01*
X268587Y78718D01*
X268617Y78833D01*
X268621Y78893D01*
X268625Y78913D01*
X268623Y78934D01*
X268627Y78994D01*
X268627Y79502D01*
X269818Y80693D01*
X291686Y80693D01*
X291707Y80683D01*
X291727Y80679D01*
X291745Y80671D01*
X291883Y80649D01*
X292020Y80623D01*
X292040Y80624D01*
X292059Y80621D01*
X292198Y80634D01*
X292337Y80643D01*
X292356Y80649D01*
X292376Y80651D01*
X292507Y80698D01*
X292639Y80741D01*
X292656Y80752D01*
X292675Y80758D01*
X292790Y80836D01*
X292908Y80911D01*
X292922Y80926D01*
X292939Y80937D01*
X293031Y81041D01*
X293126Y81143D01*
X293136Y81160D01*
X293149Y81175D01*
X293212Y81299D01*
X293280Y81421D01*
X293285Y81441D01*
X293294Y81458D01*
X293324Y81593D01*
X293359Y81729D01*
X293361Y81757D01*
X293363Y81769D01*
X293363Y81789D01*
X293369Y81890D01*
X293369Y90830D01*
X293352Y90968D01*
X293339Y91107D01*
X293332Y91126D01*
X293329Y91146D01*
X293278Y91275D01*
X293231Y91406D01*
X293220Y91423D01*
X293212Y91442D01*
X293131Y91554D01*
X293052Y91669D01*
X293037Y91683D01*
X293026Y91699D01*
X292918Y91788D01*
X292814Y91880D01*
X292796Y91889D01*
X292781Y91902D01*
X292655Y91961D01*
X292531Y92024D01*
X292511Y92029D01*
X292493Y92037D01*
X292357Y92063D01*
X292220Y92094D01*
X292200Y92093D01*
X292181Y92097D01*
X292042Y92088D01*
X291903Y92084D01*
X291883Y92079D01*
X291863Y92077D01*
X291731Y92034D01*
X291706Y92027D01*
X269818Y92027D01*
X268627Y93218D01*
X268627Y93726D01*
X268612Y93844D01*
X268605Y93963D01*
X268592Y94001D01*
X268587Y94042D01*
X268544Y94152D01*
X268507Y94265D01*
X268485Y94300D01*
X268470Y94337D01*
X268401Y94433D01*
X268337Y94534D01*
X268307Y94562D01*
X268284Y94595D01*
X268192Y94671D01*
X268105Y94752D01*
X268070Y94772D01*
X268039Y94797D01*
X267931Y94848D01*
X267827Y94906D01*
X267787Y94916D01*
X267751Y94933D01*
X267634Y94955D01*
X267519Y94985D01*
X267459Y94989D01*
X267439Y94993D01*
X267418Y94991D01*
X267358Y94995D01*
X260962Y94995D01*
X260844Y94980D01*
X260725Y94973D01*
X260687Y94960D01*
X260646Y94955D01*
X260536Y94912D01*
X260423Y94875D01*
X260388Y94853D01*
X260351Y94838D01*
X260255Y94769D01*
X260154Y94705D01*
X260126Y94675D01*
X260093Y94652D01*
X260017Y94560D01*
X259936Y94473D01*
X259916Y94438D01*
X259891Y94407D01*
X259840Y94299D01*
X259782Y94195D01*
X259772Y94155D01*
X259755Y94119D01*
X259733Y94002D01*
X259703Y93887D01*
X259699Y93827D01*
X259695Y93807D01*
X259697Y93786D01*
X259693Y93726D01*
X259693Y93218D01*
X258502Y92027D01*
X236818Y92027D01*
X235627Y93218D01*
X235627Y94488D01*
X235612Y94606D01*
X235605Y94725D01*
X235592Y94763D01*
X235587Y94804D01*
X235544Y94914D01*
X235507Y95027D01*
X235485Y95062D01*
X235470Y95099D01*
X235401Y95195D01*
X235337Y95296D01*
X235307Y95324D01*
X235284Y95357D01*
X235192Y95433D01*
X235105Y95514D01*
X235070Y95534D01*
X235039Y95559D01*
X234931Y95610D01*
X234827Y95668D01*
X234787Y95678D01*
X234751Y95695D01*
X234634Y95717D01*
X234519Y95747D01*
X234459Y95751D01*
X234439Y95755D01*
X234418Y95753D01*
X234358Y95757D01*
X231725Y95757D01*
X231627Y95745D01*
X231528Y95742D01*
X231470Y95725D01*
X231410Y95717D01*
X231318Y95681D01*
X231223Y95653D01*
X231171Y95623D01*
X231114Y95600D01*
X231034Y95542D01*
X230949Y95492D01*
X230873Y95426D01*
X230857Y95414D01*
X230849Y95404D01*
X230828Y95386D01*
X229442Y93999D01*
X227247Y93090D01*
X224873Y93090D01*
X222678Y93999D01*
X221292Y95386D01*
X221214Y95446D01*
X221142Y95514D01*
X221089Y95543D01*
X221041Y95580D01*
X220950Y95620D01*
X220863Y95668D01*
X220805Y95683D01*
X220749Y95707D01*
X220651Y95722D01*
X220555Y95747D01*
X220455Y95753D01*
X220435Y95757D01*
X220423Y95755D01*
X220395Y95757D01*
X217462Y95757D01*
X217344Y95742D01*
X217225Y95735D01*
X217187Y95722D01*
X217146Y95717D01*
X217036Y95674D01*
X216923Y95637D01*
X216888Y95615D01*
X216851Y95600D01*
X216755Y95531D01*
X216654Y95467D01*
X216626Y95437D01*
X216593Y95414D01*
X216517Y95322D01*
X216436Y95235D01*
X216416Y95200D01*
X216391Y95169D01*
X216340Y95061D01*
X216282Y94957D01*
X216272Y94917D01*
X216255Y94881D01*
X216233Y94764D01*
X216203Y94649D01*
X216199Y94589D01*
X216195Y94569D01*
X216197Y94548D01*
X216193Y94488D01*
X216193Y92718D01*
X215002Y91527D01*
X203318Y91527D01*
X202127Y92718D01*
X202127Y105402D01*
X203318Y106593D01*
X215002Y106593D01*
X216193Y105402D01*
X216193Y103632D01*
X216208Y103514D01*
X216215Y103395D01*
X216228Y103357D01*
X216233Y103316D01*
X216276Y103206D01*
X216313Y103093D01*
X216335Y103058D01*
X216350Y103021D01*
X216419Y102925D01*
X216483Y102824D01*
X216513Y102796D01*
X216536Y102763D01*
X216628Y102687D01*
X216715Y102606D01*
X216750Y102586D01*
X216781Y102561D01*
X216889Y102510D01*
X216993Y102452D01*
X217033Y102442D01*
X217069Y102425D01*
X217186Y102403D01*
X217301Y102373D01*
X217361Y102369D01*
X217381Y102365D01*
X217402Y102367D01*
X217462Y102363D01*
X220395Y102363D01*
X220493Y102375D01*
X220592Y102378D01*
X220650Y102395D01*
X220710Y102403D01*
X220802Y102439D01*
X220897Y102467D01*
X220949Y102497D01*
X221006Y102520D01*
X221086Y102578D01*
X221171Y102628D01*
X221247Y102694D01*
X221263Y102706D01*
X221271Y102716D01*
X221292Y102734D01*
X222678Y104121D01*
X224873Y105030D01*
X227247Y105030D01*
X229442Y104121D01*
X230828Y102734D01*
X230906Y102674D01*
X230978Y102606D01*
X231031Y102577D01*
X231079Y102540D01*
X231170Y102500D01*
X231257Y102452D01*
X231315Y102437D01*
X231371Y102413D01*
X231469Y102398D01*
X231565Y102373D01*
X231665Y102367D01*
X231685Y102363D01*
X231697Y102365D01*
X231725Y102363D01*
X234358Y102363D01*
X234476Y102378D01*
X234595Y102385D01*
X234633Y102398D01*
X234674Y102403D01*
X234784Y102446D01*
X234897Y102483D01*
X234932Y102505D01*
X234969Y102520D01*
X235065Y102589D01*
X235166Y102653D01*
X235194Y102683D01*
X235227Y102706D01*
X235303Y102798D01*
X235384Y102885D01*
X235404Y102920D01*
X235429Y102951D01*
X235480Y103059D01*
X235538Y103163D01*
X235548Y103203D01*
X235565Y103239D01*
X235587Y103356D01*
X235617Y103471D01*
X235621Y103531D01*
X235625Y103551D01*
X235623Y103572D01*
X235627Y103632D01*
X235627Y104902D01*
X236818Y106093D01*
X258502Y106093D01*
X259693Y104902D01*
X259693Y104394D01*
X259708Y104276D01*
X259715Y104157D01*
X259728Y104119D01*
X259733Y104078D01*
X259776Y103968D01*
X259813Y103855D01*
X259835Y103820D01*
X259850Y103783D01*
X259919Y103687D01*
X259983Y103586D01*
X260013Y103558D01*
X260036Y103525D01*
X260128Y103449D01*
X260215Y103368D01*
X260250Y103348D01*
X260281Y103323D01*
X260389Y103272D01*
X260493Y103214D01*
X260533Y103204D01*
X260569Y103187D01*
X260686Y103165D01*
X260801Y103135D01*
X260861Y103131D01*
X260881Y103127D01*
X260902Y103129D01*
X260962Y103125D01*
X267358Y103125D01*
X267476Y103140D01*
X267595Y103147D01*
X267633Y103160D01*
X267674Y103165D01*
X267784Y103208D01*
X267897Y103245D01*
X267932Y103267D01*
X267969Y103282D01*
X268065Y103351D01*
X268166Y103415D01*
X268194Y103445D01*
X268227Y103468D01*
X268303Y103560D01*
X268384Y103647D01*
X268404Y103682D01*
X268429Y103713D01*
X268480Y103821D01*
X268538Y103925D01*
X268548Y103965D01*
X268565Y104001D01*
X268587Y104118D01*
X268617Y104233D01*
X268621Y104293D01*
X268625Y104313D01*
X268623Y104334D01*
X268627Y104394D01*
X268627Y104902D01*
X269818Y106093D01*
X291686Y106093D01*
X291707Y106083D01*
X291727Y106079D01*
X291745Y106071D01*
X291883Y106049D01*
X292020Y106023D01*
X292040Y106024D01*
X292059Y106021D01*
X292198Y106034D01*
X292337Y106043D01*
X292356Y106049D01*
X292376Y106051D01*
X292507Y106098D01*
X292639Y106141D01*
X292656Y106152D01*
X292675Y106158D01*
X292790Y106236D01*
X292908Y106311D01*
X292922Y106326D01*
X292939Y106337D01*
X293031Y106441D01*
X293126Y106543D01*
X293136Y106560D01*
X293149Y106575D01*
X293212Y106699D01*
X293280Y106821D01*
X293285Y106841D01*
X293294Y106858D01*
X293324Y106994D01*
X293359Y107129D01*
X293361Y107157D01*
X293363Y107169D01*
X293363Y107189D01*
X293369Y107290D01*
X293369Y113030D01*
X293354Y113148D01*
X293347Y113267D01*
X293334Y113305D01*
X293329Y113346D01*
X293286Y113456D01*
X293249Y113569D01*
X293227Y113604D01*
X293212Y113641D01*
X293143Y113737D01*
X293079Y113838D01*
X293049Y113866D01*
X293026Y113899D01*
X292934Y113975D01*
X292847Y114056D01*
X292812Y114076D01*
X292781Y114101D01*
X292673Y114152D01*
X292569Y114210D01*
X292529Y114220D01*
X292493Y114237D01*
X292376Y114259D01*
X292261Y114289D01*
X292201Y114293D01*
X292181Y114297D01*
X292160Y114295D01*
X292100Y114299D01*
X128793Y114299D01*
X128662Y114283D01*
X128530Y114272D01*
X128504Y114263D01*
X128478Y114259D01*
X128354Y114211D01*
X128229Y114167D01*
X128207Y114152D01*
X128182Y114142D01*
X128075Y114065D01*
X127964Y113991D01*
X127946Y113971D01*
X127925Y113956D01*
X127840Y113853D01*
X127751Y113755D01*
X127739Y113731D01*
X127722Y113711D01*
X127666Y113591D01*
X127604Y113473D01*
X127598Y113447D01*
X127586Y113423D01*
X127562Y113293D01*
X127531Y113164D01*
X127532Y113137D01*
X127527Y113111D01*
X127535Y112978D01*
X127538Y112846D01*
X127545Y112820D01*
X127546Y112793D01*
X127587Y112667D01*
X127623Y112539D01*
X127640Y112505D01*
X127644Y112491D01*
X127649Y112483D01*
X127793Y111948D01*
X127793Y109179D01*
X121490Y109179D01*
X121372Y109164D01*
X121253Y109157D01*
X121215Y109144D01*
X121175Y109139D01*
X121064Y109096D01*
X120951Y109059D01*
X120917Y109037D01*
X120879Y109022D01*
X120783Y108953D01*
X120682Y108889D01*
X120654Y108859D01*
X120622Y108836D01*
X120546Y108744D01*
X120464Y108657D01*
X120445Y108622D01*
X120419Y108591D01*
X120368Y108483D01*
X120311Y108379D01*
X120301Y108339D01*
X120283Y108303D01*
X120261Y108186D01*
X120231Y108071D01*
X120227Y108011D01*
X120224Y107991D01*
X120224Y107975D01*
X120224Y107970D01*
X120224Y107960D01*
X120221Y107910D01*
X120221Y106719D01*
X119030Y106719D01*
X118912Y106704D01*
X118793Y106697D01*
X118755Y106684D01*
X118714Y106679D01*
X118604Y106635D01*
X118491Y106599D01*
X118456Y106577D01*
X118419Y106562D01*
X118322Y106492D01*
X118222Y106429D01*
X118194Y106399D01*
X118161Y106375D01*
X118085Y106284D01*
X118004Y106197D01*
X117984Y106162D01*
X117959Y106130D01*
X117908Y106023D01*
X117850Y105918D01*
X117840Y105879D01*
X117823Y105843D01*
X117801Y105726D01*
X117771Y105610D01*
X117767Y105550D01*
X117763Y105530D01*
X117765Y105510D01*
X117761Y105450D01*
X117761Y92670D01*
X117776Y92552D01*
X117783Y92433D01*
X117795Y92395D01*
X117801Y92355D01*
X117844Y92244D01*
X117881Y92131D01*
X117903Y92097D01*
X117918Y92059D01*
X117987Y91963D01*
X118051Y91862D01*
X118081Y91834D01*
X118104Y91802D01*
X118196Y91726D01*
X118283Y91644D01*
X118318Y91625D01*
X118349Y91599D01*
X118457Y91548D01*
X118561Y91491D01*
X118601Y91481D01*
X118637Y91463D01*
X118744Y91443D01*
X118714Y91439D01*
X118604Y91395D01*
X118491Y91359D01*
X118456Y91337D01*
X118419Y91322D01*
X118322Y91252D01*
X118222Y91189D01*
X118194Y91159D01*
X118161Y91135D01*
X118085Y91043D01*
X118004Y90957D01*
X117984Y90922D01*
X117959Y90890D01*
X117908Y90783D01*
X117850Y90678D01*
X117840Y90639D01*
X117823Y90603D01*
X117801Y90486D01*
X117771Y90370D01*
X117767Y90310D01*
X117763Y90290D01*
X117765Y90270D01*
X117761Y90210D01*
X117761Y78699D01*
X113227Y78699D01*
X113227Y81968D01*
X113366Y82485D01*
X113650Y82977D01*
X113681Y83017D01*
X113760Y83106D01*
X113778Y83142D01*
X113803Y83174D01*
X113850Y83283D01*
X113904Y83389D01*
X113913Y83428D01*
X113929Y83465D01*
X113948Y83583D01*
X113974Y83699D01*
X113973Y83740D01*
X113979Y83779D01*
X113968Y83898D01*
X113964Y84017D01*
X113953Y84056D01*
X113949Y84096D01*
X113909Y84208D01*
X113876Y84323D01*
X113855Y84357D01*
X113842Y84395D01*
X113775Y84494D01*
X113714Y84597D01*
X113674Y84642D01*
X113663Y84659D01*
X113648Y84672D01*
X113608Y84717D01*
X113133Y85192D01*
X112955Y85501D01*
X112879Y85601D01*
X112808Y85705D01*
X112783Y85727D01*
X112763Y85754D01*
X112664Y85832D01*
X112570Y85915D01*
X112540Y85931D01*
X112514Y85952D01*
X112399Y86003D01*
X112287Y86060D01*
X112254Y86067D01*
X112223Y86081D01*
X112099Y86102D01*
X111976Y86130D01*
X111943Y86129D01*
X111910Y86134D01*
X111784Y86124D01*
X111659Y86120D01*
X111626Y86111D01*
X111593Y86108D01*
X111474Y86067D01*
X111353Y86032D01*
X111324Y86014D01*
X111292Y86003D01*
X111188Y85934D01*
X111079Y85870D01*
X111042Y85838D01*
X111027Y85828D01*
X111013Y85812D01*
X110958Y85764D01*
X109912Y84717D01*
X109839Y84624D01*
X109760Y84534D01*
X109742Y84498D01*
X109717Y84466D01*
X109670Y84357D01*
X109616Y84251D01*
X109607Y84211D01*
X109591Y84174D01*
X109572Y84057D01*
X109546Y83941D01*
X109547Y83900D01*
X109541Y83860D01*
X109552Y83742D01*
X109556Y83623D01*
X109567Y83584D01*
X109571Y83544D01*
X109611Y83432D01*
X109644Y83317D01*
X109665Y83282D01*
X109678Y83244D01*
X109745Y83146D01*
X109806Y83043D01*
X109846Y82998D01*
X109857Y82981D01*
X109872Y82968D01*
X109912Y82922D01*
X110293Y82542D01*
X110293Y69858D01*
X109912Y69477D01*
X109839Y69383D01*
X109760Y69294D01*
X109742Y69258D01*
X109717Y69226D01*
X109670Y69117D01*
X109616Y69011D01*
X109607Y68972D01*
X109591Y68934D01*
X109572Y68817D01*
X109546Y68701D01*
X109547Y68660D01*
X109541Y68620D01*
X109552Y68502D01*
X109556Y68383D01*
X109567Y68344D01*
X109571Y68304D01*
X109611Y68191D01*
X109644Y68077D01*
X109665Y68042D01*
X109678Y68004D01*
X109745Y67906D01*
X109806Y67803D01*
X109846Y67758D01*
X109857Y67741D01*
X109872Y67728D01*
X109912Y67682D01*
X110958Y66636D01*
X111058Y66559D01*
X111153Y66477D01*
X111183Y66462D01*
X111210Y66441D01*
X111325Y66391D01*
X111438Y66335D01*
X111471Y66328D01*
X111501Y66315D01*
X111626Y66295D01*
X111749Y66269D01*
X111782Y66270D01*
X111816Y66265D01*
X111941Y66277D01*
X112066Y66282D01*
X112099Y66292D01*
X112132Y66295D01*
X112250Y66338D01*
X112371Y66374D01*
X112400Y66391D01*
X112431Y66403D01*
X112536Y66473D01*
X112643Y66538D01*
X112667Y66562D01*
X112695Y66581D01*
X112778Y66675D01*
X112866Y66765D01*
X112893Y66806D01*
X112905Y66820D01*
X112915Y66839D01*
X112955Y66899D01*
X113133Y67208D01*
X113608Y67682D01*
X113681Y67777D01*
X113760Y67866D01*
X113778Y67902D01*
X113803Y67934D01*
X113850Y68043D01*
X113904Y68149D01*
X113913Y68188D01*
X113929Y68226D01*
X113948Y68343D01*
X113974Y68459D01*
X113973Y68500D01*
X113979Y68540D01*
X113968Y68658D01*
X113964Y68777D01*
X113953Y68816D01*
X113949Y68856D01*
X113909Y68968D01*
X113876Y69083D01*
X113855Y69118D01*
X113842Y69156D01*
X113775Y69254D01*
X113714Y69357D01*
X113674Y69402D01*
X113663Y69419D01*
X113648Y69432D01*
X113639Y69442D01*
X113366Y69915D01*
X113227Y70432D01*
X113227Y73701D01*
X117761Y73701D01*
X117761Y62190D01*
X117776Y62072D01*
X117783Y61953D01*
X117795Y61915D01*
X117801Y61875D01*
X117844Y61764D01*
X117881Y61651D01*
X117903Y61617D01*
X117918Y61579D01*
X117987Y61483D01*
X118051Y61382D01*
X118081Y61354D01*
X118104Y61322D01*
X118196Y61246D01*
X118283Y61164D01*
X118318Y61145D01*
X118349Y61119D01*
X118457Y61068D01*
X118561Y61011D01*
X118601Y61001D01*
X118637Y60983D01*
X118744Y60963D01*
X118714Y60959D01*
X118604Y60915D01*
X118491Y60879D01*
X118456Y60857D01*
X118419Y60842D01*
X118322Y60772D01*
X118222Y60709D01*
X118194Y60679D01*
X118161Y60655D01*
X118085Y60564D01*
X118004Y60477D01*
X117984Y60442D01*
X117959Y60410D01*
X117908Y60303D01*
X117850Y60198D01*
X117840Y60159D01*
X117823Y60123D01*
X117801Y60006D01*
X117771Y59890D01*
X117767Y59830D01*
X117763Y59810D01*
X117765Y59790D01*
X117761Y59730D01*
X117761Y48220D01*
X117776Y48102D01*
X117783Y47983D01*
X117795Y47945D01*
X117801Y47905D01*
X117844Y47794D01*
X117881Y47681D01*
X117903Y47647D01*
X117918Y47609D01*
X117987Y47513D01*
X118051Y47412D01*
X118081Y47384D01*
X118104Y47352D01*
X118196Y47276D01*
X118283Y47194D01*
X118318Y47175D01*
X118349Y47149D01*
X118457Y47098D01*
X118561Y47041D01*
X118601Y47031D01*
X118637Y47013D01*
X118744Y46993D01*
X118714Y46989D01*
X118604Y46945D01*
X118491Y46909D01*
X118456Y46887D01*
X118419Y46872D01*
X118322Y46802D01*
X118222Y46739D01*
X118194Y46709D01*
X118161Y46685D01*
X118085Y46594D01*
X118004Y46507D01*
X117984Y46472D01*
X117959Y46440D01*
X117908Y46333D01*
X117850Y46228D01*
X117840Y46189D01*
X117823Y46153D01*
X117801Y46036D01*
X117771Y45920D01*
X117767Y45860D01*
X117763Y45840D01*
X117765Y45820D01*
X117761Y45760D01*
X117761Y39446D01*
X117773Y39348D01*
X117776Y39249D01*
X117793Y39190D01*
X117801Y39130D01*
X117837Y39038D01*
X117865Y38943D01*
X117895Y38891D01*
X117918Y38835D01*
X117976Y38755D01*
X118026Y38669D01*
X118092Y38594D01*
X118104Y38577D01*
X118114Y38569D01*
X118132Y38548D01*
X120066Y36614D01*
X120145Y36554D01*
X120217Y36486D01*
X120270Y36457D01*
X120318Y36420D01*
X120409Y36380D01*
X120495Y36332D01*
X120554Y36317D01*
X120609Y36293D01*
X120707Y36278D01*
X120803Y36253D01*
X120903Y36247D01*
X120923Y36243D01*
X120936Y36245D01*
X120964Y36243D01*
X126602Y36243D01*
X127793Y35052D01*
X127793Y23368D01*
X127547Y23122D01*
X127474Y23028D01*
X127395Y22939D01*
X127377Y22903D01*
X127352Y22871D01*
X127305Y22762D01*
X127251Y22656D01*
X127242Y22616D01*
X127226Y22579D01*
X127207Y22462D01*
X127181Y22346D01*
X127182Y22305D01*
X127176Y22265D01*
X127187Y22146D01*
X127191Y22028D01*
X127202Y21989D01*
X127206Y21949D01*
X127246Y21836D01*
X127279Y21722D01*
X127300Y21687D01*
X127313Y21649D01*
X127380Y21551D01*
X127441Y21448D01*
X127481Y21403D01*
X127492Y21386D01*
X127507Y21373D01*
X127547Y21327D01*
X127793Y21082D01*
X127793Y9398D01*
X126602Y8207D01*
X124774Y8207D01*
X124676Y8195D01*
X124577Y8192D01*
X124518Y8175D01*
X124458Y8167D01*
X124366Y8131D01*
X124271Y8103D01*
X124219Y8073D01*
X124163Y8050D01*
X124082Y7992D01*
X123997Y7942D01*
X123922Y7876D01*
X123905Y7864D01*
X123897Y7854D01*
X123876Y7836D01*
X123288Y7248D01*
X123203Y7138D01*
X123114Y7031D01*
X123106Y7012D01*
X123093Y6996D01*
X123038Y6868D01*
X122979Y6743D01*
X122975Y6723D01*
X122967Y6704D01*
X122945Y6566D01*
X122919Y6430D01*
X122920Y6410D01*
X122917Y6390D01*
X122930Y6251D01*
X122939Y6113D01*
X122945Y6094D01*
X122947Y6074D01*
X122994Y5943D01*
X123037Y5811D01*
X123048Y5793D01*
X123055Y5774D01*
X123132Y5660D01*
X123207Y5542D01*
X123222Y5528D01*
X123233Y5511D01*
X123337Y5419D01*
X123439Y5324D01*
X123456Y5314D01*
X123472Y5301D01*
X123595Y5238D01*
X123717Y5170D01*
X123737Y5165D01*
X123755Y5156D01*
X123891Y5126D01*
X124025Y5091D01*
X124053Y5089D01*
X124065Y5086D01*
X124086Y5087D01*
X124186Y5081D01*
X209239Y5081D01*
X209377Y5098D01*
G37*
G36*
X23976Y5096D02*
X23976Y5096D01*
X24095Y5103D01*
X24133Y5116D01*
X24174Y5121D01*
X24284Y5164D01*
X24397Y5201D01*
X24432Y5223D01*
X24469Y5238D01*
X24565Y5307D01*
X24666Y5371D01*
X24694Y5401D01*
X24727Y5424D01*
X24803Y5516D01*
X24884Y5603D01*
X24904Y5638D01*
X24929Y5669D01*
X24980Y5777D01*
X25038Y5881D01*
X25048Y5921D01*
X25065Y5957D01*
X25087Y6074D01*
X25117Y6189D01*
X25121Y6249D01*
X25125Y6269D01*
X25123Y6290D01*
X25127Y6350D01*
X25127Y41605D01*
X25140Y41621D01*
X25182Y41718D01*
X25232Y41811D01*
X25245Y41864D01*
X25266Y41913D01*
X25283Y42018D01*
X25308Y42120D01*
X25308Y42174D01*
X25316Y42227D01*
X25306Y42333D01*
X25305Y42438D01*
X25289Y42522D01*
X25287Y42544D01*
X25281Y42558D01*
X25274Y42596D01*
X25127Y43142D01*
X25127Y43891D01*
X43160Y43891D01*
X61193Y43891D01*
X61193Y43142D01*
X61046Y42596D01*
X61032Y42491D01*
X61009Y42388D01*
X61010Y42334D01*
X61003Y42281D01*
X61015Y42176D01*
X61018Y42070D01*
X61033Y42018D01*
X61040Y41965D01*
X61078Y41866D01*
X61107Y41765D01*
X61134Y41718D01*
X61153Y41668D01*
X61193Y41613D01*
X61193Y37840D01*
X61208Y37722D01*
X61215Y37603D01*
X61228Y37565D01*
X61233Y37524D01*
X61276Y37414D01*
X61313Y37301D01*
X61335Y37266D01*
X61350Y37229D01*
X61419Y37133D01*
X61483Y37032D01*
X61513Y37004D01*
X61536Y36971D01*
X61628Y36895D01*
X61715Y36814D01*
X61750Y36794D01*
X61781Y36769D01*
X61889Y36718D01*
X61993Y36660D01*
X62033Y36650D01*
X62069Y36633D01*
X62186Y36611D01*
X62301Y36581D01*
X62361Y36577D01*
X62381Y36573D01*
X62402Y36575D01*
X62462Y36571D01*
X73836Y36571D01*
X73934Y36583D01*
X74033Y36586D01*
X74091Y36603D01*
X74151Y36611D01*
X74243Y36647D01*
X74339Y36675D01*
X74391Y36705D01*
X74447Y36728D01*
X74527Y36786D01*
X74612Y36836D01*
X74688Y36902D01*
X74704Y36914D01*
X74712Y36924D01*
X74733Y36942D01*
X77479Y39688D01*
X77539Y39766D01*
X77607Y39838D01*
X77636Y39891D01*
X77673Y39939D01*
X77713Y40030D01*
X77761Y40117D01*
X77776Y40175D01*
X77800Y40231D01*
X77815Y40329D01*
X77840Y40425D01*
X77846Y40525D01*
X77850Y40545D01*
X77848Y40557D01*
X77850Y40585D01*
X77850Y40695D01*
X77838Y40793D01*
X77835Y40892D01*
X77818Y40950D01*
X77810Y41010D01*
X77774Y41102D01*
X77746Y41198D01*
X77716Y41250D01*
X77693Y41306D01*
X77635Y41386D01*
X77585Y41471D01*
X77519Y41547D01*
X77507Y41563D01*
X77497Y41571D01*
X77479Y41592D01*
X71893Y47178D01*
X71815Y47238D01*
X71743Y47306D01*
X71690Y47335D01*
X71642Y47372D01*
X71551Y47412D01*
X71464Y47460D01*
X71406Y47475D01*
X71350Y47499D01*
X71252Y47514D01*
X71156Y47539D01*
X71056Y47545D01*
X71036Y47549D01*
X71024Y47547D01*
X70996Y47549D01*
X62462Y47549D01*
X62344Y47534D01*
X62225Y47527D01*
X62187Y47514D01*
X62146Y47509D01*
X62036Y47466D01*
X61923Y47429D01*
X61888Y47407D01*
X61851Y47392D01*
X61755Y47323D01*
X61654Y47259D01*
X61626Y47229D01*
X61593Y47206D01*
X61517Y47114D01*
X61436Y47027D01*
X61416Y46992D01*
X61391Y46961D01*
X61340Y46853D01*
X61282Y46749D01*
X61272Y46709D01*
X61255Y46673D01*
X61233Y46556D01*
X61203Y46441D01*
X61202Y46429D01*
X43160Y46429D01*
X25127Y46429D01*
X25127Y47178D01*
X25274Y47724D01*
X25288Y47829D01*
X25311Y47932D01*
X25310Y47986D01*
X25317Y48039D01*
X25305Y48144D01*
X25302Y48250D01*
X25287Y48302D01*
X25280Y48355D01*
X25243Y48454D01*
X25213Y48555D01*
X25186Y48602D01*
X25166Y48652D01*
X25127Y48707D01*
X25127Y91152D01*
X26318Y92343D01*
X60002Y92343D01*
X60110Y92234D01*
X60189Y92174D01*
X60261Y92106D01*
X60314Y92077D01*
X60362Y92040D01*
X60452Y92000D01*
X60539Y91952D01*
X60598Y91937D01*
X60653Y91913D01*
X60751Y91898D01*
X60847Y91873D01*
X60947Y91867D01*
X60967Y91863D01*
X60980Y91865D01*
X61008Y91863D01*
X64146Y91863D01*
X64244Y91875D01*
X64343Y91878D01*
X64402Y91895D01*
X64462Y91903D01*
X64554Y91939D01*
X64649Y91967D01*
X64701Y91997D01*
X64757Y92020D01*
X64837Y92078D01*
X64923Y92128D01*
X64998Y92194D01*
X65015Y92206D01*
X65023Y92216D01*
X65044Y92234D01*
X72632Y99823D01*
X94458Y99823D01*
X94576Y99838D01*
X94695Y99845D01*
X94733Y99858D01*
X94774Y99863D01*
X94884Y99906D01*
X94997Y99943D01*
X95032Y99965D01*
X95069Y99980D01*
X95165Y100049D01*
X95266Y100113D01*
X95294Y100143D01*
X95327Y100166D01*
X95403Y100258D01*
X95484Y100345D01*
X95504Y100380D01*
X95529Y100411D01*
X95580Y100519D01*
X95638Y100623D01*
X95648Y100663D01*
X95665Y100699D01*
X95687Y100816D01*
X95717Y100931D01*
X95721Y100991D01*
X95725Y101011D01*
X95723Y101032D01*
X95727Y101092D01*
X95727Y113030D01*
X95712Y113148D01*
X95705Y113267D01*
X95692Y113305D01*
X95687Y113346D01*
X95644Y113456D01*
X95607Y113569D01*
X95585Y113604D01*
X95570Y113641D01*
X95501Y113737D01*
X95437Y113838D01*
X95407Y113866D01*
X95384Y113899D01*
X95292Y113975D01*
X95205Y114056D01*
X95170Y114076D01*
X95139Y114101D01*
X95031Y114152D01*
X94927Y114210D01*
X94887Y114220D01*
X94851Y114237D01*
X94734Y114259D01*
X94619Y114289D01*
X94559Y114293D01*
X94539Y114297D01*
X94518Y114295D01*
X94458Y114299D01*
X6350Y114299D01*
X6232Y114284D01*
X6113Y114277D01*
X6075Y114264D01*
X6034Y114259D01*
X5924Y114216D01*
X5811Y114179D01*
X5776Y114157D01*
X5739Y114142D01*
X5643Y114073D01*
X5542Y114009D01*
X5514Y113979D01*
X5481Y113956D01*
X5405Y113864D01*
X5324Y113777D01*
X5304Y113742D01*
X5279Y113711D01*
X5228Y113603D01*
X5170Y113499D01*
X5160Y113459D01*
X5143Y113423D01*
X5121Y113306D01*
X5091Y113191D01*
X5087Y113131D01*
X5083Y113111D01*
X5085Y113090D01*
X5081Y113030D01*
X5081Y6350D01*
X5096Y6232D01*
X5103Y6113D01*
X5116Y6075D01*
X5121Y6034D01*
X5164Y5924D01*
X5201Y5811D01*
X5223Y5776D01*
X5238Y5739D01*
X5307Y5643D01*
X5371Y5542D01*
X5401Y5514D01*
X5424Y5481D01*
X5516Y5405D01*
X5603Y5324D01*
X5638Y5304D01*
X5669Y5279D01*
X5777Y5228D01*
X5881Y5170D01*
X5921Y5160D01*
X5957Y5143D01*
X6074Y5121D01*
X6189Y5091D01*
X6249Y5087D01*
X6269Y5083D01*
X6290Y5085D01*
X6350Y5081D01*
X23858Y5081D01*
X23976Y5096D01*
G37*
%LPC*%
G36*
X147718Y86947D02*
X147718Y86947D01*
X146527Y88138D01*
X146527Y89408D01*
X146512Y89526D01*
X146505Y89645D01*
X146492Y89683D01*
X146487Y89724D01*
X146444Y89834D01*
X146407Y89947D01*
X146385Y89982D01*
X146370Y90019D01*
X146301Y90115D01*
X146237Y90216D01*
X146207Y90244D01*
X146184Y90277D01*
X146092Y90353D01*
X146005Y90434D01*
X145970Y90454D01*
X145939Y90479D01*
X145831Y90530D01*
X145727Y90588D01*
X145687Y90598D01*
X145651Y90615D01*
X145534Y90637D01*
X145419Y90667D01*
X145359Y90671D01*
X145339Y90675D01*
X145318Y90673D01*
X145258Y90677D01*
X144095Y90677D01*
X143997Y90665D01*
X143898Y90662D01*
X143840Y90645D01*
X143780Y90637D01*
X143688Y90601D01*
X143593Y90573D01*
X143541Y90543D01*
X143484Y90520D01*
X143404Y90462D01*
X143319Y90412D01*
X143243Y90346D01*
X143227Y90334D01*
X143219Y90324D01*
X143198Y90306D01*
X141812Y88919D01*
X139617Y88010D01*
X137243Y88010D01*
X135048Y88919D01*
X133369Y90598D01*
X132460Y92793D01*
X132460Y95167D01*
X133369Y97362D01*
X135048Y99041D01*
X137243Y99950D01*
X139617Y99950D01*
X141812Y99041D01*
X143198Y97654D01*
X143276Y97594D01*
X143348Y97526D01*
X143401Y97497D01*
X143449Y97460D01*
X143540Y97420D01*
X143627Y97372D01*
X143685Y97357D01*
X143741Y97333D01*
X143839Y97318D01*
X143935Y97293D01*
X144035Y97287D01*
X144055Y97283D01*
X144067Y97285D01*
X144095Y97283D01*
X145258Y97283D01*
X145376Y97298D01*
X145495Y97305D01*
X145533Y97318D01*
X145574Y97323D01*
X145684Y97366D01*
X145797Y97403D01*
X145832Y97425D01*
X145869Y97440D01*
X145965Y97509D01*
X146066Y97573D01*
X146094Y97603D01*
X146127Y97626D01*
X146203Y97718D01*
X146284Y97805D01*
X146304Y97840D01*
X146329Y97871D01*
X146380Y97979D01*
X146438Y98083D01*
X146448Y98123D01*
X146465Y98159D01*
X146487Y98276D01*
X146517Y98391D01*
X146521Y98451D01*
X146525Y98471D01*
X146523Y98492D01*
X146527Y98552D01*
X146527Y99822D01*
X147718Y101013D01*
X160402Y101013D01*
X161758Y99656D01*
X161858Y99579D01*
X161953Y99497D01*
X161983Y99482D01*
X162010Y99461D01*
X162125Y99411D01*
X162238Y99355D01*
X162271Y99348D01*
X162301Y99335D01*
X162426Y99315D01*
X162549Y99289D01*
X162582Y99290D01*
X162616Y99285D01*
X162741Y99297D01*
X162866Y99302D01*
X162899Y99312D01*
X162932Y99315D01*
X163050Y99358D01*
X163171Y99394D01*
X163200Y99411D01*
X163231Y99423D01*
X163336Y99493D01*
X163443Y99558D01*
X163467Y99582D01*
X163495Y99601D01*
X163578Y99696D01*
X163666Y99785D01*
X163693Y99826D01*
X163705Y99840D01*
X163715Y99859D01*
X163755Y99919D01*
X163933Y100228D01*
X164312Y100607D01*
X164775Y100874D01*
X165292Y101013D01*
X168561Y101013D01*
X168561Y95210D01*
X168576Y95092D01*
X168583Y94973D01*
X168595Y94935D01*
X168601Y94895D01*
X168644Y94784D01*
X168681Y94671D01*
X168703Y94637D01*
X168718Y94599D01*
X168787Y94503D01*
X168851Y94402D01*
X168881Y94374D01*
X168904Y94342D01*
X168996Y94266D01*
X169083Y94184D01*
X169118Y94165D01*
X169149Y94139D01*
X169257Y94088D01*
X169361Y94031D01*
X169401Y94021D01*
X169437Y94003D01*
X169544Y93983D01*
X169514Y93979D01*
X169404Y93935D01*
X169291Y93899D01*
X169256Y93877D01*
X169219Y93862D01*
X169122Y93792D01*
X169022Y93729D01*
X168994Y93699D01*
X168961Y93675D01*
X168885Y93584D01*
X168804Y93497D01*
X168784Y93462D01*
X168759Y93430D01*
X168708Y93323D01*
X168650Y93218D01*
X168640Y93179D01*
X168623Y93143D01*
X168601Y93026D01*
X168571Y92910D01*
X168567Y92850D01*
X168563Y92830D01*
X168565Y92810D01*
X168561Y92750D01*
X168561Y86947D01*
X165292Y86947D01*
X164775Y87086D01*
X164312Y87353D01*
X163933Y87732D01*
X163755Y88041D01*
X163679Y88141D01*
X163608Y88245D01*
X163583Y88267D01*
X163563Y88294D01*
X163464Y88372D01*
X163370Y88455D01*
X163340Y88471D01*
X163314Y88492D01*
X163199Y88543D01*
X163087Y88600D01*
X163054Y88607D01*
X163023Y88621D01*
X162899Y88642D01*
X162776Y88670D01*
X162743Y88669D01*
X162710Y88674D01*
X162584Y88664D01*
X162459Y88660D01*
X162426Y88651D01*
X162393Y88648D01*
X162274Y88607D01*
X162153Y88572D01*
X162124Y88554D01*
X162092Y88543D01*
X161987Y88474D01*
X161879Y88410D01*
X161842Y88378D01*
X161827Y88368D01*
X161813Y88352D01*
X161758Y88304D01*
X160402Y86947D01*
X147718Y86947D01*
G37*
%LPD*%
%LPC*%
G36*
X15111Y94567D02*
X15111Y94567D01*
X12526Y95638D01*
X10548Y97616D01*
X9477Y100201D01*
X9477Y102999D01*
X10548Y105584D01*
X12526Y107562D01*
X15111Y108633D01*
X17909Y108633D01*
X20494Y107562D01*
X22472Y105584D01*
X23543Y102999D01*
X23543Y100201D01*
X22472Y97616D01*
X20494Y95638D01*
X17909Y94567D01*
X15111Y94567D01*
G37*
%LPD*%
%LPC*%
G36*
X122759Y93939D02*
X122759Y93939D01*
X122759Y104181D01*
X127793Y104181D01*
X127793Y101412D01*
X127654Y100895D01*
X127387Y100432D01*
X126912Y99957D01*
X126839Y99863D01*
X126760Y99774D01*
X126742Y99738D01*
X126717Y99706D01*
X126670Y99597D01*
X126616Y99491D01*
X126607Y99451D01*
X126591Y99414D01*
X126572Y99297D01*
X126546Y99181D01*
X126547Y99140D01*
X126541Y99100D01*
X126552Y98981D01*
X126556Y98863D01*
X126567Y98824D01*
X126571Y98784D01*
X126611Y98671D01*
X126644Y98557D01*
X126665Y98522D01*
X126678Y98484D01*
X126745Y98386D01*
X126806Y98283D01*
X126846Y98238D01*
X126857Y98221D01*
X126872Y98208D01*
X126912Y98162D01*
X127387Y97688D01*
X127654Y97225D01*
X127793Y96708D01*
X127793Y93939D01*
X122759Y93939D01*
G37*
%LPD*%
%LPC*%
G36*
X122759Y78699D02*
X122759Y78699D01*
X122759Y88941D01*
X127793Y88941D01*
X127793Y86172D01*
X127654Y85655D01*
X127387Y85192D01*
X126912Y84717D01*
X126839Y84623D01*
X126760Y84534D01*
X126742Y84498D01*
X126717Y84466D01*
X126670Y84357D01*
X126616Y84251D01*
X126607Y84211D01*
X126591Y84174D01*
X126572Y84057D01*
X126546Y83940D01*
X126547Y83900D01*
X126541Y83860D01*
X126552Y83742D01*
X126556Y83623D01*
X126567Y83584D01*
X126571Y83544D01*
X126611Y83432D01*
X126644Y83317D01*
X126665Y83282D01*
X126678Y83244D01*
X126745Y83146D01*
X126806Y83043D01*
X126846Y82998D01*
X126857Y82981D01*
X126872Y82968D01*
X126881Y82958D01*
X127154Y82485D01*
X127293Y81968D01*
X127293Y78699D01*
X122759Y78699D01*
G37*
%LPD*%
%LPC*%
G36*
X122759Y63459D02*
X122759Y63459D01*
X122759Y73701D01*
X127293Y73701D01*
X127293Y70432D01*
X127154Y69915D01*
X126870Y69423D01*
X126839Y69383D01*
X126760Y69294D01*
X126742Y69258D01*
X126717Y69226D01*
X126670Y69117D01*
X126616Y69011D01*
X126607Y68971D01*
X126591Y68934D01*
X126572Y68817D01*
X126546Y68701D01*
X126547Y68660D01*
X126541Y68620D01*
X126552Y68501D01*
X126556Y68383D01*
X126567Y68344D01*
X126571Y68304D01*
X126611Y68191D01*
X126644Y68077D01*
X126665Y68042D01*
X126678Y68004D01*
X126745Y67906D01*
X126806Y67803D01*
X126846Y67758D01*
X126857Y67741D01*
X126872Y67728D01*
X126912Y67682D01*
X127387Y67208D01*
X127654Y66745D01*
X127793Y66228D01*
X127793Y63459D01*
X122759Y63459D01*
G37*
%LPD*%
%LPC*%
G36*
X122759Y49489D02*
X122759Y49489D01*
X122759Y58461D01*
X127793Y58461D01*
X127793Y55692D01*
X127654Y55175D01*
X127328Y54610D01*
X127287Y54512D01*
X127238Y54419D01*
X127225Y54366D01*
X127204Y54317D01*
X127189Y54212D01*
X127165Y54109D01*
X127166Y54055D01*
X127158Y54002D01*
X127169Y53897D01*
X127171Y53791D01*
X127185Y53739D01*
X127191Y53686D01*
X127228Y53586D01*
X127256Y53485D01*
X127294Y53408D01*
X127302Y53387D01*
X127311Y53375D01*
X127328Y53340D01*
X127654Y52775D01*
X127793Y52258D01*
X127793Y49489D01*
X122759Y49489D01*
G37*
%LPD*%
%LPC*%
G36*
X235627Y25359D02*
X235627Y25359D01*
X235627Y28128D01*
X235766Y28645D01*
X236033Y29108D01*
X236412Y29487D01*
X236875Y29754D01*
X237392Y29893D01*
X245161Y29893D01*
X245161Y25373D01*
X245162Y25359D01*
X235627Y25359D01*
G37*
%LPD*%
%LPC*%
G36*
X237392Y15827D02*
X237392Y15827D01*
X236875Y15966D01*
X236412Y16233D01*
X236033Y16612D01*
X235766Y17075D01*
X235627Y17592D01*
X235627Y20361D01*
X245162Y20361D01*
X245161Y20347D01*
X245161Y15827D01*
X237392Y15827D01*
G37*
%LPD*%
%LPC*%
G36*
X173559Y96479D02*
X173559Y96479D01*
X173559Y101013D01*
X176828Y101013D01*
X177345Y100874D01*
X177808Y100607D01*
X178187Y100228D01*
X178454Y99765D01*
X178593Y99248D01*
X178593Y96479D01*
X173559Y96479D01*
G37*
%LPD*%
%LPC*%
G36*
X173559Y59649D02*
X173559Y59649D01*
X173559Y64183D01*
X176828Y64183D01*
X177345Y64044D01*
X177808Y63777D01*
X178187Y63398D01*
X178454Y62935D01*
X178593Y62418D01*
X178593Y59649D01*
X173559Y59649D01*
G37*
%LPD*%
%LPC*%
G36*
X173559Y86947D02*
X173559Y86947D01*
X173559Y91481D01*
X178593Y91481D01*
X178593Y88712D01*
X178454Y88195D01*
X178187Y87732D01*
X177808Y87353D01*
X177345Y87086D01*
X176828Y86947D01*
X173559Y86947D01*
G37*
%LPD*%
%LPC*%
G36*
X122759Y39957D02*
X122759Y39957D01*
X122759Y44491D01*
X127793Y44491D01*
X127793Y41722D01*
X127654Y41205D01*
X127387Y40742D01*
X127008Y40363D01*
X126545Y40096D01*
X126028Y39957D01*
X122759Y39957D01*
G37*
%LPD*%
D10*
X103260Y15240D03*
X120260Y15240D03*
X120260Y29210D03*
X103260Y29210D03*
X120260Y46990D03*
X103260Y46990D03*
X171060Y93980D03*
X154060Y93980D03*
X120260Y91440D03*
X103260Y91440D03*
X171060Y57150D03*
X154060Y57150D03*
X120260Y106680D03*
X103260Y106680D03*
X120260Y60960D03*
X103260Y60960D03*
D11*
X174060Y40640D03*
X151060Y40640D03*
D12*
X251460Y99060D02*
X276860Y99060D01*
X276860Y73660D02*
X251460Y73660D01*
X251460Y48260D02*
X276860Y48260D01*
X276860Y22860D02*
X251460Y22860D01*
D13*
X280660Y73660D03*
X280660Y22860D03*
X247660Y99060D03*
X247660Y48260D03*
X247660Y22860D03*
X280660Y48260D03*
X247660Y73660D03*
X280660Y99060D03*
D14*
X43160Y7960D03*
X43160Y14160D03*
X43160Y20360D03*
X43160Y26560D03*
X43160Y32760D03*
X43160Y38960D03*
X43160Y45160D03*
X43160Y51360D03*
X43160Y57560D03*
X43160Y63760D03*
X43160Y69960D03*
X43160Y76160D03*
X43160Y82360D03*
X43160Y88560D03*
D15*
X120260Y76200D03*
X103260Y76200D03*
X209160Y73660D03*
X192160Y73660D03*
X209160Y99060D03*
X192160Y99060D03*
X154060Y24130D03*
X171060Y24130D03*
D16*
X16510Y101600D03*
X214630Y12700D03*
D17*
X120260Y15240D02*
X120260Y8890D01*
X86022Y6430D02*
X84492Y7960D01*
X86022Y6430D02*
X117800Y6430D01*
X120260Y8890D01*
X84492Y7960D02*
X43160Y7960D01*
X43160Y14160D02*
X102180Y14160D01*
X103260Y15240D01*
X83860Y20360D02*
X43160Y20360D01*
X83860Y20360D02*
X92710Y29210D01*
X103260Y29210D01*
X81054Y26560D02*
X43160Y26560D01*
X120260Y29210D02*
X120260Y31750D01*
X92514Y38020D02*
X81054Y26560D01*
X113990Y38020D02*
X120260Y31750D01*
X113990Y38020D02*
X92514Y38020D01*
X68580Y82360D02*
X43160Y82360D01*
X74231Y88011D02*
X78740Y88011D01*
D18*
X78740Y88011D03*
X138430Y93980D03*
D17*
X154060Y93980D01*
X74231Y88011D02*
X68580Y82360D01*
X66040Y88560D02*
X43160Y88560D01*
X66040Y88560D02*
X74000Y96520D01*
X98180Y96520D01*
X103260Y91440D01*
X103260Y106680D01*
X66600Y45160D02*
X43160Y45160D01*
X66600Y45160D02*
X69850Y41910D01*
D18*
X69850Y41910D03*
X137160Y50800D03*
D17*
X71120Y76160D02*
X43160Y76160D01*
X71120Y76160D02*
X71140Y76180D01*
X72144Y76180D01*
X76101Y80137D01*
X99323Y80137D01*
X103260Y76200D01*
D19*
X73100Y51360D02*
X43160Y51360D01*
X73100Y51360D02*
X83820Y40640D01*
D18*
X83820Y40640D03*
D19*
X75940Y32760D02*
X43160Y32760D01*
X75940Y32760D02*
X83820Y40640D01*
D17*
X90170Y46990D01*
X103260Y46990D01*
X171060Y34640D02*
X171060Y24130D01*
X171060Y34640D02*
X174060Y40640D01*
X190765Y54345D02*
X192160Y55740D01*
X192160Y73660D02*
X192160Y99060D01*
D18*
X190765Y54345D03*
D12*
X196850Y48260D02*
X247660Y48260D01*
X196850Y48260D02*
X190765Y54345D01*
D17*
X177060Y40640D02*
X174060Y40640D01*
X177060Y40640D02*
X190765Y54345D01*
X103260Y60960D02*
X103260Y46990D01*
X192160Y55740D02*
X192160Y73660D01*
X88900Y66040D02*
X86620Y63760D01*
D18*
X88900Y66040D03*
D17*
X86620Y63760D02*
X43160Y63760D01*
X209160Y73660D02*
X226060Y73660D01*
D18*
X226060Y73660D03*
D17*
X247660Y73660D01*
X77580Y69960D02*
X43160Y69960D01*
X77580Y69960D02*
X80010Y72390D01*
D18*
X80010Y72390D03*
D17*
X209160Y99060D02*
X226060Y99060D01*
D18*
X226060Y99060D03*
D17*
X247660Y99060D01*
X77450Y57560D02*
X43160Y57560D01*
X77450Y57560D02*
X77606Y57404D01*
X83644Y57404D01*
X84914Y56134D01*
D18*
X84914Y56134D03*
D17*
X138430Y66040D02*
X147320Y57150D01*
X154060Y57150D01*
D18*
X138430Y66040D03*
D17*
X154060Y34640D02*
X154060Y24130D01*
X151060Y37640D02*
X151060Y40640D01*
X151060Y37640D02*
X154060Y34640D01*
X151060Y40640D02*
X154060Y43640D01*
X154060Y57150D01*
M02*
