G04 EAGLE Gerber RS-274X export*
G75*
%MOMM*%
%FSLAX34Y34*%
%LPD*%
%INSilkscreen Top*%
%IPPOS*%
%AMOC8*
5,1,8,0,0,1.08239X$1,22.5*%
G01*
%ADD10C,0.127000*%
%ADD11C,0.177800*%

G36*
X220140Y6496D02*
X220140Y6496D01*
X220248Y6506D01*
X220261Y6512D01*
X220275Y6514D01*
X220372Y6562D01*
X220471Y6607D01*
X220484Y6618D01*
X220493Y6622D01*
X220508Y6638D01*
X220585Y6700D01*
X223170Y9285D01*
X223233Y9374D01*
X223299Y9459D01*
X223304Y9472D01*
X223312Y9484D01*
X223343Y9587D01*
X223379Y9690D01*
X223379Y9704D01*
X223383Y9717D01*
X223379Y9825D01*
X223380Y9934D01*
X223375Y9947D01*
X223375Y9961D01*
X223337Y10063D01*
X223302Y10165D01*
X223293Y10180D01*
X223289Y10189D01*
X223275Y10206D01*
X223221Y10288D01*
X220457Y13678D01*
X221014Y14760D01*
X221020Y14780D01*
X221062Y14875D01*
X221433Y16034D01*
X225784Y16477D01*
X225888Y16505D01*
X225994Y16530D01*
X226006Y16537D01*
X226019Y16540D01*
X226109Y16601D01*
X226202Y16658D01*
X226210Y16669D01*
X226222Y16677D01*
X226288Y16763D01*
X226357Y16847D01*
X226361Y16860D01*
X226370Y16871D01*
X226404Y16974D01*
X226443Y17075D01*
X226444Y17093D01*
X226448Y17102D01*
X226448Y17124D01*
X226457Y17222D01*
X226457Y20878D01*
X226440Y20985D01*
X226426Y21093D01*
X226420Y21105D01*
X226418Y21119D01*
X226366Y21215D01*
X226319Y21312D01*
X226309Y21322D01*
X226303Y21334D01*
X226223Y21408D01*
X226147Y21485D01*
X226135Y21491D01*
X226125Y21501D01*
X226026Y21546D01*
X225929Y21594D01*
X225911Y21598D01*
X225902Y21602D01*
X225881Y21604D01*
X225784Y21623D01*
X221433Y22066D01*
X221062Y23225D01*
X221053Y23242D01*
X221051Y23250D01*
X221047Y23257D01*
X221014Y23340D01*
X220457Y24422D01*
X223221Y27812D01*
X223275Y27906D01*
X223332Y27998D01*
X223335Y28011D01*
X223342Y28023D01*
X223363Y28130D01*
X223388Y28235D01*
X223386Y28249D01*
X223389Y28263D01*
X223374Y28370D01*
X223364Y28478D01*
X223358Y28491D01*
X223356Y28505D01*
X223308Y28602D01*
X223263Y28701D01*
X223252Y28714D01*
X223248Y28723D01*
X223232Y28738D01*
X223170Y28815D01*
X220585Y31400D01*
X220496Y31463D01*
X220411Y31529D01*
X220398Y31534D01*
X220386Y31542D01*
X220283Y31573D01*
X220180Y31609D01*
X220166Y31609D01*
X220153Y31613D01*
X220045Y31609D01*
X219936Y31610D01*
X219923Y31605D01*
X219909Y31605D01*
X219807Y31567D01*
X219705Y31532D01*
X219690Y31523D01*
X219681Y31519D01*
X219664Y31505D01*
X219582Y31451D01*
X216192Y28687D01*
X215110Y29244D01*
X215090Y29250D01*
X214995Y29292D01*
X213836Y29663D01*
X213393Y34014D01*
X213365Y34118D01*
X213340Y34224D01*
X213333Y34236D01*
X213330Y34249D01*
X213269Y34339D01*
X213212Y34432D01*
X213201Y34440D01*
X213193Y34452D01*
X213107Y34518D01*
X213023Y34587D01*
X213010Y34591D01*
X212999Y34600D01*
X212896Y34634D01*
X212795Y34673D01*
X212777Y34674D01*
X212768Y34678D01*
X212746Y34678D01*
X212648Y34687D01*
X208992Y34687D01*
X208885Y34670D01*
X208777Y34656D01*
X208765Y34650D01*
X208751Y34648D01*
X208655Y34596D01*
X208558Y34549D01*
X208548Y34539D01*
X208536Y34533D01*
X208462Y34453D01*
X208385Y34377D01*
X208379Y34365D01*
X208369Y34355D01*
X208324Y34256D01*
X208276Y34159D01*
X208272Y34141D01*
X208268Y34132D01*
X208266Y34111D01*
X208247Y34014D01*
X207804Y29663D01*
X206645Y29292D01*
X206627Y29282D01*
X206530Y29244D01*
X205448Y28687D01*
X202058Y31451D01*
X201964Y31505D01*
X201872Y31562D01*
X201859Y31565D01*
X201847Y31572D01*
X201740Y31593D01*
X201635Y31618D01*
X201621Y31616D01*
X201607Y31619D01*
X201500Y31604D01*
X201392Y31594D01*
X201379Y31588D01*
X201366Y31586D01*
X201268Y31538D01*
X201169Y31493D01*
X201156Y31482D01*
X201147Y31478D01*
X201132Y31462D01*
X201055Y31400D01*
X198470Y28815D01*
X198407Y28726D01*
X198341Y28641D01*
X198336Y28628D01*
X198328Y28616D01*
X198297Y28513D01*
X198261Y28410D01*
X198261Y28396D01*
X198257Y28383D01*
X198261Y28275D01*
X198260Y28166D01*
X198265Y28153D01*
X198265Y28139D01*
X198303Y28037D01*
X198338Y27935D01*
X198347Y27920D01*
X198351Y27911D01*
X198365Y27894D01*
X198419Y27812D01*
X201183Y24422D01*
X200626Y23340D01*
X200620Y23320D01*
X200578Y23225D01*
X200207Y22066D01*
X195856Y21623D01*
X195752Y21595D01*
X195646Y21570D01*
X195634Y21563D01*
X195621Y21560D01*
X195531Y21499D01*
X195438Y21442D01*
X195430Y21431D01*
X195418Y21423D01*
X195352Y21337D01*
X195284Y21253D01*
X195279Y21240D01*
X195270Y21229D01*
X195236Y21126D01*
X195197Y21025D01*
X195196Y21007D01*
X195192Y20998D01*
X195193Y20976D01*
X195183Y20878D01*
X195183Y17222D01*
X195200Y17115D01*
X195214Y17007D01*
X195220Y16995D01*
X195222Y16981D01*
X195274Y16885D01*
X195321Y16788D01*
X195331Y16778D01*
X195337Y16766D01*
X195417Y16692D01*
X195493Y16615D01*
X195505Y16609D01*
X195516Y16599D01*
X195614Y16554D01*
X195711Y16506D01*
X195729Y16502D01*
X195738Y16498D01*
X195759Y16496D01*
X195856Y16477D01*
X200207Y16034D01*
X200578Y14875D01*
X200588Y14857D01*
X200626Y14760D01*
X201183Y13678D01*
X198419Y10288D01*
X198365Y10194D01*
X198308Y10102D01*
X198305Y10089D01*
X198298Y10077D01*
X198277Y9970D01*
X198252Y9865D01*
X198254Y9851D01*
X198251Y9837D01*
X198266Y9730D01*
X198276Y9622D01*
X198282Y9609D01*
X198284Y9596D01*
X198332Y9498D01*
X198377Y9399D01*
X198388Y9386D01*
X198392Y9377D01*
X198408Y9362D01*
X198470Y9285D01*
X201055Y6700D01*
X201144Y6637D01*
X201229Y6571D01*
X201242Y6566D01*
X201254Y6558D01*
X201357Y6527D01*
X201460Y6491D01*
X201474Y6491D01*
X201487Y6487D01*
X201595Y6491D01*
X201704Y6490D01*
X201717Y6495D01*
X201731Y6495D01*
X201833Y6533D01*
X201935Y6568D01*
X201950Y6577D01*
X201959Y6581D01*
X201976Y6595D01*
X202058Y6649D01*
X205448Y9413D01*
X206530Y8856D01*
X206583Y8839D01*
X206632Y8813D01*
X206698Y8802D01*
X206762Y8781D01*
X206818Y8782D01*
X206872Y8773D01*
X206939Y8784D01*
X207006Y8785D01*
X207058Y8803D01*
X207113Y8812D01*
X207173Y8844D01*
X207236Y8867D01*
X207279Y8901D01*
X207329Y8927D01*
X207375Y8976D01*
X207427Y9018D01*
X207458Y9065D01*
X207496Y9105D01*
X207552Y9210D01*
X207560Y9223D01*
X207561Y9228D01*
X207565Y9235D01*
X209718Y14432D01*
X209738Y14516D01*
X209743Y14528D01*
X209745Y14544D01*
X209770Y14630D01*
X209769Y14650D01*
X209774Y14670D01*
X209766Y14752D01*
X209767Y14771D01*
X209763Y14791D01*
X209759Y14874D01*
X209752Y14893D01*
X209750Y14913D01*
X209718Y14982D01*
X209712Y15009D01*
X209697Y15033D01*
X209670Y15102D01*
X209657Y15117D01*
X209649Y15135D01*
X209604Y15184D01*
X209584Y15216D01*
X209552Y15242D01*
X209513Y15288D01*
X209492Y15303D01*
X209482Y15313D01*
X209461Y15325D01*
X209398Y15369D01*
X209395Y15371D01*
X209394Y15371D01*
X209392Y15373D01*
X208508Y15868D01*
X207829Y16495D01*
X207315Y17264D01*
X206995Y18132D01*
X206887Y19049D01*
X207000Y19984D01*
X207331Y20865D01*
X207863Y21642D01*
X208564Y22271D01*
X209394Y22714D01*
X210306Y22948D01*
X211248Y22958D01*
X212164Y22744D01*
X213004Y22319D01*
X213718Y21706D01*
X214267Y20941D01*
X214618Y20067D01*
X214751Y19135D01*
X214659Y18198D01*
X214347Y17310D01*
X213832Y16522D01*
X213145Y15878D01*
X212246Y15372D01*
X212206Y15339D01*
X212164Y15317D01*
X212133Y15284D01*
X212085Y15249D01*
X212072Y15232D01*
X212056Y15219D01*
X212021Y15165D01*
X211997Y15139D01*
X211984Y15108D01*
X211942Y15051D01*
X211936Y15031D01*
X211925Y15013D01*
X211907Y14940D01*
X211897Y14917D01*
X211894Y14893D01*
X211871Y14818D01*
X211872Y14797D01*
X211867Y14776D01*
X211874Y14692D01*
X211873Y14674D01*
X211876Y14658D01*
X211879Y14574D01*
X211887Y14548D01*
X211888Y14533D01*
X211898Y14511D01*
X211922Y14432D01*
X212230Y13687D01*
X212231Y13687D01*
X212541Y12938D01*
X212851Y12189D01*
X212851Y12188D01*
X213162Y11440D01*
X213162Y11439D01*
X213472Y10690D01*
X213782Y9941D01*
X213783Y9941D01*
X214075Y9235D01*
X214104Y9188D01*
X214125Y9136D01*
X214168Y9085D01*
X214204Y9028D01*
X214247Y8993D01*
X214283Y8950D01*
X214340Y8916D01*
X214392Y8873D01*
X214444Y8854D01*
X214492Y8825D01*
X214558Y8811D01*
X214621Y8787D01*
X214676Y8785D01*
X214730Y8774D01*
X214797Y8781D01*
X214864Y8779D01*
X214918Y8795D01*
X214973Y8802D01*
X215084Y8846D01*
X215098Y8850D01*
X215102Y8853D01*
X215110Y8856D01*
X216192Y9413D01*
X219582Y6649D01*
X219676Y6595D01*
X219768Y6538D01*
X219781Y6535D01*
X219793Y6528D01*
X219900Y6507D01*
X220005Y6482D01*
X220019Y6484D01*
X220033Y6481D01*
X220140Y6496D01*
G37*
D10*
X243332Y24765D02*
X244475Y24765D01*
X244475Y20955D01*
X242189Y20955D01*
X242112Y20957D01*
X242035Y20963D01*
X241958Y20973D01*
X241882Y20986D01*
X241807Y21004D01*
X241733Y21025D01*
X241660Y21050D01*
X241588Y21079D01*
X241518Y21111D01*
X241449Y21146D01*
X241383Y21186D01*
X241318Y21228D01*
X241256Y21274D01*
X241196Y21323D01*
X241139Y21374D01*
X241084Y21429D01*
X241033Y21486D01*
X240984Y21546D01*
X240938Y21608D01*
X240896Y21673D01*
X240856Y21739D01*
X240821Y21808D01*
X240789Y21878D01*
X240760Y21950D01*
X240735Y22023D01*
X240714Y22097D01*
X240696Y22172D01*
X240683Y22248D01*
X240673Y22325D01*
X240667Y22402D01*
X240665Y22479D01*
X240665Y26289D01*
X240667Y26366D01*
X240673Y26443D01*
X240683Y26520D01*
X240696Y26596D01*
X240714Y26671D01*
X240735Y26745D01*
X240760Y26818D01*
X240789Y26890D01*
X240821Y26960D01*
X240856Y27029D01*
X240896Y27095D01*
X240938Y27160D01*
X240984Y27222D01*
X241033Y27282D01*
X241084Y27339D01*
X241139Y27394D01*
X241196Y27445D01*
X241256Y27494D01*
X241318Y27540D01*
X241383Y27582D01*
X241449Y27622D01*
X241518Y27657D01*
X241588Y27689D01*
X241660Y27718D01*
X241733Y27743D01*
X241807Y27764D01*
X241882Y27782D01*
X241958Y27795D01*
X242035Y27805D01*
X242112Y27811D01*
X242189Y27813D01*
X244475Y27813D01*
X248468Y27813D02*
X248468Y20955D01*
X252278Y20955D02*
X248468Y27813D01*
X252278Y27813D02*
X252278Y20955D01*
X256271Y20955D02*
X256271Y27813D01*
X258176Y27813D01*
X258261Y27811D01*
X258347Y27805D01*
X258432Y27796D01*
X258516Y27782D01*
X258600Y27765D01*
X258683Y27744D01*
X258765Y27720D01*
X258845Y27692D01*
X258925Y27660D01*
X259003Y27624D01*
X259079Y27586D01*
X259153Y27543D01*
X259225Y27498D01*
X259296Y27449D01*
X259364Y27397D01*
X259429Y27343D01*
X259492Y27285D01*
X259553Y27224D01*
X259611Y27161D01*
X259665Y27096D01*
X259717Y27028D01*
X259766Y26957D01*
X259811Y26885D01*
X259854Y26811D01*
X259892Y26735D01*
X259928Y26657D01*
X259960Y26577D01*
X259988Y26497D01*
X260012Y26415D01*
X260033Y26332D01*
X260050Y26248D01*
X260064Y26164D01*
X260073Y26079D01*
X260079Y25993D01*
X260081Y25908D01*
X260081Y22860D01*
X260079Y22775D01*
X260073Y22689D01*
X260064Y22604D01*
X260050Y22520D01*
X260033Y22436D01*
X260012Y22353D01*
X259988Y22271D01*
X259960Y22191D01*
X259928Y22111D01*
X259892Y22033D01*
X259854Y21957D01*
X259811Y21883D01*
X259766Y21811D01*
X259717Y21740D01*
X259665Y21672D01*
X259611Y21607D01*
X259553Y21544D01*
X259492Y21483D01*
X259429Y21425D01*
X259364Y21371D01*
X259296Y21319D01*
X259225Y21270D01*
X259153Y21225D01*
X259079Y21182D01*
X259003Y21144D01*
X258925Y21108D01*
X258845Y21076D01*
X258765Y21048D01*
X258683Y21024D01*
X258600Y21003D01*
X258516Y20986D01*
X258432Y20972D01*
X258347Y20963D01*
X258261Y20957D01*
X258176Y20955D01*
X256271Y20955D01*
X245110Y45085D02*
X243205Y45085D01*
X245110Y45085D02*
X245195Y45087D01*
X245281Y45093D01*
X245366Y45102D01*
X245450Y45116D01*
X245534Y45133D01*
X245617Y45154D01*
X245699Y45178D01*
X245779Y45206D01*
X245859Y45238D01*
X245937Y45274D01*
X246013Y45312D01*
X246087Y45355D01*
X246159Y45400D01*
X246230Y45449D01*
X246298Y45501D01*
X246363Y45555D01*
X246426Y45613D01*
X246487Y45674D01*
X246545Y45737D01*
X246599Y45802D01*
X246651Y45870D01*
X246700Y45941D01*
X246745Y46013D01*
X246788Y46087D01*
X246826Y46163D01*
X246862Y46241D01*
X246894Y46321D01*
X246922Y46401D01*
X246946Y46483D01*
X246967Y46566D01*
X246984Y46650D01*
X246998Y46734D01*
X247007Y46819D01*
X247013Y46905D01*
X247015Y46990D01*
X247013Y47075D01*
X247007Y47161D01*
X246998Y47246D01*
X246984Y47330D01*
X246967Y47414D01*
X246946Y47497D01*
X246922Y47579D01*
X246894Y47659D01*
X246862Y47739D01*
X246826Y47817D01*
X246788Y47893D01*
X246745Y47967D01*
X246700Y48039D01*
X246651Y48110D01*
X246599Y48178D01*
X246545Y48243D01*
X246487Y48306D01*
X246426Y48367D01*
X246363Y48425D01*
X246298Y48479D01*
X246230Y48531D01*
X246159Y48580D01*
X246087Y48625D01*
X246013Y48668D01*
X245937Y48706D01*
X245859Y48742D01*
X245779Y48774D01*
X245699Y48802D01*
X245617Y48826D01*
X245534Y48847D01*
X245450Y48864D01*
X245366Y48878D01*
X245281Y48887D01*
X245195Y48893D01*
X245110Y48895D01*
X245491Y51943D02*
X243205Y51943D01*
X245491Y51943D02*
X245568Y51941D01*
X245645Y51935D01*
X245722Y51925D01*
X245798Y51912D01*
X245873Y51894D01*
X245947Y51873D01*
X246020Y51848D01*
X246092Y51819D01*
X246162Y51787D01*
X246231Y51752D01*
X246297Y51712D01*
X246362Y51670D01*
X246424Y51624D01*
X246484Y51575D01*
X246541Y51524D01*
X246596Y51469D01*
X246647Y51412D01*
X246696Y51352D01*
X246742Y51290D01*
X246784Y51225D01*
X246824Y51159D01*
X246859Y51090D01*
X246891Y51020D01*
X246920Y50948D01*
X246945Y50875D01*
X246966Y50801D01*
X246984Y50726D01*
X246997Y50650D01*
X247007Y50573D01*
X247013Y50496D01*
X247015Y50419D01*
X247013Y50342D01*
X247007Y50265D01*
X246997Y50188D01*
X246984Y50112D01*
X246966Y50037D01*
X246945Y49963D01*
X246920Y49890D01*
X246891Y49818D01*
X246859Y49748D01*
X246824Y49679D01*
X246784Y49613D01*
X246742Y49548D01*
X246696Y49486D01*
X246647Y49426D01*
X246596Y49369D01*
X246541Y49314D01*
X246484Y49263D01*
X246424Y49214D01*
X246362Y49168D01*
X246297Y49126D01*
X246231Y49086D01*
X246162Y49051D01*
X246092Y49019D01*
X246020Y48990D01*
X245947Y48965D01*
X245873Y48944D01*
X245798Y48926D01*
X245722Y48913D01*
X245645Y48903D01*
X245568Y48897D01*
X245491Y48895D01*
X243967Y48895D01*
X250170Y49657D02*
X251694Y45085D01*
X253218Y49657D01*
X256372Y45085D02*
X258277Y45085D01*
X258362Y45087D01*
X258448Y45093D01*
X258533Y45102D01*
X258617Y45116D01*
X258701Y45133D01*
X258784Y45154D01*
X258866Y45178D01*
X258946Y45206D01*
X259026Y45238D01*
X259104Y45274D01*
X259180Y45312D01*
X259254Y45355D01*
X259326Y45400D01*
X259397Y45449D01*
X259465Y45501D01*
X259530Y45555D01*
X259593Y45613D01*
X259654Y45674D01*
X259712Y45737D01*
X259766Y45802D01*
X259818Y45870D01*
X259867Y45941D01*
X259912Y46013D01*
X259955Y46087D01*
X259993Y46163D01*
X260029Y46241D01*
X260061Y46321D01*
X260089Y46401D01*
X260113Y46483D01*
X260134Y46566D01*
X260151Y46650D01*
X260165Y46734D01*
X260174Y46819D01*
X260180Y46905D01*
X260182Y46990D01*
X260180Y47075D01*
X260174Y47161D01*
X260165Y47246D01*
X260151Y47330D01*
X260134Y47414D01*
X260113Y47497D01*
X260089Y47579D01*
X260061Y47659D01*
X260029Y47739D01*
X259993Y47817D01*
X259955Y47893D01*
X259912Y47967D01*
X259867Y48039D01*
X259818Y48110D01*
X259766Y48178D01*
X259712Y48243D01*
X259654Y48306D01*
X259593Y48367D01*
X259530Y48425D01*
X259465Y48479D01*
X259397Y48531D01*
X259326Y48580D01*
X259254Y48625D01*
X259180Y48668D01*
X259104Y48706D01*
X259026Y48742D01*
X258946Y48774D01*
X258866Y48802D01*
X258784Y48826D01*
X258701Y48847D01*
X258617Y48864D01*
X258533Y48878D01*
X258448Y48887D01*
X258362Y48893D01*
X258277Y48895D01*
X258658Y51943D02*
X256372Y51943D01*
X258658Y51943D02*
X258735Y51941D01*
X258812Y51935D01*
X258889Y51925D01*
X258965Y51912D01*
X259040Y51894D01*
X259114Y51873D01*
X259187Y51848D01*
X259259Y51819D01*
X259329Y51787D01*
X259398Y51752D01*
X259464Y51712D01*
X259529Y51670D01*
X259591Y51624D01*
X259651Y51575D01*
X259708Y51524D01*
X259763Y51469D01*
X259814Y51412D01*
X259863Y51352D01*
X259909Y51290D01*
X259951Y51225D01*
X259991Y51159D01*
X260026Y51090D01*
X260058Y51020D01*
X260087Y50948D01*
X260112Y50875D01*
X260133Y50801D01*
X260151Y50726D01*
X260164Y50650D01*
X260174Y50573D01*
X260180Y50496D01*
X260182Y50419D01*
X260180Y50342D01*
X260174Y50265D01*
X260164Y50188D01*
X260151Y50112D01*
X260133Y50037D01*
X260112Y49963D01*
X260087Y49890D01*
X260058Y49818D01*
X260026Y49748D01*
X259991Y49679D01*
X259951Y49613D01*
X259909Y49548D01*
X259863Y49486D01*
X259814Y49426D01*
X259763Y49369D01*
X259708Y49314D01*
X259651Y49263D01*
X259591Y49214D01*
X259529Y49168D01*
X259464Y49126D01*
X259398Y49086D01*
X259329Y49051D01*
X259259Y49019D01*
X259187Y48990D01*
X259114Y48965D01*
X259040Y48944D01*
X258965Y48926D01*
X258889Y48913D01*
X258812Y48903D01*
X258735Y48897D01*
X258658Y48895D01*
X257134Y48895D01*
X246761Y70485D02*
X246838Y70487D01*
X246915Y70493D01*
X246992Y70503D01*
X247068Y70516D01*
X247143Y70534D01*
X247217Y70555D01*
X247290Y70580D01*
X247362Y70609D01*
X247432Y70641D01*
X247501Y70676D01*
X247567Y70716D01*
X247632Y70758D01*
X247694Y70804D01*
X247754Y70853D01*
X247811Y70904D01*
X247866Y70959D01*
X247917Y71016D01*
X247966Y71076D01*
X248012Y71138D01*
X248054Y71203D01*
X248094Y71269D01*
X248129Y71338D01*
X248161Y71408D01*
X248190Y71480D01*
X248215Y71553D01*
X248236Y71627D01*
X248254Y71702D01*
X248267Y71778D01*
X248277Y71855D01*
X248283Y71932D01*
X248285Y72009D01*
X246761Y70485D02*
X246651Y70487D01*
X246540Y70493D01*
X246430Y70502D01*
X246320Y70515D01*
X246211Y70532D01*
X246103Y70553D01*
X245995Y70577D01*
X245888Y70606D01*
X245782Y70637D01*
X245678Y70673D01*
X245574Y70712D01*
X245472Y70754D01*
X245372Y70800D01*
X245273Y70850D01*
X245176Y70902D01*
X245080Y70959D01*
X244987Y71018D01*
X244896Y71080D01*
X244807Y71146D01*
X244720Y71214D01*
X244636Y71286D01*
X244554Y71360D01*
X244475Y71437D01*
X244666Y75819D02*
X244668Y75896D01*
X244674Y75973D01*
X244684Y76050D01*
X244697Y76126D01*
X244715Y76201D01*
X244736Y76275D01*
X244761Y76348D01*
X244790Y76420D01*
X244822Y76490D01*
X244857Y76559D01*
X244897Y76625D01*
X244939Y76690D01*
X244985Y76752D01*
X245034Y76812D01*
X245085Y76869D01*
X245140Y76924D01*
X245197Y76975D01*
X245257Y77024D01*
X245319Y77070D01*
X245384Y77112D01*
X245450Y77152D01*
X245519Y77187D01*
X245589Y77219D01*
X245661Y77248D01*
X245734Y77273D01*
X245808Y77294D01*
X245883Y77312D01*
X245959Y77325D01*
X246036Y77335D01*
X246113Y77341D01*
X246190Y77343D01*
X246190Y77344D02*
X246292Y77342D01*
X246394Y77337D01*
X246496Y77328D01*
X246597Y77315D01*
X246698Y77298D01*
X246798Y77279D01*
X246898Y77255D01*
X246996Y77228D01*
X247094Y77197D01*
X247190Y77163D01*
X247285Y77126D01*
X247379Y77085D01*
X247471Y77041D01*
X247561Y76993D01*
X247650Y76943D01*
X247737Y76889D01*
X247822Y76832D01*
X247905Y76772D01*
X245427Y74485D02*
X245362Y74526D01*
X245299Y74569D01*
X245239Y74616D01*
X245180Y74666D01*
X245125Y74718D01*
X245072Y74773D01*
X245021Y74831D01*
X244974Y74891D01*
X244930Y74954D01*
X244888Y75018D01*
X244850Y75084D01*
X244816Y75153D01*
X244785Y75223D01*
X244757Y75294D01*
X244733Y75366D01*
X244712Y75440D01*
X244695Y75515D01*
X244682Y75590D01*
X244673Y75666D01*
X244667Y75742D01*
X244665Y75819D01*
X247523Y73343D02*
X247588Y73302D01*
X247651Y73259D01*
X247711Y73212D01*
X247770Y73162D01*
X247825Y73110D01*
X247878Y73055D01*
X247929Y72997D01*
X247976Y72937D01*
X248020Y72874D01*
X248062Y72810D01*
X248100Y72744D01*
X248134Y72675D01*
X248165Y72605D01*
X248193Y72534D01*
X248217Y72462D01*
X248238Y72388D01*
X248255Y72313D01*
X248268Y72238D01*
X248277Y72162D01*
X248283Y72086D01*
X248285Y72009D01*
X247523Y73343D02*
X245428Y74486D01*
X253039Y70485D02*
X254563Y70485D01*
X253039Y70485D02*
X252962Y70487D01*
X252885Y70493D01*
X252808Y70503D01*
X252732Y70516D01*
X252657Y70534D01*
X252583Y70555D01*
X252510Y70580D01*
X252438Y70609D01*
X252368Y70641D01*
X252299Y70676D01*
X252233Y70716D01*
X252168Y70758D01*
X252106Y70804D01*
X252046Y70853D01*
X251989Y70904D01*
X251934Y70959D01*
X251883Y71016D01*
X251834Y71076D01*
X251788Y71138D01*
X251746Y71203D01*
X251706Y71269D01*
X251671Y71338D01*
X251639Y71408D01*
X251610Y71480D01*
X251585Y71553D01*
X251564Y71627D01*
X251546Y71702D01*
X251533Y71778D01*
X251523Y71855D01*
X251517Y71932D01*
X251515Y72009D01*
X251515Y75819D01*
X251517Y75896D01*
X251523Y75973D01*
X251533Y76050D01*
X251546Y76126D01*
X251564Y76201D01*
X251585Y76275D01*
X251610Y76348D01*
X251639Y76420D01*
X251671Y76490D01*
X251706Y76559D01*
X251746Y76625D01*
X251788Y76690D01*
X251834Y76752D01*
X251883Y76812D01*
X251934Y76869D01*
X251989Y76924D01*
X252046Y76975D01*
X252106Y77024D01*
X252168Y77070D01*
X252233Y77112D01*
X252299Y77152D01*
X252368Y77187D01*
X252438Y77219D01*
X252510Y77248D01*
X252583Y77273D01*
X252657Y77294D01*
X252732Y77312D01*
X252808Y77325D01*
X252885Y77335D01*
X252962Y77341D01*
X253039Y77343D01*
X254563Y77343D01*
X257907Y77343D02*
X257907Y70485D01*
X260955Y70485D01*
X244221Y95885D02*
X244298Y95887D01*
X244375Y95893D01*
X244452Y95903D01*
X244528Y95916D01*
X244603Y95934D01*
X244677Y95955D01*
X244750Y95980D01*
X244822Y96009D01*
X244892Y96041D01*
X244961Y96076D01*
X245027Y96116D01*
X245092Y96158D01*
X245154Y96204D01*
X245214Y96253D01*
X245271Y96304D01*
X245326Y96359D01*
X245377Y96416D01*
X245426Y96476D01*
X245472Y96538D01*
X245514Y96603D01*
X245554Y96669D01*
X245589Y96738D01*
X245621Y96808D01*
X245650Y96880D01*
X245675Y96953D01*
X245696Y97027D01*
X245714Y97102D01*
X245727Y97178D01*
X245737Y97255D01*
X245743Y97332D01*
X245745Y97409D01*
X244221Y95885D02*
X244111Y95887D01*
X244000Y95893D01*
X243890Y95902D01*
X243780Y95915D01*
X243671Y95932D01*
X243563Y95953D01*
X243455Y95977D01*
X243348Y96006D01*
X243242Y96037D01*
X243138Y96073D01*
X243034Y96112D01*
X242932Y96154D01*
X242832Y96200D01*
X242733Y96250D01*
X242636Y96302D01*
X242540Y96359D01*
X242447Y96418D01*
X242356Y96480D01*
X242267Y96546D01*
X242180Y96614D01*
X242096Y96686D01*
X242014Y96760D01*
X241935Y96837D01*
X242126Y101219D02*
X242128Y101296D01*
X242134Y101373D01*
X242144Y101450D01*
X242157Y101526D01*
X242175Y101601D01*
X242196Y101675D01*
X242221Y101748D01*
X242250Y101820D01*
X242282Y101890D01*
X242317Y101959D01*
X242357Y102025D01*
X242399Y102090D01*
X242445Y102152D01*
X242494Y102212D01*
X242545Y102269D01*
X242600Y102324D01*
X242657Y102375D01*
X242717Y102424D01*
X242779Y102470D01*
X242844Y102512D01*
X242910Y102552D01*
X242979Y102587D01*
X243049Y102619D01*
X243121Y102648D01*
X243194Y102673D01*
X243268Y102694D01*
X243343Y102712D01*
X243419Y102725D01*
X243496Y102735D01*
X243573Y102741D01*
X243650Y102743D01*
X243650Y102744D02*
X243752Y102742D01*
X243854Y102737D01*
X243956Y102728D01*
X244057Y102715D01*
X244158Y102698D01*
X244258Y102679D01*
X244358Y102655D01*
X244456Y102628D01*
X244554Y102597D01*
X244650Y102563D01*
X244745Y102526D01*
X244839Y102485D01*
X244931Y102441D01*
X245021Y102393D01*
X245110Y102343D01*
X245197Y102289D01*
X245282Y102232D01*
X245365Y102172D01*
X242887Y99885D02*
X242822Y99926D01*
X242759Y99969D01*
X242699Y100016D01*
X242640Y100066D01*
X242585Y100118D01*
X242532Y100173D01*
X242481Y100231D01*
X242434Y100291D01*
X242390Y100354D01*
X242348Y100418D01*
X242310Y100484D01*
X242276Y100553D01*
X242245Y100623D01*
X242217Y100694D01*
X242193Y100766D01*
X242172Y100840D01*
X242155Y100915D01*
X242142Y100990D01*
X242133Y101066D01*
X242127Y101142D01*
X242125Y101219D01*
X244983Y98743D02*
X245048Y98702D01*
X245111Y98659D01*
X245171Y98612D01*
X245230Y98562D01*
X245285Y98510D01*
X245338Y98455D01*
X245389Y98397D01*
X245436Y98337D01*
X245480Y98274D01*
X245522Y98210D01*
X245560Y98144D01*
X245594Y98075D01*
X245625Y98005D01*
X245653Y97934D01*
X245677Y97862D01*
X245698Y97788D01*
X245715Y97713D01*
X245728Y97638D01*
X245737Y97562D01*
X245743Y97486D01*
X245745Y97409D01*
X244983Y98743D02*
X242888Y99886D01*
X249250Y102743D02*
X249250Y95885D01*
X249250Y102743D02*
X251155Y102743D01*
X251240Y102741D01*
X251326Y102735D01*
X251411Y102726D01*
X251495Y102712D01*
X251579Y102695D01*
X251662Y102674D01*
X251744Y102650D01*
X251824Y102622D01*
X251904Y102590D01*
X251982Y102554D01*
X252058Y102516D01*
X252132Y102473D01*
X252204Y102428D01*
X252275Y102379D01*
X252343Y102327D01*
X252408Y102273D01*
X252471Y102215D01*
X252532Y102154D01*
X252590Y102091D01*
X252644Y102026D01*
X252696Y101958D01*
X252745Y101887D01*
X252790Y101815D01*
X252833Y101741D01*
X252871Y101665D01*
X252907Y101587D01*
X252939Y101507D01*
X252967Y101427D01*
X252991Y101345D01*
X253012Y101262D01*
X253029Y101178D01*
X253043Y101094D01*
X253052Y101009D01*
X253058Y100923D01*
X253060Y100838D01*
X253060Y97790D01*
X253058Y97705D01*
X253052Y97619D01*
X253043Y97534D01*
X253029Y97450D01*
X253012Y97366D01*
X252991Y97283D01*
X252967Y97201D01*
X252939Y97121D01*
X252907Y97041D01*
X252871Y96963D01*
X252833Y96887D01*
X252790Y96813D01*
X252745Y96741D01*
X252696Y96670D01*
X252644Y96602D01*
X252590Y96537D01*
X252532Y96474D01*
X252471Y96413D01*
X252408Y96355D01*
X252343Y96301D01*
X252275Y96249D01*
X252204Y96200D01*
X252132Y96155D01*
X252058Y96112D01*
X251982Y96074D01*
X251904Y96038D01*
X251824Y96006D01*
X251744Y95978D01*
X251662Y95954D01*
X251579Y95933D01*
X251495Y95916D01*
X251411Y95902D01*
X251326Y95893D01*
X251240Y95887D01*
X251155Y95885D01*
X249250Y95885D01*
X256428Y95885D02*
X258714Y102743D01*
X261000Y95885D01*
X260429Y97600D02*
X257000Y97600D01*
X133446Y11557D02*
X131922Y11557D01*
X131845Y11559D01*
X131768Y11565D01*
X131691Y11575D01*
X131615Y11588D01*
X131540Y11606D01*
X131466Y11627D01*
X131393Y11652D01*
X131321Y11681D01*
X131251Y11713D01*
X131182Y11748D01*
X131116Y11788D01*
X131051Y11830D01*
X130989Y11876D01*
X130929Y11925D01*
X130872Y11976D01*
X130817Y12031D01*
X130766Y12088D01*
X130717Y12148D01*
X130671Y12210D01*
X130629Y12275D01*
X130589Y12341D01*
X130554Y12410D01*
X130522Y12480D01*
X130493Y12552D01*
X130468Y12625D01*
X130447Y12699D01*
X130429Y12774D01*
X130416Y12850D01*
X130406Y12927D01*
X130400Y13004D01*
X130398Y13081D01*
X130398Y16891D01*
X130400Y16968D01*
X130406Y17045D01*
X130416Y17122D01*
X130429Y17198D01*
X130447Y17273D01*
X130468Y17347D01*
X130493Y17420D01*
X130522Y17492D01*
X130554Y17562D01*
X130589Y17631D01*
X130629Y17697D01*
X130671Y17762D01*
X130717Y17824D01*
X130766Y17884D01*
X130817Y17941D01*
X130872Y17996D01*
X130929Y18047D01*
X130989Y18096D01*
X131051Y18142D01*
X131116Y18184D01*
X131182Y18224D01*
X131251Y18259D01*
X131321Y18291D01*
X131393Y18320D01*
X131466Y18345D01*
X131540Y18366D01*
X131615Y18384D01*
X131691Y18397D01*
X131768Y18407D01*
X131845Y18413D01*
X131922Y18415D01*
X133446Y18415D01*
X136525Y16891D02*
X138430Y18415D01*
X138430Y11557D01*
X136525Y11557D02*
X140335Y11557D01*
X77794Y18415D02*
X75889Y16891D01*
X77794Y18415D02*
X77794Y11557D01*
X75889Y11557D02*
X79699Y11557D01*
X83342Y12700D02*
X83342Y16129D01*
X83342Y12700D02*
X83344Y12634D01*
X83350Y12567D01*
X83359Y12502D01*
X83373Y12436D01*
X83390Y12372D01*
X83411Y12309D01*
X83435Y12247D01*
X83464Y12187D01*
X83495Y12129D01*
X83530Y12072D01*
X83568Y12017D01*
X83609Y11965D01*
X83654Y11916D01*
X83701Y11869D01*
X83750Y11824D01*
X83802Y11783D01*
X83857Y11745D01*
X83914Y11710D01*
X83972Y11679D01*
X84032Y11650D01*
X84094Y11626D01*
X84157Y11605D01*
X84221Y11588D01*
X84287Y11574D01*
X84352Y11565D01*
X84419Y11559D01*
X84485Y11557D01*
X86390Y11557D01*
X86390Y16129D01*
X90297Y18415D02*
X90297Y11557D01*
X90297Y18415D02*
X93345Y18415D01*
X93345Y15367D02*
X90297Y15367D01*
X131922Y25527D02*
X133446Y25527D01*
X131922Y25527D02*
X131845Y25529D01*
X131768Y25535D01*
X131691Y25545D01*
X131615Y25558D01*
X131540Y25576D01*
X131466Y25597D01*
X131393Y25622D01*
X131321Y25651D01*
X131251Y25683D01*
X131182Y25718D01*
X131116Y25758D01*
X131051Y25800D01*
X130989Y25846D01*
X130929Y25895D01*
X130872Y25946D01*
X130817Y26001D01*
X130766Y26058D01*
X130717Y26118D01*
X130671Y26180D01*
X130629Y26245D01*
X130589Y26311D01*
X130554Y26380D01*
X130522Y26450D01*
X130493Y26522D01*
X130468Y26595D01*
X130447Y26669D01*
X130429Y26744D01*
X130416Y26820D01*
X130406Y26897D01*
X130400Y26974D01*
X130398Y27051D01*
X130398Y30861D01*
X130400Y30938D01*
X130406Y31015D01*
X130416Y31092D01*
X130429Y31168D01*
X130447Y31243D01*
X130468Y31317D01*
X130493Y31390D01*
X130522Y31462D01*
X130554Y31532D01*
X130589Y31601D01*
X130629Y31667D01*
X130671Y31732D01*
X130717Y31794D01*
X130766Y31854D01*
X130817Y31911D01*
X130872Y31966D01*
X130929Y32017D01*
X130989Y32066D01*
X131051Y32112D01*
X131116Y32154D01*
X131182Y32194D01*
X131251Y32229D01*
X131321Y32261D01*
X131393Y32290D01*
X131466Y32315D01*
X131540Y32336D01*
X131615Y32354D01*
X131691Y32367D01*
X131768Y32377D01*
X131845Y32383D01*
X131922Y32385D01*
X133446Y32385D01*
X138621Y32386D02*
X138703Y32384D01*
X138784Y32378D01*
X138865Y32369D01*
X138946Y32355D01*
X139025Y32338D01*
X139104Y32317D01*
X139182Y32292D01*
X139258Y32263D01*
X139333Y32231D01*
X139407Y32195D01*
X139479Y32156D01*
X139548Y32114D01*
X139616Y32068D01*
X139681Y32019D01*
X139744Y31967D01*
X139804Y31912D01*
X139862Y31854D01*
X139917Y31794D01*
X139969Y31731D01*
X140018Y31666D01*
X140064Y31598D01*
X140106Y31529D01*
X140145Y31457D01*
X140181Y31383D01*
X140213Y31308D01*
X140242Y31232D01*
X140267Y31154D01*
X140288Y31075D01*
X140305Y30996D01*
X140319Y30915D01*
X140328Y30834D01*
X140334Y30753D01*
X140336Y30671D01*
X138621Y32385D02*
X138529Y32383D01*
X138437Y32377D01*
X138345Y32368D01*
X138253Y32354D01*
X138163Y32337D01*
X138073Y32316D01*
X137984Y32291D01*
X137896Y32262D01*
X137809Y32230D01*
X137724Y32194D01*
X137641Y32155D01*
X137559Y32112D01*
X137479Y32066D01*
X137401Y32016D01*
X137325Y31964D01*
X137252Y31908D01*
X137181Y31849D01*
X137112Y31787D01*
X137046Y31722D01*
X136983Y31655D01*
X136923Y31585D01*
X136865Y31513D01*
X136811Y31438D01*
X136760Y31361D01*
X136712Y31282D01*
X136668Y31201D01*
X136627Y31118D01*
X136589Y31034D01*
X136555Y30948D01*
X136525Y30861D01*
X139764Y29337D02*
X139823Y29396D01*
X139879Y29457D01*
X139932Y29520D01*
X139983Y29586D01*
X140030Y29654D01*
X140074Y29724D01*
X140115Y29796D01*
X140153Y29870D01*
X140187Y29945D01*
X140218Y30022D01*
X140245Y30100D01*
X140269Y30180D01*
X140290Y30260D01*
X140306Y30341D01*
X140319Y30423D01*
X140329Y30505D01*
X140334Y30588D01*
X140336Y30671D01*
X139764Y29337D02*
X136525Y25527D01*
X140335Y25527D01*
X77794Y32385D02*
X75889Y30861D01*
X77794Y32385D02*
X77794Y25527D01*
X75889Y25527D02*
X79699Y25527D01*
X83342Y26670D02*
X83342Y30099D01*
X83342Y26670D02*
X83344Y26604D01*
X83350Y26537D01*
X83359Y26472D01*
X83373Y26406D01*
X83390Y26342D01*
X83411Y26279D01*
X83435Y26217D01*
X83464Y26157D01*
X83495Y26099D01*
X83530Y26042D01*
X83568Y25987D01*
X83609Y25935D01*
X83654Y25886D01*
X83701Y25839D01*
X83750Y25794D01*
X83802Y25753D01*
X83857Y25715D01*
X83914Y25680D01*
X83972Y25649D01*
X84032Y25620D01*
X84094Y25596D01*
X84157Y25575D01*
X84221Y25558D01*
X84287Y25544D01*
X84352Y25535D01*
X84419Y25529D01*
X84485Y25527D01*
X86390Y25527D01*
X86390Y30099D01*
X90297Y32385D02*
X90297Y25527D01*
X90297Y32385D02*
X93345Y32385D01*
X93345Y29337D02*
X90297Y29337D01*
X131922Y42037D02*
X133446Y42037D01*
X131922Y42037D02*
X131845Y42039D01*
X131768Y42045D01*
X131691Y42055D01*
X131615Y42068D01*
X131540Y42086D01*
X131466Y42107D01*
X131393Y42132D01*
X131321Y42161D01*
X131251Y42193D01*
X131182Y42228D01*
X131116Y42268D01*
X131051Y42310D01*
X130989Y42356D01*
X130929Y42405D01*
X130872Y42456D01*
X130817Y42511D01*
X130766Y42568D01*
X130717Y42628D01*
X130671Y42690D01*
X130629Y42755D01*
X130589Y42821D01*
X130554Y42890D01*
X130522Y42960D01*
X130493Y43032D01*
X130468Y43105D01*
X130447Y43179D01*
X130429Y43254D01*
X130416Y43330D01*
X130406Y43407D01*
X130400Y43484D01*
X130398Y43561D01*
X130398Y47371D01*
X130400Y47448D01*
X130406Y47525D01*
X130416Y47602D01*
X130429Y47678D01*
X130447Y47753D01*
X130468Y47827D01*
X130493Y47900D01*
X130522Y47972D01*
X130554Y48042D01*
X130589Y48111D01*
X130629Y48177D01*
X130671Y48242D01*
X130717Y48304D01*
X130766Y48364D01*
X130817Y48421D01*
X130872Y48476D01*
X130929Y48527D01*
X130989Y48576D01*
X131051Y48622D01*
X131116Y48664D01*
X131182Y48704D01*
X131251Y48739D01*
X131321Y48771D01*
X131393Y48800D01*
X131466Y48825D01*
X131540Y48846D01*
X131615Y48864D01*
X131691Y48877D01*
X131768Y48887D01*
X131845Y48893D01*
X131922Y48895D01*
X133446Y48895D01*
X136525Y42037D02*
X138430Y42037D01*
X138515Y42039D01*
X138601Y42045D01*
X138686Y42054D01*
X138770Y42068D01*
X138854Y42085D01*
X138937Y42106D01*
X139019Y42130D01*
X139099Y42158D01*
X139179Y42190D01*
X139257Y42226D01*
X139333Y42264D01*
X139407Y42307D01*
X139479Y42352D01*
X139550Y42401D01*
X139618Y42453D01*
X139683Y42507D01*
X139746Y42565D01*
X139807Y42626D01*
X139865Y42689D01*
X139919Y42754D01*
X139971Y42822D01*
X140020Y42893D01*
X140065Y42965D01*
X140108Y43039D01*
X140146Y43115D01*
X140182Y43193D01*
X140214Y43273D01*
X140242Y43353D01*
X140266Y43435D01*
X140287Y43518D01*
X140304Y43602D01*
X140318Y43686D01*
X140327Y43771D01*
X140333Y43857D01*
X140335Y43942D01*
X140333Y44027D01*
X140327Y44113D01*
X140318Y44198D01*
X140304Y44282D01*
X140287Y44366D01*
X140266Y44449D01*
X140242Y44531D01*
X140214Y44611D01*
X140182Y44691D01*
X140146Y44769D01*
X140108Y44845D01*
X140065Y44919D01*
X140020Y44991D01*
X139971Y45062D01*
X139919Y45130D01*
X139865Y45195D01*
X139807Y45258D01*
X139746Y45319D01*
X139683Y45377D01*
X139618Y45431D01*
X139550Y45483D01*
X139479Y45532D01*
X139407Y45577D01*
X139333Y45620D01*
X139257Y45658D01*
X139179Y45694D01*
X139099Y45726D01*
X139019Y45754D01*
X138937Y45778D01*
X138854Y45799D01*
X138770Y45816D01*
X138686Y45830D01*
X138601Y45839D01*
X138515Y45845D01*
X138430Y45847D01*
X138811Y48895D02*
X136525Y48895D01*
X138811Y48895D02*
X138888Y48893D01*
X138965Y48887D01*
X139042Y48877D01*
X139118Y48864D01*
X139193Y48846D01*
X139267Y48825D01*
X139340Y48800D01*
X139412Y48771D01*
X139482Y48739D01*
X139551Y48704D01*
X139617Y48664D01*
X139682Y48622D01*
X139744Y48576D01*
X139804Y48527D01*
X139861Y48476D01*
X139916Y48421D01*
X139967Y48364D01*
X140016Y48304D01*
X140062Y48242D01*
X140104Y48177D01*
X140144Y48111D01*
X140179Y48042D01*
X140211Y47972D01*
X140240Y47900D01*
X140265Y47827D01*
X140286Y47753D01*
X140304Y47678D01*
X140317Y47602D01*
X140327Y47525D01*
X140333Y47448D01*
X140335Y47371D01*
X140333Y47294D01*
X140327Y47217D01*
X140317Y47140D01*
X140304Y47064D01*
X140286Y46989D01*
X140265Y46915D01*
X140240Y46842D01*
X140211Y46770D01*
X140179Y46700D01*
X140144Y46631D01*
X140104Y46565D01*
X140062Y46500D01*
X140016Y46438D01*
X139967Y46378D01*
X139916Y46321D01*
X139861Y46266D01*
X139804Y46215D01*
X139744Y46166D01*
X139682Y46120D01*
X139617Y46078D01*
X139551Y46038D01*
X139482Y46003D01*
X139412Y45971D01*
X139340Y45942D01*
X139267Y45917D01*
X139193Y45896D01*
X139118Y45878D01*
X139042Y45865D01*
X138965Y45855D01*
X138888Y45849D01*
X138811Y45847D01*
X137287Y45847D01*
X70479Y48895D02*
X68574Y47371D01*
X70479Y48895D02*
X70479Y42037D01*
X68574Y42037D02*
X72384Y42037D01*
X75889Y45466D02*
X75891Y45608D01*
X75896Y45751D01*
X75905Y45893D01*
X75918Y46035D01*
X75934Y46176D01*
X75953Y46317D01*
X75977Y46458D01*
X76003Y46598D01*
X76034Y46737D01*
X76068Y46875D01*
X76105Y47013D01*
X76145Y47149D01*
X76190Y47285D01*
X76237Y47419D01*
X76288Y47552D01*
X76342Y47684D01*
X76400Y47814D01*
X76461Y47943D01*
X76460Y47942D02*
X76486Y48011D01*
X76515Y48077D01*
X76547Y48143D01*
X76582Y48206D01*
X76621Y48268D01*
X76663Y48328D01*
X76708Y48385D01*
X76756Y48440D01*
X76807Y48492D01*
X76860Y48542D01*
X76916Y48588D01*
X76974Y48632D01*
X77035Y48673D01*
X77097Y48711D01*
X77161Y48745D01*
X77227Y48776D01*
X77295Y48804D01*
X77364Y48828D01*
X77434Y48848D01*
X77505Y48865D01*
X77576Y48878D01*
X77648Y48887D01*
X77721Y48893D01*
X77794Y48895D01*
X77867Y48893D01*
X77940Y48887D01*
X78012Y48878D01*
X78083Y48865D01*
X78154Y48848D01*
X78224Y48828D01*
X78293Y48804D01*
X78361Y48776D01*
X78427Y48745D01*
X78491Y48711D01*
X78553Y48673D01*
X78614Y48632D01*
X78672Y48588D01*
X78728Y48542D01*
X78781Y48492D01*
X78832Y48440D01*
X78880Y48385D01*
X78925Y48328D01*
X78967Y48268D01*
X79006Y48206D01*
X79041Y48143D01*
X79073Y48077D01*
X79102Y48011D01*
X79128Y47942D01*
X79128Y47943D02*
X79189Y47814D01*
X79247Y47684D01*
X79301Y47552D01*
X79352Y47419D01*
X79399Y47285D01*
X79444Y47149D01*
X79484Y47013D01*
X79521Y46875D01*
X79555Y46737D01*
X79586Y46598D01*
X79612Y46458D01*
X79636Y46317D01*
X79655Y46176D01*
X79671Y46035D01*
X79684Y45893D01*
X79693Y45751D01*
X79698Y45608D01*
X79700Y45466D01*
X75889Y45466D02*
X75891Y45324D01*
X75896Y45181D01*
X75905Y45039D01*
X75918Y44897D01*
X75934Y44756D01*
X75953Y44615D01*
X75977Y44474D01*
X76003Y44334D01*
X76034Y44195D01*
X76068Y44057D01*
X76105Y43919D01*
X76145Y43783D01*
X76190Y43647D01*
X76237Y43513D01*
X76288Y43380D01*
X76342Y43248D01*
X76400Y43118D01*
X76461Y42989D01*
X76460Y42990D02*
X76486Y42921D01*
X76515Y42855D01*
X76547Y42789D01*
X76582Y42726D01*
X76621Y42664D01*
X76663Y42604D01*
X76708Y42547D01*
X76756Y42492D01*
X76807Y42440D01*
X76860Y42390D01*
X76916Y42344D01*
X76974Y42300D01*
X77035Y42259D01*
X77097Y42221D01*
X77161Y42187D01*
X77227Y42156D01*
X77295Y42128D01*
X77364Y42104D01*
X77434Y42084D01*
X77505Y42067D01*
X77576Y42054D01*
X77648Y42045D01*
X77721Y42039D01*
X77794Y42037D01*
X79128Y42989D02*
X79189Y43118D01*
X79247Y43248D01*
X79301Y43380D01*
X79352Y43513D01*
X79399Y43647D01*
X79444Y43783D01*
X79484Y43919D01*
X79521Y44057D01*
X79555Y44195D01*
X79586Y44334D01*
X79612Y44474D01*
X79636Y44615D01*
X79655Y44756D01*
X79671Y44897D01*
X79684Y45039D01*
X79693Y45181D01*
X79698Y45324D01*
X79700Y45466D01*
X79128Y42990D02*
X79102Y42921D01*
X79073Y42855D01*
X79041Y42789D01*
X79006Y42726D01*
X78967Y42664D01*
X78925Y42604D01*
X78880Y42547D01*
X78832Y42492D01*
X78781Y42440D01*
X78728Y42390D01*
X78672Y42344D01*
X78614Y42300D01*
X78553Y42259D01*
X78491Y42221D01*
X78427Y42187D01*
X78361Y42156D01*
X78293Y42128D01*
X78224Y42104D01*
X78154Y42084D01*
X78083Y42067D01*
X78012Y42054D01*
X77940Y42045D01*
X77867Y42039D01*
X77794Y42037D01*
X76270Y43561D02*
X79318Y47371D01*
X83342Y46609D02*
X83342Y43180D01*
X83344Y43114D01*
X83350Y43047D01*
X83359Y42982D01*
X83373Y42916D01*
X83390Y42852D01*
X83411Y42789D01*
X83435Y42727D01*
X83464Y42667D01*
X83495Y42609D01*
X83530Y42552D01*
X83568Y42497D01*
X83609Y42445D01*
X83654Y42396D01*
X83701Y42349D01*
X83750Y42304D01*
X83802Y42263D01*
X83857Y42225D01*
X83914Y42190D01*
X83972Y42159D01*
X84032Y42130D01*
X84094Y42106D01*
X84157Y42085D01*
X84221Y42068D01*
X84287Y42054D01*
X84352Y42045D01*
X84419Y42039D01*
X84485Y42037D01*
X86390Y42037D01*
X86390Y46609D01*
X90297Y48895D02*
X90297Y42037D01*
X90297Y48895D02*
X93345Y48895D01*
X93345Y45847D02*
X90297Y45847D01*
X158592Y102997D02*
X160116Y102997D01*
X158592Y102997D02*
X158515Y102999D01*
X158438Y103005D01*
X158361Y103015D01*
X158285Y103028D01*
X158210Y103046D01*
X158136Y103067D01*
X158063Y103092D01*
X157991Y103121D01*
X157921Y103153D01*
X157852Y103188D01*
X157786Y103228D01*
X157721Y103270D01*
X157659Y103316D01*
X157599Y103365D01*
X157542Y103416D01*
X157487Y103471D01*
X157436Y103528D01*
X157387Y103588D01*
X157341Y103650D01*
X157299Y103715D01*
X157259Y103781D01*
X157224Y103850D01*
X157192Y103920D01*
X157163Y103992D01*
X157138Y104065D01*
X157117Y104139D01*
X157099Y104214D01*
X157086Y104290D01*
X157076Y104367D01*
X157070Y104444D01*
X157068Y104521D01*
X157068Y108331D01*
X157070Y108408D01*
X157076Y108485D01*
X157086Y108562D01*
X157099Y108638D01*
X157117Y108713D01*
X157138Y108787D01*
X157163Y108860D01*
X157192Y108932D01*
X157224Y109002D01*
X157259Y109071D01*
X157299Y109137D01*
X157341Y109202D01*
X157387Y109264D01*
X157436Y109324D01*
X157487Y109381D01*
X157542Y109436D01*
X157599Y109487D01*
X157659Y109536D01*
X157721Y109582D01*
X157786Y109624D01*
X157852Y109664D01*
X157921Y109699D01*
X157991Y109731D01*
X158063Y109760D01*
X158136Y109785D01*
X158210Y109806D01*
X158285Y109824D01*
X158361Y109837D01*
X158438Y109847D01*
X158515Y109853D01*
X158592Y109855D01*
X160116Y109855D01*
X164719Y109855D02*
X163195Y104521D01*
X167005Y104521D01*
X165862Y106045D02*
X165862Y102997D01*
X151759Y83185D02*
X149854Y81661D01*
X151759Y83185D02*
X151759Y76327D01*
X149854Y76327D02*
X153664Y76327D01*
X157169Y79756D02*
X157171Y79898D01*
X157176Y80041D01*
X157185Y80183D01*
X157198Y80325D01*
X157214Y80466D01*
X157233Y80607D01*
X157257Y80748D01*
X157283Y80888D01*
X157314Y81027D01*
X157348Y81165D01*
X157385Y81303D01*
X157425Y81439D01*
X157470Y81575D01*
X157517Y81709D01*
X157568Y81842D01*
X157622Y81974D01*
X157680Y82104D01*
X157741Y82233D01*
X157740Y82232D02*
X157766Y82301D01*
X157795Y82367D01*
X157827Y82433D01*
X157862Y82496D01*
X157901Y82558D01*
X157943Y82618D01*
X157988Y82675D01*
X158036Y82730D01*
X158087Y82782D01*
X158140Y82832D01*
X158196Y82878D01*
X158254Y82922D01*
X158315Y82963D01*
X158377Y83001D01*
X158441Y83035D01*
X158507Y83066D01*
X158575Y83094D01*
X158644Y83118D01*
X158714Y83138D01*
X158785Y83155D01*
X158856Y83168D01*
X158928Y83177D01*
X159001Y83183D01*
X159074Y83185D01*
X159147Y83183D01*
X159220Y83177D01*
X159292Y83168D01*
X159363Y83155D01*
X159434Y83138D01*
X159504Y83118D01*
X159573Y83094D01*
X159641Y83066D01*
X159707Y83035D01*
X159771Y83001D01*
X159833Y82963D01*
X159894Y82922D01*
X159952Y82878D01*
X160008Y82832D01*
X160061Y82782D01*
X160112Y82730D01*
X160160Y82675D01*
X160205Y82618D01*
X160247Y82558D01*
X160286Y82496D01*
X160321Y82433D01*
X160353Y82367D01*
X160382Y82301D01*
X160408Y82232D01*
X160408Y82233D02*
X160469Y82104D01*
X160527Y81974D01*
X160581Y81842D01*
X160632Y81709D01*
X160679Y81575D01*
X160724Y81439D01*
X160764Y81303D01*
X160801Y81165D01*
X160835Y81027D01*
X160866Y80888D01*
X160892Y80748D01*
X160916Y80607D01*
X160935Y80466D01*
X160951Y80325D01*
X160964Y80183D01*
X160973Y80041D01*
X160978Y79898D01*
X160980Y79756D01*
X157169Y79756D02*
X157171Y79614D01*
X157176Y79471D01*
X157185Y79329D01*
X157198Y79187D01*
X157214Y79046D01*
X157233Y78905D01*
X157257Y78764D01*
X157283Y78624D01*
X157314Y78485D01*
X157348Y78347D01*
X157385Y78209D01*
X157425Y78073D01*
X157470Y77937D01*
X157517Y77803D01*
X157568Y77670D01*
X157622Y77538D01*
X157680Y77408D01*
X157741Y77279D01*
X157740Y77280D02*
X157766Y77211D01*
X157795Y77145D01*
X157827Y77079D01*
X157862Y77016D01*
X157901Y76954D01*
X157943Y76894D01*
X157988Y76837D01*
X158036Y76782D01*
X158087Y76730D01*
X158140Y76680D01*
X158196Y76634D01*
X158254Y76590D01*
X158315Y76549D01*
X158377Y76511D01*
X158441Y76477D01*
X158507Y76446D01*
X158575Y76418D01*
X158644Y76394D01*
X158714Y76374D01*
X158785Y76357D01*
X158856Y76344D01*
X158928Y76335D01*
X159001Y76329D01*
X159074Y76327D01*
X160408Y77279D02*
X160469Y77408D01*
X160527Y77538D01*
X160581Y77670D01*
X160632Y77803D01*
X160679Y77937D01*
X160724Y78073D01*
X160764Y78209D01*
X160801Y78347D01*
X160835Y78485D01*
X160866Y78624D01*
X160892Y78764D01*
X160916Y78905D01*
X160935Y79046D01*
X160951Y79187D01*
X160964Y79329D01*
X160973Y79471D01*
X160978Y79614D01*
X160980Y79756D01*
X160408Y77280D02*
X160382Y77211D01*
X160353Y77145D01*
X160321Y77079D01*
X160286Y77016D01*
X160247Y76954D01*
X160205Y76894D01*
X160160Y76837D01*
X160112Y76782D01*
X160061Y76730D01*
X160008Y76680D01*
X159952Y76634D01*
X159894Y76590D01*
X159833Y76549D01*
X159771Y76511D01*
X159707Y76477D01*
X159641Y76446D01*
X159573Y76418D01*
X159504Y76394D01*
X159434Y76374D01*
X159363Y76357D01*
X159292Y76344D01*
X159220Y76335D01*
X159147Y76329D01*
X159074Y76327D01*
X157550Y77851D02*
X160598Y81661D01*
X164622Y80899D02*
X164622Y77470D01*
X164624Y77404D01*
X164630Y77337D01*
X164639Y77272D01*
X164653Y77206D01*
X164670Y77142D01*
X164691Y77079D01*
X164715Y77017D01*
X164744Y76957D01*
X164775Y76899D01*
X164810Y76842D01*
X164848Y76787D01*
X164889Y76735D01*
X164934Y76686D01*
X164981Y76639D01*
X165030Y76594D01*
X165082Y76553D01*
X165137Y76515D01*
X165194Y76480D01*
X165252Y76449D01*
X165312Y76420D01*
X165374Y76396D01*
X165437Y76375D01*
X165501Y76358D01*
X165567Y76344D01*
X165632Y76335D01*
X165699Y76329D01*
X165765Y76327D01*
X167670Y76327D01*
X167670Y80899D01*
X171577Y83185D02*
X171577Y76327D01*
X171577Y83185D02*
X174625Y83185D01*
X174625Y80137D02*
X171577Y80137D01*
X133446Y87757D02*
X131922Y87757D01*
X131845Y87759D01*
X131768Y87765D01*
X131691Y87775D01*
X131615Y87788D01*
X131540Y87806D01*
X131466Y87827D01*
X131393Y87852D01*
X131321Y87881D01*
X131251Y87913D01*
X131182Y87948D01*
X131116Y87988D01*
X131051Y88030D01*
X130989Y88076D01*
X130929Y88125D01*
X130872Y88176D01*
X130817Y88231D01*
X130766Y88288D01*
X130717Y88348D01*
X130671Y88410D01*
X130629Y88475D01*
X130589Y88541D01*
X130554Y88610D01*
X130522Y88680D01*
X130493Y88752D01*
X130468Y88825D01*
X130447Y88899D01*
X130429Y88974D01*
X130416Y89050D01*
X130406Y89127D01*
X130400Y89204D01*
X130398Y89281D01*
X130398Y93091D01*
X130400Y93168D01*
X130406Y93245D01*
X130416Y93322D01*
X130429Y93398D01*
X130447Y93473D01*
X130468Y93547D01*
X130493Y93620D01*
X130522Y93692D01*
X130554Y93762D01*
X130589Y93831D01*
X130629Y93897D01*
X130671Y93962D01*
X130717Y94024D01*
X130766Y94084D01*
X130817Y94141D01*
X130872Y94196D01*
X130929Y94247D01*
X130989Y94296D01*
X131051Y94342D01*
X131116Y94384D01*
X131182Y94424D01*
X131251Y94459D01*
X131321Y94491D01*
X131393Y94520D01*
X131466Y94545D01*
X131540Y94566D01*
X131615Y94584D01*
X131691Y94597D01*
X131768Y94607D01*
X131845Y94613D01*
X131922Y94615D01*
X133446Y94615D01*
X136525Y87757D02*
X138811Y87757D01*
X138888Y87759D01*
X138965Y87765D01*
X139042Y87775D01*
X139118Y87788D01*
X139193Y87806D01*
X139267Y87827D01*
X139340Y87852D01*
X139412Y87881D01*
X139482Y87913D01*
X139551Y87948D01*
X139617Y87988D01*
X139682Y88030D01*
X139744Y88076D01*
X139804Y88125D01*
X139861Y88176D01*
X139916Y88231D01*
X139967Y88288D01*
X140016Y88348D01*
X140062Y88410D01*
X140104Y88475D01*
X140144Y88541D01*
X140179Y88610D01*
X140211Y88680D01*
X140240Y88752D01*
X140265Y88825D01*
X140286Y88899D01*
X140304Y88974D01*
X140317Y89050D01*
X140327Y89127D01*
X140333Y89204D01*
X140335Y89281D01*
X140335Y90043D01*
X140333Y90120D01*
X140327Y90197D01*
X140317Y90274D01*
X140304Y90350D01*
X140286Y90425D01*
X140265Y90499D01*
X140240Y90572D01*
X140211Y90644D01*
X140179Y90714D01*
X140144Y90783D01*
X140104Y90849D01*
X140062Y90914D01*
X140016Y90976D01*
X139967Y91036D01*
X139916Y91093D01*
X139861Y91148D01*
X139804Y91199D01*
X139744Y91248D01*
X139682Y91294D01*
X139617Y91336D01*
X139551Y91376D01*
X139482Y91411D01*
X139412Y91443D01*
X139340Y91472D01*
X139267Y91497D01*
X139193Y91518D01*
X139118Y91536D01*
X139042Y91549D01*
X138965Y91559D01*
X138888Y91565D01*
X138811Y91567D01*
X136525Y91567D01*
X136525Y94615D01*
X140335Y94615D01*
X70479Y94615D02*
X68574Y93091D01*
X70479Y94615D02*
X70479Y87757D01*
X68574Y87757D02*
X72384Y87757D01*
X75889Y91186D02*
X75891Y91328D01*
X75896Y91471D01*
X75905Y91613D01*
X75918Y91755D01*
X75934Y91896D01*
X75953Y92037D01*
X75977Y92178D01*
X76003Y92318D01*
X76034Y92457D01*
X76068Y92595D01*
X76105Y92733D01*
X76145Y92869D01*
X76190Y93005D01*
X76237Y93139D01*
X76288Y93272D01*
X76342Y93404D01*
X76400Y93534D01*
X76461Y93663D01*
X76460Y93662D02*
X76486Y93731D01*
X76515Y93797D01*
X76547Y93863D01*
X76582Y93926D01*
X76621Y93988D01*
X76663Y94048D01*
X76708Y94105D01*
X76756Y94160D01*
X76807Y94212D01*
X76860Y94262D01*
X76916Y94308D01*
X76974Y94352D01*
X77035Y94393D01*
X77097Y94431D01*
X77161Y94465D01*
X77227Y94496D01*
X77295Y94524D01*
X77364Y94548D01*
X77434Y94568D01*
X77505Y94585D01*
X77576Y94598D01*
X77648Y94607D01*
X77721Y94613D01*
X77794Y94615D01*
X77867Y94613D01*
X77940Y94607D01*
X78012Y94598D01*
X78083Y94585D01*
X78154Y94568D01*
X78224Y94548D01*
X78293Y94524D01*
X78361Y94496D01*
X78427Y94465D01*
X78491Y94431D01*
X78553Y94393D01*
X78614Y94352D01*
X78672Y94308D01*
X78728Y94262D01*
X78781Y94212D01*
X78832Y94160D01*
X78880Y94105D01*
X78925Y94048D01*
X78967Y93988D01*
X79006Y93926D01*
X79041Y93863D01*
X79073Y93797D01*
X79102Y93731D01*
X79128Y93662D01*
X79128Y93663D02*
X79189Y93534D01*
X79247Y93404D01*
X79301Y93272D01*
X79352Y93139D01*
X79399Y93005D01*
X79444Y92869D01*
X79484Y92733D01*
X79521Y92595D01*
X79555Y92457D01*
X79586Y92318D01*
X79612Y92178D01*
X79636Y92037D01*
X79655Y91896D01*
X79671Y91755D01*
X79684Y91613D01*
X79693Y91471D01*
X79698Y91328D01*
X79700Y91186D01*
X75889Y91186D02*
X75891Y91044D01*
X75896Y90901D01*
X75905Y90759D01*
X75918Y90617D01*
X75934Y90476D01*
X75953Y90335D01*
X75977Y90194D01*
X76003Y90054D01*
X76034Y89915D01*
X76068Y89777D01*
X76105Y89639D01*
X76145Y89503D01*
X76190Y89367D01*
X76237Y89233D01*
X76288Y89100D01*
X76342Y88968D01*
X76400Y88838D01*
X76461Y88709D01*
X76460Y88710D02*
X76486Y88641D01*
X76515Y88575D01*
X76547Y88509D01*
X76582Y88446D01*
X76621Y88384D01*
X76663Y88324D01*
X76708Y88267D01*
X76756Y88212D01*
X76807Y88160D01*
X76860Y88110D01*
X76916Y88064D01*
X76974Y88020D01*
X77035Y87979D01*
X77097Y87941D01*
X77161Y87907D01*
X77227Y87876D01*
X77295Y87848D01*
X77364Y87824D01*
X77434Y87804D01*
X77505Y87787D01*
X77576Y87774D01*
X77648Y87765D01*
X77721Y87759D01*
X77794Y87757D01*
X79128Y88709D02*
X79189Y88838D01*
X79247Y88968D01*
X79301Y89100D01*
X79352Y89233D01*
X79399Y89367D01*
X79444Y89503D01*
X79484Y89639D01*
X79521Y89777D01*
X79555Y89915D01*
X79586Y90054D01*
X79612Y90194D01*
X79636Y90335D01*
X79655Y90476D01*
X79671Y90617D01*
X79684Y90759D01*
X79693Y90901D01*
X79698Y91044D01*
X79700Y91186D01*
X79128Y88710D02*
X79102Y88641D01*
X79073Y88575D01*
X79041Y88509D01*
X79006Y88446D01*
X78967Y88384D01*
X78925Y88324D01*
X78880Y88267D01*
X78832Y88212D01*
X78781Y88160D01*
X78728Y88110D01*
X78672Y88064D01*
X78614Y88020D01*
X78553Y87979D01*
X78491Y87941D01*
X78427Y87907D01*
X78361Y87876D01*
X78293Y87848D01*
X78224Y87824D01*
X78154Y87804D01*
X78083Y87787D01*
X78012Y87774D01*
X77940Y87765D01*
X77867Y87759D01*
X77794Y87757D01*
X76270Y89281D02*
X79318Y93091D01*
X83342Y92329D02*
X83342Y88900D01*
X83344Y88834D01*
X83350Y88767D01*
X83359Y88702D01*
X83373Y88636D01*
X83390Y88572D01*
X83411Y88509D01*
X83435Y88447D01*
X83464Y88387D01*
X83495Y88329D01*
X83530Y88272D01*
X83568Y88217D01*
X83609Y88165D01*
X83654Y88116D01*
X83701Y88069D01*
X83750Y88024D01*
X83802Y87983D01*
X83857Y87945D01*
X83914Y87910D01*
X83972Y87879D01*
X84032Y87850D01*
X84094Y87826D01*
X84157Y87805D01*
X84221Y87788D01*
X84287Y87774D01*
X84352Y87765D01*
X84419Y87759D01*
X84485Y87757D01*
X86390Y87757D01*
X86390Y92329D01*
X90297Y94615D02*
X90297Y87757D01*
X90297Y94615D02*
X93345Y94615D01*
X93345Y91567D02*
X90297Y91567D01*
X182722Y52197D02*
X184246Y52197D01*
X182722Y52197D02*
X182645Y52199D01*
X182568Y52205D01*
X182491Y52215D01*
X182415Y52228D01*
X182340Y52246D01*
X182266Y52267D01*
X182193Y52292D01*
X182121Y52321D01*
X182051Y52353D01*
X181982Y52388D01*
X181916Y52428D01*
X181851Y52470D01*
X181789Y52516D01*
X181729Y52565D01*
X181672Y52616D01*
X181617Y52671D01*
X181566Y52728D01*
X181517Y52788D01*
X181471Y52850D01*
X181429Y52915D01*
X181389Y52981D01*
X181354Y53050D01*
X181322Y53120D01*
X181293Y53192D01*
X181268Y53265D01*
X181247Y53339D01*
X181229Y53414D01*
X181216Y53490D01*
X181206Y53567D01*
X181200Y53644D01*
X181198Y53721D01*
X181198Y57531D01*
X181200Y57608D01*
X181206Y57685D01*
X181216Y57762D01*
X181229Y57838D01*
X181247Y57913D01*
X181268Y57987D01*
X181293Y58060D01*
X181322Y58132D01*
X181354Y58202D01*
X181389Y58271D01*
X181429Y58337D01*
X181471Y58402D01*
X181517Y58464D01*
X181566Y58524D01*
X181617Y58581D01*
X181672Y58636D01*
X181729Y58687D01*
X181789Y58736D01*
X181851Y58782D01*
X181916Y58824D01*
X181982Y58864D01*
X182051Y58899D01*
X182121Y58931D01*
X182193Y58960D01*
X182266Y58985D01*
X182340Y59006D01*
X182415Y59024D01*
X182491Y59037D01*
X182568Y59047D01*
X182645Y59053D01*
X182722Y59055D01*
X184246Y59055D01*
X187325Y56007D02*
X189611Y56007D01*
X189688Y56005D01*
X189765Y55999D01*
X189842Y55989D01*
X189918Y55976D01*
X189993Y55958D01*
X190067Y55937D01*
X190140Y55912D01*
X190212Y55883D01*
X190282Y55851D01*
X190351Y55816D01*
X190417Y55776D01*
X190482Y55734D01*
X190544Y55688D01*
X190604Y55639D01*
X190661Y55588D01*
X190716Y55533D01*
X190767Y55476D01*
X190816Y55416D01*
X190862Y55354D01*
X190904Y55289D01*
X190944Y55223D01*
X190979Y55154D01*
X191011Y55084D01*
X191040Y55012D01*
X191065Y54939D01*
X191086Y54865D01*
X191104Y54790D01*
X191117Y54714D01*
X191127Y54637D01*
X191133Y54560D01*
X191135Y54483D01*
X191135Y54102D01*
X191133Y54017D01*
X191127Y53931D01*
X191118Y53846D01*
X191104Y53762D01*
X191087Y53678D01*
X191066Y53595D01*
X191042Y53513D01*
X191014Y53433D01*
X190982Y53353D01*
X190946Y53275D01*
X190908Y53199D01*
X190865Y53125D01*
X190820Y53053D01*
X190771Y52982D01*
X190719Y52914D01*
X190665Y52849D01*
X190607Y52786D01*
X190546Y52725D01*
X190483Y52667D01*
X190418Y52613D01*
X190350Y52561D01*
X190279Y52512D01*
X190207Y52467D01*
X190133Y52424D01*
X190057Y52386D01*
X189979Y52350D01*
X189899Y52318D01*
X189819Y52290D01*
X189737Y52266D01*
X189654Y52245D01*
X189570Y52228D01*
X189486Y52214D01*
X189401Y52205D01*
X189315Y52199D01*
X189230Y52197D01*
X189145Y52199D01*
X189059Y52205D01*
X188974Y52214D01*
X188890Y52228D01*
X188806Y52245D01*
X188723Y52266D01*
X188641Y52290D01*
X188561Y52318D01*
X188481Y52350D01*
X188403Y52386D01*
X188327Y52424D01*
X188253Y52467D01*
X188181Y52512D01*
X188110Y52561D01*
X188042Y52613D01*
X187977Y52667D01*
X187914Y52725D01*
X187853Y52786D01*
X187795Y52849D01*
X187741Y52914D01*
X187689Y52982D01*
X187640Y53053D01*
X187595Y53125D01*
X187552Y53199D01*
X187514Y53275D01*
X187478Y53353D01*
X187446Y53433D01*
X187418Y53513D01*
X187394Y53595D01*
X187373Y53678D01*
X187356Y53762D01*
X187342Y53846D01*
X187333Y53931D01*
X187327Y54017D01*
X187325Y54102D01*
X187325Y56007D01*
X187327Y56116D01*
X187333Y56224D01*
X187342Y56333D01*
X187356Y56441D01*
X187373Y56548D01*
X187395Y56655D01*
X187420Y56761D01*
X187448Y56866D01*
X187481Y56970D01*
X187517Y57072D01*
X187557Y57173D01*
X187600Y57273D01*
X187647Y57371D01*
X187698Y57468D01*
X187752Y57562D01*
X187809Y57655D01*
X187869Y57745D01*
X187933Y57834D01*
X188000Y57920D01*
X188069Y58003D01*
X188142Y58084D01*
X188218Y58162D01*
X188296Y58238D01*
X188377Y58311D01*
X188460Y58380D01*
X188546Y58447D01*
X188635Y58511D01*
X188725Y58571D01*
X188818Y58628D01*
X188912Y58682D01*
X189009Y58733D01*
X189107Y58780D01*
X189207Y58823D01*
X189308Y58863D01*
X189410Y58899D01*
X189514Y58932D01*
X189619Y58960D01*
X189725Y58985D01*
X189832Y59007D01*
X189939Y59024D01*
X190047Y59038D01*
X190156Y59047D01*
X190264Y59053D01*
X190373Y59055D01*
X128899Y57785D02*
X126994Y56261D01*
X128899Y57785D02*
X128899Y50927D01*
X126994Y50927D02*
X130804Y50927D01*
X134309Y54356D02*
X134311Y54498D01*
X134316Y54641D01*
X134325Y54783D01*
X134338Y54925D01*
X134354Y55066D01*
X134373Y55207D01*
X134397Y55348D01*
X134423Y55488D01*
X134454Y55627D01*
X134488Y55765D01*
X134525Y55903D01*
X134565Y56039D01*
X134610Y56175D01*
X134657Y56309D01*
X134708Y56442D01*
X134762Y56574D01*
X134820Y56704D01*
X134881Y56833D01*
X134880Y56832D02*
X134906Y56901D01*
X134935Y56967D01*
X134967Y57033D01*
X135002Y57096D01*
X135041Y57158D01*
X135083Y57218D01*
X135128Y57275D01*
X135176Y57330D01*
X135227Y57382D01*
X135280Y57432D01*
X135336Y57478D01*
X135394Y57522D01*
X135455Y57563D01*
X135517Y57601D01*
X135581Y57635D01*
X135647Y57666D01*
X135715Y57694D01*
X135784Y57718D01*
X135854Y57738D01*
X135925Y57755D01*
X135996Y57768D01*
X136068Y57777D01*
X136141Y57783D01*
X136214Y57785D01*
X136287Y57783D01*
X136360Y57777D01*
X136432Y57768D01*
X136503Y57755D01*
X136574Y57738D01*
X136644Y57718D01*
X136713Y57694D01*
X136781Y57666D01*
X136847Y57635D01*
X136911Y57601D01*
X136973Y57563D01*
X137034Y57522D01*
X137092Y57478D01*
X137148Y57432D01*
X137201Y57382D01*
X137252Y57330D01*
X137300Y57275D01*
X137345Y57218D01*
X137387Y57158D01*
X137426Y57096D01*
X137461Y57033D01*
X137493Y56967D01*
X137522Y56901D01*
X137548Y56832D01*
X137548Y56833D02*
X137609Y56704D01*
X137667Y56574D01*
X137721Y56442D01*
X137772Y56309D01*
X137819Y56175D01*
X137864Y56039D01*
X137904Y55903D01*
X137941Y55765D01*
X137975Y55627D01*
X138006Y55488D01*
X138032Y55348D01*
X138056Y55207D01*
X138075Y55066D01*
X138091Y54925D01*
X138104Y54783D01*
X138113Y54641D01*
X138118Y54498D01*
X138120Y54356D01*
X134309Y54356D02*
X134311Y54214D01*
X134316Y54071D01*
X134325Y53929D01*
X134338Y53787D01*
X134354Y53646D01*
X134373Y53505D01*
X134397Y53364D01*
X134423Y53224D01*
X134454Y53085D01*
X134488Y52947D01*
X134525Y52809D01*
X134565Y52673D01*
X134610Y52537D01*
X134657Y52403D01*
X134708Y52270D01*
X134762Y52138D01*
X134820Y52008D01*
X134881Y51879D01*
X134880Y51880D02*
X134906Y51811D01*
X134935Y51745D01*
X134967Y51679D01*
X135002Y51616D01*
X135041Y51554D01*
X135083Y51494D01*
X135128Y51437D01*
X135176Y51382D01*
X135227Y51330D01*
X135280Y51280D01*
X135336Y51234D01*
X135394Y51190D01*
X135455Y51149D01*
X135517Y51111D01*
X135581Y51077D01*
X135647Y51046D01*
X135715Y51018D01*
X135784Y50994D01*
X135854Y50974D01*
X135925Y50957D01*
X135996Y50944D01*
X136068Y50935D01*
X136141Y50929D01*
X136214Y50927D01*
X137548Y51879D02*
X137609Y52008D01*
X137667Y52138D01*
X137721Y52270D01*
X137772Y52403D01*
X137819Y52537D01*
X137864Y52673D01*
X137904Y52809D01*
X137941Y52947D01*
X137975Y53085D01*
X138006Y53224D01*
X138032Y53364D01*
X138056Y53505D01*
X138075Y53646D01*
X138091Y53787D01*
X138104Y53929D01*
X138113Y54071D01*
X138118Y54214D01*
X138120Y54356D01*
X137548Y51880D02*
X137522Y51811D01*
X137493Y51745D01*
X137461Y51679D01*
X137426Y51616D01*
X137387Y51554D01*
X137345Y51494D01*
X137300Y51437D01*
X137252Y51382D01*
X137201Y51330D01*
X137148Y51280D01*
X137092Y51234D01*
X137034Y51190D01*
X136973Y51149D01*
X136911Y51111D01*
X136847Y51077D01*
X136781Y51046D01*
X136713Y51018D01*
X136644Y50994D01*
X136574Y50974D01*
X136503Y50957D01*
X136432Y50944D01*
X136360Y50935D01*
X136287Y50929D01*
X136214Y50927D01*
X134690Y52451D02*
X137738Y56261D01*
X141762Y55499D02*
X141762Y52070D01*
X141764Y52004D01*
X141770Y51937D01*
X141779Y51872D01*
X141793Y51806D01*
X141810Y51742D01*
X141831Y51679D01*
X141855Y51617D01*
X141884Y51557D01*
X141915Y51499D01*
X141950Y51442D01*
X141988Y51387D01*
X142029Y51335D01*
X142074Y51286D01*
X142121Y51239D01*
X142170Y51194D01*
X142222Y51153D01*
X142277Y51115D01*
X142334Y51080D01*
X142392Y51049D01*
X142452Y51020D01*
X142514Y50996D01*
X142577Y50975D01*
X142641Y50958D01*
X142707Y50944D01*
X142772Y50935D01*
X142839Y50929D01*
X142905Y50927D01*
X144810Y50927D01*
X144810Y55499D01*
X148717Y57785D02*
X148717Y50927D01*
X148717Y57785D02*
X151765Y57785D01*
X151765Y54737D02*
X148717Y54737D01*
X133446Y102997D02*
X131922Y102997D01*
X131845Y102999D01*
X131768Y103005D01*
X131691Y103015D01*
X131615Y103028D01*
X131540Y103046D01*
X131466Y103067D01*
X131393Y103092D01*
X131321Y103121D01*
X131251Y103153D01*
X131182Y103188D01*
X131116Y103228D01*
X131051Y103270D01*
X130989Y103316D01*
X130929Y103365D01*
X130872Y103416D01*
X130817Y103471D01*
X130766Y103528D01*
X130717Y103588D01*
X130671Y103650D01*
X130629Y103715D01*
X130589Y103781D01*
X130554Y103850D01*
X130522Y103920D01*
X130493Y103992D01*
X130468Y104065D01*
X130447Y104139D01*
X130429Y104214D01*
X130416Y104290D01*
X130406Y104367D01*
X130400Y104444D01*
X130398Y104521D01*
X130398Y108331D01*
X130400Y108408D01*
X130406Y108485D01*
X130416Y108562D01*
X130429Y108638D01*
X130447Y108713D01*
X130468Y108787D01*
X130493Y108860D01*
X130522Y108932D01*
X130554Y109002D01*
X130589Y109071D01*
X130629Y109137D01*
X130671Y109202D01*
X130717Y109264D01*
X130766Y109324D01*
X130817Y109381D01*
X130872Y109436D01*
X130929Y109487D01*
X130989Y109536D01*
X131051Y109582D01*
X131116Y109624D01*
X131182Y109664D01*
X131251Y109699D01*
X131321Y109731D01*
X131393Y109760D01*
X131466Y109785D01*
X131540Y109806D01*
X131615Y109824D01*
X131691Y109837D01*
X131768Y109847D01*
X131845Y109853D01*
X131922Y109855D01*
X133446Y109855D01*
X136525Y109855D02*
X136525Y109093D01*
X136525Y109855D02*
X140335Y109855D01*
X138430Y102997D01*
X66219Y108903D02*
X66158Y108774D01*
X66100Y108644D01*
X66046Y108512D01*
X65995Y108379D01*
X65948Y108245D01*
X65903Y108109D01*
X65863Y107973D01*
X65826Y107835D01*
X65792Y107697D01*
X65761Y107558D01*
X65735Y107418D01*
X65711Y107277D01*
X65692Y107136D01*
X65676Y106995D01*
X65663Y106853D01*
X65654Y106711D01*
X65649Y106568D01*
X65647Y106426D01*
X66219Y108902D02*
X66245Y108971D01*
X66274Y109037D01*
X66306Y109103D01*
X66341Y109166D01*
X66380Y109228D01*
X66422Y109288D01*
X66467Y109345D01*
X66515Y109400D01*
X66566Y109452D01*
X66619Y109502D01*
X66675Y109548D01*
X66733Y109592D01*
X66794Y109633D01*
X66856Y109671D01*
X66920Y109705D01*
X66986Y109736D01*
X67054Y109764D01*
X67123Y109788D01*
X67193Y109808D01*
X67264Y109825D01*
X67335Y109838D01*
X67407Y109847D01*
X67480Y109853D01*
X67553Y109855D01*
X67626Y109853D01*
X67699Y109847D01*
X67771Y109838D01*
X67842Y109825D01*
X67913Y109808D01*
X67983Y109788D01*
X68052Y109764D01*
X68120Y109736D01*
X68186Y109705D01*
X68250Y109671D01*
X68312Y109633D01*
X68373Y109592D01*
X68431Y109548D01*
X68487Y109502D01*
X68540Y109452D01*
X68591Y109400D01*
X68639Y109345D01*
X68684Y109288D01*
X68726Y109228D01*
X68765Y109166D01*
X68800Y109103D01*
X68832Y109037D01*
X68861Y108971D01*
X68887Y108902D01*
X68886Y108903D02*
X68947Y108774D01*
X69005Y108644D01*
X69059Y108512D01*
X69110Y108379D01*
X69157Y108245D01*
X69202Y108109D01*
X69242Y107973D01*
X69279Y107835D01*
X69313Y107697D01*
X69344Y107558D01*
X69370Y107418D01*
X69394Y107277D01*
X69413Y107136D01*
X69429Y106995D01*
X69442Y106853D01*
X69451Y106711D01*
X69456Y106568D01*
X69458Y106426D01*
X65647Y106426D02*
X65649Y106284D01*
X65654Y106141D01*
X65663Y105999D01*
X65676Y105857D01*
X65692Y105716D01*
X65711Y105575D01*
X65735Y105434D01*
X65761Y105294D01*
X65792Y105155D01*
X65826Y105017D01*
X65863Y104879D01*
X65903Y104743D01*
X65948Y104607D01*
X65995Y104473D01*
X66046Y104340D01*
X66100Y104208D01*
X66158Y104078D01*
X66219Y103949D01*
X66219Y103950D02*
X66245Y103881D01*
X66274Y103815D01*
X66306Y103749D01*
X66341Y103686D01*
X66380Y103624D01*
X66422Y103564D01*
X66467Y103507D01*
X66515Y103452D01*
X66566Y103400D01*
X66619Y103350D01*
X66675Y103304D01*
X66733Y103260D01*
X66794Y103219D01*
X66856Y103181D01*
X66920Y103147D01*
X66986Y103116D01*
X67054Y103088D01*
X67123Y103064D01*
X67193Y103044D01*
X67264Y103027D01*
X67335Y103014D01*
X67407Y103005D01*
X67480Y102999D01*
X67553Y102997D01*
X68886Y103949D02*
X68947Y104078D01*
X69005Y104208D01*
X69059Y104340D01*
X69110Y104473D01*
X69157Y104607D01*
X69202Y104743D01*
X69242Y104879D01*
X69279Y105017D01*
X69313Y105155D01*
X69344Y105294D01*
X69370Y105434D01*
X69394Y105575D01*
X69413Y105716D01*
X69429Y105857D01*
X69442Y105999D01*
X69451Y106141D01*
X69456Y106284D01*
X69458Y106426D01*
X68887Y103950D02*
X68861Y103881D01*
X68832Y103815D01*
X68800Y103749D01*
X68765Y103686D01*
X68726Y103624D01*
X68684Y103564D01*
X68639Y103507D01*
X68591Y103452D01*
X68540Y103400D01*
X68487Y103350D01*
X68431Y103304D01*
X68373Y103260D01*
X68312Y103219D01*
X68250Y103181D01*
X68186Y103147D01*
X68120Y103116D01*
X68052Y103088D01*
X67983Y103064D01*
X67913Y103044D01*
X67842Y103027D01*
X67771Y103014D01*
X67699Y103005D01*
X67626Y102999D01*
X67553Y102997D01*
X66029Y104521D02*
X69077Y108331D01*
X72483Y103378D02*
X72483Y102997D01*
X72483Y103378D02*
X72864Y103378D01*
X72864Y102997D01*
X72483Y102997D01*
X75889Y108331D02*
X77794Y109855D01*
X77794Y102997D01*
X75889Y102997D02*
X79699Y102997D01*
X83342Y104140D02*
X83342Y107569D01*
X83342Y104140D02*
X83344Y104074D01*
X83350Y104007D01*
X83359Y103942D01*
X83373Y103876D01*
X83390Y103812D01*
X83411Y103749D01*
X83435Y103687D01*
X83464Y103627D01*
X83495Y103569D01*
X83530Y103512D01*
X83568Y103457D01*
X83609Y103405D01*
X83654Y103356D01*
X83701Y103309D01*
X83750Y103264D01*
X83802Y103223D01*
X83857Y103185D01*
X83914Y103150D01*
X83972Y103119D01*
X84032Y103090D01*
X84094Y103066D01*
X84157Y103045D01*
X84221Y103028D01*
X84287Y103014D01*
X84352Y103005D01*
X84419Y102999D01*
X84485Y102997D01*
X86390Y102997D01*
X86390Y107569D01*
X90297Y109855D02*
X90297Y102997D01*
X90297Y109855D02*
X93345Y109855D01*
X93345Y106807D02*
X90297Y106807D01*
X131922Y59817D02*
X133446Y59817D01*
X131922Y59817D02*
X131845Y59819D01*
X131768Y59825D01*
X131691Y59835D01*
X131615Y59848D01*
X131540Y59866D01*
X131466Y59887D01*
X131393Y59912D01*
X131321Y59941D01*
X131251Y59973D01*
X131182Y60008D01*
X131116Y60048D01*
X131051Y60090D01*
X130989Y60136D01*
X130929Y60185D01*
X130872Y60236D01*
X130817Y60291D01*
X130766Y60348D01*
X130717Y60408D01*
X130671Y60470D01*
X130629Y60535D01*
X130589Y60601D01*
X130554Y60670D01*
X130522Y60740D01*
X130493Y60812D01*
X130468Y60885D01*
X130447Y60959D01*
X130429Y61034D01*
X130416Y61110D01*
X130406Y61187D01*
X130400Y61264D01*
X130398Y61341D01*
X130398Y65151D01*
X130400Y65228D01*
X130406Y65305D01*
X130416Y65382D01*
X130429Y65458D01*
X130447Y65533D01*
X130468Y65607D01*
X130493Y65680D01*
X130522Y65752D01*
X130554Y65822D01*
X130589Y65891D01*
X130629Y65957D01*
X130671Y66022D01*
X130717Y66084D01*
X130766Y66144D01*
X130817Y66201D01*
X130872Y66256D01*
X130929Y66307D01*
X130989Y66356D01*
X131051Y66402D01*
X131116Y66444D01*
X131182Y66484D01*
X131251Y66519D01*
X131321Y66551D01*
X131393Y66580D01*
X131466Y66605D01*
X131540Y66626D01*
X131615Y66644D01*
X131691Y66657D01*
X131768Y66667D01*
X131845Y66673D01*
X131922Y66675D01*
X133446Y66675D01*
X136525Y61722D02*
X136527Y61807D01*
X136533Y61893D01*
X136542Y61978D01*
X136556Y62062D01*
X136573Y62146D01*
X136594Y62229D01*
X136618Y62311D01*
X136646Y62391D01*
X136678Y62471D01*
X136714Y62549D01*
X136752Y62625D01*
X136795Y62699D01*
X136840Y62771D01*
X136889Y62842D01*
X136941Y62910D01*
X136995Y62975D01*
X137053Y63038D01*
X137114Y63099D01*
X137177Y63157D01*
X137242Y63211D01*
X137310Y63263D01*
X137381Y63312D01*
X137453Y63357D01*
X137527Y63400D01*
X137603Y63438D01*
X137681Y63474D01*
X137761Y63506D01*
X137841Y63534D01*
X137923Y63558D01*
X138006Y63579D01*
X138090Y63596D01*
X138174Y63610D01*
X138259Y63619D01*
X138345Y63625D01*
X138430Y63627D01*
X138515Y63625D01*
X138601Y63619D01*
X138686Y63610D01*
X138770Y63596D01*
X138854Y63579D01*
X138937Y63558D01*
X139019Y63534D01*
X139099Y63506D01*
X139179Y63474D01*
X139257Y63438D01*
X139333Y63400D01*
X139407Y63357D01*
X139479Y63312D01*
X139550Y63263D01*
X139618Y63211D01*
X139683Y63157D01*
X139746Y63099D01*
X139807Y63038D01*
X139865Y62975D01*
X139919Y62910D01*
X139971Y62842D01*
X140020Y62771D01*
X140065Y62699D01*
X140108Y62625D01*
X140146Y62549D01*
X140182Y62471D01*
X140214Y62391D01*
X140242Y62311D01*
X140266Y62229D01*
X140287Y62146D01*
X140304Y62062D01*
X140318Y61978D01*
X140327Y61893D01*
X140333Y61807D01*
X140335Y61722D01*
X140333Y61637D01*
X140327Y61551D01*
X140318Y61466D01*
X140304Y61382D01*
X140287Y61298D01*
X140266Y61215D01*
X140242Y61133D01*
X140214Y61053D01*
X140182Y60973D01*
X140146Y60895D01*
X140108Y60819D01*
X140065Y60745D01*
X140020Y60673D01*
X139971Y60602D01*
X139919Y60534D01*
X139865Y60469D01*
X139807Y60406D01*
X139746Y60345D01*
X139683Y60287D01*
X139618Y60233D01*
X139550Y60181D01*
X139479Y60132D01*
X139407Y60087D01*
X139333Y60044D01*
X139257Y60006D01*
X139179Y59970D01*
X139099Y59938D01*
X139019Y59910D01*
X138937Y59886D01*
X138854Y59865D01*
X138770Y59848D01*
X138686Y59834D01*
X138601Y59825D01*
X138515Y59819D01*
X138430Y59817D01*
X138345Y59819D01*
X138259Y59825D01*
X138174Y59834D01*
X138090Y59848D01*
X138006Y59865D01*
X137923Y59886D01*
X137841Y59910D01*
X137761Y59938D01*
X137681Y59970D01*
X137603Y60006D01*
X137527Y60044D01*
X137453Y60087D01*
X137381Y60132D01*
X137310Y60181D01*
X137242Y60233D01*
X137177Y60287D01*
X137114Y60345D01*
X137053Y60406D01*
X136995Y60469D01*
X136941Y60534D01*
X136889Y60602D01*
X136840Y60673D01*
X136795Y60745D01*
X136752Y60819D01*
X136714Y60895D01*
X136678Y60973D01*
X136646Y61053D01*
X136618Y61133D01*
X136594Y61215D01*
X136573Y61298D01*
X136556Y61382D01*
X136542Y61466D01*
X136533Y61551D01*
X136527Y61637D01*
X136525Y61722D01*
X136906Y65151D02*
X136908Y65228D01*
X136914Y65305D01*
X136924Y65382D01*
X136937Y65458D01*
X136955Y65533D01*
X136976Y65607D01*
X137001Y65680D01*
X137030Y65752D01*
X137062Y65822D01*
X137097Y65891D01*
X137137Y65957D01*
X137179Y66022D01*
X137225Y66084D01*
X137274Y66144D01*
X137325Y66201D01*
X137380Y66256D01*
X137437Y66307D01*
X137497Y66356D01*
X137559Y66402D01*
X137624Y66444D01*
X137690Y66484D01*
X137759Y66519D01*
X137829Y66551D01*
X137901Y66580D01*
X137974Y66605D01*
X138048Y66626D01*
X138123Y66644D01*
X138199Y66657D01*
X138276Y66667D01*
X138353Y66673D01*
X138430Y66675D01*
X138507Y66673D01*
X138584Y66667D01*
X138661Y66657D01*
X138737Y66644D01*
X138812Y66626D01*
X138886Y66605D01*
X138959Y66580D01*
X139031Y66551D01*
X139101Y66519D01*
X139170Y66484D01*
X139236Y66444D01*
X139301Y66402D01*
X139363Y66356D01*
X139423Y66307D01*
X139480Y66256D01*
X139535Y66201D01*
X139586Y66144D01*
X139635Y66084D01*
X139681Y66022D01*
X139723Y65957D01*
X139763Y65891D01*
X139798Y65822D01*
X139830Y65752D01*
X139859Y65680D01*
X139884Y65607D01*
X139905Y65533D01*
X139923Y65458D01*
X139936Y65382D01*
X139946Y65305D01*
X139952Y65228D01*
X139954Y65151D01*
X139952Y65074D01*
X139946Y64997D01*
X139936Y64920D01*
X139923Y64844D01*
X139905Y64769D01*
X139884Y64695D01*
X139859Y64622D01*
X139830Y64550D01*
X139798Y64480D01*
X139763Y64411D01*
X139723Y64345D01*
X139681Y64280D01*
X139635Y64218D01*
X139586Y64158D01*
X139535Y64101D01*
X139480Y64046D01*
X139423Y63995D01*
X139363Y63946D01*
X139301Y63900D01*
X139236Y63858D01*
X139170Y63818D01*
X139101Y63783D01*
X139031Y63751D01*
X138959Y63722D01*
X138886Y63697D01*
X138812Y63676D01*
X138737Y63658D01*
X138661Y63645D01*
X138584Y63635D01*
X138507Y63629D01*
X138430Y63627D01*
X138353Y63629D01*
X138276Y63635D01*
X138199Y63645D01*
X138123Y63658D01*
X138048Y63676D01*
X137974Y63697D01*
X137901Y63722D01*
X137829Y63751D01*
X137759Y63783D01*
X137690Y63818D01*
X137624Y63858D01*
X137559Y63900D01*
X137497Y63946D01*
X137437Y63995D01*
X137380Y64046D01*
X137325Y64101D01*
X137274Y64158D01*
X137225Y64218D01*
X137179Y64280D01*
X137137Y64345D01*
X137097Y64411D01*
X137062Y64480D01*
X137030Y64550D01*
X137001Y64622D01*
X136976Y64695D01*
X136955Y64769D01*
X136937Y64844D01*
X136924Y64920D01*
X136914Y64997D01*
X136908Y65074D01*
X136906Y65151D01*
X66219Y63183D02*
X66158Y63054D01*
X66100Y62924D01*
X66046Y62792D01*
X65995Y62659D01*
X65948Y62525D01*
X65903Y62389D01*
X65863Y62253D01*
X65826Y62115D01*
X65792Y61977D01*
X65761Y61838D01*
X65735Y61698D01*
X65711Y61557D01*
X65692Y61416D01*
X65676Y61275D01*
X65663Y61133D01*
X65654Y60991D01*
X65649Y60848D01*
X65647Y60706D01*
X66219Y63182D02*
X66245Y63251D01*
X66274Y63317D01*
X66306Y63383D01*
X66341Y63446D01*
X66380Y63508D01*
X66422Y63568D01*
X66467Y63625D01*
X66515Y63680D01*
X66566Y63732D01*
X66619Y63782D01*
X66675Y63828D01*
X66733Y63872D01*
X66794Y63913D01*
X66856Y63951D01*
X66920Y63985D01*
X66986Y64016D01*
X67054Y64044D01*
X67123Y64068D01*
X67193Y64088D01*
X67264Y64105D01*
X67335Y64118D01*
X67407Y64127D01*
X67480Y64133D01*
X67553Y64135D01*
X67626Y64133D01*
X67699Y64127D01*
X67771Y64118D01*
X67842Y64105D01*
X67913Y64088D01*
X67983Y64068D01*
X68052Y64044D01*
X68120Y64016D01*
X68186Y63985D01*
X68250Y63951D01*
X68312Y63913D01*
X68373Y63872D01*
X68431Y63828D01*
X68487Y63782D01*
X68540Y63732D01*
X68591Y63680D01*
X68639Y63625D01*
X68684Y63568D01*
X68726Y63508D01*
X68765Y63446D01*
X68800Y63383D01*
X68832Y63317D01*
X68861Y63251D01*
X68887Y63182D01*
X68886Y63183D02*
X68947Y63054D01*
X69005Y62924D01*
X69059Y62792D01*
X69110Y62659D01*
X69157Y62525D01*
X69202Y62389D01*
X69242Y62253D01*
X69279Y62115D01*
X69313Y61977D01*
X69344Y61838D01*
X69370Y61698D01*
X69394Y61557D01*
X69413Y61416D01*
X69429Y61275D01*
X69442Y61133D01*
X69451Y60991D01*
X69456Y60848D01*
X69458Y60706D01*
X65647Y60706D02*
X65649Y60564D01*
X65654Y60421D01*
X65663Y60279D01*
X65676Y60137D01*
X65692Y59996D01*
X65711Y59855D01*
X65735Y59714D01*
X65761Y59574D01*
X65792Y59435D01*
X65826Y59297D01*
X65863Y59159D01*
X65903Y59023D01*
X65948Y58887D01*
X65995Y58753D01*
X66046Y58620D01*
X66100Y58488D01*
X66158Y58358D01*
X66219Y58229D01*
X66219Y58230D02*
X66245Y58161D01*
X66274Y58095D01*
X66306Y58029D01*
X66341Y57966D01*
X66380Y57904D01*
X66422Y57844D01*
X66467Y57787D01*
X66515Y57732D01*
X66566Y57680D01*
X66619Y57630D01*
X66675Y57584D01*
X66733Y57540D01*
X66794Y57499D01*
X66856Y57461D01*
X66920Y57427D01*
X66986Y57396D01*
X67054Y57368D01*
X67123Y57344D01*
X67193Y57324D01*
X67264Y57307D01*
X67335Y57294D01*
X67407Y57285D01*
X67480Y57279D01*
X67553Y57277D01*
X68886Y58229D02*
X68947Y58358D01*
X69005Y58488D01*
X69059Y58620D01*
X69110Y58753D01*
X69157Y58887D01*
X69202Y59023D01*
X69242Y59159D01*
X69279Y59297D01*
X69313Y59435D01*
X69344Y59574D01*
X69370Y59714D01*
X69394Y59855D01*
X69413Y59996D01*
X69429Y60137D01*
X69442Y60279D01*
X69451Y60421D01*
X69456Y60564D01*
X69458Y60706D01*
X68887Y58230D02*
X68861Y58161D01*
X68832Y58095D01*
X68800Y58029D01*
X68765Y57966D01*
X68726Y57904D01*
X68684Y57844D01*
X68639Y57787D01*
X68591Y57732D01*
X68540Y57680D01*
X68487Y57630D01*
X68431Y57584D01*
X68373Y57540D01*
X68312Y57499D01*
X68250Y57461D01*
X68186Y57427D01*
X68120Y57396D01*
X68052Y57368D01*
X67983Y57344D01*
X67913Y57324D01*
X67842Y57307D01*
X67771Y57294D01*
X67699Y57285D01*
X67626Y57279D01*
X67553Y57277D01*
X66029Y58801D02*
X69077Y62611D01*
X72483Y57658D02*
X72483Y57277D01*
X72483Y57658D02*
X72864Y57658D01*
X72864Y57277D01*
X72483Y57277D01*
X75889Y62611D02*
X77794Y64135D01*
X77794Y57277D01*
X75889Y57277D02*
X79699Y57277D01*
X83342Y58420D02*
X83342Y61849D01*
X83342Y58420D02*
X83344Y58354D01*
X83350Y58287D01*
X83359Y58222D01*
X83373Y58156D01*
X83390Y58092D01*
X83411Y58029D01*
X83435Y57967D01*
X83464Y57907D01*
X83495Y57849D01*
X83530Y57792D01*
X83568Y57737D01*
X83609Y57685D01*
X83654Y57636D01*
X83701Y57589D01*
X83750Y57544D01*
X83802Y57503D01*
X83857Y57465D01*
X83914Y57430D01*
X83972Y57399D01*
X84032Y57370D01*
X84094Y57346D01*
X84157Y57325D01*
X84221Y57308D01*
X84287Y57294D01*
X84352Y57285D01*
X84419Y57279D01*
X84485Y57277D01*
X86390Y57277D01*
X86390Y61849D01*
X90297Y64135D02*
X90297Y57277D01*
X90297Y64135D02*
X93345Y64135D01*
X93345Y61087D02*
X90297Y61087D01*
X183146Y43975D02*
X183146Y37117D01*
X183146Y43975D02*
X185051Y43975D01*
X185136Y43973D01*
X185222Y43967D01*
X185307Y43958D01*
X185391Y43944D01*
X185475Y43927D01*
X185558Y43906D01*
X185640Y43882D01*
X185720Y43854D01*
X185800Y43822D01*
X185878Y43786D01*
X185954Y43748D01*
X186028Y43705D01*
X186100Y43660D01*
X186171Y43611D01*
X186239Y43559D01*
X186304Y43505D01*
X186367Y43447D01*
X186428Y43386D01*
X186486Y43323D01*
X186540Y43258D01*
X186592Y43190D01*
X186641Y43119D01*
X186686Y43047D01*
X186729Y42973D01*
X186767Y42897D01*
X186803Y42819D01*
X186835Y42739D01*
X186863Y42659D01*
X186887Y42577D01*
X186908Y42494D01*
X186925Y42410D01*
X186939Y42326D01*
X186948Y42241D01*
X186954Y42155D01*
X186956Y42070D01*
X186956Y39022D01*
X186954Y38937D01*
X186948Y38851D01*
X186939Y38766D01*
X186925Y38682D01*
X186908Y38598D01*
X186887Y38515D01*
X186863Y38433D01*
X186835Y38353D01*
X186803Y38273D01*
X186767Y38195D01*
X186729Y38119D01*
X186686Y38045D01*
X186641Y37973D01*
X186592Y37902D01*
X186540Y37834D01*
X186486Y37769D01*
X186428Y37706D01*
X186367Y37645D01*
X186304Y37587D01*
X186239Y37533D01*
X186171Y37481D01*
X186100Y37432D01*
X186028Y37387D01*
X185954Y37344D01*
X185878Y37306D01*
X185800Y37270D01*
X185720Y37238D01*
X185640Y37210D01*
X185558Y37186D01*
X185475Y37165D01*
X185391Y37148D01*
X185307Y37134D01*
X185222Y37125D01*
X185136Y37119D01*
X185051Y37117D01*
X183146Y37117D01*
X190705Y42451D02*
X192610Y43975D01*
X192610Y37117D01*
X190705Y37117D02*
X194515Y37117D01*
D11*
X264360Y9160D02*
X289360Y9160D01*
X289360Y112760D02*
X264360Y112760D01*
X289360Y15560D02*
X289360Y9160D01*
X289360Y106060D02*
X289360Y112760D01*
X264360Y112760D02*
X264360Y106060D01*
X264360Y15560D02*
X264360Y9160D01*
X289760Y81550D02*
X289760Y91170D01*
X264360Y91170D02*
X264360Y81550D01*
X289760Y65770D02*
X289760Y56150D01*
X264360Y56150D02*
X264360Y65770D01*
X289760Y40370D02*
X289760Y30750D01*
X264360Y30750D02*
X264360Y40370D01*
D10*
X130549Y72517D02*
X130549Y79375D01*
X132454Y79375D01*
X132539Y79373D01*
X132625Y79367D01*
X132710Y79358D01*
X132794Y79344D01*
X132878Y79327D01*
X132961Y79306D01*
X133043Y79282D01*
X133123Y79254D01*
X133203Y79222D01*
X133281Y79186D01*
X133357Y79148D01*
X133431Y79105D01*
X133503Y79060D01*
X133574Y79011D01*
X133642Y78959D01*
X133707Y78905D01*
X133770Y78847D01*
X133831Y78786D01*
X133889Y78723D01*
X133943Y78658D01*
X133995Y78590D01*
X134044Y78519D01*
X134089Y78447D01*
X134132Y78373D01*
X134170Y78297D01*
X134206Y78219D01*
X134238Y78139D01*
X134266Y78059D01*
X134290Y77977D01*
X134311Y77894D01*
X134328Y77810D01*
X134342Y77726D01*
X134351Y77641D01*
X134357Y77555D01*
X134359Y77470D01*
X134357Y77385D01*
X134351Y77299D01*
X134342Y77214D01*
X134328Y77130D01*
X134311Y77046D01*
X134290Y76963D01*
X134266Y76881D01*
X134238Y76801D01*
X134206Y76721D01*
X134170Y76643D01*
X134132Y76567D01*
X134089Y76493D01*
X134044Y76421D01*
X133995Y76350D01*
X133943Y76282D01*
X133889Y76217D01*
X133831Y76154D01*
X133770Y76093D01*
X133707Y76035D01*
X133642Y75981D01*
X133574Y75929D01*
X133503Y75880D01*
X133431Y75835D01*
X133357Y75792D01*
X133281Y75754D01*
X133203Y75718D01*
X133123Y75686D01*
X133043Y75658D01*
X132961Y75634D01*
X132878Y75613D01*
X132794Y75596D01*
X132710Y75582D01*
X132625Y75573D01*
X132539Y75567D01*
X132454Y75565D01*
X130549Y75565D01*
X132835Y75565D02*
X134359Y72517D01*
X137795Y77851D02*
X139700Y79375D01*
X139700Y72517D01*
X137795Y72517D02*
X141605Y72517D01*
X69091Y71247D02*
X67186Y71247D01*
X69091Y71247D02*
X69176Y71249D01*
X69262Y71255D01*
X69347Y71264D01*
X69431Y71278D01*
X69515Y71295D01*
X69598Y71316D01*
X69680Y71340D01*
X69760Y71368D01*
X69840Y71400D01*
X69918Y71436D01*
X69994Y71474D01*
X70068Y71517D01*
X70140Y71562D01*
X70211Y71611D01*
X70279Y71663D01*
X70344Y71717D01*
X70407Y71775D01*
X70468Y71836D01*
X70526Y71899D01*
X70580Y71964D01*
X70632Y72032D01*
X70681Y72103D01*
X70726Y72175D01*
X70769Y72249D01*
X70807Y72325D01*
X70843Y72403D01*
X70875Y72483D01*
X70903Y72563D01*
X70927Y72645D01*
X70948Y72728D01*
X70965Y72812D01*
X70979Y72896D01*
X70988Y72981D01*
X70994Y73067D01*
X70996Y73152D01*
X70994Y73237D01*
X70988Y73323D01*
X70979Y73408D01*
X70965Y73492D01*
X70948Y73576D01*
X70927Y73659D01*
X70903Y73741D01*
X70875Y73821D01*
X70843Y73901D01*
X70807Y73979D01*
X70769Y74055D01*
X70726Y74129D01*
X70681Y74201D01*
X70632Y74272D01*
X70580Y74340D01*
X70526Y74405D01*
X70468Y74468D01*
X70407Y74529D01*
X70344Y74587D01*
X70279Y74641D01*
X70211Y74693D01*
X70140Y74742D01*
X70068Y74787D01*
X69994Y74830D01*
X69918Y74868D01*
X69840Y74904D01*
X69760Y74936D01*
X69680Y74964D01*
X69598Y74988D01*
X69515Y75009D01*
X69431Y75026D01*
X69347Y75040D01*
X69262Y75049D01*
X69176Y75055D01*
X69091Y75057D01*
X69472Y78105D02*
X67186Y78105D01*
X69472Y78105D02*
X69549Y78103D01*
X69626Y78097D01*
X69703Y78087D01*
X69779Y78074D01*
X69854Y78056D01*
X69928Y78035D01*
X70001Y78010D01*
X70073Y77981D01*
X70143Y77949D01*
X70212Y77914D01*
X70278Y77874D01*
X70343Y77832D01*
X70405Y77786D01*
X70465Y77737D01*
X70522Y77686D01*
X70577Y77631D01*
X70628Y77574D01*
X70677Y77514D01*
X70723Y77452D01*
X70765Y77387D01*
X70805Y77321D01*
X70840Y77252D01*
X70872Y77182D01*
X70901Y77110D01*
X70926Y77037D01*
X70947Y76963D01*
X70965Y76888D01*
X70978Y76812D01*
X70988Y76735D01*
X70994Y76658D01*
X70996Y76581D01*
X70994Y76504D01*
X70988Y76427D01*
X70978Y76350D01*
X70965Y76274D01*
X70947Y76199D01*
X70926Y76125D01*
X70901Y76052D01*
X70872Y75980D01*
X70840Y75910D01*
X70805Y75841D01*
X70765Y75775D01*
X70723Y75710D01*
X70677Y75648D01*
X70628Y75588D01*
X70577Y75531D01*
X70522Y75476D01*
X70465Y75425D01*
X70405Y75376D01*
X70343Y75330D01*
X70278Y75288D01*
X70212Y75248D01*
X70143Y75213D01*
X70073Y75181D01*
X70001Y75152D01*
X69928Y75127D01*
X69854Y75106D01*
X69779Y75088D01*
X69703Y75075D01*
X69626Y75065D01*
X69549Y75059D01*
X69472Y75057D01*
X67948Y75057D01*
X76025Y74295D02*
X78311Y74295D01*
X76025Y74295D02*
X75948Y74297D01*
X75871Y74303D01*
X75794Y74313D01*
X75718Y74326D01*
X75643Y74344D01*
X75569Y74365D01*
X75496Y74390D01*
X75424Y74419D01*
X75354Y74451D01*
X75285Y74486D01*
X75219Y74526D01*
X75154Y74568D01*
X75092Y74614D01*
X75032Y74663D01*
X74975Y74714D01*
X74920Y74769D01*
X74869Y74826D01*
X74820Y74886D01*
X74774Y74948D01*
X74732Y75013D01*
X74692Y75079D01*
X74657Y75148D01*
X74625Y75218D01*
X74596Y75290D01*
X74571Y75363D01*
X74550Y75437D01*
X74532Y75512D01*
X74519Y75588D01*
X74509Y75665D01*
X74503Y75742D01*
X74501Y75819D01*
X74501Y76200D01*
X74503Y76285D01*
X74509Y76371D01*
X74518Y76456D01*
X74532Y76540D01*
X74549Y76624D01*
X74570Y76707D01*
X74594Y76789D01*
X74622Y76869D01*
X74654Y76949D01*
X74690Y77027D01*
X74728Y77103D01*
X74771Y77177D01*
X74816Y77249D01*
X74865Y77320D01*
X74917Y77388D01*
X74971Y77453D01*
X75029Y77516D01*
X75090Y77577D01*
X75153Y77635D01*
X75218Y77689D01*
X75286Y77741D01*
X75357Y77790D01*
X75429Y77835D01*
X75503Y77878D01*
X75579Y77916D01*
X75657Y77952D01*
X75737Y77984D01*
X75817Y78012D01*
X75899Y78036D01*
X75982Y78057D01*
X76066Y78074D01*
X76150Y78088D01*
X76235Y78097D01*
X76321Y78103D01*
X76406Y78105D01*
X76491Y78103D01*
X76577Y78097D01*
X76662Y78088D01*
X76746Y78074D01*
X76830Y78057D01*
X76913Y78036D01*
X76995Y78012D01*
X77075Y77984D01*
X77155Y77952D01*
X77233Y77916D01*
X77309Y77878D01*
X77383Y77835D01*
X77455Y77790D01*
X77526Y77741D01*
X77594Y77689D01*
X77659Y77635D01*
X77722Y77577D01*
X77783Y77516D01*
X77841Y77453D01*
X77895Y77388D01*
X77947Y77320D01*
X77996Y77249D01*
X78041Y77177D01*
X78084Y77103D01*
X78122Y77027D01*
X78158Y76949D01*
X78190Y76869D01*
X78218Y76789D01*
X78242Y76707D01*
X78263Y76624D01*
X78280Y76540D01*
X78294Y76456D01*
X78303Y76371D01*
X78309Y76285D01*
X78311Y76200D01*
X78311Y74295D01*
X78309Y74186D01*
X78303Y74078D01*
X78294Y73969D01*
X78280Y73861D01*
X78263Y73754D01*
X78241Y73647D01*
X78216Y73541D01*
X78188Y73436D01*
X78155Y73332D01*
X78119Y73230D01*
X78079Y73129D01*
X78036Y73029D01*
X77989Y72931D01*
X77938Y72834D01*
X77884Y72740D01*
X77827Y72647D01*
X77767Y72557D01*
X77703Y72468D01*
X77636Y72382D01*
X77567Y72299D01*
X77494Y72218D01*
X77418Y72140D01*
X77340Y72064D01*
X77259Y71991D01*
X77176Y71922D01*
X77090Y71855D01*
X77001Y71791D01*
X76911Y71731D01*
X76818Y71674D01*
X76724Y71620D01*
X76627Y71569D01*
X76529Y71522D01*
X76429Y71479D01*
X76328Y71439D01*
X76226Y71403D01*
X76122Y71370D01*
X76017Y71342D01*
X75911Y71317D01*
X75804Y71295D01*
X75697Y71278D01*
X75589Y71264D01*
X75480Y71255D01*
X75372Y71249D01*
X75263Y71247D01*
X81815Y74676D02*
X81817Y74818D01*
X81822Y74961D01*
X81831Y75103D01*
X81844Y75245D01*
X81860Y75386D01*
X81879Y75527D01*
X81903Y75668D01*
X81929Y75808D01*
X81960Y75947D01*
X81994Y76085D01*
X82031Y76223D01*
X82071Y76359D01*
X82116Y76495D01*
X82163Y76629D01*
X82214Y76762D01*
X82268Y76894D01*
X82326Y77024D01*
X82387Y77153D01*
X82387Y77152D02*
X82413Y77221D01*
X82442Y77287D01*
X82474Y77353D01*
X82509Y77416D01*
X82548Y77478D01*
X82590Y77538D01*
X82635Y77595D01*
X82683Y77650D01*
X82734Y77702D01*
X82787Y77752D01*
X82843Y77798D01*
X82901Y77842D01*
X82962Y77883D01*
X83024Y77921D01*
X83088Y77955D01*
X83154Y77986D01*
X83222Y78014D01*
X83291Y78038D01*
X83361Y78058D01*
X83432Y78075D01*
X83503Y78088D01*
X83575Y78097D01*
X83648Y78103D01*
X83721Y78105D01*
X83794Y78103D01*
X83867Y78097D01*
X83939Y78088D01*
X84010Y78075D01*
X84081Y78058D01*
X84151Y78038D01*
X84220Y78014D01*
X84288Y77986D01*
X84354Y77955D01*
X84418Y77921D01*
X84480Y77883D01*
X84541Y77842D01*
X84599Y77798D01*
X84655Y77752D01*
X84708Y77702D01*
X84759Y77650D01*
X84807Y77595D01*
X84852Y77538D01*
X84894Y77478D01*
X84933Y77416D01*
X84968Y77353D01*
X85000Y77287D01*
X85029Y77221D01*
X85055Y77152D01*
X85054Y77153D02*
X85115Y77024D01*
X85173Y76894D01*
X85227Y76762D01*
X85278Y76629D01*
X85325Y76495D01*
X85370Y76359D01*
X85410Y76223D01*
X85447Y76085D01*
X85481Y75947D01*
X85512Y75808D01*
X85538Y75668D01*
X85562Y75527D01*
X85581Y75386D01*
X85597Y75245D01*
X85610Y75103D01*
X85619Y74961D01*
X85624Y74818D01*
X85626Y74676D01*
X81815Y74676D02*
X81817Y74534D01*
X81822Y74391D01*
X81831Y74249D01*
X81844Y74107D01*
X81860Y73966D01*
X81879Y73825D01*
X81903Y73684D01*
X81929Y73544D01*
X81960Y73405D01*
X81994Y73267D01*
X82031Y73129D01*
X82071Y72993D01*
X82116Y72857D01*
X82163Y72723D01*
X82214Y72590D01*
X82268Y72458D01*
X82326Y72328D01*
X82387Y72199D01*
X82387Y72200D02*
X82413Y72131D01*
X82442Y72065D01*
X82474Y71999D01*
X82509Y71936D01*
X82548Y71874D01*
X82590Y71814D01*
X82635Y71757D01*
X82683Y71702D01*
X82734Y71650D01*
X82787Y71600D01*
X82843Y71554D01*
X82901Y71510D01*
X82962Y71469D01*
X83024Y71431D01*
X83088Y71397D01*
X83154Y71366D01*
X83222Y71338D01*
X83291Y71314D01*
X83361Y71294D01*
X83432Y71277D01*
X83503Y71264D01*
X83575Y71255D01*
X83648Y71249D01*
X83721Y71247D01*
X85054Y72199D02*
X85115Y72328D01*
X85173Y72458D01*
X85227Y72590D01*
X85278Y72723D01*
X85325Y72857D01*
X85370Y72993D01*
X85410Y73129D01*
X85447Y73267D01*
X85481Y73405D01*
X85512Y73544D01*
X85538Y73684D01*
X85562Y73825D01*
X85581Y73966D01*
X85597Y74107D01*
X85610Y74249D01*
X85619Y74391D01*
X85624Y74534D01*
X85626Y74676D01*
X85055Y72200D02*
X85029Y72131D01*
X85000Y72065D01*
X84968Y71999D01*
X84933Y71936D01*
X84894Y71874D01*
X84852Y71814D01*
X84807Y71757D01*
X84759Y71702D01*
X84708Y71650D01*
X84655Y71600D01*
X84599Y71554D01*
X84541Y71510D01*
X84480Y71469D01*
X84418Y71431D01*
X84354Y71397D01*
X84288Y71366D01*
X84220Y71338D01*
X84151Y71314D01*
X84081Y71294D01*
X84010Y71277D01*
X83939Y71264D01*
X83867Y71255D01*
X83794Y71249D01*
X83721Y71247D01*
X82197Y72771D02*
X85245Y76581D01*
X89535Y78105D02*
X89535Y71247D01*
X89535Y73914D02*
X93345Y78105D01*
X91059Y75438D02*
X93345Y71247D01*
X229609Y78867D02*
X229609Y85725D01*
X231514Y85725D01*
X231599Y85723D01*
X231685Y85717D01*
X231770Y85708D01*
X231854Y85694D01*
X231938Y85677D01*
X232021Y85656D01*
X232103Y85632D01*
X232183Y85604D01*
X232263Y85572D01*
X232341Y85536D01*
X232417Y85498D01*
X232491Y85455D01*
X232563Y85410D01*
X232634Y85361D01*
X232702Y85309D01*
X232767Y85255D01*
X232830Y85197D01*
X232891Y85136D01*
X232949Y85073D01*
X233003Y85008D01*
X233055Y84940D01*
X233104Y84869D01*
X233149Y84797D01*
X233192Y84723D01*
X233230Y84647D01*
X233266Y84569D01*
X233298Y84489D01*
X233326Y84409D01*
X233350Y84327D01*
X233371Y84244D01*
X233388Y84160D01*
X233402Y84076D01*
X233411Y83991D01*
X233417Y83905D01*
X233419Y83820D01*
X233417Y83735D01*
X233411Y83649D01*
X233402Y83564D01*
X233388Y83480D01*
X233371Y83396D01*
X233350Y83313D01*
X233326Y83231D01*
X233298Y83151D01*
X233266Y83071D01*
X233230Y82993D01*
X233192Y82917D01*
X233149Y82843D01*
X233104Y82771D01*
X233055Y82700D01*
X233003Y82632D01*
X232949Y82567D01*
X232891Y82504D01*
X232830Y82443D01*
X232767Y82385D01*
X232702Y82331D01*
X232634Y82279D01*
X232563Y82230D01*
X232491Y82185D01*
X232417Y82142D01*
X232341Y82104D01*
X232263Y82068D01*
X232183Y82036D01*
X232103Y82008D01*
X232021Y81984D01*
X231938Y81963D01*
X231854Y81946D01*
X231770Y81932D01*
X231685Y81923D01*
X231599Y81917D01*
X231514Y81915D01*
X229609Y81915D01*
X231895Y81915D02*
X233419Y78867D01*
X238951Y85726D02*
X239033Y85724D01*
X239114Y85718D01*
X239195Y85709D01*
X239276Y85695D01*
X239355Y85678D01*
X239434Y85657D01*
X239512Y85632D01*
X239588Y85603D01*
X239663Y85571D01*
X239737Y85535D01*
X239809Y85496D01*
X239878Y85454D01*
X239946Y85408D01*
X240011Y85359D01*
X240074Y85307D01*
X240134Y85252D01*
X240192Y85194D01*
X240247Y85134D01*
X240299Y85071D01*
X240348Y85006D01*
X240394Y84938D01*
X240436Y84869D01*
X240475Y84797D01*
X240511Y84723D01*
X240543Y84648D01*
X240572Y84572D01*
X240597Y84494D01*
X240618Y84415D01*
X240635Y84336D01*
X240649Y84255D01*
X240658Y84174D01*
X240664Y84093D01*
X240666Y84011D01*
X238951Y85725D02*
X238859Y85723D01*
X238767Y85717D01*
X238675Y85708D01*
X238583Y85694D01*
X238493Y85677D01*
X238403Y85656D01*
X238314Y85631D01*
X238226Y85602D01*
X238139Y85570D01*
X238054Y85534D01*
X237971Y85495D01*
X237889Y85452D01*
X237809Y85406D01*
X237731Y85356D01*
X237655Y85304D01*
X237582Y85248D01*
X237511Y85189D01*
X237442Y85127D01*
X237376Y85062D01*
X237313Y84995D01*
X237253Y84925D01*
X237195Y84853D01*
X237141Y84778D01*
X237090Y84701D01*
X237042Y84622D01*
X236998Y84541D01*
X236957Y84458D01*
X236919Y84374D01*
X236885Y84288D01*
X236855Y84201D01*
X240094Y82677D02*
X240153Y82736D01*
X240209Y82797D01*
X240262Y82860D01*
X240313Y82926D01*
X240360Y82994D01*
X240404Y83064D01*
X240445Y83136D01*
X240483Y83210D01*
X240517Y83285D01*
X240548Y83362D01*
X240575Y83440D01*
X240599Y83520D01*
X240620Y83600D01*
X240636Y83681D01*
X240649Y83763D01*
X240659Y83845D01*
X240664Y83928D01*
X240666Y84011D01*
X240094Y82677D02*
X236855Y78867D01*
X240665Y78867D01*
X175599Y76835D02*
X174075Y71501D01*
X177885Y71501D01*
X176742Y73025D02*
X176742Y69977D01*
X180911Y69977D02*
X180911Y70358D01*
X181292Y70358D01*
X181292Y69977D01*
X180911Y69977D01*
X184317Y76073D02*
X184317Y76835D01*
X188127Y76835D01*
X186222Y69977D01*
X191897Y69977D02*
X191897Y76835D01*
X194945Y74549D02*
X191897Y72263D01*
X193231Y73216D02*
X194945Y69977D01*
X229609Y104267D02*
X229609Y111125D01*
X231514Y111125D01*
X231599Y111123D01*
X231685Y111117D01*
X231770Y111108D01*
X231854Y111094D01*
X231938Y111077D01*
X232021Y111056D01*
X232103Y111032D01*
X232183Y111004D01*
X232263Y110972D01*
X232341Y110936D01*
X232417Y110898D01*
X232491Y110855D01*
X232563Y110810D01*
X232634Y110761D01*
X232702Y110709D01*
X232767Y110655D01*
X232830Y110597D01*
X232891Y110536D01*
X232949Y110473D01*
X233003Y110408D01*
X233055Y110340D01*
X233104Y110269D01*
X233149Y110197D01*
X233192Y110123D01*
X233230Y110047D01*
X233266Y109969D01*
X233298Y109889D01*
X233326Y109809D01*
X233350Y109727D01*
X233371Y109644D01*
X233388Y109560D01*
X233402Y109476D01*
X233411Y109391D01*
X233417Y109305D01*
X233419Y109220D01*
X233417Y109135D01*
X233411Y109049D01*
X233402Y108964D01*
X233388Y108880D01*
X233371Y108796D01*
X233350Y108713D01*
X233326Y108631D01*
X233298Y108551D01*
X233266Y108471D01*
X233230Y108393D01*
X233192Y108317D01*
X233149Y108243D01*
X233104Y108171D01*
X233055Y108100D01*
X233003Y108032D01*
X232949Y107967D01*
X232891Y107904D01*
X232830Y107843D01*
X232767Y107785D01*
X232702Y107731D01*
X232634Y107679D01*
X232563Y107630D01*
X232491Y107585D01*
X232417Y107542D01*
X232341Y107504D01*
X232263Y107468D01*
X232183Y107436D01*
X232103Y107408D01*
X232021Y107384D01*
X231938Y107363D01*
X231854Y107346D01*
X231770Y107332D01*
X231685Y107323D01*
X231599Y107317D01*
X231514Y107315D01*
X229609Y107315D01*
X231895Y107315D02*
X233419Y104267D01*
X236855Y104267D02*
X238760Y104267D01*
X238845Y104269D01*
X238931Y104275D01*
X239016Y104284D01*
X239100Y104298D01*
X239184Y104315D01*
X239267Y104336D01*
X239349Y104360D01*
X239429Y104388D01*
X239509Y104420D01*
X239587Y104456D01*
X239663Y104494D01*
X239737Y104537D01*
X239809Y104582D01*
X239880Y104631D01*
X239948Y104683D01*
X240013Y104737D01*
X240076Y104795D01*
X240137Y104856D01*
X240195Y104919D01*
X240249Y104984D01*
X240301Y105052D01*
X240350Y105123D01*
X240395Y105195D01*
X240438Y105269D01*
X240476Y105345D01*
X240512Y105423D01*
X240544Y105503D01*
X240572Y105583D01*
X240596Y105665D01*
X240617Y105748D01*
X240634Y105832D01*
X240648Y105916D01*
X240657Y106001D01*
X240663Y106087D01*
X240665Y106172D01*
X240663Y106257D01*
X240657Y106343D01*
X240648Y106428D01*
X240634Y106512D01*
X240617Y106596D01*
X240596Y106679D01*
X240572Y106761D01*
X240544Y106841D01*
X240512Y106921D01*
X240476Y106999D01*
X240438Y107075D01*
X240395Y107149D01*
X240350Y107221D01*
X240301Y107292D01*
X240249Y107360D01*
X240195Y107425D01*
X240137Y107488D01*
X240076Y107549D01*
X240013Y107607D01*
X239948Y107661D01*
X239880Y107713D01*
X239809Y107762D01*
X239737Y107807D01*
X239663Y107850D01*
X239587Y107888D01*
X239509Y107924D01*
X239429Y107956D01*
X239349Y107984D01*
X239267Y108008D01*
X239184Y108029D01*
X239100Y108046D01*
X239016Y108060D01*
X238931Y108069D01*
X238845Y108075D01*
X238760Y108077D01*
X239141Y111125D02*
X236855Y111125D01*
X239141Y111125D02*
X239218Y111123D01*
X239295Y111117D01*
X239372Y111107D01*
X239448Y111094D01*
X239523Y111076D01*
X239597Y111055D01*
X239670Y111030D01*
X239742Y111001D01*
X239812Y110969D01*
X239881Y110934D01*
X239947Y110894D01*
X240012Y110852D01*
X240074Y110806D01*
X240134Y110757D01*
X240191Y110706D01*
X240246Y110651D01*
X240297Y110594D01*
X240346Y110534D01*
X240392Y110472D01*
X240434Y110407D01*
X240474Y110341D01*
X240509Y110272D01*
X240541Y110202D01*
X240570Y110130D01*
X240595Y110057D01*
X240616Y109983D01*
X240634Y109908D01*
X240647Y109832D01*
X240657Y109755D01*
X240663Y109678D01*
X240665Y109601D01*
X240663Y109524D01*
X240657Y109447D01*
X240647Y109370D01*
X240634Y109294D01*
X240616Y109219D01*
X240595Y109145D01*
X240570Y109072D01*
X240541Y109000D01*
X240509Y108930D01*
X240474Y108861D01*
X240434Y108795D01*
X240392Y108730D01*
X240346Y108668D01*
X240297Y108608D01*
X240246Y108551D01*
X240191Y108496D01*
X240134Y108445D01*
X240074Y108396D01*
X240012Y108350D01*
X239947Y108308D01*
X239881Y108268D01*
X239812Y108233D01*
X239742Y108201D01*
X239670Y108172D01*
X239597Y108147D01*
X239523Y108126D01*
X239448Y108108D01*
X239372Y108095D01*
X239295Y108085D01*
X239218Y108079D01*
X239141Y108077D01*
X237617Y108077D01*
X178139Y103505D02*
X176615Y98171D01*
X180425Y98171D01*
X179282Y99695D02*
X179282Y96647D01*
X183451Y96647D02*
X183451Y97028D01*
X183832Y97028D01*
X183832Y96647D01*
X183451Y96647D01*
X186857Y102743D02*
X186857Y103505D01*
X190667Y103505D01*
X188762Y96647D01*
X194437Y96647D02*
X194437Y103505D01*
X197485Y101219D02*
X194437Y98933D01*
X195771Y99886D02*
X197485Y96647D01*
X180975Y27813D02*
X180975Y20955D01*
X180975Y27813D02*
X182880Y27813D01*
X182965Y27811D01*
X183051Y27805D01*
X183136Y27796D01*
X183220Y27782D01*
X183304Y27765D01*
X183387Y27744D01*
X183469Y27720D01*
X183549Y27692D01*
X183629Y27660D01*
X183707Y27624D01*
X183783Y27586D01*
X183857Y27543D01*
X183929Y27498D01*
X184000Y27449D01*
X184068Y27397D01*
X184133Y27343D01*
X184196Y27285D01*
X184257Y27224D01*
X184315Y27161D01*
X184369Y27096D01*
X184421Y27028D01*
X184470Y26957D01*
X184515Y26885D01*
X184558Y26811D01*
X184596Y26735D01*
X184632Y26657D01*
X184664Y26577D01*
X184692Y26497D01*
X184716Y26415D01*
X184737Y26332D01*
X184754Y26248D01*
X184768Y26164D01*
X184777Y26079D01*
X184783Y25993D01*
X184785Y25908D01*
X184783Y25823D01*
X184777Y25737D01*
X184768Y25652D01*
X184754Y25568D01*
X184737Y25484D01*
X184716Y25401D01*
X184692Y25319D01*
X184664Y25239D01*
X184632Y25159D01*
X184596Y25081D01*
X184558Y25005D01*
X184515Y24931D01*
X184470Y24859D01*
X184421Y24788D01*
X184369Y24720D01*
X184315Y24655D01*
X184257Y24592D01*
X184196Y24531D01*
X184133Y24473D01*
X184068Y24419D01*
X184000Y24367D01*
X183929Y24318D01*
X183857Y24273D01*
X183783Y24230D01*
X183707Y24192D01*
X183629Y24156D01*
X183549Y24124D01*
X183469Y24096D01*
X183387Y24072D01*
X183304Y24051D01*
X183220Y24034D01*
X183136Y24020D01*
X183051Y24011D01*
X182965Y24005D01*
X182880Y24003D01*
X180975Y24003D01*
X183261Y24003D02*
X184785Y20955D01*
X188221Y22479D02*
X189745Y27813D01*
X188221Y22479D02*
X192031Y22479D01*
X190888Y24003D02*
X190888Y20955D01*
X154559Y15113D02*
X153035Y9779D01*
X156845Y9779D01*
X155702Y11303D02*
X155702Y8255D01*
X159870Y8255D02*
X159870Y8636D01*
X160251Y8636D01*
X160251Y8255D01*
X159870Y8255D01*
X163276Y14351D02*
X163276Y15113D01*
X167086Y15113D01*
X165181Y8255D01*
X170857Y8255D02*
X170857Y15113D01*
X173905Y12827D02*
X170857Y10541D01*
X172190Y11494D02*
X173905Y8255D01*
M02*
