G04 EAGLE Gerber RS-274X export*
G75*
%MOMM*%
%FSLAX34Y34*%
%LPD*%
%INTop Copper*%
%IPPOS*%
%AMOC8*
5,1,8,0,0,1.08239X$1,22.5*%
G01*
%ADD10R,1.100000X1.000000*%
%ADD11R,1.000000X1.200000*%
%ADD12C,0.406400*%
%ADD13R,2.000000X1.000000*%
%ADD14R,3.200000X0.350000*%
%ADD15R,1.000000X1.100000*%
%ADD16C,1.000000*%
%ADD17C,0.254000*%
%ADD18C,0.787400*%
%ADD19C,0.355600*%

G36*
X234777Y5098D02*
X234777Y5098D01*
X234916Y5111D01*
X234935Y5118D01*
X234955Y5121D01*
X235084Y5172D01*
X235215Y5219D01*
X235232Y5230D01*
X235250Y5238D01*
X235363Y5319D01*
X235478Y5397D01*
X235491Y5413D01*
X235508Y5424D01*
X235597Y5532D01*
X235689Y5636D01*
X235698Y5654D01*
X235711Y5669D01*
X235770Y5795D01*
X235833Y5919D01*
X235838Y5939D01*
X235846Y5957D01*
X235872Y6094D01*
X235903Y6229D01*
X235902Y6250D01*
X235906Y6269D01*
X235897Y6408D01*
X235893Y6547D01*
X235887Y6567D01*
X235886Y6587D01*
X235843Y6719D01*
X235805Y6853D01*
X235794Y6870D01*
X235788Y6889D01*
X235714Y7007D01*
X235643Y7127D01*
X235625Y7148D01*
X235618Y7158D01*
X235603Y7172D01*
X235537Y7247D01*
X234068Y8716D01*
X232997Y11301D01*
X232997Y14099D01*
X234068Y16684D01*
X236046Y18662D01*
X238631Y19733D01*
X241429Y19733D01*
X244014Y18662D01*
X246165Y16511D01*
X246281Y16421D01*
X246394Y16329D01*
X246406Y16324D01*
X246416Y16316D01*
X246528Y16267D01*
X246525Y16262D01*
X246510Y16194D01*
X246485Y16129D01*
X246475Y16040D01*
X246455Y15952D01*
X246458Y15882D01*
X246450Y15813D01*
X246462Y15724D01*
X246465Y15634D01*
X246485Y15567D01*
X246494Y15498D01*
X246546Y15346D01*
X247063Y14099D01*
X247063Y11301D01*
X245992Y8716D01*
X244523Y7247D01*
X244438Y7138D01*
X244349Y7031D01*
X244341Y7012D01*
X244328Y6996D01*
X244273Y6868D01*
X244214Y6743D01*
X244210Y6723D01*
X244202Y6704D01*
X244180Y6566D01*
X244154Y6430D01*
X244155Y6410D01*
X244152Y6390D01*
X244165Y6251D01*
X244174Y6113D01*
X244180Y6094D01*
X244182Y6074D01*
X244229Y5942D01*
X244272Y5811D01*
X244283Y5793D01*
X244290Y5774D01*
X244368Y5659D01*
X244442Y5542D01*
X244457Y5528D01*
X244468Y5511D01*
X244572Y5419D01*
X244674Y5324D01*
X244691Y5314D01*
X244707Y5301D01*
X244831Y5237D01*
X244952Y5170D01*
X244972Y5165D01*
X244990Y5156D01*
X245126Y5126D01*
X245260Y5091D01*
X245288Y5089D01*
X245300Y5086D01*
X245321Y5087D01*
X245421Y5081D01*
X304800Y5081D01*
X304918Y5096D01*
X305037Y5103D01*
X305075Y5116D01*
X305116Y5121D01*
X305226Y5164D01*
X305339Y5201D01*
X305374Y5223D01*
X305411Y5238D01*
X305507Y5307D01*
X305608Y5371D01*
X305636Y5401D01*
X305669Y5424D01*
X305745Y5516D01*
X305826Y5603D01*
X305846Y5638D01*
X305871Y5669D01*
X305922Y5777D01*
X305980Y5881D01*
X305990Y5921D01*
X306007Y5957D01*
X306029Y6074D01*
X306059Y6189D01*
X306063Y6249D01*
X306067Y6269D01*
X306065Y6290D01*
X306069Y6350D01*
X306069Y14879D01*
X306053Y15010D01*
X306042Y15142D01*
X306033Y15167D01*
X306029Y15194D01*
X305981Y15317D01*
X305937Y15442D01*
X305922Y15465D01*
X305912Y15490D01*
X305835Y15597D01*
X305761Y15707D01*
X305741Y15725D01*
X305726Y15747D01*
X305623Y15832D01*
X305525Y15920D01*
X305501Y15933D01*
X305481Y15950D01*
X305361Y16006D01*
X305244Y16068D01*
X305217Y16074D01*
X305193Y16086D01*
X305063Y16110D01*
X304934Y16141D01*
X304907Y16140D01*
X304881Y16145D01*
X304749Y16137D01*
X304616Y16134D01*
X304590Y16127D01*
X304563Y16126D01*
X304438Y16085D01*
X304310Y16049D01*
X304275Y16032D01*
X304261Y16028D01*
X304242Y16016D01*
X304165Y15978D01*
X304145Y15966D01*
X303628Y15827D01*
X295859Y15827D01*
X295859Y20347D01*
X295842Y20484D01*
X295839Y20514D01*
X295837Y20549D01*
X295835Y20554D01*
X295829Y20623D01*
X295822Y20642D01*
X295819Y20662D01*
X295768Y20791D01*
X295721Y20922D01*
X295710Y20939D01*
X295702Y20958D01*
X295621Y21070D01*
X295543Y21185D01*
X295527Y21199D01*
X295516Y21215D01*
X295408Y21304D01*
X295304Y21396D01*
X295286Y21405D01*
X295271Y21418D01*
X295145Y21477D01*
X295021Y21540D01*
X295001Y21545D01*
X294983Y21554D01*
X294847Y21580D01*
X294711Y21610D01*
X294690Y21610D01*
X294671Y21613D01*
X294532Y21605D01*
X294393Y21600D01*
X294373Y21595D01*
X294353Y21594D01*
X294221Y21551D01*
X294087Y21512D01*
X294070Y21502D01*
X294051Y21496D01*
X293933Y21421D01*
X293813Y21351D01*
X293792Y21332D01*
X293782Y21325D01*
X293768Y21310D01*
X293693Y21244D01*
X291232Y18784D01*
X291172Y18706D01*
X291104Y18634D01*
X291075Y18581D01*
X291038Y18533D01*
X290998Y18442D01*
X290950Y18355D01*
X290935Y18297D01*
X290911Y18241D01*
X290896Y18143D01*
X290871Y18047D01*
X290865Y17947D01*
X290861Y17927D01*
X290862Y17915D01*
X290861Y17887D01*
X290861Y15827D01*
X283092Y15827D01*
X282575Y15966D01*
X282112Y16233D01*
X281733Y16612D01*
X281466Y17075D01*
X281312Y17649D01*
X281305Y17763D01*
X281292Y17801D01*
X281287Y17842D01*
X281244Y17952D01*
X281207Y18065D01*
X281185Y18100D01*
X281170Y18137D01*
X281101Y18233D01*
X281037Y18334D01*
X281007Y18362D01*
X280984Y18395D01*
X280892Y18471D01*
X280805Y18552D01*
X280770Y18572D01*
X280739Y18597D01*
X280631Y18648D01*
X280527Y18706D01*
X280487Y18716D01*
X280451Y18733D01*
X280334Y18755D01*
X280219Y18785D01*
X280159Y18789D01*
X280139Y18793D01*
X280118Y18791D01*
X280058Y18795D01*
X273662Y18795D01*
X273544Y18780D01*
X273425Y18773D01*
X273387Y18760D01*
X273346Y18755D01*
X273236Y18712D01*
X273123Y18675D01*
X273088Y18653D01*
X273051Y18638D01*
X272955Y18569D01*
X272854Y18505D01*
X272826Y18475D01*
X272793Y18452D01*
X272717Y18360D01*
X272636Y18273D01*
X272616Y18238D01*
X272591Y18207D01*
X272540Y18099D01*
X272482Y17995D01*
X272472Y17955D01*
X272455Y17919D01*
X272433Y17802D01*
X272403Y17687D01*
X272399Y17627D01*
X272395Y17607D01*
X272396Y17603D01*
X272254Y17075D01*
X271987Y16612D01*
X271608Y16233D01*
X271145Y15966D01*
X270628Y15827D01*
X262859Y15827D01*
X262859Y17887D01*
X262847Y17985D01*
X262844Y18084D01*
X262827Y18142D01*
X262819Y18202D01*
X262783Y18294D01*
X262755Y18389D01*
X262725Y18441D01*
X262702Y18498D01*
X262644Y18578D01*
X262594Y18663D01*
X262528Y18739D01*
X262516Y18755D01*
X262506Y18763D01*
X262488Y18784D01*
X260033Y21238D01*
X260055Y21354D01*
X260085Y21469D01*
X260089Y21529D01*
X260093Y21549D01*
X260091Y21570D01*
X260095Y21630D01*
X260095Y24090D01*
X260080Y24208D01*
X260073Y24327D01*
X260060Y24365D01*
X260055Y24406D01*
X260028Y24476D01*
X262488Y26936D01*
X262548Y27014D01*
X262616Y27086D01*
X262645Y27139D01*
X262682Y27187D01*
X262722Y27278D01*
X262770Y27365D01*
X262785Y27423D01*
X262809Y27479D01*
X262824Y27577D01*
X262849Y27673D01*
X262855Y27773D01*
X262859Y27793D01*
X262857Y27805D01*
X262859Y27833D01*
X262859Y29893D01*
X270628Y29893D01*
X271145Y29754D01*
X271608Y29487D01*
X271987Y29108D01*
X272254Y28645D01*
X272408Y28071D01*
X272415Y27957D01*
X272428Y27919D01*
X272433Y27878D01*
X272476Y27768D01*
X272513Y27655D01*
X272535Y27620D01*
X272550Y27583D01*
X272619Y27487D01*
X272683Y27386D01*
X272713Y27358D01*
X272736Y27325D01*
X272828Y27249D01*
X272915Y27168D01*
X272950Y27148D01*
X272981Y27123D01*
X273089Y27072D01*
X273193Y27014D01*
X273233Y27004D01*
X273269Y26987D01*
X273386Y26965D01*
X273501Y26935D01*
X273561Y26931D01*
X273581Y26927D01*
X273602Y26929D01*
X273662Y26925D01*
X280058Y26925D01*
X280176Y26940D01*
X280295Y26947D01*
X280333Y26960D01*
X280374Y26965D01*
X280484Y27008D01*
X280597Y27045D01*
X280632Y27067D01*
X280669Y27082D01*
X280765Y27151D01*
X280866Y27215D01*
X280894Y27245D01*
X280927Y27268D01*
X281003Y27360D01*
X281084Y27447D01*
X281104Y27482D01*
X281129Y27513D01*
X281180Y27621D01*
X281238Y27725D01*
X281248Y27765D01*
X281265Y27801D01*
X281287Y27918D01*
X281317Y28033D01*
X281321Y28093D01*
X281325Y28113D01*
X281324Y28117D01*
X281466Y28645D01*
X281733Y29108D01*
X282112Y29487D01*
X282575Y29754D01*
X283092Y29893D01*
X290861Y29893D01*
X290861Y27833D01*
X290873Y27735D01*
X290876Y27636D01*
X290893Y27578D01*
X290901Y27518D01*
X290937Y27426D01*
X290965Y27331D01*
X290995Y27279D01*
X291018Y27222D01*
X291076Y27142D01*
X291126Y27057D01*
X291192Y26981D01*
X291204Y26965D01*
X291214Y26957D01*
X291232Y26936D01*
X293693Y24476D01*
X293776Y24411D01*
X293828Y24363D01*
X293853Y24348D01*
X293909Y24302D01*
X293928Y24293D01*
X293944Y24281D01*
X294072Y24225D01*
X294103Y24211D01*
X294106Y24209D01*
X294107Y24209D01*
X294197Y24166D01*
X294217Y24163D01*
X294236Y24155D01*
X294374Y24133D01*
X294510Y24107D01*
X294530Y24108D01*
X294550Y24105D01*
X294689Y24118D01*
X294827Y24126D01*
X294846Y24133D01*
X294866Y24135D01*
X294998Y24182D01*
X295129Y24224D01*
X295147Y24235D01*
X295166Y24242D01*
X295281Y24320D01*
X295398Y24395D01*
X295412Y24409D01*
X295429Y24421D01*
X295521Y24525D01*
X295616Y24626D01*
X295626Y24644D01*
X295639Y24659D01*
X295703Y24783D01*
X295770Y24905D01*
X295775Y24924D01*
X295784Y24942D01*
X295795Y24992D01*
X295797Y24996D01*
X295803Y25028D01*
X295814Y25078D01*
X295849Y25213D01*
X295851Y25241D01*
X295854Y25253D01*
X295853Y25273D01*
X295854Y25296D01*
X295857Y25308D01*
X295856Y25321D01*
X295859Y25373D01*
X295859Y29893D01*
X303628Y29893D01*
X304145Y29754D01*
X304165Y29742D01*
X304287Y29691D01*
X304407Y29634D01*
X304434Y29629D01*
X304458Y29619D01*
X304590Y29600D01*
X304720Y29575D01*
X304746Y29576D01*
X304773Y29572D01*
X304905Y29586D01*
X305037Y29594D01*
X305063Y29603D01*
X305089Y29606D01*
X305214Y29652D01*
X305339Y29692D01*
X305362Y29707D01*
X305388Y29716D01*
X305496Y29792D01*
X305608Y29863D01*
X305627Y29882D01*
X305649Y29898D01*
X305735Y29998D01*
X305826Y30094D01*
X305839Y30118D01*
X305857Y30138D01*
X305916Y30257D01*
X305980Y30373D01*
X305986Y30399D01*
X305998Y30423D01*
X306026Y30552D01*
X306059Y30681D01*
X306061Y30719D01*
X306065Y30734D01*
X306064Y30756D01*
X306069Y30841D01*
X306069Y40030D01*
X306052Y40168D01*
X306039Y40307D01*
X306032Y40326D01*
X306029Y40346D01*
X305978Y40475D01*
X305931Y40606D01*
X305920Y40623D01*
X305912Y40642D01*
X305831Y40754D01*
X305752Y40869D01*
X305737Y40883D01*
X305726Y40899D01*
X305618Y40988D01*
X305514Y41080D01*
X305496Y41089D01*
X305481Y41102D01*
X305355Y41161D01*
X305231Y41224D01*
X305211Y41229D01*
X305193Y41237D01*
X305057Y41263D01*
X304920Y41294D01*
X304900Y41293D01*
X304881Y41297D01*
X304742Y41288D01*
X304603Y41284D01*
X304583Y41279D01*
X304563Y41277D01*
X304431Y41234D01*
X304406Y41227D01*
X282518Y41227D01*
X281327Y42418D01*
X281327Y42926D01*
X281312Y43044D01*
X281305Y43163D01*
X281292Y43201D01*
X281287Y43242D01*
X281244Y43352D01*
X281207Y43465D01*
X281185Y43500D01*
X281170Y43537D01*
X281101Y43633D01*
X281037Y43734D01*
X281007Y43762D01*
X280984Y43795D01*
X280892Y43871D01*
X280805Y43952D01*
X280770Y43972D01*
X280739Y43997D01*
X280631Y44048D01*
X280527Y44106D01*
X280487Y44116D01*
X280451Y44133D01*
X280334Y44155D01*
X280219Y44185D01*
X280159Y44189D01*
X280139Y44193D01*
X280118Y44191D01*
X280058Y44195D01*
X273662Y44195D01*
X273544Y44180D01*
X273425Y44173D01*
X273387Y44160D01*
X273346Y44155D01*
X273236Y44112D01*
X273123Y44075D01*
X273088Y44053D01*
X273051Y44038D01*
X272955Y43969D01*
X272854Y43905D01*
X272826Y43875D01*
X272793Y43852D01*
X272717Y43760D01*
X272636Y43673D01*
X272616Y43638D01*
X272591Y43607D01*
X272540Y43499D01*
X272482Y43395D01*
X272472Y43355D01*
X272455Y43319D01*
X272433Y43202D01*
X272403Y43087D01*
X272399Y43027D01*
X272395Y43007D01*
X272397Y42986D01*
X272393Y42926D01*
X272393Y42418D01*
X271202Y41227D01*
X249518Y41227D01*
X248327Y42418D01*
X248327Y42926D01*
X248312Y43044D01*
X248305Y43163D01*
X248292Y43201D01*
X248287Y43242D01*
X248244Y43352D01*
X248207Y43465D01*
X248185Y43500D01*
X248170Y43537D01*
X248101Y43633D01*
X248037Y43734D01*
X248007Y43762D01*
X247984Y43795D01*
X247892Y43871D01*
X247805Y43952D01*
X247770Y43972D01*
X247739Y43997D01*
X247631Y44048D01*
X247527Y44106D01*
X247487Y44116D01*
X247451Y44133D01*
X247334Y44155D01*
X247219Y44185D01*
X247159Y44189D01*
X247139Y44193D01*
X247118Y44191D01*
X247058Y44195D01*
X195166Y44195D01*
X191358Y48004D01*
X191280Y48064D01*
X191208Y48132D01*
X191155Y48161D01*
X191107Y48198D01*
X191016Y48238D01*
X190929Y48286D01*
X190871Y48301D01*
X190815Y48325D01*
X190717Y48340D01*
X190621Y48365D01*
X190521Y48371D01*
X190501Y48375D01*
X190489Y48373D01*
X190461Y48375D01*
X189992Y48375D01*
X189894Y48363D01*
X189795Y48360D01*
X189736Y48343D01*
X189676Y48335D01*
X189584Y48299D01*
X189489Y48271D01*
X189437Y48241D01*
X189381Y48218D01*
X189301Y48160D01*
X189215Y48110D01*
X189140Y48044D01*
X189123Y48032D01*
X189115Y48022D01*
X189094Y48004D01*
X181464Y40374D01*
X181404Y40295D01*
X181336Y40223D01*
X181307Y40170D01*
X181270Y40122D01*
X181230Y40031D01*
X181182Y39945D01*
X181167Y39886D01*
X181143Y39831D01*
X181128Y39733D01*
X181103Y39637D01*
X181097Y39537D01*
X181093Y39517D01*
X181095Y39504D01*
X181093Y39476D01*
X181093Y33798D01*
X179902Y32607D01*
X179022Y32607D01*
X178884Y32590D01*
X178745Y32577D01*
X178726Y32570D01*
X178706Y32567D01*
X178577Y32516D01*
X178446Y32469D01*
X178429Y32458D01*
X178410Y32450D01*
X178298Y32369D01*
X178183Y32291D01*
X178170Y32275D01*
X178153Y32264D01*
X178064Y32156D01*
X177972Y32052D01*
X177963Y32034D01*
X177950Y32019D01*
X177891Y31893D01*
X177828Y31769D01*
X177823Y31749D01*
X177815Y31731D01*
X177789Y31595D01*
X177758Y31459D01*
X177759Y31438D01*
X177755Y31419D01*
X177764Y31280D01*
X177768Y31141D01*
X177773Y31121D01*
X177775Y31101D01*
X177818Y30969D01*
X177856Y30835D01*
X177867Y30818D01*
X177873Y30799D01*
X177947Y30681D01*
X178018Y30561D01*
X178036Y30540D01*
X178043Y30530D01*
X178058Y30516D01*
X178093Y30476D01*
X178093Y17788D01*
X176902Y16597D01*
X165218Y16597D01*
X164027Y17788D01*
X164027Y30472D01*
X165218Y31663D01*
X166098Y31663D01*
X166236Y31680D01*
X166375Y31693D01*
X166394Y31700D01*
X166414Y31703D01*
X166543Y31754D01*
X166674Y31801D01*
X166691Y31812D01*
X166710Y31820D01*
X166822Y31901D01*
X166937Y31979D01*
X166950Y31995D01*
X166967Y32006D01*
X167056Y32114D01*
X167148Y32218D01*
X167157Y32236D01*
X167170Y32251D01*
X167229Y32377D01*
X167292Y32501D01*
X167297Y32521D01*
X167305Y32539D01*
X167331Y32675D01*
X167362Y32811D01*
X167361Y32832D01*
X167365Y32851D01*
X167356Y32990D01*
X167352Y33129D01*
X167347Y33149D01*
X167345Y33169D01*
X167302Y33301D01*
X167264Y33435D01*
X167253Y33452D01*
X167247Y33471D01*
X167173Y33589D01*
X167102Y33709D01*
X167084Y33730D01*
X167077Y33740D01*
X167062Y33754D01*
X167027Y33794D01*
X167027Y47482D01*
X167496Y47951D01*
X167581Y48060D01*
X167670Y48167D01*
X167678Y48186D01*
X167691Y48202D01*
X167746Y48330D01*
X167805Y48455D01*
X167809Y48475D01*
X167817Y48494D01*
X167839Y48632D01*
X167865Y48768D01*
X167864Y48788D01*
X167867Y48808D01*
X167854Y48947D01*
X167845Y49085D01*
X167839Y49104D01*
X167837Y49124D01*
X167790Y49255D01*
X167747Y49387D01*
X167736Y49405D01*
X167730Y49424D01*
X167652Y49538D01*
X167577Y49656D01*
X167562Y49670D01*
X167551Y49687D01*
X167447Y49779D01*
X167345Y49874D01*
X167328Y49884D01*
X167313Y49897D01*
X167189Y49960D01*
X167067Y50028D01*
X167047Y50033D01*
X167029Y50042D01*
X166893Y50072D01*
X166759Y50107D01*
X166731Y50109D01*
X166719Y50112D01*
X166699Y50111D01*
X166598Y50117D01*
X165292Y50117D01*
X164775Y50256D01*
X164312Y50523D01*
X163933Y50902D01*
X163755Y51211D01*
X163679Y51311D01*
X163608Y51415D01*
X163583Y51437D01*
X163563Y51464D01*
X163464Y51542D01*
X163370Y51625D01*
X163340Y51641D01*
X163314Y51662D01*
X163199Y51713D01*
X163087Y51770D01*
X163054Y51777D01*
X163023Y51791D01*
X162899Y51812D01*
X162776Y51840D01*
X162743Y51839D01*
X162710Y51844D01*
X162584Y51834D01*
X162459Y51830D01*
X162426Y51821D01*
X162393Y51818D01*
X162274Y51777D01*
X162153Y51742D01*
X162124Y51724D01*
X162092Y51713D01*
X161987Y51644D01*
X161879Y51580D01*
X161842Y51548D01*
X161827Y51538D01*
X161813Y51522D01*
X161758Y51474D01*
X160402Y50117D01*
X158632Y50117D01*
X158514Y50102D01*
X158395Y50095D01*
X158357Y50082D01*
X158316Y50077D01*
X158206Y50034D01*
X158093Y49997D01*
X158058Y49975D01*
X158021Y49960D01*
X157925Y49891D01*
X157824Y49827D01*
X157796Y49797D01*
X157763Y49774D01*
X157687Y49682D01*
X157606Y49595D01*
X157586Y49560D01*
X157561Y49529D01*
X157510Y49421D01*
X157452Y49317D01*
X157442Y49277D01*
X157425Y49241D01*
X157403Y49124D01*
X157373Y49009D01*
X157369Y48949D01*
X157365Y48929D01*
X157367Y48908D01*
X157363Y48848D01*
X157363Y48738D01*
X157375Y48640D01*
X157378Y48540D01*
X157395Y48482D01*
X157403Y48422D01*
X157439Y48330D01*
X157467Y48235D01*
X157497Y48183D01*
X157520Y48126D01*
X157578Y48046D01*
X157628Y47961D01*
X157694Y47886D01*
X157706Y47869D01*
X157716Y47861D01*
X157735Y47840D01*
X158093Y47482D01*
X158093Y33789D01*
X158039Y33720D01*
X157950Y33613D01*
X157942Y33594D01*
X157929Y33578D01*
X157874Y33450D01*
X157815Y33325D01*
X157811Y33305D01*
X157803Y33286D01*
X157781Y33149D01*
X157755Y33012D01*
X157756Y32992D01*
X157753Y32972D01*
X157766Y32834D01*
X157775Y32695D01*
X157781Y32676D01*
X157783Y32656D01*
X157830Y32524D01*
X157873Y32393D01*
X157884Y32375D01*
X157890Y32356D01*
X157969Y32241D01*
X158043Y32124D01*
X158058Y32110D01*
X158069Y32093D01*
X158173Y32001D01*
X158275Y31906D01*
X158292Y31896D01*
X158307Y31883D01*
X158432Y31819D01*
X158553Y31752D01*
X158573Y31747D01*
X158591Y31738D01*
X158727Y31708D01*
X158861Y31673D01*
X158889Y31671D01*
X158901Y31668D01*
X158921Y31669D01*
X159022Y31663D01*
X159902Y31663D01*
X161093Y30472D01*
X161093Y17788D01*
X159902Y16597D01*
X148218Y16597D01*
X147027Y17788D01*
X147027Y30481D01*
X147081Y30550D01*
X147170Y30657D01*
X147178Y30676D01*
X147191Y30692D01*
X147246Y30820D01*
X147305Y30945D01*
X147309Y30965D01*
X147317Y30984D01*
X147339Y31121D01*
X147365Y31258D01*
X147364Y31278D01*
X147367Y31298D01*
X147354Y31436D01*
X147345Y31575D01*
X147339Y31594D01*
X147337Y31614D01*
X147290Y31746D01*
X147247Y31877D01*
X147236Y31895D01*
X147230Y31914D01*
X147151Y32029D01*
X147077Y32146D01*
X147062Y32160D01*
X147051Y32177D01*
X146947Y32269D01*
X146845Y32364D01*
X146828Y32374D01*
X146813Y32387D01*
X146688Y32451D01*
X146567Y32518D01*
X146547Y32523D01*
X146529Y32532D01*
X146393Y32562D01*
X146259Y32597D01*
X146231Y32599D01*
X146219Y32602D01*
X146199Y32601D01*
X146098Y32607D01*
X145218Y32607D01*
X144027Y33798D01*
X144027Y47482D01*
X145218Y48673D01*
X146098Y48673D01*
X146236Y48690D01*
X146375Y48703D01*
X146394Y48710D01*
X146414Y48713D01*
X146543Y48764D01*
X146674Y48811D01*
X146691Y48822D01*
X146710Y48830D01*
X146822Y48911D01*
X146937Y48989D01*
X146950Y49005D01*
X146967Y49016D01*
X147056Y49124D01*
X147148Y49228D01*
X147157Y49246D01*
X147170Y49261D01*
X147229Y49387D01*
X147292Y49511D01*
X147297Y49531D01*
X147305Y49549D01*
X147331Y49686D01*
X147362Y49821D01*
X147361Y49842D01*
X147365Y49861D01*
X147356Y50000D01*
X147352Y50139D01*
X147347Y50159D01*
X147345Y50179D01*
X147303Y50311D01*
X147264Y50445D01*
X147253Y50462D01*
X147247Y50481D01*
X147173Y50599D01*
X147102Y50719D01*
X147084Y50740D01*
X147077Y50750D01*
X147062Y50764D01*
X146996Y50839D01*
X146527Y51308D01*
X146527Y52746D01*
X146515Y52844D01*
X146512Y52943D01*
X146495Y53002D01*
X146487Y53062D01*
X146451Y53154D01*
X146423Y53249D01*
X146393Y53301D01*
X146370Y53357D01*
X146312Y53437D01*
X146262Y53523D01*
X146196Y53598D01*
X146184Y53615D01*
X146174Y53623D01*
X146156Y53644D01*
X140101Y59699D01*
X140022Y59759D01*
X139950Y59827D01*
X139897Y59856D01*
X139849Y59893D01*
X139758Y59933D01*
X139672Y59981D01*
X139613Y59996D01*
X139558Y60020D01*
X139460Y60035D01*
X139364Y60060D01*
X139264Y60066D01*
X139243Y60070D01*
X139231Y60068D01*
X139203Y60070D01*
X137243Y60070D01*
X135048Y60979D01*
X133369Y62658D01*
X132460Y64853D01*
X132460Y67227D01*
X133369Y69422D01*
X135048Y71101D01*
X137243Y72010D01*
X139617Y72010D01*
X141812Y71101D01*
X143491Y69422D01*
X144400Y67227D01*
X144400Y65267D01*
X144412Y65169D01*
X144415Y65070D01*
X144432Y65011D01*
X144440Y64951D01*
X144476Y64859D01*
X144504Y64764D01*
X144534Y64712D01*
X144557Y64656D01*
X144615Y64575D01*
X144665Y64490D01*
X144731Y64415D01*
X144743Y64398D01*
X144753Y64390D01*
X144771Y64369D01*
X145440Y63700D01*
X145535Y63627D01*
X145624Y63548D01*
X145660Y63530D01*
X145692Y63505D01*
X145801Y63458D01*
X145907Y63404D01*
X145946Y63395D01*
X145984Y63379D01*
X146101Y63360D01*
X146217Y63334D01*
X146258Y63335D01*
X146298Y63329D01*
X146416Y63340D01*
X146535Y63344D01*
X146574Y63355D01*
X146614Y63359D01*
X146726Y63399D01*
X146841Y63432D01*
X146876Y63453D01*
X146914Y63467D01*
X147012Y63533D01*
X147115Y63594D01*
X147160Y63634D01*
X147177Y63645D01*
X147190Y63660D01*
X147236Y63700D01*
X147718Y64183D01*
X160402Y64183D01*
X161758Y62826D01*
X161858Y62749D01*
X161953Y62667D01*
X161983Y62652D01*
X162010Y62631D01*
X162125Y62581D01*
X162238Y62525D01*
X162271Y62518D01*
X162301Y62505D01*
X162426Y62485D01*
X162549Y62459D01*
X162582Y62460D01*
X162616Y62455D01*
X162741Y62467D01*
X162866Y62472D01*
X162899Y62482D01*
X162932Y62485D01*
X163050Y62528D01*
X163171Y62564D01*
X163200Y62581D01*
X163231Y62593D01*
X163336Y62663D01*
X163443Y62728D01*
X163467Y62752D01*
X163495Y62771D01*
X163578Y62866D01*
X163666Y62955D01*
X163693Y62996D01*
X163705Y63010D01*
X163715Y63029D01*
X163755Y63089D01*
X163933Y63398D01*
X164312Y63777D01*
X164775Y64044D01*
X165292Y64183D01*
X168561Y64183D01*
X168561Y58380D01*
X168576Y58262D01*
X168583Y58143D01*
X168595Y58105D01*
X168601Y58065D01*
X168644Y57954D01*
X168681Y57841D01*
X168703Y57807D01*
X168718Y57769D01*
X168787Y57673D01*
X168851Y57572D01*
X168881Y57544D01*
X168904Y57512D01*
X168996Y57436D01*
X169083Y57354D01*
X169118Y57335D01*
X169149Y57309D01*
X169257Y57258D01*
X169361Y57201D01*
X169401Y57191D01*
X169437Y57173D01*
X169554Y57151D01*
X169669Y57121D01*
X169729Y57117D01*
X169749Y57114D01*
X169770Y57115D01*
X169830Y57111D01*
X171021Y57111D01*
X171021Y55920D01*
X171036Y55802D01*
X171043Y55683D01*
X171056Y55645D01*
X171061Y55604D01*
X171105Y55494D01*
X171141Y55381D01*
X171163Y55346D01*
X171178Y55309D01*
X171248Y55212D01*
X171311Y55112D01*
X171341Y55084D01*
X171365Y55051D01*
X171456Y54975D01*
X171543Y54894D01*
X171578Y54874D01*
X171610Y54849D01*
X171717Y54798D01*
X171822Y54740D01*
X171861Y54730D01*
X171897Y54713D01*
X172014Y54691D01*
X172130Y54661D01*
X172190Y54657D01*
X172210Y54653D01*
X172230Y54655D01*
X172290Y54651D01*
X178593Y54651D01*
X178593Y51882D01*
X178454Y51365D01*
X178187Y50902D01*
X178124Y50840D01*
X178039Y50730D01*
X177950Y50623D01*
X177942Y50604D01*
X177929Y50588D01*
X177874Y50460D01*
X177815Y50335D01*
X177811Y50315D01*
X177803Y50296D01*
X177781Y50159D01*
X177755Y50022D01*
X177756Y50002D01*
X177753Y49982D01*
X177766Y49844D01*
X177775Y49705D01*
X177781Y49686D01*
X177783Y49666D01*
X177830Y49535D01*
X177873Y49403D01*
X177884Y49385D01*
X177890Y49366D01*
X177968Y49252D01*
X178043Y49134D01*
X178058Y49120D01*
X178069Y49103D01*
X178173Y49011D01*
X178275Y48916D01*
X178292Y48906D01*
X178307Y48893D01*
X178432Y48829D01*
X178553Y48762D01*
X178573Y48757D01*
X178591Y48748D01*
X178727Y48718D01*
X178861Y48683D01*
X178889Y48681D01*
X178901Y48678D01*
X178921Y48679D01*
X179022Y48673D01*
X179896Y48673D01*
X179994Y48685D01*
X180093Y48688D01*
X180152Y48705D01*
X180212Y48713D01*
X180304Y48749D01*
X180399Y48777D01*
X180451Y48807D01*
X180507Y48830D01*
X180587Y48888D01*
X180673Y48938D01*
X180748Y49004D01*
X180765Y49016D01*
X180773Y49026D01*
X180794Y49044D01*
X184424Y52674D01*
X184484Y52753D01*
X184552Y52825D01*
X184581Y52878D01*
X184618Y52926D01*
X184658Y53017D01*
X184706Y53103D01*
X184721Y53162D01*
X184745Y53217D01*
X184760Y53315D01*
X184785Y53411D01*
X184791Y53511D01*
X184795Y53531D01*
X184793Y53544D01*
X184795Y53572D01*
X184795Y55532D01*
X185704Y57727D01*
X187383Y59406D01*
X189578Y60315D01*
X191538Y60315D01*
X191636Y60327D01*
X191735Y60330D01*
X191794Y60347D01*
X191854Y60355D01*
X191946Y60391D01*
X192041Y60419D01*
X192093Y60449D01*
X192149Y60472D01*
X192229Y60530D01*
X192315Y60580D01*
X192390Y60646D01*
X192407Y60658D01*
X192415Y60668D01*
X192436Y60686D01*
X197550Y65801D01*
X197623Y65895D01*
X197702Y65984D01*
X197720Y66020D01*
X197745Y66052D01*
X197792Y66161D01*
X197846Y66267D01*
X197855Y66307D01*
X197871Y66344D01*
X197890Y66461D01*
X197916Y66578D01*
X197915Y66618D01*
X197921Y66658D01*
X197910Y66776D01*
X197906Y66895D01*
X197895Y66934D01*
X197891Y66974D01*
X197851Y67086D01*
X197827Y67168D01*
X197827Y80002D01*
X199018Y81193D01*
X200288Y81193D01*
X200406Y81208D01*
X200525Y81215D01*
X200563Y81228D01*
X200604Y81233D01*
X200714Y81276D01*
X200827Y81313D01*
X200862Y81335D01*
X200899Y81350D01*
X200995Y81419D01*
X201096Y81483D01*
X201124Y81513D01*
X201157Y81536D01*
X201233Y81628D01*
X201314Y81715D01*
X201334Y81750D01*
X201359Y81781D01*
X201410Y81889D01*
X201468Y81993D01*
X201478Y82033D01*
X201495Y82069D01*
X201517Y82186D01*
X201547Y82301D01*
X201551Y82361D01*
X201555Y82381D01*
X201553Y82402D01*
X201557Y82462D01*
X201557Y90258D01*
X201542Y90376D01*
X201535Y90495D01*
X201522Y90533D01*
X201517Y90574D01*
X201474Y90684D01*
X201437Y90797D01*
X201415Y90832D01*
X201400Y90869D01*
X201331Y90965D01*
X201267Y91066D01*
X201237Y91094D01*
X201214Y91127D01*
X201122Y91203D01*
X201035Y91284D01*
X201000Y91304D01*
X200969Y91329D01*
X200861Y91380D01*
X200757Y91438D01*
X200717Y91448D01*
X200681Y91465D01*
X200564Y91487D01*
X200449Y91517D01*
X200389Y91521D01*
X200369Y91525D01*
X200348Y91523D01*
X200288Y91527D01*
X199018Y91527D01*
X197827Y92718D01*
X197827Y105402D01*
X199018Y106593D01*
X210702Y106593D01*
X211893Y105402D01*
X211893Y92718D01*
X210702Y91527D01*
X209432Y91527D01*
X209314Y91512D01*
X209195Y91505D01*
X209157Y91492D01*
X209116Y91487D01*
X209006Y91444D01*
X208893Y91407D01*
X208858Y91385D01*
X208821Y91370D01*
X208725Y91301D01*
X208624Y91237D01*
X208596Y91207D01*
X208563Y91184D01*
X208487Y91092D01*
X208406Y91005D01*
X208386Y90970D01*
X208361Y90939D01*
X208310Y90831D01*
X208252Y90727D01*
X208242Y90687D01*
X208225Y90651D01*
X208203Y90534D01*
X208173Y90419D01*
X208169Y90359D01*
X208165Y90339D01*
X208167Y90318D01*
X208163Y90258D01*
X208163Y82462D01*
X208178Y82344D01*
X208185Y82225D01*
X208198Y82187D01*
X208203Y82146D01*
X208246Y82036D01*
X208283Y81923D01*
X208305Y81888D01*
X208320Y81851D01*
X208389Y81755D01*
X208453Y81654D01*
X208483Y81626D01*
X208506Y81593D01*
X208598Y81517D01*
X208685Y81436D01*
X208720Y81416D01*
X208751Y81391D01*
X208859Y81340D01*
X208963Y81282D01*
X209003Y81272D01*
X209039Y81255D01*
X209156Y81233D01*
X209271Y81203D01*
X209331Y81199D01*
X209351Y81195D01*
X209372Y81197D01*
X209432Y81193D01*
X210702Y81193D01*
X211893Y80002D01*
X211893Y67318D01*
X210702Y66127D01*
X207744Y66127D01*
X207646Y66115D01*
X207547Y66112D01*
X207488Y66095D01*
X207428Y66087D01*
X207336Y66051D01*
X207241Y66023D01*
X207189Y65993D01*
X207133Y65970D01*
X207053Y65912D01*
X206967Y65862D01*
X206892Y65796D01*
X206875Y65784D01*
X206867Y65774D01*
X206846Y65756D01*
X197106Y56016D01*
X197046Y55937D01*
X196978Y55865D01*
X196949Y55812D01*
X196912Y55764D01*
X196872Y55673D01*
X196824Y55587D01*
X196809Y55528D01*
X196785Y55473D01*
X196770Y55375D01*
X196745Y55279D01*
X196739Y55179D01*
X196735Y55158D01*
X196737Y55146D01*
X196735Y55118D01*
X196735Y54649D01*
X196747Y54551D01*
X196750Y54452D01*
X196767Y54394D01*
X196775Y54334D01*
X196811Y54242D01*
X196839Y54147D01*
X196869Y54095D01*
X196892Y54038D01*
X196950Y53958D01*
X197000Y53873D01*
X197066Y53797D01*
X197078Y53781D01*
X197088Y53773D01*
X197106Y53752D01*
X198162Y52696D01*
X198240Y52636D01*
X198312Y52568D01*
X198365Y52539D01*
X198413Y52502D01*
X198504Y52462D01*
X198591Y52414D01*
X198649Y52399D01*
X198705Y52375D01*
X198803Y52360D01*
X198899Y52335D01*
X198999Y52329D01*
X199019Y52325D01*
X199031Y52327D01*
X199059Y52325D01*
X247058Y52325D01*
X247176Y52340D01*
X247295Y52347D01*
X247333Y52360D01*
X247374Y52365D01*
X247484Y52408D01*
X247597Y52445D01*
X247632Y52467D01*
X247669Y52482D01*
X247765Y52551D01*
X247866Y52615D01*
X247894Y52645D01*
X247927Y52668D01*
X248003Y52760D01*
X248084Y52847D01*
X248104Y52882D01*
X248129Y52913D01*
X248180Y53021D01*
X248238Y53125D01*
X248248Y53165D01*
X248265Y53201D01*
X248287Y53318D01*
X248317Y53433D01*
X248321Y53493D01*
X248325Y53513D01*
X248323Y53534D01*
X248327Y53594D01*
X248327Y54102D01*
X249518Y55293D01*
X271202Y55293D01*
X272393Y54102D01*
X272393Y53594D01*
X272408Y53476D01*
X272415Y53357D01*
X272428Y53319D01*
X272433Y53278D01*
X272476Y53168D01*
X272513Y53055D01*
X272535Y53020D01*
X272550Y52983D01*
X272619Y52887D01*
X272683Y52786D01*
X272713Y52758D01*
X272736Y52725D01*
X272828Y52649D01*
X272915Y52568D01*
X272950Y52548D01*
X272981Y52523D01*
X273089Y52472D01*
X273193Y52414D01*
X273233Y52404D01*
X273269Y52387D01*
X273386Y52365D01*
X273501Y52335D01*
X273561Y52331D01*
X273581Y52327D01*
X273602Y52329D01*
X273662Y52325D01*
X280058Y52325D01*
X280176Y52340D01*
X280295Y52347D01*
X280333Y52360D01*
X280374Y52365D01*
X280484Y52408D01*
X280597Y52445D01*
X280632Y52467D01*
X280669Y52482D01*
X280765Y52551D01*
X280866Y52615D01*
X280894Y52645D01*
X280927Y52668D01*
X281003Y52760D01*
X281084Y52847D01*
X281104Y52882D01*
X281129Y52913D01*
X281180Y53021D01*
X281238Y53125D01*
X281248Y53165D01*
X281265Y53201D01*
X281287Y53318D01*
X281317Y53433D01*
X281321Y53493D01*
X281325Y53513D01*
X281323Y53534D01*
X281327Y53594D01*
X281327Y54102D01*
X282518Y55293D01*
X304386Y55293D01*
X304407Y55283D01*
X304427Y55279D01*
X304445Y55271D01*
X304583Y55249D01*
X304720Y55223D01*
X304740Y55224D01*
X304759Y55221D01*
X304898Y55234D01*
X305037Y55243D01*
X305056Y55249D01*
X305076Y55251D01*
X305207Y55298D01*
X305339Y55341D01*
X305356Y55352D01*
X305375Y55358D01*
X305490Y55436D01*
X305608Y55511D01*
X305622Y55526D01*
X305639Y55537D01*
X305731Y55641D01*
X305826Y55743D01*
X305836Y55760D01*
X305849Y55775D01*
X305912Y55899D01*
X305980Y56021D01*
X305985Y56041D01*
X305994Y56058D01*
X306024Y56194D01*
X306059Y56329D01*
X306061Y56357D01*
X306063Y56369D01*
X306063Y56389D01*
X306069Y56490D01*
X306069Y65430D01*
X306052Y65568D01*
X306039Y65707D01*
X306032Y65726D01*
X306029Y65746D01*
X305978Y65875D01*
X305931Y66006D01*
X305920Y66023D01*
X305912Y66042D01*
X305831Y66154D01*
X305752Y66269D01*
X305737Y66283D01*
X305726Y66299D01*
X305618Y66388D01*
X305514Y66480D01*
X305496Y66489D01*
X305481Y66502D01*
X305355Y66561D01*
X305231Y66624D01*
X305211Y66629D01*
X305193Y66637D01*
X305057Y66663D01*
X304920Y66694D01*
X304900Y66693D01*
X304881Y66697D01*
X304742Y66688D01*
X304603Y66684D01*
X304583Y66679D01*
X304563Y66677D01*
X304431Y66634D01*
X304406Y66627D01*
X282518Y66627D01*
X281327Y67818D01*
X281327Y68326D01*
X281312Y68444D01*
X281305Y68563D01*
X281292Y68601D01*
X281287Y68642D01*
X281244Y68752D01*
X281207Y68865D01*
X281185Y68900D01*
X281170Y68937D01*
X281101Y69033D01*
X281037Y69134D01*
X281007Y69162D01*
X280984Y69195D01*
X280892Y69271D01*
X280805Y69352D01*
X280770Y69372D01*
X280739Y69397D01*
X280631Y69448D01*
X280527Y69506D01*
X280487Y69516D01*
X280451Y69533D01*
X280334Y69555D01*
X280219Y69585D01*
X280159Y69589D01*
X280139Y69593D01*
X280118Y69591D01*
X280058Y69595D01*
X273662Y69595D01*
X273544Y69580D01*
X273425Y69573D01*
X273387Y69560D01*
X273346Y69555D01*
X273236Y69512D01*
X273123Y69475D01*
X273088Y69453D01*
X273051Y69438D01*
X272955Y69369D01*
X272854Y69305D01*
X272826Y69275D01*
X272793Y69252D01*
X272717Y69160D01*
X272636Y69073D01*
X272616Y69038D01*
X272591Y69007D01*
X272540Y68899D01*
X272482Y68795D01*
X272472Y68755D01*
X272455Y68719D01*
X272433Y68602D01*
X272403Y68487D01*
X272399Y68427D01*
X272395Y68407D01*
X272397Y68386D01*
X272393Y68326D01*
X272393Y67818D01*
X271202Y66627D01*
X249518Y66627D01*
X248327Y67818D01*
X248327Y69088D01*
X248312Y69206D01*
X248305Y69325D01*
X248292Y69363D01*
X248287Y69404D01*
X248244Y69514D01*
X248207Y69627D01*
X248185Y69662D01*
X248170Y69699D01*
X248101Y69795D01*
X248037Y69896D01*
X248007Y69924D01*
X247984Y69957D01*
X247892Y70033D01*
X247805Y70114D01*
X247770Y70134D01*
X247739Y70159D01*
X247631Y70210D01*
X247527Y70268D01*
X247487Y70278D01*
X247451Y70295D01*
X247334Y70317D01*
X247219Y70347D01*
X247159Y70351D01*
X247139Y70355D01*
X247118Y70353D01*
X247058Y70357D01*
X244425Y70357D01*
X244327Y70345D01*
X244228Y70342D01*
X244170Y70325D01*
X244110Y70317D01*
X244018Y70281D01*
X243923Y70253D01*
X243871Y70223D01*
X243814Y70200D01*
X243734Y70142D01*
X243649Y70092D01*
X243573Y70026D01*
X243557Y70014D01*
X243549Y70004D01*
X243528Y69986D01*
X242142Y68599D01*
X239947Y67690D01*
X237573Y67690D01*
X235378Y68599D01*
X233992Y69986D01*
X233914Y70046D01*
X233842Y70114D01*
X233789Y70143D01*
X233741Y70180D01*
X233650Y70220D01*
X233563Y70268D01*
X233505Y70283D01*
X233449Y70307D01*
X233351Y70322D01*
X233255Y70347D01*
X233155Y70353D01*
X233135Y70357D01*
X233123Y70355D01*
X233095Y70357D01*
X230162Y70357D01*
X230044Y70342D01*
X229925Y70335D01*
X229887Y70322D01*
X229846Y70317D01*
X229736Y70274D01*
X229623Y70237D01*
X229588Y70215D01*
X229551Y70200D01*
X229455Y70131D01*
X229354Y70067D01*
X229326Y70037D01*
X229293Y70014D01*
X229217Y69922D01*
X229136Y69835D01*
X229116Y69800D01*
X229091Y69769D01*
X229040Y69661D01*
X228982Y69557D01*
X228972Y69517D01*
X228955Y69481D01*
X228933Y69364D01*
X228903Y69249D01*
X228899Y69189D01*
X228895Y69169D01*
X228897Y69148D01*
X228893Y69088D01*
X228893Y67318D01*
X227702Y66127D01*
X216018Y66127D01*
X214827Y67318D01*
X214827Y80002D01*
X216018Y81193D01*
X227702Y81193D01*
X228893Y80002D01*
X228893Y78232D01*
X228908Y78114D01*
X228915Y77995D01*
X228928Y77957D01*
X228933Y77916D01*
X228976Y77806D01*
X229013Y77693D01*
X229035Y77658D01*
X229050Y77621D01*
X229119Y77525D01*
X229183Y77424D01*
X229213Y77396D01*
X229236Y77363D01*
X229328Y77287D01*
X229415Y77206D01*
X229450Y77186D01*
X229481Y77161D01*
X229589Y77110D01*
X229693Y77052D01*
X229733Y77042D01*
X229769Y77025D01*
X229886Y77003D01*
X230001Y76973D01*
X230061Y76969D01*
X230081Y76965D01*
X230102Y76967D01*
X230162Y76963D01*
X233095Y76963D01*
X233193Y76975D01*
X233292Y76978D01*
X233350Y76995D01*
X233410Y77003D01*
X233502Y77039D01*
X233597Y77067D01*
X233649Y77097D01*
X233706Y77120D01*
X233786Y77178D01*
X233871Y77228D01*
X233947Y77294D01*
X233963Y77306D01*
X233971Y77316D01*
X233992Y77334D01*
X235378Y78721D01*
X237573Y79630D01*
X239947Y79630D01*
X242142Y78721D01*
X243528Y77334D01*
X243606Y77274D01*
X243678Y77206D01*
X243731Y77177D01*
X243779Y77140D01*
X243870Y77100D01*
X243957Y77052D01*
X244015Y77037D01*
X244071Y77013D01*
X244169Y76998D01*
X244265Y76973D01*
X244365Y76967D01*
X244385Y76963D01*
X244397Y76965D01*
X244425Y76963D01*
X247058Y76963D01*
X247176Y76978D01*
X247295Y76985D01*
X247333Y76998D01*
X247374Y77003D01*
X247484Y77046D01*
X247597Y77083D01*
X247632Y77105D01*
X247669Y77120D01*
X247765Y77189D01*
X247866Y77253D01*
X247894Y77283D01*
X247927Y77306D01*
X248003Y77398D01*
X248084Y77485D01*
X248104Y77520D01*
X248129Y77551D01*
X248180Y77659D01*
X248238Y77763D01*
X248248Y77803D01*
X248265Y77839D01*
X248287Y77956D01*
X248317Y78071D01*
X248321Y78131D01*
X248325Y78151D01*
X248323Y78172D01*
X248327Y78232D01*
X248327Y79502D01*
X249518Y80693D01*
X271202Y80693D01*
X272393Y79502D01*
X272393Y78994D01*
X272408Y78876D01*
X272415Y78757D01*
X272428Y78719D01*
X272433Y78678D01*
X272476Y78568D01*
X272513Y78455D01*
X272535Y78420D01*
X272550Y78383D01*
X272619Y78287D01*
X272683Y78186D01*
X272713Y78158D01*
X272736Y78125D01*
X272828Y78049D01*
X272915Y77968D01*
X272950Y77948D01*
X272981Y77923D01*
X273089Y77872D01*
X273193Y77814D01*
X273233Y77804D01*
X273269Y77787D01*
X273386Y77765D01*
X273501Y77735D01*
X273561Y77731D01*
X273581Y77727D01*
X273602Y77729D01*
X273662Y77725D01*
X280058Y77725D01*
X280176Y77740D01*
X280295Y77747D01*
X280333Y77760D01*
X280374Y77765D01*
X280484Y77808D01*
X280597Y77845D01*
X280632Y77867D01*
X280669Y77882D01*
X280765Y77951D01*
X280866Y78015D01*
X280894Y78045D01*
X280927Y78068D01*
X281003Y78160D01*
X281084Y78247D01*
X281104Y78282D01*
X281129Y78313D01*
X281180Y78421D01*
X281238Y78525D01*
X281248Y78565D01*
X281265Y78601D01*
X281287Y78718D01*
X281317Y78833D01*
X281321Y78893D01*
X281325Y78913D01*
X281323Y78934D01*
X281327Y78994D01*
X281327Y79502D01*
X282518Y80693D01*
X304386Y80693D01*
X304407Y80683D01*
X304427Y80679D01*
X304445Y80671D01*
X304583Y80649D01*
X304720Y80623D01*
X304740Y80624D01*
X304759Y80621D01*
X304898Y80634D01*
X305037Y80643D01*
X305056Y80649D01*
X305076Y80651D01*
X305207Y80698D01*
X305339Y80741D01*
X305356Y80752D01*
X305375Y80758D01*
X305490Y80836D01*
X305608Y80911D01*
X305622Y80926D01*
X305639Y80937D01*
X305731Y81041D01*
X305826Y81143D01*
X305836Y81160D01*
X305849Y81175D01*
X305912Y81299D01*
X305980Y81421D01*
X305985Y81441D01*
X305994Y81458D01*
X306024Y81593D01*
X306059Y81729D01*
X306061Y81757D01*
X306063Y81769D01*
X306063Y81789D01*
X306069Y81890D01*
X306069Y90830D01*
X306052Y90968D01*
X306039Y91107D01*
X306032Y91126D01*
X306029Y91146D01*
X305978Y91275D01*
X305931Y91406D01*
X305920Y91423D01*
X305912Y91442D01*
X305831Y91554D01*
X305752Y91669D01*
X305737Y91683D01*
X305726Y91699D01*
X305618Y91788D01*
X305514Y91880D01*
X305496Y91889D01*
X305481Y91902D01*
X305355Y91961D01*
X305231Y92024D01*
X305211Y92029D01*
X305193Y92037D01*
X305057Y92063D01*
X304920Y92094D01*
X304900Y92093D01*
X304881Y92097D01*
X304742Y92088D01*
X304603Y92084D01*
X304583Y92079D01*
X304563Y92077D01*
X304431Y92034D01*
X304406Y92027D01*
X282518Y92027D01*
X281327Y93218D01*
X281327Y93726D01*
X281312Y93844D01*
X281305Y93963D01*
X281292Y94001D01*
X281287Y94042D01*
X281244Y94152D01*
X281207Y94265D01*
X281185Y94300D01*
X281170Y94337D01*
X281101Y94433D01*
X281037Y94534D01*
X281007Y94562D01*
X280984Y94595D01*
X280892Y94671D01*
X280805Y94752D01*
X280770Y94772D01*
X280739Y94797D01*
X280631Y94848D01*
X280527Y94906D01*
X280487Y94916D01*
X280451Y94933D01*
X280334Y94955D01*
X280219Y94985D01*
X280159Y94989D01*
X280139Y94993D01*
X280118Y94991D01*
X280058Y94995D01*
X273662Y94995D01*
X273544Y94980D01*
X273425Y94973D01*
X273387Y94960D01*
X273346Y94955D01*
X273236Y94912D01*
X273123Y94875D01*
X273088Y94853D01*
X273051Y94838D01*
X272955Y94769D01*
X272854Y94705D01*
X272826Y94675D01*
X272793Y94652D01*
X272717Y94560D01*
X272636Y94473D01*
X272616Y94438D01*
X272591Y94407D01*
X272540Y94299D01*
X272482Y94195D01*
X272472Y94155D01*
X272455Y94119D01*
X272433Y94002D01*
X272403Y93887D01*
X272399Y93827D01*
X272395Y93807D01*
X272397Y93786D01*
X272393Y93726D01*
X272393Y93218D01*
X271202Y92027D01*
X249518Y92027D01*
X248327Y93218D01*
X248327Y94488D01*
X248312Y94606D01*
X248305Y94725D01*
X248292Y94763D01*
X248287Y94804D01*
X248244Y94914D01*
X248207Y95027D01*
X248185Y95062D01*
X248170Y95099D01*
X248101Y95195D01*
X248037Y95296D01*
X248007Y95324D01*
X247984Y95357D01*
X247892Y95433D01*
X247805Y95514D01*
X247770Y95534D01*
X247739Y95559D01*
X247631Y95610D01*
X247527Y95668D01*
X247487Y95678D01*
X247451Y95695D01*
X247334Y95717D01*
X247219Y95747D01*
X247159Y95751D01*
X247139Y95755D01*
X247118Y95753D01*
X247058Y95757D01*
X244425Y95757D01*
X244327Y95745D01*
X244228Y95742D01*
X244170Y95725D01*
X244110Y95717D01*
X244018Y95681D01*
X243923Y95653D01*
X243871Y95623D01*
X243814Y95600D01*
X243734Y95542D01*
X243649Y95492D01*
X243573Y95426D01*
X243557Y95414D01*
X243549Y95404D01*
X243528Y95386D01*
X242142Y93999D01*
X239947Y93090D01*
X237573Y93090D01*
X235378Y93999D01*
X233992Y95386D01*
X233914Y95446D01*
X233842Y95514D01*
X233789Y95543D01*
X233741Y95580D01*
X233650Y95620D01*
X233563Y95668D01*
X233505Y95683D01*
X233449Y95707D01*
X233351Y95722D01*
X233255Y95747D01*
X233155Y95753D01*
X233135Y95757D01*
X233123Y95755D01*
X233095Y95757D01*
X230162Y95757D01*
X230044Y95742D01*
X229925Y95735D01*
X229887Y95722D01*
X229846Y95717D01*
X229736Y95674D01*
X229623Y95637D01*
X229588Y95615D01*
X229551Y95600D01*
X229455Y95531D01*
X229354Y95467D01*
X229326Y95437D01*
X229293Y95414D01*
X229217Y95322D01*
X229136Y95235D01*
X229116Y95200D01*
X229091Y95169D01*
X229040Y95061D01*
X228982Y94957D01*
X228972Y94917D01*
X228955Y94881D01*
X228933Y94764D01*
X228903Y94649D01*
X228899Y94589D01*
X228895Y94569D01*
X228897Y94548D01*
X228893Y94488D01*
X228893Y92718D01*
X227702Y91527D01*
X216018Y91527D01*
X214827Y92718D01*
X214827Y105402D01*
X216018Y106593D01*
X227702Y106593D01*
X228893Y105402D01*
X228893Y103632D01*
X228908Y103514D01*
X228915Y103395D01*
X228928Y103357D01*
X228933Y103316D01*
X228976Y103206D01*
X229013Y103093D01*
X229035Y103058D01*
X229050Y103021D01*
X229119Y102925D01*
X229183Y102824D01*
X229213Y102796D01*
X229236Y102763D01*
X229328Y102687D01*
X229415Y102606D01*
X229450Y102586D01*
X229481Y102561D01*
X229589Y102510D01*
X229693Y102452D01*
X229733Y102442D01*
X229769Y102425D01*
X229886Y102403D01*
X230001Y102373D01*
X230061Y102369D01*
X230081Y102365D01*
X230102Y102367D01*
X230162Y102363D01*
X233095Y102363D01*
X233193Y102375D01*
X233292Y102378D01*
X233350Y102395D01*
X233410Y102403D01*
X233502Y102439D01*
X233597Y102467D01*
X233649Y102497D01*
X233706Y102520D01*
X233786Y102578D01*
X233871Y102628D01*
X233947Y102694D01*
X233963Y102706D01*
X233971Y102716D01*
X233992Y102734D01*
X235378Y104121D01*
X237573Y105030D01*
X239947Y105030D01*
X242142Y104121D01*
X243528Y102734D01*
X243606Y102674D01*
X243678Y102606D01*
X243731Y102577D01*
X243779Y102540D01*
X243870Y102500D01*
X243957Y102452D01*
X244015Y102437D01*
X244071Y102413D01*
X244169Y102398D01*
X244265Y102373D01*
X244365Y102367D01*
X244385Y102363D01*
X244397Y102365D01*
X244425Y102363D01*
X247058Y102363D01*
X247176Y102378D01*
X247295Y102385D01*
X247333Y102398D01*
X247374Y102403D01*
X247484Y102446D01*
X247597Y102483D01*
X247632Y102505D01*
X247669Y102520D01*
X247765Y102589D01*
X247866Y102653D01*
X247894Y102683D01*
X247927Y102706D01*
X248003Y102798D01*
X248084Y102885D01*
X248104Y102920D01*
X248129Y102951D01*
X248180Y103059D01*
X248238Y103163D01*
X248248Y103203D01*
X248265Y103239D01*
X248287Y103356D01*
X248317Y103471D01*
X248321Y103531D01*
X248325Y103551D01*
X248323Y103572D01*
X248327Y103632D01*
X248327Y104902D01*
X249518Y106093D01*
X271202Y106093D01*
X272393Y104902D01*
X272393Y104394D01*
X272408Y104276D01*
X272415Y104157D01*
X272428Y104119D01*
X272433Y104078D01*
X272476Y103968D01*
X272513Y103855D01*
X272535Y103820D01*
X272550Y103783D01*
X272619Y103687D01*
X272683Y103586D01*
X272713Y103558D01*
X272736Y103525D01*
X272828Y103449D01*
X272915Y103368D01*
X272950Y103348D01*
X272981Y103323D01*
X273089Y103272D01*
X273193Y103214D01*
X273233Y103204D01*
X273269Y103187D01*
X273386Y103165D01*
X273501Y103135D01*
X273561Y103131D01*
X273581Y103127D01*
X273602Y103129D01*
X273662Y103125D01*
X280058Y103125D01*
X280176Y103140D01*
X280295Y103147D01*
X280333Y103160D01*
X280374Y103165D01*
X280484Y103208D01*
X280597Y103245D01*
X280632Y103267D01*
X280669Y103282D01*
X280765Y103351D01*
X280866Y103415D01*
X280894Y103445D01*
X280927Y103468D01*
X281003Y103560D01*
X281084Y103647D01*
X281104Y103682D01*
X281129Y103713D01*
X281180Y103821D01*
X281238Y103925D01*
X281248Y103965D01*
X281265Y104001D01*
X281287Y104118D01*
X281317Y104233D01*
X281321Y104293D01*
X281325Y104313D01*
X281323Y104334D01*
X281327Y104394D01*
X281327Y104902D01*
X282518Y106093D01*
X304386Y106093D01*
X304407Y106083D01*
X304427Y106079D01*
X304445Y106071D01*
X304583Y106049D01*
X304720Y106023D01*
X304740Y106024D01*
X304759Y106021D01*
X304898Y106034D01*
X305037Y106043D01*
X305056Y106049D01*
X305076Y106051D01*
X305207Y106098D01*
X305339Y106141D01*
X305356Y106152D01*
X305375Y106158D01*
X305490Y106236D01*
X305608Y106311D01*
X305622Y106326D01*
X305639Y106337D01*
X305731Y106441D01*
X305826Y106543D01*
X305836Y106560D01*
X305849Y106575D01*
X305912Y106699D01*
X305980Y106821D01*
X305985Y106841D01*
X305994Y106858D01*
X306024Y106994D01*
X306059Y107129D01*
X306061Y107157D01*
X306063Y107169D01*
X306063Y107189D01*
X306069Y107290D01*
X306069Y112930D01*
X306054Y113048D01*
X306047Y113167D01*
X306034Y113205D01*
X306029Y113246D01*
X305986Y113356D01*
X305949Y113469D01*
X305927Y113504D01*
X305912Y113541D01*
X305843Y113637D01*
X305779Y113738D01*
X305749Y113766D01*
X305726Y113799D01*
X305634Y113875D01*
X305547Y113956D01*
X305512Y113976D01*
X305481Y114001D01*
X305373Y114052D01*
X305269Y114110D01*
X305229Y114120D01*
X305193Y114137D01*
X305076Y114159D01*
X304961Y114189D01*
X304901Y114193D01*
X304881Y114197D01*
X304860Y114195D01*
X304800Y114199D01*
X128844Y114199D01*
X128719Y114184D01*
X128593Y114174D01*
X128561Y114164D01*
X128528Y114159D01*
X128411Y114113D01*
X128292Y114073D01*
X128264Y114055D01*
X128232Y114042D01*
X128131Y113969D01*
X128025Y113900D01*
X128002Y113875D01*
X127975Y113856D01*
X127895Y113759D01*
X127810Y113666D01*
X127794Y113637D01*
X127772Y113611D01*
X127719Y113497D01*
X127659Y113386D01*
X127651Y113353D01*
X127637Y113323D01*
X127613Y113199D01*
X127583Y113077D01*
X127583Y113044D01*
X127577Y113011D01*
X127585Y112885D01*
X127586Y112759D01*
X127595Y112711D01*
X127597Y112693D01*
X127603Y112673D01*
X127618Y112601D01*
X127793Y111948D01*
X127793Y109179D01*
X121490Y109179D01*
X121372Y109164D01*
X121253Y109157D01*
X121215Y109144D01*
X121175Y109139D01*
X121064Y109096D01*
X120951Y109059D01*
X120917Y109037D01*
X120879Y109022D01*
X120783Y108953D01*
X120682Y108889D01*
X120654Y108859D01*
X120622Y108836D01*
X120546Y108744D01*
X120464Y108657D01*
X120445Y108622D01*
X120419Y108591D01*
X120368Y108483D01*
X120311Y108379D01*
X120301Y108339D01*
X120283Y108303D01*
X120261Y108186D01*
X120231Y108071D01*
X120227Y108011D01*
X120224Y107991D01*
X120224Y107975D01*
X120224Y107970D01*
X120224Y107960D01*
X120221Y107910D01*
X120221Y106719D01*
X119030Y106719D01*
X118912Y106704D01*
X118793Y106697D01*
X118755Y106684D01*
X118714Y106679D01*
X118604Y106635D01*
X118491Y106599D01*
X118456Y106577D01*
X118419Y106562D01*
X118322Y106492D01*
X118222Y106429D01*
X118194Y106399D01*
X118161Y106375D01*
X118085Y106284D01*
X118004Y106197D01*
X117984Y106162D01*
X117959Y106130D01*
X117908Y106023D01*
X117850Y105918D01*
X117840Y105879D01*
X117823Y105843D01*
X117801Y105726D01*
X117771Y105610D01*
X117767Y105550D01*
X117763Y105530D01*
X117765Y105510D01*
X117761Y105450D01*
X117761Y92670D01*
X117776Y92552D01*
X117783Y92433D01*
X117795Y92395D01*
X117801Y92355D01*
X117844Y92244D01*
X117881Y92131D01*
X117903Y92097D01*
X117918Y92059D01*
X117987Y91963D01*
X118051Y91862D01*
X118081Y91834D01*
X118104Y91802D01*
X118196Y91726D01*
X118283Y91644D01*
X118318Y91625D01*
X118349Y91599D01*
X118457Y91548D01*
X118561Y91491D01*
X118601Y91481D01*
X118637Y91463D01*
X118744Y91443D01*
X118714Y91439D01*
X118604Y91395D01*
X118491Y91359D01*
X118456Y91337D01*
X118419Y91322D01*
X118322Y91252D01*
X118222Y91189D01*
X118194Y91159D01*
X118161Y91135D01*
X118085Y91043D01*
X118004Y90957D01*
X117984Y90922D01*
X117959Y90890D01*
X117908Y90783D01*
X117850Y90678D01*
X117840Y90639D01*
X117823Y90603D01*
X117801Y90486D01*
X117771Y90370D01*
X117767Y90310D01*
X117763Y90290D01*
X117765Y90270D01*
X117761Y90210D01*
X117761Y78699D01*
X113227Y78699D01*
X113227Y81968D01*
X113366Y82485D01*
X113650Y82977D01*
X113681Y83017D01*
X113760Y83106D01*
X113778Y83142D01*
X113803Y83174D01*
X113850Y83283D01*
X113904Y83389D01*
X113913Y83428D01*
X113929Y83465D01*
X113948Y83583D01*
X113974Y83699D01*
X113973Y83740D01*
X113979Y83779D01*
X113968Y83898D01*
X113964Y84017D01*
X113953Y84056D01*
X113949Y84096D01*
X113909Y84208D01*
X113876Y84323D01*
X113855Y84357D01*
X113842Y84395D01*
X113775Y84494D01*
X113714Y84597D01*
X113674Y84642D01*
X113663Y84659D01*
X113648Y84672D01*
X113608Y84717D01*
X113133Y85192D01*
X112955Y85501D01*
X112879Y85601D01*
X112808Y85705D01*
X112783Y85727D01*
X112763Y85754D01*
X112664Y85832D01*
X112570Y85915D01*
X112540Y85931D01*
X112514Y85952D01*
X112399Y86003D01*
X112287Y86060D01*
X112254Y86067D01*
X112223Y86081D01*
X112099Y86102D01*
X111976Y86130D01*
X111943Y86129D01*
X111910Y86134D01*
X111784Y86124D01*
X111659Y86120D01*
X111626Y86111D01*
X111593Y86108D01*
X111474Y86067D01*
X111353Y86032D01*
X111324Y86014D01*
X111292Y86003D01*
X111188Y85934D01*
X111079Y85870D01*
X111042Y85838D01*
X111027Y85828D01*
X111013Y85812D01*
X110958Y85764D01*
X109912Y84717D01*
X109839Y84624D01*
X109760Y84534D01*
X109742Y84498D01*
X109717Y84466D01*
X109670Y84357D01*
X109616Y84251D01*
X109607Y84211D01*
X109591Y84174D01*
X109572Y84057D01*
X109546Y83941D01*
X109547Y83900D01*
X109541Y83860D01*
X109552Y83742D01*
X109556Y83623D01*
X109567Y83584D01*
X109571Y83544D01*
X109611Y83432D01*
X109644Y83317D01*
X109665Y83282D01*
X109678Y83244D01*
X109745Y83146D01*
X109806Y83043D01*
X109846Y82998D01*
X109857Y82981D01*
X109872Y82968D01*
X109912Y82922D01*
X110293Y82542D01*
X110293Y69858D01*
X109912Y69477D01*
X109839Y69383D01*
X109760Y69294D01*
X109742Y69258D01*
X109717Y69226D01*
X109670Y69117D01*
X109616Y69011D01*
X109607Y68972D01*
X109591Y68934D01*
X109572Y68817D01*
X109546Y68701D01*
X109547Y68660D01*
X109541Y68620D01*
X109552Y68502D01*
X109556Y68383D01*
X109567Y68344D01*
X109571Y68304D01*
X109611Y68191D01*
X109644Y68077D01*
X109665Y68042D01*
X109678Y68004D01*
X109745Y67906D01*
X109806Y67803D01*
X109846Y67758D01*
X109857Y67741D01*
X109872Y67728D01*
X109912Y67682D01*
X110958Y66636D01*
X111058Y66559D01*
X111153Y66477D01*
X111183Y66462D01*
X111210Y66441D01*
X111325Y66391D01*
X111438Y66335D01*
X111471Y66328D01*
X111501Y66315D01*
X111626Y66295D01*
X111749Y66269D01*
X111782Y66270D01*
X111816Y66265D01*
X111941Y66277D01*
X112066Y66282D01*
X112099Y66292D01*
X112132Y66295D01*
X112250Y66338D01*
X112371Y66374D01*
X112400Y66391D01*
X112431Y66403D01*
X112536Y66473D01*
X112643Y66538D01*
X112667Y66562D01*
X112695Y66581D01*
X112778Y66675D01*
X112866Y66765D01*
X112893Y66806D01*
X112905Y66820D01*
X112915Y66839D01*
X112955Y66899D01*
X113133Y67208D01*
X113608Y67682D01*
X113681Y67777D01*
X113760Y67866D01*
X113778Y67902D01*
X113803Y67934D01*
X113850Y68043D01*
X113904Y68149D01*
X113913Y68188D01*
X113929Y68226D01*
X113948Y68343D01*
X113974Y68459D01*
X113973Y68500D01*
X113979Y68540D01*
X113968Y68658D01*
X113964Y68777D01*
X113953Y68816D01*
X113949Y68856D01*
X113909Y68968D01*
X113876Y69083D01*
X113855Y69118D01*
X113842Y69156D01*
X113775Y69254D01*
X113714Y69357D01*
X113674Y69402D01*
X113663Y69419D01*
X113648Y69432D01*
X113639Y69442D01*
X113366Y69915D01*
X113227Y70432D01*
X113227Y73701D01*
X117761Y73701D01*
X117761Y62190D01*
X117776Y62072D01*
X117783Y61953D01*
X117795Y61915D01*
X117801Y61875D01*
X117844Y61764D01*
X117881Y61651D01*
X117903Y61617D01*
X117918Y61579D01*
X117987Y61483D01*
X118051Y61382D01*
X118081Y61354D01*
X118104Y61322D01*
X118196Y61246D01*
X118283Y61164D01*
X118318Y61145D01*
X118349Y61119D01*
X118457Y61068D01*
X118561Y61011D01*
X118601Y61001D01*
X118637Y60983D01*
X118744Y60963D01*
X118714Y60959D01*
X118604Y60915D01*
X118491Y60879D01*
X118456Y60857D01*
X118419Y60842D01*
X118322Y60772D01*
X118222Y60709D01*
X118194Y60679D01*
X118161Y60655D01*
X118085Y60564D01*
X118004Y60477D01*
X117984Y60442D01*
X117959Y60410D01*
X117908Y60303D01*
X117850Y60198D01*
X117840Y60159D01*
X117823Y60123D01*
X117801Y60006D01*
X117771Y59890D01*
X117767Y59830D01*
X117763Y59810D01*
X117765Y59790D01*
X117761Y59730D01*
X117761Y48220D01*
X117776Y48102D01*
X117783Y47983D01*
X117795Y47945D01*
X117801Y47905D01*
X117844Y47794D01*
X117881Y47681D01*
X117903Y47647D01*
X117918Y47609D01*
X117987Y47513D01*
X118051Y47412D01*
X118081Y47384D01*
X118104Y47352D01*
X118196Y47276D01*
X118283Y47194D01*
X118318Y47175D01*
X118349Y47149D01*
X118457Y47098D01*
X118561Y47041D01*
X118601Y47031D01*
X118637Y47013D01*
X118744Y46993D01*
X118714Y46989D01*
X118604Y46945D01*
X118491Y46909D01*
X118456Y46887D01*
X118419Y46872D01*
X118322Y46802D01*
X118222Y46739D01*
X118194Y46709D01*
X118161Y46685D01*
X118085Y46594D01*
X118004Y46507D01*
X117984Y46472D01*
X117959Y46440D01*
X117908Y46333D01*
X117850Y46228D01*
X117840Y46189D01*
X117823Y46153D01*
X117801Y46036D01*
X117771Y45920D01*
X117767Y45860D01*
X117763Y45840D01*
X117765Y45820D01*
X117761Y45760D01*
X117761Y39446D01*
X117773Y39348D01*
X117776Y39249D01*
X117793Y39190D01*
X117801Y39130D01*
X117837Y39038D01*
X117865Y38943D01*
X117895Y38891D01*
X117918Y38835D01*
X117976Y38755D01*
X118026Y38669D01*
X118092Y38594D01*
X118104Y38577D01*
X118114Y38569D01*
X118132Y38548D01*
X120066Y36614D01*
X120145Y36554D01*
X120217Y36486D01*
X120270Y36457D01*
X120318Y36420D01*
X120409Y36380D01*
X120495Y36332D01*
X120554Y36317D01*
X120609Y36293D01*
X120707Y36278D01*
X120803Y36253D01*
X120903Y36247D01*
X120923Y36243D01*
X120936Y36245D01*
X120964Y36243D01*
X126602Y36243D01*
X127793Y35052D01*
X127793Y23368D01*
X127547Y23122D01*
X127474Y23028D01*
X127395Y22939D01*
X127377Y22903D01*
X127352Y22871D01*
X127305Y22762D01*
X127251Y22656D01*
X127242Y22616D01*
X127226Y22579D01*
X127207Y22462D01*
X127181Y22346D01*
X127182Y22305D01*
X127176Y22265D01*
X127187Y22146D01*
X127191Y22028D01*
X127202Y21989D01*
X127206Y21949D01*
X127246Y21836D01*
X127279Y21722D01*
X127300Y21687D01*
X127313Y21649D01*
X127380Y21551D01*
X127441Y21448D01*
X127481Y21403D01*
X127492Y21386D01*
X127507Y21373D01*
X127547Y21327D01*
X127793Y21082D01*
X127793Y9398D01*
X126602Y8207D01*
X124774Y8207D01*
X124676Y8195D01*
X124577Y8192D01*
X124518Y8175D01*
X124458Y8167D01*
X124366Y8131D01*
X124271Y8103D01*
X124219Y8073D01*
X124163Y8050D01*
X124082Y7992D01*
X123997Y7942D01*
X123922Y7876D01*
X123905Y7864D01*
X123897Y7854D01*
X123876Y7836D01*
X123288Y7248D01*
X123203Y7138D01*
X123114Y7031D01*
X123106Y7012D01*
X123093Y6996D01*
X123038Y6868D01*
X122979Y6743D01*
X122975Y6723D01*
X122967Y6704D01*
X122945Y6566D01*
X122919Y6430D01*
X122920Y6410D01*
X122917Y6390D01*
X122930Y6251D01*
X122939Y6113D01*
X122945Y6094D01*
X122947Y6074D01*
X122994Y5943D01*
X123037Y5811D01*
X123048Y5793D01*
X123055Y5774D01*
X123132Y5660D01*
X123207Y5542D01*
X123222Y5528D01*
X123233Y5511D01*
X123337Y5419D01*
X123439Y5324D01*
X123456Y5314D01*
X123472Y5301D01*
X123595Y5238D01*
X123717Y5170D01*
X123737Y5165D01*
X123755Y5156D01*
X123891Y5126D01*
X124025Y5091D01*
X124053Y5089D01*
X124065Y5086D01*
X124086Y5087D01*
X124186Y5081D01*
X234639Y5081D01*
X234777Y5098D01*
G37*
G36*
X23976Y5096D02*
X23976Y5096D01*
X24095Y5103D01*
X24133Y5116D01*
X24174Y5121D01*
X24284Y5164D01*
X24397Y5201D01*
X24432Y5223D01*
X24469Y5238D01*
X24565Y5307D01*
X24666Y5371D01*
X24694Y5401D01*
X24727Y5424D01*
X24803Y5516D01*
X24884Y5603D01*
X24904Y5638D01*
X24929Y5669D01*
X24980Y5777D01*
X25038Y5881D01*
X25048Y5921D01*
X25065Y5957D01*
X25087Y6074D01*
X25117Y6189D01*
X25121Y6249D01*
X25125Y6269D01*
X25123Y6290D01*
X25127Y6350D01*
X25127Y41605D01*
X25140Y41621D01*
X25182Y41718D01*
X25232Y41811D01*
X25245Y41864D01*
X25266Y41913D01*
X25283Y42018D01*
X25308Y42120D01*
X25308Y42174D01*
X25316Y42227D01*
X25306Y42333D01*
X25305Y42438D01*
X25289Y42522D01*
X25287Y42544D01*
X25281Y42558D01*
X25274Y42596D01*
X25127Y43142D01*
X25127Y43891D01*
X43160Y43891D01*
X61193Y43891D01*
X61193Y43142D01*
X61046Y42596D01*
X61032Y42491D01*
X61009Y42388D01*
X61010Y42334D01*
X61003Y42281D01*
X61015Y42176D01*
X61018Y42070D01*
X61033Y42018D01*
X61040Y41965D01*
X61078Y41866D01*
X61107Y41765D01*
X61134Y41718D01*
X61153Y41668D01*
X61193Y41613D01*
X61193Y37840D01*
X61208Y37722D01*
X61215Y37603D01*
X61228Y37565D01*
X61233Y37524D01*
X61276Y37414D01*
X61313Y37301D01*
X61335Y37266D01*
X61350Y37229D01*
X61419Y37133D01*
X61483Y37032D01*
X61513Y37004D01*
X61536Y36971D01*
X61628Y36895D01*
X61715Y36814D01*
X61750Y36794D01*
X61781Y36769D01*
X61889Y36718D01*
X61993Y36660D01*
X62033Y36650D01*
X62069Y36633D01*
X62186Y36611D01*
X62301Y36581D01*
X62361Y36577D01*
X62381Y36573D01*
X62402Y36575D01*
X62462Y36571D01*
X73836Y36571D01*
X73934Y36583D01*
X74033Y36586D01*
X74091Y36603D01*
X74151Y36611D01*
X74243Y36647D01*
X74339Y36675D01*
X74391Y36705D01*
X74447Y36728D01*
X74527Y36786D01*
X74612Y36836D01*
X74688Y36902D01*
X74704Y36914D01*
X74712Y36924D01*
X74733Y36942D01*
X77479Y39688D01*
X77539Y39766D01*
X77607Y39838D01*
X77636Y39891D01*
X77673Y39939D01*
X77713Y40030D01*
X77761Y40117D01*
X77776Y40175D01*
X77800Y40231D01*
X77815Y40329D01*
X77840Y40425D01*
X77846Y40525D01*
X77850Y40545D01*
X77848Y40557D01*
X77850Y40585D01*
X77850Y40695D01*
X77838Y40793D01*
X77835Y40892D01*
X77818Y40950D01*
X77810Y41010D01*
X77774Y41102D01*
X77746Y41198D01*
X77716Y41250D01*
X77693Y41306D01*
X77635Y41386D01*
X77585Y41471D01*
X77519Y41547D01*
X77507Y41563D01*
X77497Y41571D01*
X77479Y41592D01*
X71893Y47178D01*
X71815Y47238D01*
X71743Y47306D01*
X71690Y47335D01*
X71642Y47372D01*
X71551Y47412D01*
X71464Y47460D01*
X71406Y47475D01*
X71350Y47499D01*
X71252Y47514D01*
X71156Y47539D01*
X71056Y47545D01*
X71036Y47549D01*
X71024Y47547D01*
X70996Y47549D01*
X62462Y47549D01*
X62344Y47534D01*
X62225Y47527D01*
X62187Y47514D01*
X62146Y47509D01*
X62036Y47466D01*
X61923Y47429D01*
X61888Y47407D01*
X61851Y47392D01*
X61755Y47323D01*
X61654Y47259D01*
X61626Y47229D01*
X61593Y47206D01*
X61517Y47114D01*
X61436Y47027D01*
X61416Y46992D01*
X61391Y46961D01*
X61340Y46853D01*
X61282Y46749D01*
X61272Y46709D01*
X61255Y46673D01*
X61233Y46556D01*
X61203Y46441D01*
X61202Y46429D01*
X43160Y46429D01*
X25127Y46429D01*
X25127Y47178D01*
X25274Y47724D01*
X25288Y47829D01*
X25311Y47932D01*
X25310Y47986D01*
X25317Y48039D01*
X25305Y48144D01*
X25302Y48250D01*
X25287Y48302D01*
X25280Y48355D01*
X25243Y48454D01*
X25213Y48555D01*
X25186Y48602D01*
X25166Y48652D01*
X25127Y48707D01*
X25127Y91152D01*
X26318Y92343D01*
X60002Y92343D01*
X60110Y92234D01*
X60189Y92174D01*
X60261Y92106D01*
X60314Y92077D01*
X60362Y92040D01*
X60452Y92000D01*
X60539Y91952D01*
X60598Y91937D01*
X60653Y91913D01*
X60751Y91898D01*
X60847Y91873D01*
X60947Y91867D01*
X60967Y91863D01*
X60980Y91865D01*
X61008Y91863D01*
X64146Y91863D01*
X64244Y91875D01*
X64343Y91878D01*
X64402Y91895D01*
X64462Y91903D01*
X64554Y91939D01*
X64649Y91967D01*
X64701Y91997D01*
X64757Y92020D01*
X64837Y92078D01*
X64923Y92128D01*
X64998Y92194D01*
X65015Y92206D01*
X65023Y92216D01*
X65044Y92234D01*
X72632Y99823D01*
X94458Y99823D01*
X94576Y99838D01*
X94695Y99845D01*
X94733Y99858D01*
X94774Y99863D01*
X94884Y99906D01*
X94997Y99943D01*
X95032Y99965D01*
X95069Y99980D01*
X95165Y100049D01*
X95266Y100113D01*
X95294Y100143D01*
X95327Y100166D01*
X95403Y100258D01*
X95484Y100345D01*
X95504Y100380D01*
X95529Y100411D01*
X95580Y100519D01*
X95638Y100623D01*
X95648Y100663D01*
X95665Y100699D01*
X95687Y100816D01*
X95717Y100931D01*
X95721Y100991D01*
X95725Y101011D01*
X95723Y101032D01*
X95727Y101092D01*
X95727Y112930D01*
X95712Y113048D01*
X95705Y113167D01*
X95692Y113205D01*
X95687Y113246D01*
X95644Y113356D01*
X95607Y113469D01*
X95585Y113504D01*
X95570Y113541D01*
X95501Y113637D01*
X95437Y113738D01*
X95407Y113766D01*
X95384Y113799D01*
X95292Y113875D01*
X95205Y113956D01*
X95170Y113976D01*
X95139Y114001D01*
X95031Y114052D01*
X94927Y114110D01*
X94887Y114120D01*
X94851Y114137D01*
X94734Y114159D01*
X94619Y114189D01*
X94559Y114193D01*
X94539Y114197D01*
X94518Y114195D01*
X94458Y114199D01*
X5840Y114199D01*
X5722Y114184D01*
X5603Y114177D01*
X5565Y114164D01*
X5524Y114159D01*
X5414Y114116D01*
X5301Y114079D01*
X5266Y114057D01*
X5229Y114042D01*
X5133Y113973D01*
X5032Y113909D01*
X5004Y113879D01*
X4971Y113856D01*
X4895Y113764D01*
X4814Y113677D01*
X4794Y113642D01*
X4769Y113611D01*
X4718Y113503D01*
X4660Y113399D01*
X4650Y113359D01*
X4633Y113323D01*
X4611Y113206D01*
X4581Y113091D01*
X4577Y113031D01*
X4573Y113011D01*
X4575Y112990D01*
X4571Y112930D01*
X4571Y6350D01*
X4586Y6232D01*
X4593Y6113D01*
X4606Y6075D01*
X4611Y6034D01*
X4654Y5924D01*
X4691Y5811D01*
X4713Y5776D01*
X4728Y5739D01*
X4797Y5643D01*
X4861Y5542D01*
X4891Y5514D01*
X4914Y5481D01*
X5006Y5405D01*
X5093Y5324D01*
X5128Y5304D01*
X5159Y5279D01*
X5267Y5228D01*
X5371Y5170D01*
X5411Y5160D01*
X5447Y5143D01*
X5564Y5121D01*
X5679Y5091D01*
X5739Y5087D01*
X5759Y5083D01*
X5780Y5085D01*
X5840Y5081D01*
X23858Y5081D01*
X23976Y5096D01*
G37*
%LPC*%
G36*
X147718Y86947D02*
X147718Y86947D01*
X146527Y88138D01*
X146527Y89408D01*
X146512Y89526D01*
X146505Y89645D01*
X146492Y89683D01*
X146487Y89724D01*
X146444Y89834D01*
X146407Y89947D01*
X146385Y89982D01*
X146370Y90019D01*
X146301Y90115D01*
X146237Y90216D01*
X146207Y90244D01*
X146184Y90277D01*
X146092Y90353D01*
X146005Y90434D01*
X145970Y90454D01*
X145939Y90479D01*
X145831Y90530D01*
X145727Y90588D01*
X145687Y90598D01*
X145651Y90615D01*
X145534Y90637D01*
X145419Y90667D01*
X145359Y90671D01*
X145339Y90675D01*
X145318Y90673D01*
X145258Y90677D01*
X144095Y90677D01*
X143997Y90665D01*
X143898Y90662D01*
X143840Y90645D01*
X143780Y90637D01*
X143688Y90601D01*
X143593Y90573D01*
X143541Y90543D01*
X143484Y90520D01*
X143404Y90462D01*
X143319Y90412D01*
X143243Y90346D01*
X143227Y90334D01*
X143219Y90324D01*
X143198Y90306D01*
X141812Y88919D01*
X139617Y88010D01*
X137243Y88010D01*
X135048Y88919D01*
X133369Y90598D01*
X132460Y92793D01*
X132460Y95167D01*
X133369Y97362D01*
X135048Y99041D01*
X137243Y99950D01*
X139617Y99950D01*
X141812Y99041D01*
X143198Y97654D01*
X143276Y97594D01*
X143348Y97526D01*
X143401Y97497D01*
X143449Y97460D01*
X143540Y97420D01*
X143627Y97372D01*
X143685Y97357D01*
X143741Y97333D01*
X143839Y97318D01*
X143935Y97293D01*
X144035Y97287D01*
X144055Y97283D01*
X144067Y97285D01*
X144095Y97283D01*
X145258Y97283D01*
X145376Y97298D01*
X145495Y97305D01*
X145533Y97318D01*
X145574Y97323D01*
X145684Y97366D01*
X145797Y97403D01*
X145832Y97425D01*
X145869Y97440D01*
X145965Y97509D01*
X146066Y97573D01*
X146094Y97603D01*
X146127Y97626D01*
X146203Y97718D01*
X146284Y97805D01*
X146304Y97840D01*
X146329Y97871D01*
X146380Y97979D01*
X146438Y98083D01*
X146448Y98123D01*
X146465Y98159D01*
X146487Y98276D01*
X146517Y98391D01*
X146521Y98451D01*
X146525Y98471D01*
X146523Y98492D01*
X146527Y98552D01*
X146527Y99822D01*
X147718Y101013D01*
X160402Y101013D01*
X161758Y99656D01*
X161858Y99579D01*
X161953Y99497D01*
X161983Y99482D01*
X162010Y99461D01*
X162125Y99411D01*
X162238Y99355D01*
X162271Y99348D01*
X162301Y99335D01*
X162426Y99315D01*
X162549Y99289D01*
X162582Y99290D01*
X162616Y99285D01*
X162741Y99297D01*
X162866Y99302D01*
X162899Y99312D01*
X162932Y99315D01*
X163050Y99358D01*
X163171Y99394D01*
X163200Y99411D01*
X163231Y99423D01*
X163336Y99493D01*
X163443Y99558D01*
X163467Y99582D01*
X163495Y99601D01*
X163578Y99696D01*
X163666Y99785D01*
X163693Y99826D01*
X163705Y99840D01*
X163715Y99859D01*
X163755Y99919D01*
X163933Y100228D01*
X164312Y100607D01*
X164775Y100874D01*
X165292Y101013D01*
X168561Y101013D01*
X168561Y95210D01*
X168576Y95092D01*
X168583Y94973D01*
X168595Y94935D01*
X168601Y94895D01*
X168644Y94784D01*
X168681Y94671D01*
X168703Y94637D01*
X168718Y94599D01*
X168787Y94503D01*
X168851Y94402D01*
X168881Y94374D01*
X168904Y94342D01*
X168996Y94266D01*
X169083Y94184D01*
X169118Y94165D01*
X169149Y94139D01*
X169257Y94088D01*
X169361Y94031D01*
X169401Y94021D01*
X169437Y94003D01*
X169544Y93983D01*
X169514Y93979D01*
X169404Y93935D01*
X169291Y93899D01*
X169256Y93877D01*
X169219Y93862D01*
X169122Y93792D01*
X169022Y93729D01*
X168994Y93699D01*
X168961Y93675D01*
X168885Y93584D01*
X168804Y93497D01*
X168784Y93462D01*
X168759Y93430D01*
X168708Y93323D01*
X168650Y93218D01*
X168640Y93179D01*
X168623Y93143D01*
X168601Y93026D01*
X168571Y92910D01*
X168567Y92850D01*
X168563Y92830D01*
X168565Y92810D01*
X168561Y92750D01*
X168561Y86947D01*
X165292Y86947D01*
X164775Y87086D01*
X164312Y87353D01*
X163933Y87732D01*
X163755Y88041D01*
X163679Y88141D01*
X163608Y88245D01*
X163583Y88267D01*
X163563Y88294D01*
X163464Y88372D01*
X163370Y88455D01*
X163340Y88471D01*
X163314Y88492D01*
X163199Y88543D01*
X163087Y88600D01*
X163054Y88607D01*
X163023Y88621D01*
X162899Y88642D01*
X162776Y88670D01*
X162743Y88669D01*
X162710Y88674D01*
X162584Y88664D01*
X162459Y88660D01*
X162426Y88651D01*
X162393Y88648D01*
X162274Y88607D01*
X162153Y88572D01*
X162124Y88554D01*
X162092Y88543D01*
X161987Y88474D01*
X161879Y88410D01*
X161842Y88378D01*
X161827Y88368D01*
X161813Y88352D01*
X161758Y88304D01*
X160402Y86947D01*
X147718Y86947D01*
G37*
%LPD*%
%LPC*%
G36*
X15111Y94567D02*
X15111Y94567D01*
X12526Y95638D01*
X10548Y97616D01*
X9477Y100201D01*
X9477Y102999D01*
X10548Y105584D01*
X12526Y107562D01*
X15111Y108633D01*
X17909Y108633D01*
X20494Y107562D01*
X22472Y105584D01*
X23543Y102999D01*
X23543Y100201D01*
X22472Y97616D01*
X20494Y95638D01*
X17909Y94567D01*
X15111Y94567D01*
G37*
%LPD*%
%LPC*%
G36*
X122759Y93939D02*
X122759Y93939D01*
X122759Y104181D01*
X127793Y104181D01*
X127793Y101412D01*
X127654Y100895D01*
X127387Y100432D01*
X126912Y99957D01*
X126839Y99863D01*
X126760Y99774D01*
X126742Y99738D01*
X126717Y99706D01*
X126670Y99597D01*
X126616Y99491D01*
X126607Y99451D01*
X126591Y99414D01*
X126572Y99297D01*
X126546Y99181D01*
X126547Y99140D01*
X126541Y99100D01*
X126552Y98981D01*
X126556Y98863D01*
X126567Y98824D01*
X126571Y98784D01*
X126611Y98671D01*
X126644Y98557D01*
X126665Y98522D01*
X126678Y98484D01*
X126745Y98386D01*
X126806Y98283D01*
X126846Y98238D01*
X126857Y98221D01*
X126872Y98208D01*
X126912Y98162D01*
X127387Y97688D01*
X127654Y97225D01*
X127793Y96708D01*
X127793Y93939D01*
X122759Y93939D01*
G37*
%LPD*%
%LPC*%
G36*
X122759Y78699D02*
X122759Y78699D01*
X122759Y88941D01*
X127793Y88941D01*
X127793Y86172D01*
X127654Y85655D01*
X127387Y85192D01*
X126912Y84717D01*
X126839Y84623D01*
X126760Y84534D01*
X126742Y84498D01*
X126717Y84466D01*
X126670Y84357D01*
X126616Y84251D01*
X126607Y84211D01*
X126591Y84174D01*
X126572Y84057D01*
X126546Y83940D01*
X126547Y83900D01*
X126541Y83860D01*
X126552Y83742D01*
X126556Y83623D01*
X126567Y83584D01*
X126571Y83544D01*
X126611Y83432D01*
X126644Y83317D01*
X126665Y83282D01*
X126678Y83244D01*
X126745Y83146D01*
X126806Y83043D01*
X126846Y82998D01*
X126857Y82981D01*
X126872Y82968D01*
X126881Y82958D01*
X127154Y82485D01*
X127293Y81968D01*
X127293Y78699D01*
X122759Y78699D01*
G37*
%LPD*%
%LPC*%
G36*
X122759Y63459D02*
X122759Y63459D01*
X122759Y73701D01*
X127293Y73701D01*
X127293Y70432D01*
X127154Y69915D01*
X126870Y69423D01*
X126839Y69383D01*
X126760Y69294D01*
X126742Y69258D01*
X126717Y69226D01*
X126670Y69117D01*
X126616Y69011D01*
X126607Y68971D01*
X126591Y68934D01*
X126572Y68817D01*
X126546Y68701D01*
X126547Y68660D01*
X126541Y68620D01*
X126552Y68501D01*
X126556Y68383D01*
X126567Y68344D01*
X126571Y68304D01*
X126611Y68191D01*
X126644Y68077D01*
X126665Y68042D01*
X126678Y68004D01*
X126745Y67906D01*
X126806Y67803D01*
X126846Y67758D01*
X126857Y67741D01*
X126872Y67728D01*
X126912Y67682D01*
X127387Y67208D01*
X127654Y66745D01*
X127793Y66228D01*
X127793Y63459D01*
X122759Y63459D01*
G37*
%LPD*%
%LPC*%
G36*
X122759Y49489D02*
X122759Y49489D01*
X122759Y58461D01*
X127793Y58461D01*
X127793Y55692D01*
X127654Y55175D01*
X127328Y54610D01*
X127287Y54512D01*
X127238Y54419D01*
X127225Y54366D01*
X127204Y54317D01*
X127189Y54212D01*
X127165Y54109D01*
X127166Y54055D01*
X127158Y54002D01*
X127169Y53897D01*
X127171Y53791D01*
X127185Y53739D01*
X127191Y53686D01*
X127228Y53586D01*
X127256Y53485D01*
X127294Y53408D01*
X127302Y53387D01*
X127311Y53375D01*
X127328Y53340D01*
X127654Y52775D01*
X127793Y52258D01*
X127793Y49489D01*
X122759Y49489D01*
G37*
%LPD*%
%LPC*%
G36*
X250092Y15827D02*
X250092Y15827D01*
X249575Y15966D01*
X249112Y16233D01*
X248616Y16729D01*
X248561Y16772D01*
X248513Y16822D01*
X248436Y16869D01*
X248365Y16924D01*
X248301Y16952D01*
X248257Y16979D01*
X248288Y17119D01*
X248323Y17261D01*
X248323Y17275D01*
X248326Y17287D01*
X248324Y17368D01*
X248327Y17425D01*
X248327Y20361D01*
X257862Y20361D01*
X257861Y20347D01*
X257861Y15827D01*
X250092Y15827D01*
G37*
%LPD*%
%LPC*%
G36*
X248327Y25359D02*
X248327Y25359D01*
X248327Y28128D01*
X248466Y28645D01*
X248733Y29108D01*
X249112Y29487D01*
X249575Y29754D01*
X250092Y29893D01*
X257861Y29893D01*
X257861Y25373D01*
X257862Y25359D01*
X248327Y25359D01*
G37*
%LPD*%
%LPC*%
G36*
X173559Y96479D02*
X173559Y96479D01*
X173559Y101013D01*
X176828Y101013D01*
X177345Y100874D01*
X177808Y100607D01*
X178187Y100228D01*
X178454Y99765D01*
X178593Y99248D01*
X178593Y96479D01*
X173559Y96479D01*
G37*
%LPD*%
%LPC*%
G36*
X173559Y59649D02*
X173559Y59649D01*
X173559Y64183D01*
X176828Y64183D01*
X177345Y64044D01*
X177808Y63777D01*
X178187Y63398D01*
X178454Y62935D01*
X178593Y62418D01*
X178593Y59649D01*
X173559Y59649D01*
G37*
%LPD*%
%LPC*%
G36*
X173559Y86947D02*
X173559Y86947D01*
X173559Y91481D01*
X178593Y91481D01*
X178593Y88712D01*
X178454Y88195D01*
X178187Y87732D01*
X177808Y87353D01*
X177345Y87086D01*
X176828Y86947D01*
X173559Y86947D01*
G37*
%LPD*%
%LPC*%
G36*
X122759Y39957D02*
X122759Y39957D01*
X122759Y44491D01*
X127793Y44491D01*
X127793Y41722D01*
X127654Y41205D01*
X127387Y40742D01*
X127008Y40363D01*
X126545Y40096D01*
X126028Y39957D01*
X122759Y39957D01*
G37*
%LPD*%
D10*
X103260Y15240D03*
X120260Y15240D03*
X120260Y29210D03*
X103260Y29210D03*
X120260Y46990D03*
X103260Y46990D03*
X171060Y93980D03*
X154060Y93980D03*
X120260Y91440D03*
X103260Y91440D03*
X171060Y57150D03*
X154060Y57150D03*
X120260Y106680D03*
X103260Y106680D03*
X120260Y60960D03*
X103260Y60960D03*
D11*
X174060Y40640D03*
X151060Y40640D03*
D12*
X264160Y99060D02*
X289560Y99060D01*
X289560Y73660D02*
X264160Y73660D01*
X264160Y48260D02*
X289560Y48260D01*
X289560Y22860D02*
X264160Y22860D01*
D13*
X293360Y73660D03*
X293360Y22860D03*
X260360Y99060D03*
X260360Y48260D03*
X260360Y22860D03*
X293360Y48260D03*
X260360Y73660D03*
X293360Y99060D03*
D14*
X43160Y7960D03*
X43160Y14160D03*
X43160Y20360D03*
X43160Y26560D03*
X43160Y32760D03*
X43160Y38960D03*
X43160Y45160D03*
X43160Y51360D03*
X43160Y57560D03*
X43160Y63760D03*
X43160Y69960D03*
X43160Y76160D03*
X43160Y82360D03*
X43160Y88560D03*
D15*
X120260Y76200D03*
X103260Y76200D03*
X221860Y73660D03*
X204860Y73660D03*
X221860Y99060D03*
X204860Y99060D03*
X154060Y24130D03*
X171060Y24130D03*
D16*
X16510Y101600D03*
X240030Y12700D03*
D17*
X120260Y15240D02*
X120260Y8890D01*
X86022Y6430D02*
X84492Y7960D01*
X86022Y6430D02*
X117800Y6430D01*
X120260Y8890D01*
X84492Y7960D02*
X43160Y7960D01*
X43160Y14160D02*
X102180Y14160D01*
X103260Y15240D01*
X83860Y20360D02*
X43160Y20360D01*
X83860Y20360D02*
X92710Y29210D01*
X103260Y29210D01*
X81054Y26560D02*
X43160Y26560D01*
X120260Y29210D02*
X120260Y31750D01*
X92514Y38020D02*
X81054Y26560D01*
X113990Y38020D02*
X120260Y31750D01*
X113990Y38020D02*
X92514Y38020D01*
X68580Y82360D02*
X43160Y82360D01*
X74231Y88011D02*
X78740Y88011D01*
D18*
X78740Y88011D03*
X138430Y93980D03*
D17*
X154060Y93980D01*
X74231Y88011D02*
X68580Y82360D01*
X66040Y88560D02*
X43160Y88560D01*
X66040Y88560D02*
X74000Y96520D01*
X98180Y96520D01*
X103260Y91440D01*
X103260Y106680D01*
X66600Y45160D02*
X43160Y45160D01*
X66600Y45160D02*
X69850Y41910D01*
D18*
X69850Y41910D03*
X137160Y50800D03*
D17*
X71120Y76160D02*
X43160Y76160D01*
X71120Y76160D02*
X71140Y76180D01*
X72144Y76180D01*
X76101Y80137D01*
X99323Y80137D01*
X103260Y76200D01*
D19*
X73100Y51360D02*
X43160Y51360D01*
X73100Y51360D02*
X83820Y40640D01*
D18*
X83820Y40640D03*
D19*
X75940Y32760D02*
X43160Y32760D01*
X75940Y32760D02*
X83820Y40640D01*
D17*
X90170Y46990D01*
X103260Y46990D01*
X171060Y34640D02*
X171060Y24130D01*
X171060Y34640D02*
X174060Y40640D01*
X190765Y54345D02*
X204860Y68440D01*
X204860Y73660D02*
X204860Y99060D01*
D18*
X190765Y54345D03*
D12*
X196850Y48260D02*
X260360Y48260D01*
X196850Y48260D02*
X190765Y54345D01*
D17*
X177060Y40640D02*
X174060Y40640D01*
X177060Y40640D02*
X190765Y54345D01*
X103260Y60960D02*
X103260Y46990D01*
X204860Y68440D02*
X204860Y73660D01*
X88900Y66040D02*
X86620Y63760D01*
D18*
X88900Y66040D03*
D17*
X86620Y63760D02*
X43160Y63760D01*
X221860Y73660D02*
X238760Y73660D01*
D18*
X238760Y73660D03*
D17*
X260360Y73660D01*
X77580Y69960D02*
X43160Y69960D01*
X77580Y69960D02*
X80010Y72390D01*
D18*
X80010Y72390D03*
D17*
X221860Y99060D02*
X238760Y99060D01*
D18*
X238760Y99060D03*
D17*
X260360Y99060D01*
X77450Y57560D02*
X43160Y57560D01*
X77450Y57560D02*
X77606Y57404D01*
X83644Y57404D01*
X84914Y56134D01*
D18*
X84914Y56134D03*
D17*
X138430Y66040D02*
X147320Y57150D01*
X154060Y57150D01*
D18*
X138430Y66040D03*
D17*
X154060Y34640D02*
X154060Y24130D01*
X151060Y37640D02*
X151060Y40640D01*
X151060Y37640D02*
X154060Y34640D01*
X151060Y40640D02*
X154060Y43640D01*
X154060Y57150D01*
M02*
